<?xml version="1.0" encoding="UTF-8"?>
<svg id="Layer_2" data-name="Layer 2" xmlns="http://www.w3.org/2000/svg" viewBox="0 0 500 4.4">
  <defs>
    <style>
      .cls-1 {
        fill: none;
        stroke: #004f9d;
        stroke-miterlimit: 10;
        stroke-width: 2px;
      }
    </style>
  </defs>
  <g id="Layer_1-2" data-name="Layer 1">
    <path class="cls-1" d="M500,3.4c-5.95,0-5.95-2.4-11.9-2.4s-5.95,2.4-11.9,2.4-5.95-2.4-11.9-2.4-5.95,2.4-11.9,2.4-5.95-2.4-11.9-2.4-5.95,2.4-11.9,2.4c-5.95,0-5.95-2.4-11.9-2.4-5.95,0-5.95,2.4-11.9,2.4s-5.95-2.4-11.9-2.4c-5.95,0-5.95,2.4-11.9,2.4s-5.95-2.4-11.91-2.4c-5.95,0-5.95,2.4-11.9,2.4-5.96,0-5.96-2.4-11.91-2.4s-5.96,2.4-11.91,2.4c-5.95,0-5.95-2.4-11.9-2.4s-5.95,2.4-11.9,2.4-5.95-2.4-11.9-2.4-5.95,2.4-11.9,2.4-5.95-2.4-11.9-2.4-5.95,2.4-11.9,2.4c-5.95,0-5.95-2.4-11.9-2.4-5.95,0-5.95,2.4-11.9,2.4s-5.95-2.4-11.9-2.4c-5.95,0-5.95,2.4-11.9,2.4s-5.95-2.4-11.91-2.4c-5.95,0-5.95,2.4-11.9,2.4-5.96,0-5.96-2.4-11.91-2.4s-5.96,2.4-11.91,2.4c-5.95,0-5.95-2.4-11.9-2.4s-5.95,2.4-11.9,2.4-5.95-2.4-11.9-2.4-5.95,2.4-11.9,2.4-5.95-2.4-11.9-2.4-5.95,2.4-11.9,2.4c-5.95,0-5.95-2.4-11.9-2.4-5.95,0-5.95,2.4-11.9,2.4s-5.95-2.4-11.9-2.4c-5.95,0-5.95,2.4-11.9,2.4s-5.95-2.4-11.91-2.4c-5.95,0-5.95,2.4-11.9,2.4-5.96,0-5.96-2.4-11.91-2.4S5.96,3.4,0,3.4"/>
  </g>
</svg>