<?xml version="1.0" encoding="UTF-8"?>
<svg id="Layer_2" data-name="Layer 2" xmlns="http://www.w3.org/2000/svg" viewBox="0 0 98.45 187.31">
  <defs>
    <style>
      .cls-1, .cls-2 {
        fill: #c32126;
      }

      .cls-2 {
        fill-rule: evenodd;
      }

      .cls-3 {
        fill: #231815;
      }
    </style>
  </defs>
  <g id="Layer_1-2" data-name="Layer 1">
    <g>
      <g>
        <path class="cls-3" d="M79.5,106.33v2.02c0,.38,.14,.78,.56,.78h1.8c.68,0,1.36-.06,2.04-.06,.76,0,1.08,.25,1.08,1.11,0,.63-.04,1.28-.06,1.91l-.14,7.05c0,.17-.02,.34-.02,.5,0,.46,.16,.48,.54,.48h1.32c.41,0,.55-.02,.65-.45,.06-.31,.16-1.27,.18-1.59,.02-.41,.02-.63,.51-.63,.43,0,1.02,.12,1.45,.29,.47,.16,.92,.43,.92,.98,0,.9-.35,2.2-.59,3.06-.39,1.29-1.24,1.35-2.41,1.35h-1.83c-1.87,0-3.13,.19-3.13-1.94,0-.58,.04-1.17,.06-1.75l.12-6.83c0-.29-.17-.48-.5-.48h-1.85c-.49,0-.55,.42-.57,.78-.15,1.75-.44,3.55-1.2,5.13-1.06,2.26-2.66,3.74-4.69,5.09-.17,.13-.36,.23-.57,.23-.72,0-2.03-1.63-2.03-2.3,0-.21,.17-.32,.32-.4,2.79-1.71,4.41-3.53,4.9-6.82,.04-.34,.11-.95,.11-1.27s-.15-.44-.46-.44h-.36c-.85,0-1.71,.06-2.56,.06-.55,0-.59-.25-.59-.91v-1.25c0-.74,.04-.97,.59-.97,.85,0,1.71,.06,2.56,.06h.31c.52,0,.54-.57,.54-.86v-1.98c0-.29-.04-.88-.04-1.03,0-.42,.3-.42,.5-.42,.36,0,2.56,.13,2.82,.19,.14,.04,.24,.15,.24,.31,0,.15-.14,.23-.26,.3-.26,.21-.26,.38-.26,.69Z"/>
        <path class="cls-1" d="M70.95,139.26c.47-1.36,.8-2.98,.93-4.4,.04-.5,.06-.6,.24-.6,.04,0,1.27,.22,1.84,.3,.13,.02,.15,.02,.24,.04,.19,.04,.54,.13,.54,.37,0,.13-.15,.22-.22,.24-.19,.09-.24,.15-.26,.37-.15,1.34-.45,3.07-.86,4.34-.15,.47-.19,.56-.47,.56-.73,0-2.05-.45-2.05-.91,0-.09,.04-.22,.09-.3Zm3.56-9.63c.42-.3,1-.89,1-.89v-.11s-.5-.3-.28-.3,1.01,.09,1.27,.11c1.32,.13,1.64,.13,1.64,.43,0,.13-.09,.19-.19,.3-.15,.15-.44,.63-.44,.63v3.98c0,.32,.16,.52,.5,.52,.13,0,.34-.04,.5-.09,.11-.05,.27-.07,.38-.07,.5,0,.54,.38,1.02,1.76,.04,.16,.18,.56,.38,.56,.18,0,.23-.43,.23-.54v-4.96l1-1.06v-.22s-.75-.26-.56-.26c.63,0,1.64,.02,2.27,.06,.28,.02,.69,.04,.69,.3,0,.11-.06,.17-.22,.28-.13,.11-.17,.3-.19,.5-.02,.26,.01,2.31,.01,2.31v1.21c0,.24,.06,.51,.33,.51,.16,0,.37-.1,.51-.16,.16-.06,.43-.14,.65-.14,.35,0,.43,.29,.98,1.84,.06,.18,.18,.61,.37,.61,.16,0,.16-.29,.16-.41v-5.14c0-.69,0-1.4-.07-1.99-.02-.11-.02-.15-.02-.24,0-.24,.22-.26,.43-.26,.65,0,1.72,.04,2.4,.09,.34,.02,.72,.02,.72,.28,0,.13-.09,.22-.2,.3-.16,.13-.2,.28-.22,.47-.02,.26-.02,1.94-.02,2.33v11.77c0,1.21,.07,2.42,.07,3.61,0,.5-.2,.54-.92,.54h-1.04s-.91-.34-.91-.79c0-1.23,.06-2.44-.21-3.65v-3.97c.27-.13,.23-.3,.08-.3-.13,0-.39,.13-.52,.17-.28,.13-.86,.35-1.17,.35-.32,0-.39-.26-.45-.54-.11-.47-.26-.99-.41-1.47-.09-.28-.24-.91-.43-.91-.11,0-.13,.17-.1,.26v5.1c-.03,1.21,.01,2.42,.01,3.63,0,.47-.82,1.13-.82,1.13h-1.31c-.7,0-.95-.04-.95-.5,0-1.21,.07-2.44,.07-3.65v-2.12c0-.3-.02-.67-.43-.67-.25,0-.54,.11-.77,.17-.2,.06-.59,.17-.79,.17-.29,0-.36-.28-.39-.5,0-.04-.02-.11-.05-.22-.11-.54-.38-1.75-.59-1.75-.16,0-.18,.43-.18,.54-.2,2.25-.7,4.53-1.72,6.56-.52,1.01-1.38,2.33-2.24,3.11-.14,.13-.2,.17-.38,.17-.75,0-2.44-1.04-2.44-1.53,0-.15,.14-.28,.25-.37,.29-.3,.93-1.12,1.2-1.49,.86-1.21,1.52-2.55,1.9-3.97,.5-1.79,.63-3.91,.63-5.76v-5.71Z"/>
        <path class="cls-3" d="M87.27,154.73c1.53,1.53,2.29,3.41,2.29,5.55,0,3.04-1.66,5.72-4.34,7.17-.54,.3-1.96,.97-2.57,.97-.76,0-1.9-1.99-1.9-2.59,0-.19,.19-.28,.82-.43,2.5-.65,4.56-2.22,4.56-4.99,0-3.39-2.59-4.73-3.24-4.73-.37,0-.41,.39-.43,.78-.24,3-1.1,6.67-3.09,9.05-.8,.97-1.84,1.79-3.13,1.79-1.45,0-2.63-.99-3.28-2.22-.5-.95-.71-2.18-.71-3.24,0-5.18,3.99-9.31,9.2-9.31,2.2,0,4.27,.65,5.83,2.2Zm-11.81,7.06c0,.52,.13,2.09,.89,2.09,.52,0,1.25-1.43,1.47-1.88,.76-1.55,1.36-4.75,1.36-5.53,0-.17-.09-.32-.28-.32-.63,0-3.43,1.99-3.43,5.64Z"/>
        <path class="cls-1" d="M57.58,120.28c-.11,.06-.34,.15-.34,.3,0,.32,2.63,.69,3.03,.76,.34,.04,.54,.13,.54,.5,0,.76-.65,2.46-1.57,2.46-.22,0-.61-.09-.85-.15-2.22-.54-4.64-1.6-6.37-3.04-.09-.06-.22-.22-.34-.22-.18,0-.18,.17-.18,.35v.32c0,.84-.2,.97-.72,1.1-1.75,.45-5.16,.95-7.05,1.19-.34,.04-.31,.04-.45,.3-.07,.13-.11,.26-.38,.26-.34,0-.4-.26-.49-.54-.11-.37-.67-2.16-.67-2.4,0-.45,.56-.43,.9-.45,1.75-.09,1.86-.13,1.86-.93v-6.74c0-.26-.02-.43-.22-.43-.18,0-.62,.28-.79,.39-.24,.15-.62,.35-.9,.35-.75,0-1.91-1.77-1.91-2.29,0-.26,.31-.37,.66-.54,2.92-1.43,5.8-3.24,7.67-5.89,.2-.28,.29-.39,.53-.39,.44,0,2.75,.47,3.36,.6,.09,.02,.31,.13,.31,.32,0,.15-.11,.24-.2,.32-.04,.04-.07,.11-.07,.17,0,.19,.57,.73,.73,.88,1.93,1.88,4.18,3.04,6.66,4.04,.18,.06,.29,.15,.29,.37,0,.63-.86,2.53-1.58,2.53-.31,0-1.47-.65-1.82-.86-.18-.11-.35-.22-.48-.22-.2,0-.22,.15-.22,.47v1.9c0,.54,.02,1.1,.02,1.66,0,.26,0,.39,.15,.39h.41c.18,0,.36,.11,.52,.22,.65,.45,1.26,.93,1.91,1.38,.14,.11,.4,.28,.4,.45,0,.13-.09,.28-.25,.28-.13,0-.34-.09-.45-.09-.07,0-.16,.04-.22,.06-.49,.26-.94,.56-1.41,.84Zm-4.52-7.15c.15,.13,.28,0,.44-.15v-.13c-.16-.15-.29-.28-.44-.72h-5.29c-.15,.44-.26,.57-.27,.72v.13c.01,.17,.12,.28,.27,.15h5.29Zm-5.29,2c-.15-.1-.26,.03-.27,.18v.13c.01,.15,.12,.28,.27,.69h5.29c.15-.41,.28-.54,.44-.69v-.13c-.16-.17-.29-.28-.44-.18h-5.29Zm.33,3c-.35,0-.6,.26-.6,.6v1.21c0,.41,.04,.63,.41,.63,.3,0,1.73-.26,2.03-.32,.19-.04,.41-.13,.41-.35,0-.13-.11-.28-.3-.56-.17-.28-.43-.69-.54-.86-.19-.3-.52-.35-.91-.35h-.5Zm.33-8c.41,0,.73-.13,.73-.63,0-.19-.06-.6-.06-.8,0-.26,.15-.32,.39-.32,.28,0,1.51,.13,1.86,.15,.09,.02,.22,.04,.32,.04,.06,0,.15-.04,.15-.13,0-.06-.24-.32-.5-.58-.11-.11-.22-.19-.3-.3-.13-.13-.28-.32-.47-.32s-.39,.24-.6,.45c-.67,.65-1.36,1.27-2.07,1.86-.11,.11-.35,.26-.35,.41s.17,.17,.43,.17h.47Zm4.73,0c.28,0,.37-.02,.37-.17,0-.04-.06-.15-.11-.19-.19-.19-.58-.45-.71-.58-.04-.04-.13-.09-.22-.09-.24,0-.5,.28-.5,.5,0,.28,.19,.54,.78,.54h.39Zm-.24,8c-.28,0-.43,0-.43,.17,0,.19,1.04,1.1,1.45,1.1,.35,0,1.38-.89,1.38-1.08,0-.15-.24-.17-.37-.17-.56,0-1.12-.02-1.68-.02h-.35Z"/>
        <path class="cls-3" d="M50.41,143.06c-.58,0-2.87-.13-3.2-.6-.13-.19-.24-2.01-.24-2.35,0-.3,.15-.47,.45-.47s1.04,.22,1.34,.3c.28,.09,.65,.13,.93,.13,.45,0,.76-.13,.76-.63,0-.45-.41-1.29-.93-1.29-.24,0-.99,.45-1.25,.6-1.32,.82-3.3,2.03-4.53,2.92-.35,.24-.37,.26-.56,.58-.11,.17-.19,.32-.37,.32-.24,0-.69-.8-.95-1.25-.43-.73-.91-1.58-.91-1.88,0-.24,.26-.32,.69-.47,1.01-.37,4.15-2.16,5.35-2.78,.24-.13,.39-.28,.39-.54,0-.13-.04-.22-.11-.32-.22-.41-.32-.86-.32-1.32,0-.86,.56-2.91,1.32-2.91,.35,0,2.48,.71,2.48,1.04,0,.06-.06,.17-.17,.35-.19,.32-.5,.82-.5,1.38,0,.37,.41,.88,.8,.88,.09,0,.15-.02,.24-.02,.32-.04,.56-.06,.89-.06,2.48,0,4.47,.93,6.2,2.68,.45,.45,2.16,2.44,2.16,3,0,.47-2.2,1.71-2.76,1.71-.24,0-.39-.3-.54-.63-.69-1.38-1.4-2.53-2.74-3.37-.24-.15-.52-.3-.67-.3-.13,0-.26,.11-.26,.28,0,.09,.02,.15,.06,.24,.3,.56,.5,1.45,.5,2.09,0,2.22-1.62,2.72-3.54,2.72Zm-1.34-16.15c.26,0,1.99,.84,2.31,1.01,.39,.19,2.25,1.1,2.25,1.49,0,.43-.73,1.53-.99,1.92-.17,.26-.47,.69-.71,.69-.17,0-.37-.17-.47-.28-.95-.84-2.22-1.53-3.35-2.07-.32-.15-.52-.24-.52-.47,0-.3,.91-2.29,1.49-2.29Z"/>
        <path class="cls-1" d="M49.48,148.46c.17,.04,.47,.13,.47,.3,0,.09-.09,.15-.15,.17-.35,.19-.39,.45-.5,.99-.54,2.66-.69,5.38-.69,8.07,0,1.71,0,3.45,1.73,3.45,1.36,0,2.66-.8,3.48-1.83,.71-.89,1.19-2.03,1.38-3.13,.09-.43,.15-.82,.52-.82,.47,0,1.12,.58,1.47,.88,.39,.35,1.04,.93,1.04,1.47,0,.65-.6,2.07-.93,2.66-1.38,2.55-3.82,4.23-6.78,4.23-1.53,0-3.17-.52-4.17-1.77-1.08-1.38-1.21-3.67-1.21-5.4,0-2.48,.22-5.14,.39-7.47,.04-.45,.06-1.19,.06-1.68s0-.76,.37-.76c.5,0,2.83,.47,3.52,.63Z"/>
        <path class="cls-3" d="M51.14,170.64c.26,0,1.08-.45,1.36-.6,.17-.09,.43-.22,.63-.22,.5,0,1.27,1.79,1.27,2.31,0,.35-.26,.52-.54,.67-.41,.24-.86,.45-1.34,.65-.19,.09-.43,.17-.43,.39,0,.06,.06,.41,.32,.41,.41,0,1.77-.82,2.18-1.08,.17-.11,.47-.28,.67-.28,.32,0,.6,.45,.8,.78,.26,.41,.73,1.17,.73,1.53,0,.35-.41,.56-1.17,.91-.54,.26-.91,.43-1.38,.63-.24,.11-.43,.26-.43,.54,0,.45,1.32,2.55,1.92,3.3,.26,.3,.6,.71,.6,1.12,0,.56-1.75,1.81-2.31,1.81-.24,0-.39-.17-.6-.39-.93-.86-2.27-1.34-3.54-1.34-.61,0-1.62,.19-1.62,.99,0,1.21,1.99,1.38,2.85,1.38,.47,0,.95-.06,1.43-.11,.22-.02,.47-.06,.69-.06,.52,0,.63,.35,.63,1.27,0,2.03-.35,2.05-1.01,2.05-1.14,0-2.42-.02-3.45-.19-2.22-.39-4.17-1.75-4.17-4.23,0-2.61,2.03-3.86,4.43-3.86,.39,0,.8,.04,1.17,.11h.09c.15,0,.32-.11,.32-.3,0-.04-.04-.19-.19-.45-.11-.19-.24-.35-.47-.35-.09,0-.15,.02-.22,.04-1.25,.37-4.38,.97-5.64,.97-.32,0-.43-.15-.56-.43-.22-.52-.5-1.64-.5-2.2,0-.39,.19-.47,1.06-.52,1.25-.06,2.96-.22,4.25-.54,.19-.04,.37-.13,.37-.35,0-.17-.15-.39-.32-.39-.09,0-.22,.04-.28,.06-.65,.15-2.09,.41-2.72,.41-.39,0-.5-.22-.63-.54-.15-.41-.47-1.49-.47-1.92,0-.45,.32-.56,1.01-.6,1.06-.06,1.71-.09,1.71-.63,0-.15-.13-.37-.28-.63-.13-.22-.45-.73-.45-.93,0-.37,.65-.56,.93-.65,.63-.19,1.34-.41,1.77-.41,.54,0,.63,.28,.84,.93,.22,.67,.32,.93,.71,.93Zm7.19,1.06c0,.41-1.06,1.19-1.3,1.19-.13,0-.26-.17-.32-.26-.47-.63-.99-1.19-1.51-1.73-.09-.09-.24-.22-.24-.32,0-.35,1.14-1.1,1.38-1.1,.17,0,1.99,1.9,1.99,2.22Zm1.4-2.83c.58,.63,1.04,1.14,1.04,1.34,0,.41-1.08,1.19-1.32,1.19-.09,0-.19-.09-.32-.26-.45-.6-.97-1.19-1.51-1.73-.09-.09-.22-.22-.22-.32,0-.35,1.14-1.1,1.36-1.1,.17,0,.56,.43,.97,.88Z"/>
        <path class="cls-3" d="M12.5,111.55c-.06-.32-.32-.6-.64-.6-.15,0-.3,.02-.47,.02-.47,0-.54-.22-.88-.8v-1.34c.34-.56,.9-.7,.9-.7h.45c.4,0,.65-.28,.65-.63v-1.12c0-.65-.05-1.3-.05-1.45,0-.32,.21-.37,.49-.37,.19,0,2.3,.11,2.58,.13,.19,.02,.47,.06,.47,.3,0,.17-.14,.26-.28,.35-.19,.13-.21,.56-.21,1.14v.96s-.02,.65,.33,.65c.15,0,.37-.02,.54-.02,.52,0,.56,.22,1.13,.82v1.19c-.57,.65-.61,.89-1.13,.89-.17,0-.35-.02-.52-.02-.35,0-.35,.6-.35,.6v1c0,.23,.09,.51,.37,.51,.21,0,.58-.21,.79-.33,.07-.02,.16-.07,.26-.07,.56,0,.58,1.21,.58,1.98,0,.93-.02,.98-1.33,1.56-.4,.16-.67,.3-.67,.79v3c0,.56,.05,1.12,.05,1.67,0,2.16-1.49,2.84-3.42,2.84-.6,0-1.44-.02-1.44-2.49,0-.79,.14-.91,.54-.91,.19,0,.42,.02,.72,.02,.51,0,.56-.3,.56-.81v-2.05s-.21-.37-.41-.37c-.24,0-.3,.24-.35,.3-.04,.15-.17,.26-.32,.26-.24,0-.26-.3-.3-.47-.13-.63-.28-1.27-.41-1.9-.04-.19-.11-.43-.11-.63,0-.3,.15-.32,1.27-.63,.32-.09,.54-.19,.62-.58v-2.7Zm11-2.37c0-.11-.04-.22-.17-.22-.21,0-.25,.09-.32,.26-.89,2.22-3.51,4.38-4.01,4.38s-1.71-1.42-1.71-1.92c0-.19,.32-.37,.61-.54,1.08-.6,2.45-1.88,2.79-3.11,.04-.19,.06-.43,.32-.43,.15,0,1.82,.47,2.11,.56,.04,0,.08,.02,.13,.02,.17,0,.25-.11,.25-.28v.04s-.22-.43-.46-.82h-2.16c-.35,.39-.6,.65-.38,1.01v.39c-.22,.45-1.11,.6-1.11,.6h-1.03c-.56,0-.9-.04-.9-.51,0-.19,.04-.47,.04-.72v-1.02c0-.47-.04-.74-.04-.97,0-.8,.71-.83,1.33-.83,.66,0,1.33,.04,1.99,.04h5.42c.66,0,1.31-.04,1.95-.04,.6,0,1.39,0,1.39,.8,0,.23-.04,.53-.04,.99v.89s.19,.58,.19,.73c0,.47-.35,.52-.97,.62h-1.04c-.47-.1-.82-.15-.82-.62,0-.24,.02-.45,.02-.67s-.13-.32-.26-.71h-.13c-.15,.39,0,.67,0,.67v1.37c0,.8,.02,.96,.45,.96h.19c.47,0,.54-.28,.56-.75,.02-.33,.35-.37,.63-.37,.64,0,1.41,.18,1.96,.46,.26,.14,.41,.4,.41,.7-.01,.7-.36,1.73-.77,2.31-.49,.66-1.12,.66-2.02,.66h-2.08s-.19-.17-.26-.11l-.09,.09c-.19,.17-.32,.35-.32,.6,0,.32,.3,.54,.6,.42h1.25c.78,.12,1.53,.08,2.29,.08,.63,0,1.2,.95,1.2,.95v1.13c0,.67-.07,.89-.71,.89-.77,0-1.53-.04-2.28-.04h-.35c-.18,0-.24,.11-.24,.22,0,.13,.11,.19,.27,.37,.82,.95,2.3,2.3,3.27,3.08,.27,.22,.55,.41,.55,.69,0,.59-1.55,1.99-2.06,1.99s-2.61-2.82-2.96-3.36c-.07-.11-.15-.22-.29-.22-.18,0-.2,.22-.2,.35v.87c0,.76,.07,1.54,.07,2.3,0,.65-.24,.72-1,.72h-1.06c-.81,0-1.06-.06-1.06-.71,0-.76,.04-1.51,.04-2.29v-.97c0-.13-.02-.3-.2-.3-.16,0-.32,.26-.41,.39-.41,.52-2.68,3.37-3.2,3.37-.63,0-2.21-1.49-2.21-2.09,0-.22,.25-.39,.41-.5,1.35-.86,2.57-1.92,3.65-3.13,.09-.11,.36-.39,.36-.52,0-.19-.14-.22-.59-.22-.67,0-1.48,.05-2.14,.04-.37,0-.67-.31-.67-.69v-1.45c0-.78,.06-.97,.7-.97,.74,0,1.48,.04,2.2,.04h1.18c.34,0,.61-.26,.61-.6,0-.28-.04-.63-.04-.93s.15-.39,.42-.39c.25,0,.61,.04,.76,.04,.17,0,.3-.09,.3-.26,0-.11-.15-.41-.15-1.12,0-.3,.02-.6,.02-.93v-.76Z"/>
        <path class="cls-1" d="M26.25,136.13c.63,0,1.24-.04,1.85-.04,.81,0,1.45,.02,1.45,.73,0,.32-.05,.67-.05,1.06v2.27c0,.37,.05,.73,.05,1.06,0,.71-.79,.73-1.47,.73-.25,0-.47-.02-.72-.02-.11,0-.23,.02-.23,.15,0,.22,.68,.82,.86,.97,.84,.73,1.87,1.43,2.85,1.94,.41,.22,.5,.26,.5,.43,0,.76-1.72,2.22-2.3,2.22-.41,0-2.01-1.32-2.37-1.64-.65-.58-1.49-1.43-2.03-2.12-.14-.17-.32-.37-.56-.37s-.41,.17-.54,.35c-.79,1.06-1.78,1.99-2.89,2.76-.34,.24-1.51,1.04-1.9,1.04-.59,0-2.17-1.73-2.17-2.24,0-.26,.29-.37,.5-.47,1.08-.52,2.21-1.3,3.14-2.09,.16-.13,.7-.58,.7-.78,0-.13-.14-.15-.23-.15-.23,0-.45,.02-.68,.02-.7,0-1.51,0-1.51-.73,0-.32,.02-.69,.02-1.06v-.24s-.25-.3-.36-.3c-.06,0-.11,.06-.15,.13-.13,.24-.82,1.36-1.06,1.36-.22,0-.6-.69-.71-.86-.04-.06-.09-.13-.15-.13-.13,0-.13,.17,.43,.3v3.95c-.56,.97-.5,1.94-.5,2.94,0,.52-.97,.84-.97,.84h-1.06s-.95-.32-.95-.84c0-.97,.06-1.96-.52-2.94v-2.22c.59-.15,.59-.32,.46-.32-.15,0-.24,.28-.28,.39-.28,.71-.5,1.23-.78,1.23-.43,0-1.71-1.62-1.71-2.01,0-.17,.26-.67,.35-.84,.63-1.23,1.17-2.48,1.6-3.8,.09-.26,.43-1.47,.43-1.66,0-.26-.15-.35-.39-.35-.28,0-.65,.04-.91,.04-.41,0-.45-.28-.77-.86v-1.29c.32-.6,.36-.82,.84-.82,.26,0,.58,.04,.91,.04,.45,0,.25-.6,.25-.6v-1.03c0-.84-.05-1.5-.07-1.59-.02-.11-.02-.14-.02-.2,0-.23,.2-.27,.41-.27,.14,0,.39,.02,.52,.02,.75,.09,1.5,.14,2.25,.23,.18,.02,.43,.07,.43,.29,0,.18-.11,.21-.3,.34-.18,.14-.23,.41-.23,.89v1.3s.74,.6,1.09,.6c.09,0,.3-.02,.52-.02,.41,0,.4,.65,.4,.65v.02c0,.17,.1,.32,.29,.32,.1,0,.42-.24,.6-.41,.06-.04,.1-.09,.15-.11,1.33-1.04,2.76-2.55,3.49-4.12,.08-.17,.12-.28,.33-.28,.31,0,2.14,.71,2.6,.88,.15,.04,.35,.15,.35,.37,0,.15-.08,.24-.21,.3-.06,.02-.1,.09-.1,.15,0,.26,1.16,1.27,1.39,1.47,.87,.8,1.83,1.51,2.8,2.14,.19,.13,.44,.3,.44,.56,0,.6-1.43,2.14-1.95,2.14-.17,0-.87-.58-1.04-.73-.08-.09-.17-.17-.29-.17-.17,0-.19,.13-.25,.28-.06,.17-.46,.19-.6,.19-.27,0-.52-.02-.79-.02-.06,0-.21,.04-.21,.28v.11c0,.15,.12,.28,.27,.28h1.48Zm-4.04,0c.16,0,.29-.13,.29-.28v-.11c0-.19-.11-.28-.29-.28-.29,0-.61,.02-.9,.02-.2,0-.49-.04-.58-.26-.07-.11-.09-.17-.18-.17-.11,0-.54,.35-.65,.43-.22,.19-.36,.28-.56,.28-.47,0-1.01-.45-1.33-.76-.25-.24-.25-.35-1.42-.35-.22,0-.49,.11-.49,.37,0,.56,.38,1.06,.72,1.53,.38,.54,.79,1.08,1.24,1.6,.07,.06,.16,.17,.27,.17,.16,0,.18-.13,.18-.35v-.22c0-.41-.02-.67-.02-.97,0-.67,.7-.71,1.44-.71,.61,0,1.21,.04,1.82,.04h.47Zm-1.31,2c-.21,0-.4,.19-.4,.42v.19c0,.21,.19,.4,.4,.4h.19c.21,0,.35-.08,.4-.27,.06-.25,.08-.42,.08-.46,0-.1-.08-.27-.35-.27h-.31Zm2.99-5c.28,0,.52,0,.52-.19,0-.13-.32-.45-.45-.58-.17-.17-.26-.32-.45-.32-.13,0-.32,.17-.45,.35-.11,.15-.39,.37-.39,.54,0,.22,.28,.22,.47,.22h.76Zm2.2,6c.23,0,.42-.19,.42-.4v-.19c0-.23-.19-.42-.42-.42h-.33c-.27,0-.38,.15-.4,.33-.02,.17-.04,.31-.04,.35,0,.25,.12,.31,.35,.31h.42Z"/>
        <path class="cls-3" d="M16.74,155.13c.65-.04,1.32-.08,1.99-.08,.54,0,.58,.17,.78,.78v.76c-.19,.76-.26,.84-.8,.84-.65,0-1.32-.04-1.96-.29h-3.26c-.65,.25-1.32,.29-1.96,.29-.35,0-.6-.02-.01-.6v-.99c-.59-.6-.55-.78-.03-.78,.67,0,1.34,.04,2.01,.08h3.26Zm-1.68,15c-.13-.18-.24-.08-.55,.05v.35c.31,.52-.57,.6-.57,.6h-1.58c-.67,0-.89-.04-.89-.55,0-.57,.05-1.26,.05-1.93v-1.81c0-.55-.05-1.09-.05-1.62,0-.84,.43-1.14,1.27-1.14,.54,0,1.1,.04,1.63,.04h1.27c.54,0,1.07-.02,1.61-.02,.87,0,1.3,.27,1.3,1.14,0,.53-.05,1.05-.05,1.6v1.81c0,.65,.05,1.35,.05,1.93,0,.5-.25,.55-.92,.55h-.85s-.93-.08-1.28-.6v-.35c.35-.11,.29-.24,.11-.05h-.56Zm1.01-12c.6-.08,1.21-.12,1.66-.12,.56,0,.6,.17,.77,.69v.95c-.17,.56-.21,.71-.77,.71-.5,0-1.06-.04-1.66-.23h-1.68c-.58,.19-1.14,.23-1.66,.23s-.6-.13-.22-.6v-1.04c-.38-.56-.3-.71,.22-.71s1.06,.04,1.66,.12h1.68Zm0,3c.6-.12,1.21-.17,1.66-.17,.56,0,.6,.17,.77,.69v.95c-.17,.56-.21,.71-.77,.71-.5,0-1.06-.04-1.66-.19h-1.68c-.58,.14-1.14,.19-1.66,.19s-.6-.13-.22-.6v-1.06c-.38-.54-.3-.69,.22-.69s1.06,.04,1.66,.17h1.68Zm.04-9c.65-.02,1.23-.06,1.66-.06,.56,0,.6,.17,.73,.73v1.01c-.12,.6-.17,.78-.73,.78-.43,0-.99-.04-1.66-.47h-1.68c-.67,.42-1.21,.47-1.64,.47-.52,0-.63-.15-.29-.65v-1.21c-.34-.52-.25-.67,.29-.67,.45,0,.99,.04,1.64,.06h1.68Zm-1.61,15.12c.27,.3,.49,.52,.79,.88h.09c.3-.36,.52-.6,.12-.88v-.58c.39-.28,.18-.52-.12-.53h-.09c-.28,.02-.52,.25-.79,.53v.58Zm12-11.14c-.61-.37-1.21,.02-1.21,.02h-2.5s-1.43-.56-2.14-.56c-.47,0-.54-.24-.14-.88v-1.45c-.4-.65-.35-.91,.14-.91,.71,0,1.43,.06,2.14-.2h3.65c.56,.26,1.1,.24,1.64,.24,.73,0,.97,.13,.97,.88,0,.69,.46,2.05,.46,2.05v3.17s-.44,2.18-.44,3.28c0,.52-.19,.58-.93-.63h-1.3c-.73,1.22-.8,1.15-.91,.94-.09-.24-.32-.24-.54,.06h-1.45c-.32-.3-.45,.3-.45,.3v4.53c0,.87,0,1.17,.67,1.17h2.14c.65,0,.91-.23,1.12-2.02,.04-.44,.02-.67,.5-.67,.82,0,2.48,.27,2.48,1.31,0,.81-.43,2.27-.78,3.02-.58,1.25-1.21,1.35-2.53,1.35h-4.21c-1.75,0-2.42-.54-2.42-2.25,0-.6,.02-1.19,.02-1.79v-5.89s-.18-.95-.18-1.42c0-.73,.26-.84,.95-.84,.54,0,1.1,.02,1.64,.2h2.37c.32-.17,.6-.45,1.21-.78v-2.25Z"/>
      </g>
      <g>
        <path class="cls-2" d="M98.42,51.14c.06-.29,.01-1.01-.04-1.27-.02-.37-.04-.75-.06-1.12-.11-.5-.15-.95-.24-1.47-.02-.11,.02-.39,.04-.5,0-.32,.01-.63,.02-.95,.04-.21,.07-.82,.02-1.06-.1-.45-.01-1-.13-1.47-.09-.37-.24-.68-.32-1.08-.04-.16,.02-.37,.04-.5,.07-.32,.08-.96,0-1.27-.07-.27-.15-.57-.22-.84-.04-.26-.07-.52-.11-.78-.09-.29-.17-.58-.26-.86-.06-.23-.04-.44-.11-.65-.13-.4-.45-.66-.6-1.04-.11-.27-.12-.57-.22-.86-.08-.24-.18-.51-.26-.76-.04-.22-.09-.43-.13-.65-.14-.35-.27-.71-.41-1.06-.04-.2-.09-.4-.13-.6-.16-.5-.43-.92-.63-1.38l-.35-1.04c-.11-.26-.3-.5-.41-.76-.07-.32-.14-.65-.22-.97-.1-.24-.28-.44-.41-.65-.15-.25-.2-.56-.32-.84-.15-.35-.41-.64-.56-.99-.23-.52-.35-1.04-.63-1.49-.26-.43-.58-.83-.84-1.25-.24-.38-.45-.75-.71-1.1-.36-.48-.98-.75-1.34-1.23-.4-.54-.69-1.15-1.06-1.73-.38-.6-.79-1.21-1.21-1.77-.23-.31-.63-.57-.86-.89-.38-.51-.79-.96-1.3-1.34-.31-.23-.46-.66-.78-.89-.35-.25-.82-.35-1.17-.6-.41-.3-.52-.91-.93-1.21-.39-.28-.89-.43-1.27-.71-.2-.22-.4-.45-.6-.67-.26-.19-.65-.3-.84-.56-.22-.29-.35-.65-.65-.86-.17-.12-.34-.19-.52-.3-.22-.14-.44-.33-.67-.47-.24-.1-.49-.2-.73-.3-.29-.18-.51-.47-.82-.63-.3-.16-.67-.16-.93-.35-.17-.17-.35-.35-.52-.52-.28-.21-.57-.41-.86-.63-.24-.18-.47-.39-.76-.52-.48-.21-.99-.37-1.51-.52-.32-.09-.65-.07-.93-.19-.44-.19-.83-.49-1.23-.73-.27-.16-.57-.24-.86-.37-.29-.13-.59-.32-.89-.45-.46-.2-.98-.34-1.47-.47-.3-.09-.62-.08-.89-.19-.32-.14-.52-.44-.86-.56-.15-.05-.48-.03-.63,0-.31,.06-.7-.01-.93-.09-.34-.11-.65-.3-.99-.41-.3-.09-.66-.04-.93-.15-.4-.16-.73-.41-1.19-.54-.35-.1-.83-.1-1.23-.11-.23,0-.46-.01-.69-.02-.5-.12-.91-.28-1.36-.43-.36-.12-.75-.13-1.14-.22-.29-.06-.89,0-1.12,.04-.18,0-.36,.01-.54,.02-.06,0-.17,.04-.26,.02-.2-.03-.4-.06-.6-.09-.42-.12-.79-.27-1.34-.26-.07,.04-.19,.02-.28,.04-.23,.06-.47,.09-.78,.09h-.5c-.27,.06-.97,.18-1.3,.11-.59-.13-1.41-.23-2.05-.09-.14,0-.29,.01-.43,.02-.16,.03-.35,.02-.52,.06-.78,.21-1.7,.41-2.5,.6-.31,.01-.62,.03-.93,.04-.26,.07-.52,.14-.78,.22-.16,.04-.44,0-.56-.02-.29-.06-.93-.1-1.23-.02-.53,.13-.98,.34-1.47,.5-.32,.11-.72,.05-1.06,.15-.29,.09-.54,.27-.82,.37-.29,.1-.68,.03-.97,.13-.72,.23-1.23,.77-1.92,1.06-.34,.14-.76,.03-1.14,.13-.4,.1-.61,.39-.95,.54-.41,.17-1,.11-1.4,.28-.3,.13-.44,.36-.67,.54-.25,.19-.49,.41-.8,.54-.27,.12-.54,.16-.82,.28-.3,.13-.56,.34-.82,.5-.32,.14-.63,.27-.95,.41-.33,.2-.64,.43-.99,.6-.18,.09-.37,.11-.56,.19-.46,.19-.91,.4-1.3,.67-.7,.49-1.25,1.15-1.92,1.66-.3,.23-.52,.57-.82,.8-.26,.19-.54,.37-.82,.54-.19,.12-.41,.17-.58,.3-.34,.25-.48,.74-.82,.99-.72,.55-1.59,.97-2.31,1.51-.25,.19-.67,.69-.84,.97-.19,.3-.27,.65-.47,.93-.26,.35-.73,.55-.99,.91-.22,.29-.52,.51-.73,.8-.32,.43-.61,.87-.93,1.3-.09,.09-.19,.17-.28,.26-.22,.22-.43,.43-.65,.65-.21,.16-.45,.37-.6,.58-.23,.31-.42,.62-.65,.93-.21,.29-.46,.55-.65,.86-.18,.31-.16,.78-.35,1.08-.16,.26-.47,.4-.63,.67-.14,.24-.12,.61-.26,.84-.16,.26-.44,.41-.6,.67-.16,.26-.17,.62-.32,.89-.12,.2-.3,.38-.43,.56-.25,.34-.49,.7-.71,1.08-.24,.41-.21,1.04-.45,1.45-.22,.37-.56,.66-.73,1.08-.15,.35-.08,.8-.19,1.19-.17,.57-.53,1.03-.76,1.58-.12,.3-.16,.65-.24,.99-.01,.18-.03,.36-.04,.54-.11,.44-.36,.76-.52,1.14-.09,.21-.09,.42-.17,.63-.21,.52-.44,.95-.58,1.58-.08,.37,.06,.74,0,1.14-.04,.27-.05,.6-.11,.86-.01,.21-.03,.42-.04,.63-.07,.27-.16,.54-.24,.8-.08,.3-.03,.63-.11,.95-.1,.41-.2,.78-.3,1.23-.03,.14,0,.39,.02,.5,0,.14,.01,.29,.02,.43,.07,.29,.14,.99,.06,1.32-.22,1.01-.23,2.15-.45,3.15-.08,.35,.06,.71,.06,1.04,0,.48-.29,.93-.17,1.45,.13,.57,.35,.96,.47,1.53v.92s-.03,.86,1,1.27v.37c-.84,.48-.75,.94-.64,1.42,.09,.39-.12,.76-.04,1.12,.08,.35,.24,.6,.32,.93,.07,.25-.05,.59,.02,.86,.08,.33,.27,.57,.37,.88,.03,.32,.06,.65,.09,.97,.07,.22,.14,.43,.22,.65,.09,.29,.06,.6,.17,.86,.11,.27,.31,.5,.41,.77,.13,.37,.03,.88,.17,1.21,.18,.43,.5,.79,.69,1.23,.11,.24,.13,.49,.22,.75,.1,.29,.23,.59,.34,.86,.12,.29,.16,.58,.28,.86,.2,.46,.55,.84,.75,1.29,.16,.37,.07,.99,.24,1.38,.17,.41,.49,.68,.73,1.01,.25,.35,.33,.87,.58,1.23,.13,.18,.41,.49,.58,.62,.05,.04,.11,.06,.15,.11,.27,.35,.58,.67,.82,1.05,.31,.49,.6,1.02,.86,1.55,.1,.2,.14,.41,.26,.6,.22,.36,.49,.68,.71,1.03,.18,.3,.29,.62,.5,.9,.34,.47,.91,.74,1.31,1.14,.17,.17,.33,.37,.47,.56,.15,.2,.37,.35,.52,.56,.16,.23,.27,.47,.43,.69,.31,.41,.87,.63,1.23,.99,.32,.32,.54,.78,.82,1.14,.25,.34,.69,.52,1.03,.77,.2,.2,.4,.4,.6,.6,.32,.24,.65,.47,.97,.71,.51,.38,.72,1.08,1.23,1.46,.62,.46,1.42,.74,2.04,1.21,.59,.43,1.02,1.07,1.66,1.46,.29,.18,.66,.2,.99,.34,.33,.14,.62,.38,.93,.56,.13,.07,.25,.09,.39,.15,.31,.13,.63,.29,.93,.45,.26,.14,.56,.3,.8,.47,.19,.14,.34,.36,.54,.5,.32,.21,.97,.13,1.31,.32,.29,.16,.52,.4,.84,.54,.45,.19,.97,.23,1.36,.47,.32,.2,.58,.47,.95,.62,.45,.19,1.02,.2,1.46,.39,.34,.15,.64,.39,.99,.54,.52,.21,1.21-.07,1.74,.11,.54,.18,.88,.61,1.42,.77,.61,.19,1.33-.12,1.94,.04,.53,.14,.83,.49,1.33,.62,.33,.09,.7-.06,1.03,.02,.28,.06,.58,.11,.88,.17,.21,0,.42,.01,.62,.02,.35,.08,.71,.15,1.08,.24,.29,.01,.59,.03,.88,.04,.34,.07,.75,.06,1.16-.19h.5c.53,.37,1.12,.25,1.68,0h.45c.31,.32,.63,.38,.93,.45,.38,.09,.79-.06,1.05-.13,.24-.04,.73,.68,.73,.68h.8l1.14-1h.85c.6-.14,1-.41,1.62-.56,.35-.08,.78,.04,1.14-.04,.85-.19,1.84,.08,2.68-.15,.46-.13,.99-.22,1.42-.41,.3-.13,.55-.35,.86-.45,.27-.09,.68,.02,.97-.06,.34-.11,.58-.36,.93-.47,.18-.06,.35-.03,.54-.09,.37-.1,.71-.25,1.06-.37,.23-.08,.44-.08,.65-.17,.3-.13,.52-.39,.8-.54,.27-.14,.61-.17,.91-.3,.16-.07,.35-.19,.5-.28,.24-.15,.53-.2,.8-.32,.27-.12,.54-.31,.82-.43,.4-.17,.98-.11,1.38-.28,.58-.24,.8-.8,1.3-1.1,.22-.1,.45-.2,.67-.3,.23-.14,.47-.3,.73-.41,.45-.19,.89-.23,1.27-.47,.32-.2,.8-.57,.99-.85,.05-.08,.1-.17,.17-.24,.39-.35,.95-.49,1.37-.79l.99-.99c.55-.4,1.37-.51,1.92-.91,.28-.2,.55-.5,.76-.78,.1-.13,.25-.24,.35-.37,.1-.14,.21-.33,.35-.43,.29-.23,.71-.43,.93-.73,.13-.18,.18-.41,.3-.6,.13-.21,.3-.41,.47-.58,.32-.32,.76-.58,1.04-.95,.24-.32,.58-.78,.89-1.01,.2-.15,.56-.33,.71-.52,.21-.27,.31-.63,.52-.91,.29-.39,.83-.58,1.12-.97,.22-.29,.34-.65,.54-.97,.16-.25,.38-.48,.54-.73,.22-.36,.32-.81,.54-1.17,.26-.41,.74-.61,.99-1.01,.11-.24,.22-.47,.32-.71,.18-.29,.42-.55,.6-.84,.17-.36,.33-.72,.5-1.08,.21-.35,.57-.64,.73-1.01,.18-.41,.17-.97,.35-1.38,.23-.53,.66-.87,.95-1.34,.24-.39,.18-.97,.37-1.42,.13-.31,.35-.57,.52-.84,.27-.42,.52-.88,.71-1.36,.21-.51,.16-1.18,.35-1.73,.15-.44,.36-.86,.5-1.34l.22-1.62c.15-.55,.37-1.04,.52-1.6,.15-.58-.22-1.08-.09-1.66,.13-.59,.41-.96,.56-1.51,.02-.23,.04-.46,.06-.69,.06-.26,.16-.69,.09-1.04-.06-.29-.2-.73-.11-1.12,.15-.67,.3-1.25,.45-1.94ZM54.54,7.69c.3-.44,1.02-.3,1.61-.45,.13-.03,.29,0,.39-.06,.5,0,.78,.14,1.14,.26,.37,.12,.78,.17,1.12,.28,.55,.18,1.24,.16,1.79,.34,.76,.25,1.37,.67,2.09,.97,.25,.1,.5,.13,.75,.24,.38,.16,.76,.36,1.16,.5,.33,.11,.84,.01,1.16,.15,.28,.12,.46,.4,.75,.52,.24,.1,.58,.05,.82,.15,.27,.12,.45,.39,.69,.54,.29,.18,.72,.19,1.01,.37,.51,.32,.93,.78,1.44,1.1,.41,.25,.99,.33,1.38,.6,.33,.23,.53,.61,.86,.84,.39,.28,.99,.34,1.38,.62,.14,.14,.27,.27,.41,.41,.26,.26,.56,.54,.86,.75,.21,.15,.45,.28,.67,.41,.25,.15,.56,.23,.73,.45,.13,.16,.24,.33,.37,.5,.26,.25,.52,.5,.77,.75,.27,.36,.52,.79,.88,1.05,.31,.23,.67,.4,.99,.62,.25,.18,.45,.44,.69,.62,.15,.11,.34,.24,.45,.39,.2,.27,.38,.55,.58,.82,.15,.2,.39,.35,.54,.56,.3,.42,.49,.91,.86,1.25,.5,.46,.78,.62,1.03,1.36,.06,.17,.15,.52,.04,.73-.27,.53-1.11,.08-1.49-.04-.12-.02-.24-.04-.37-.06-.33-.09-.69-.19-1.01-.28-.26-.07-.54-.02-.82-.09-.34-.08-.66-.17-.97-.26-.24-.07-.48-.05-.71-.13-.32-.1-.59-.29-.88-.41-.4-.17-.82-.18-1.14-.41-.28-.2-.53-.46-.84-.65-.49-.3-1.16-.34-1.72-.58-.35-.15-.62-.41-.97-.56-.24-.06-.47-.13-.71-.19-.36-.15-.59-.47-.95-.62-.65-.28-1.48-.27-2.04-.62-.35-.22-.54-.61-.88-.82-.29-.17-.69-.18-.95-.37-.37-.26-.6-.68-.99-.93-.33-.2-.84-.21-1.21-.37-.42-.18-.69-.54-1.03-.8-.31-.23-.68-.39-.99-.62-.19-.14-.34-.35-.54-.5-.32-.23-.64-.43-.95-.67-.04-.05-.07-.1-.11-.15-.22-.25-.45-.51-.69-.75-.42-.42-.95-.77-1.44-1.12-.47-.33-.95-.6-1.42-.93-.35-.24-.68-.52-1.01-.77-.29-.22-.58-.71-.8-1.01-.05-.08-.1-.18-.17-.24-.35-.27-.77-.46-1.08-.77-.31-.33-.99-1.28-.56-1.92ZM14.76,23.92c.08-.21,.09-.43,.19-.6,.16-.25,.4-.44,.6-.65,.18-.18,.34-.39,.5-.6,.14-.14,.27-.27,.41-.41,.25-.33,.49-.65,.73-.99,.09-.09,.17-.17,.26-.26,.07-.09,.13-.19,.22-.26,.5-.37,1-.74,1.51-1.12,.3-.23,.52-.57,.82-.8,.29-.22,.72-.5,.93-.77,.18-.24,.36-.71,.58-.88,.23-.18,.56-.25,.8-.43,.22-.16,.3-.5,.52-.67,.23-.17,.57-.22,.82-.39,.31-.2,.5-.55,.82-.75,.13-.08,.26-.11,.41-.17,.4-.18,.84-.37,1.21-.6,.4-.25,.68-.66,1.08-.9,.37-.23,.91-.23,1.27-.45,.38-.23,.62-.61,.99-.84,.43-.27,1.04-.35,1.51-.56,.56-.25,.98-.69,1.53-.93,.2-.09,.43-.06,.67-.13,.34-.11,.69-.23,1.03-.34,.43-.13,.87-.1,1.25-.26,.37-.15,.69-.38,1.01-.58,.22-.13,.46-.18,.71-.28,.27-.11,.56-.25,.86-.34,.27-.04,.55-.07,.82-.11,.32-.09,.63-.17,.95-.26,.33-.02,.66-.04,.99-.06,.36-.09,.7-.22,1.01-.34,.15-.06,.37-.04,.52-.13,.76,0,1.9,.21,1.61,1.08-.18,.54-.7,.76-1.01,1.16-.15,.2-.31,.37-.45,.56-.14,.14-.27,.27-.41,.41-.2,.27-.36,.55-.56,.82-.2,.2-.4,.4-.6,.6-.21,.28-.43,.59-.71,.8-.22,.16-.44,.29-.65,.45-.24,.18-.38,.48-.65,.65-.19,.12-.41,.16-.62,.26-.32,.14-.64,.32-.9,.52-.29,.21-.55,.5-.8,.75-.06,.07-.13,.14-.19,.22-.29,.22-.65,.34-.95,.56-.23,.17-.39,.44-.62,.6-.27,.19-.65,.26-.93,.45-.55,.39-.93,1.09-1.53,1.46-.31,.19-.7,.17-1.05,.32-.35,.15-.53,.48-.84,.67-.35,.21-.88,.22-1.27,.39-.57,.25-.83,.89-1.44,1.16-.33,.15-.69,.22-1.01,.37-.22,.1-.43,.29-.65,.39-.31,.11-.62,.22-.93,.32-.27,.12-.52,.3-.8,.41-.59,.24-1.32,.26-1.89,.5-1.18,.49-2.21,1.21-3.38,1.7-.3,.13-.64,.18-.99,.26-.27,.06-.52,0-.75,.09-.29,.1-.52,.3-.77,.43-.45,.23-1.69,.47-2.02-.02-.31-.46,.14-1.06,.28-1.44Zm77.47,23.84c0,.12-.01,.24-.02,.37-.09,.37-.11,.78-.19,1.16,0,.44,.01,.88,.02,1.31,.01,.06,.04,.21,.02,.3-.16,.73-.18,1.56-.37,2.28-.13,.49-.01,1.14,.09,1.57,0,.14,.01,.27,.02,.41,.03,.14,.06,.45,.02,.62-.11,.48-.29,.75-.41,1.16-.08,.29,.02,.7-.06,.97-.13,.38-.39,.65-.52,1.05-.18,.58,0,1.39-.19,1.96-.15,.45-.49,.71-.67,1.12-.17,.39-.12,.9-.26,1.33-.15,.48-.48,.79-.67,1.25-.16,.4-.15,.9-.32,1.29-.21,.47-.62,.8-.84,1.29-.34,.78-.61,1.54-.95,2.3-.17,.38-.48,.67-.65,1.05-.1,.23-.09,.5-.17,.75-.13,.39-.31,.75-.52,1.08-.14,.23-.35,.51-.56,.67-.13,.1-.31,.2-.41,.32-.2,.27-.34,.58-.54,.86-.15,.2-.37,.36-.52,.56-.36,.5-.55,1.14-.9,1.64-.5,.7-1.17,1.23-1.85,1.74-.17,.13-.34,.34-.47,.52-.38,.37-.76,.75-1.14,1.12-.77,.55-2.25,.08-2.91-.32-.18-.11-.38-.26-.58-.34-.32-.14-.64-.21-.93-.39-.15-.09-.3-.21-.45-.3-.29-.18-.63-.26-.9-.45-.24-.17-.44-.42-.69-.58-.22-.14-.48-.22-.69-.37-.47-.33-.7-.93-1.16-1.27-.44-.33-1.1-.58-1.36-1.08-.1-.2-.07-.41-.13-.67-.04-.17-.12-.47-.06-.69,.12-.49,.5-.7,.73-1.08,.36-.58,.61-1.23,1.01-1.77,.27-.37,.81-.49,1.08-.86,.18-.26,.25-.61,.43-.86,.34-.46,.95-.64,1.21-1.25,.14-.34,.07-.79,.17-1.16,.1-.36,.17-.74,.26-1.12,.1-.45-.12-.85-.22-1.14-.1-.31-.13-.63-.28-.88-.22-.37-.57-.62-.82-.95-.31-.41-.72-.8-1.23-1.01-.18-.08-.39-.1-.58-.15-.48-.11-1.11,.01-1.46,.13-1.12,.36-1.57,.86-2.3,1.59-.27,.27-.62,.48-.84,.8-.13,.18-.16,.4-.26,.62-.09,.21-.23,.41-.37,.58-.1,.13-.26,.24-.39,.34-.2,.15-.38,.37-.58,.52-.34,.25-.74,.48-.99,.82-.21,.28-.46,.52-.67,.8-.21,.29-.42,.65-.82,.75-.27,.07-.57-.05-.73-.11-.44-.16-.72-.35-1.05-.6-.14-.14-.27-.29-.41-.43-.32-.24-.78-.57-1.01-.88-.36-.47-.65-1.01-1.01-1.49-.23-.31-.62-.53-.95-.75-.25-.16-.97-.65-1.42-.56-.27,.06-.52,.13-.77,.19-.42,.1-.84-.16-1.18,.02-.21,.11-.36,.33-.56,.45-.27,.17-.65,.2-.9,.39-.22,.16-.31,.46-.45,.69-.19,.31-.43,.57-.62,.88-.18,.28-.52,1-.39,1.57,.09,.39,.26,.7,.37,1.08,.01,.13,.03,.26,.04,.39,.08,.32,.14,.62,.3,.86,.25,.38,.7,.57,1.05,.84,.18,.14,.3,.39,.43,.58,.13,.19,.29,.37,.43,.56,.41,.54,1.1,.81,1.57,1.29,.19,.19,.31,.45,.47,.67,.2,.27,.51,.46,.71,.73,.18,.24,.4,.64,.62,.82,.19,.15,.39,.32,.6,.45,.18,.11,.38,.17,.56,.28,.46,.29,.9,.64,1.33,.97,.25,.27,.5,.53,.75,.8,.24,.18,.55,.35,.73,.58,.22,.29,.48,.59,.77,.8,.53,.37,1.19,.59,1.7,.97,.32,.23,.55,.58,.86,.82,.27,.2,.62,.42,.82,.69,.16,.21,.42,.51,.62,.67,.37,.28,.78,.51,1.15,.79,.1,.08,.17,.18,.24,.28,.15,.23,.43,.46,.68,.61,.32,.2,.75,.21,1.12,.37,.49,.21,1.11,.79,1.25,1.36,.05,.23-.03,.48-.09,.62-.2,.53-.53,.93-1.03,1.14-.3,.13-.7,.11-.99,.26-.29,.15-.5,.43-.82,.56-.25,.1-.55,.08-.77,.19-.27,.13-.47,.38-.75,.5-.26,.11-.59,.09-.86,.19-.2,.07-.41,.2-.6,.28-.28,.08-.56,.16-.84,.24-.26,.11-.49,.32-.75,.43-.36,.15-.93,.05-1.27,.19-.45,.19-.84,.47-1.33,.62-.2,.03-.4,.06-.6,.09-.4,.1-.82,.16-1.23,.26-.19,.02-.39,.04-.58,.06-.47,.13-.9,.29-1.38,.41-.59,.14-1.03-.3-1.64-.15-.42,.1-.78,.25-1.21,.34-.36,.08-.77-.09-1.12,0-.32,.09-.64,.22-.95,.32-.32,.1-.66,.09-1.01,.17-.2,.04-.55,.01-.71-.02-.22,0-.43-.01-.65-.02-.36-.08-.75-.11-1.08-.19-.24-.03-.49-.06-.73-.09h-.37c-.42-.09-.81-.16-1.23-.26-.34-.08-.9,.01-1.21,.09-.11,.03-.3,.07-.43,.04-.42-.04-.83-.09-1.25-.13-.32-.08-.61-.21-.9-.3-.78-.25-1.76,.21-1.96-.67-.04-.18,.07-.36,.13-.45,.22-.37,.51-.6,.86-.84,.28-.19,.66-.4,.86-.67,.21-.28,.44-.57,.69-.82,.38-.38,.83-.68,1.12-1.16,.2-.33,.23-.77,.32-1.21,.04-.18,0-.38,.04-.54,0-.17,.01-.34,.02-.52,.12-.53,.35-1.66,.19-2.26-.1-.38-.32-.63-.5-.93-.14-.32-.29-.63-.43-.95-.31-.49-.76-.88-1.1-1.33-.14-.19-.32-.36-.45-.56-.14-.2-.23-.43-.43-.56-.23-.16-.58-.12-.86-.24-.36-.15-.61-.46-.99-.6-.35-.13-.77-.08-1.16-.19-.29-.08-.56-.22-.84-.3-.6-.18-1.54,.16-2.07,.28-.16,0-.32,.01-.47,.02-.3,.07-.61,.11-.84,.26-.42,.26-.59,.79-1.01,1.05-.52,.33-1.19,.44-1.53,.95-.32,.48-.37,1.23-.65,1.74-.21,.41-.62,.66-.75,1.14-.08,.28,.07,.57,0,.86-.12,.52-.09,1.13,.02,1.64,.06,.28-.03,.56,.04,.82,.11,.42,.29,.79,.39,1.21,.11,.45-.29,.83-.73,.73-.55-.13-.99-.4-1.38-.69-.23-.18-.41-.42-.67-.58-.24-.14-.51-.19-.77-.3-.25-.11-.52-.24-.75-.39-.23-.15-.43-.36-.65-.52-.23-.17-.48-.3-.71-.47-.24-.18-.43-.42-.69-.58-.17-.11-.37-.12-.58-.19-.29-.1-.59-.24-.82-.41-.3-.22-.53-.53-.8-.8-.21-.21-.47-.38-.65-.62-.23-.31-.4-.67-.67-.95-.29-.3-.61-.58-.95-.84-.21-.16-.38-.4-.6-.56-.27-.2-.68-.32-.88-.58-.16-.21-.25-.49-.41-.71-.22-.29-.64-.4-.86-.69-.13-.17-.22-.36-.34-.54-.15-.21-.36-.38-.52-.58-.16-.22-.29-.45-.45-.67-.25-.34-.7-.5-.95-.84-.14-.2-.23-.43-.37-.62-.14-.19-.33-.35-.47-.54-.19-.26-.33-.55-.52-.82-.14-.2-.32-.39-.45-.6-.25-.42-.22-1.06-.47-1.46-.27-.43-.77-.63-1.03-1.05-.12-.19-.17-.39-.26-.6-.12-.27-.31-.52-.41-.82-.16-.47-.18-.96-.37-1.38-.25-.57-.68-1-.99-1.51-.21-.34-.16-.88-.32-1.27-.2-.46-.53-.84-.69-1.33-.17-.51,.05-1.28-.09-1.85-.19-.79-.54-1.41-.77-2.13-.12-.35-.03-.87-.17-1.21-.06-.16-.18-.3-.26-.43-.14-.22-.21-.49-.28-.77-.08-.31,0-.62-.06-.95-.13-.57-.14-1.11-.26-1.7-.07-.35,.19-.78,.11-1.16-.06-.28-.17-.52-.24-.8-.08-.33,.07-.67,.13-.9,.04-.16,.03-.34,.06-.5,.07-.34-.07-.75-.13-1.01-.09-.36,.06-.82-.02-1.21-.07-.3-.24-1.09-.15-1.46,.09-.39,.25-.69,.34-1.08v-1.01c.07-.3,.12-.61,.19-.93,.09-.42-.01-.86,.09-1.25,.11-.41,.27-.74,.37-1.16,.03-.12,0-.34-.02-.43-.06-.28-.05-.85,.02-1.1,.17-.62,.55-1.04,.73-1.64,.08-.27-.03-.61,.04-.93,.06-.28,.12-.55,.26-.77,.26-.43,.56-1.23,.97-1.49,.36-.22,.83-.24,1.31-.34,.24-.01,.49-.03,.73-.04,.71-.17,1.29-.39,1.96-.58,.44-.12,.97-.04,1.42-.15,.22-.06,.47-.11,.65-.22,.33-.2,.61-.45,1.01-.58,.47-.15,1.14,.05,1.61-.09,.48-.14,.96-.29,1.44-.43,.36-.16,.65-.45,1.05-.58,.75-.25,1.75-.16,2.45-.45,.5-.2,.96-.48,1.44-.69,.25-.11,.5-.18,.73-.32,.29-.18,.57-.4,.9-.54,.43-.18,.89-.24,1.33-.39,.79-.26,1.51-.56,2.24-.88,.38-.17,.62-.52,.99-.69,.45-.21,1.06-.21,1.51-.41,.33-.15,.64-.37,.95-.56,.21-.13,.46-.17,.67-.3,.26-.16,.51-.36,.77-.52,.19-.11,.4-.16,.58-.28,.4-.25,.6-.73,.99-.99,.16-.11,.33-.16,.5-.26,.25-.16,.5-.36,.75-.52,.2-.12,.41-.18,.6-.3,.28-.18,.52-.43,.8-.6,.28-.18,.59-.29,.86-.47,.31-.21,.56-.51,.86-.73,.35-.25,.73-.45,1.08-.71,.2-.15,.35-.37,.56-.52,.29-.2,.68-.29,.97-.5l.67-.67c.21-.15,.44-.26,.65-.41,.26-.19,.45-.48,.71-.67,.38-.27,.77-.5,1.14-.77,.46-.35,.81-.85,1.31-1.16,.44-.28,1.03-.46,1.53-.67,.2-.06,.4-.11,.6-.17,.28,0,.54,0,.75,.06,1.41,.46,1.99,1.91,3.08,2.71,.34,.25,.63,.54,.97,.8l.39,.39c.28,.21,.58,.37,.86,.58,.19,.19,.37,.37,.56,.56,.43,.31,1.09,.36,1.51,.67,.31,.23,.44,.68,.75,.9,.36,.26,.88,.32,1.27,.56,.33,.2,.55,.52,.86,.73l.73,.37c.3,.21,.44,.62,.73,.84,.2,.15,.43,.21,.65,.34,.16,.1,.33,.22,.5,.32,.31,.19,.74,.22,1.05,.41,.27,.16,.49,.41,.8,.54,.28,.11,.6,.09,.84,.24,.26,.16,.45,.42,.69,.6,.21,.15,.43,.26,.65,.41,.22,.15,.43,.33,.67,.47,.19,.11,.4,.14,.62,.22,.37,.12,.75,.26,1.16,.37,.37,.1,.71,.08,1.01,.22,.34,.15,.66,.39,.97,.58,.31,.19,.65,.28,.99,.43,.29,.13,.59,.32,.88,.45,.47,.21,1,.35,1.51,.5,.29,.08,.58,.08,.84,.19,.3,.13,.49,.43,.8,.56,.39,.16,1.04-.03,1.46,.11,.4,.13,.74,.36,1.14,.5,.3,.1,.64,.08,.9,.19,.37,.16,.67,.44,1.1,.58,.57,.19,1.32,.09,1.94,.26,.61,.17,1.11,.47,1.7,.67,.4,.13,.82,.14,1.27,.24,.41,0,.82,.01,1.23,.02,.49,.11,.89,.26,1.31,.39,.41,.13,.77,.04,.99,.34,.08,.11,.1,.23,.17,.34,.15,.25,.36,.49,.45,.8,.09,.3-.07,.67,0,.97,.11,.51,.15,.95,.3,1.4,.11,.33,.19,.72,.32,1.05,.1,.25,.25,.5,.32,.77,.01,.31,.03,.62,.04,.93,.1,.42,.24,.79,.34,1.21,.16,.61,.1,1.29,.24,1.89,.01,.18,.03,.36,.04,.54,.04,.16,.04,.36,.09,.54,.11,.38,.23,.74,.32,1.14,.06,.27,.03,.68-.02,.93Z"/>
        <path class="cls-2" d="M69.13,40.37c-.08-.35,.11-.68,.02-1.05-.08-.33-.22-.58-.3-.93,0-.26,.01-.52,.02-.77-.08-.34-.21-.62-.3-.95-.04-.27-.09-.53-.13-.8-.09-.28-.23-.57-.34-.84-.08-.19-.08-.37-.15-.56-.13-.34-.31-.67-.45-.99-.09-.19-.13-.39-.24-.56-.2-.33-.55-.53-.75-.84-.2-.3-.27-.71-.47-1.01-.12-.18-.3-.34-.43-.52-.21-.28-.41-.61-.69-.82-.2-.15-.4-.28-.58-.45-.18-.17-.38-.37-.52-.58-.12-.19-.21-.45-.39-.58-.27-.2-.64-.3-.9-.5-.29-.22-.46-.58-.75-.8-.47-.34-1.19-.4-1.7-.71-.34-.2-.62-.48-.95-.69-.21-.13-.46-.17-.67-.3-.25-.15-.47-.35-.71-.5-.29-.18-.67-.21-1.01-.34-.35-.13-.69-.31-1.05-.43-.42-.14-.91-.06-1.38-.17-1.19-.29-2.57-.34-3.79-.62-.29-.07-.67,.02-.88,.06-.39,.09-.81,.02-1.23,.02-.24,0-.47,.01-.71,.02-.49-.11-.86-.24-1.46-.24-.11,.07-.46,.11-.6,.17-.21,.09-.41,.23-.62,.32-.45,.19-.98,.23-1.49,.34-.35,.08-.67-.1-.99-.02-.38,.1-.62,.36-.97,.5-.31,.13-.66,.12-.93,.28-.42,.25-.81,.56-1.23,.82-.68,.42-1.41,.74-2.07,1.18-.46,.3-.84,.72-1.29,1.03-.35,.25-.73,.44-1.08,.69-.26,.18-.46,.44-.71,.62-.15,.11-.32,.24-.43,.39-.17,.23-.34,.46-.5,.71-.15,.24-.2,.53-.34,.77-.3,.48-.8,.79-1.1,1.27-.18,.28-.23,.66-.41,.95-.22,.36-.52,.66-.73,1.03-.07,.11-.08,.22-.13,.34-.16,.36-.3,.76-.47,1.1-.12,.22-.21,.48-.28,.73-.07,.25-.05,.48-.13,.71-.15,.32-.3,.65-.45,.97-.21,.52-.3,1.04-.43,1.64-.13,.58,.37,1.19,.52,1.55,.18,.44,.14,1.05,.32,1.49,.27,.62,.76,.95,1.27,1.33,.34,.25,.53,.68,.88,.93,.24,.17,.55,.25,.88,.32,.12,.03,.3,0,.39,.02h.73c.14,.03,.32,.02,.47,.06,.24,.06,.59,.21,.93,.13,.29-.09,.59-.19,.88-.28,.26-.07,.52-.04,.75-.13,.3-.12,.54-.33,.8-.5,.2-.13,.43-.19,.62-.32,.27-.18,.46-.45,.65-.71,.16-.23,.37-.45,.52-.69,.26-.42,.46-1.05,.62-1.55,.17-.51,.17-1.09,.37-1.57,.18-.44,.43-.81,.69-1.16,.52-.7,1.22-1.26,1.74-1.96,.43-.57,.85-1.17,1.55-1.46,.3-.13,.63-.09,1-.25l.79-.16,.77-.04c.33-.08,.59-.23,.9-.3,.24-.06,.52,.03,.69,.06,.21,.05,.53,.04,.77,.02,.3-.03,.74-.1,1.05-.02,.37,.09,.65,.28,.99,.39,.51,.15,1.29-.01,1.79,.15,.31,.1,.63,.23,.88,.41,.15,.11,.28,.26,.43,.37,.22,.15,.46,.26,.7,.39s.45,.33,.6,.55c.3,.43,.59,.82,.87,1.27,.25,.4,.66,.72,.82,1.21,.03,.29,.06,.57,.09,.86,.06,.26,.11,.54,.17,.82,.01,.21,.03,.42,.04,.62,.06,.24,.19,.62,.11,.95-.09,.29-.17,.59-.26,.88-.14,.51-.03,1.18-.22,1.61-.08,.19-.22,.37-.32,.54-.14,.24-.23,.48-.39,.69-.22,.29-.62,.44-.84,.73-.43,.57-.88,1.15-1.49,1.53-.31,.19-.72,.26-1.03,.45-.19,.12-.34,.3-.52,.43-.24,.18-.52,.33-.82,.45-.22,.09-.43,.08-.67,.15-.51,.14-1.04,.25-1.51,.45-.59,.25-1,.72-1.57,.97-.39,.17-.9,.2-1.29,.37-.5,.22-.96,.61-1.38,.93-.17,.12-.31,.3-.5,.41-.4,.25-.94,.32-1.31,.58-.42,.29-.71,.74-1.08,1.1-.31,.3-.8,.55-1.05,.88-.24,.31-.47,.64-.7,.96-.31,.42-.66,.81-1.04,1.16l-.34,.32c-.26,.35-.38,.8-.62,1.18-.26,.41-.61,.77-.82,1.25-.15,.35-.18,.75-.37,1.05-.11,.18-.27,.35-.39,.52-.19,.27-.3,.58-.47,.86-.35,.55-.72,1.07-.95,1.77-.1,.29-.1,.63-.17,.95,0,.11-.01,.23-.02,.34-.11,.43-.25,.83-.37,1.25-.1,.36-.04,.75-.13,1.14-.13,.57-.18,1.42,0,1.96,.09,.27,.25,.5,.37,.73,.2,.39,.36,.8,.6,1.14,.1,.14,.26,.27,.37,.41,.25,.33,.5,.7,.84,.93,.24,.16,.55,.26,.86,.34,.22,.06,.4,.04,.6,.11,.53,.17,.95,.46,1.55,.6,.43,.1,.79-.13,1.08-.22,.31-.09,.77,0,1.05-.11,.45-.18,.72-.59,1.1-.84,.29-.19,.67-.27,.95-.47,.23-.17,.33-.48,.5-.71,.24-.33,.66-.5,.88-.86,.25-.4,.36-1.03,.47-1.55v-.34c.09-.43,.04-.8,.19-1.16,.14-.32,.38-.59,.52-.9,.12-.28,.2-.56,.37-.8,.16-.21,.39-.37,.54-.6,.17-.27,.23-.59,.41-.84,.19-.19,.39-.39,.58-.58,.37-.51,.58-1.15,1.08-1.53,.36-.27,.77-.56,1.21-.75,.25-.11,.51-.15,.75-.26,.35-.16,.62-.45,.99-.6,.24-.1,.5-.11,.75-.19,.59-.2,1.23-.42,1.79-.67,.21-.09,.41-.14,.6-.26,.27-.16,.56-.35,.84-.5,.28-.15,.57-.23,.82-.41,.39-.27,.7-.65,1.12-.9,.3-.19,.73-.22,1.03-.41,.41-.26,.65-.71,1.03-.99,.16-.12,.37-.24,.56-.32,.2-.09,.4-.11,.58-.22,.25-.16,.42-.41,.65-.58,.23-.17,.44-.34,.66-.51,.25-.19,.45-.43,.63-.7,.41-.61,.91-1.19,1.31-1.82,.2-.32,.32-.67,.52-.99,.29-.46,.76-.75,1.05-1.23,.22-.36,.42-.85,.56-1.27,.07-.2,.07-.39,.15-.58,.23-.55,.67-.91,.84-1.53,.06-.22,.02-.54-.02-.73-.06-.26-.02-.72,.04-.95,.19-.67,.43-1.22,.6-1.94,.01-.25,.03-.5,.04-.75,.08-.34,.22-.94,.13-1.33-.09-.39-.21-.75-.3-1.12Z"/>
      </g>
    </g>
  </g>
</svg>
