<?xml version="1.0" encoding="UTF-8"?>
<svg id="Layer_2" data-name="Layer 2" xmlns="http://www.w3.org/2000/svg" viewBox="0 0 4.38 148.84">
  <defs>
    <style>
      .cls-1 {
        fill: none;
        stroke: #004f9d;
        stroke-miterlimit: 10;
        stroke-width: 1.98px;
      }
    </style>
  </defs>
  <g id="_レイヤー_1" data-name="レイヤー 1">
    <path class="cls-1" d="M3.39,0c0,5.32-2.4,5.32-2.4,10.63s2.4,5.31,2.4,10.63S.99,26.57.99,31.89s2.4,5.31,2.4,10.63-2.4,5.32-2.4,10.63,2.4,5.31,2.4,10.63-2.4,5.32-2.4,10.63,2.4,5.31,2.4,10.63-2.4,5.31-2.4,10.63,2.4,5.32,2.4,10.63-2.4,5.32-2.4,10.63,2.4,5.32,2.4,10.63-2.4,5.32-2.4,10.64,2.4,5.32,2.4,10.64"/>
  </g>
</svg>