<svg xmlns="http://www.w3.org/2000/svg" viewBox="0 0 37.07 27.72"><defs><style>.cls-1{fill:#fff;}</style></defs><g id="Layer_2" data-name="Layer 2"><g id="レイヤー_1" data-name="レイヤー 1"><path class="cls-1" d="M27.16,11,11,10.64H11L.49,8.57A.41.41,0,0,0,0,9.09l3.14,10.7a.42.42,0,0,0,.18.23l8.91,5.62a.66.66,0,0,0,.2.06l3,.19a.42.42,0,0,1,.37.3L16,27a.42.42,0,0,0,.34.3l3.41.47h.09L24,27.4a.4.4,0,0,0,.32-.21l.77-1.34a.43.43,0,0,1,.26-.2l3.52-.95a.44.44,0,0,0,.15-.08l5.4-4.42a.39.39,0,0,0,.15-.23L37.06,8.46A.41.41,0,0,0,36.53,8L27.3,11A.34.34,0,0,1,27.16,11Z"/><path class="cls-1" d="M17.1,9.45l7.38.17h.09l6-1.17h.05L35.14,7a.42.42,0,0,0,.14-.72l-2.41-2-.12-.07L27,2l-.12,0-2.48-.09A.42.42,0,0,1,24,1.66L23.6.73a.39.39,0,0,0-.35-.26L16.57,0a.43.43,0,0,0-.43.3l-.27,1a.41.41,0,0,1-.42.3l-2.71-.1-.12,0L5.83,3.34a.28.28,0,0,0-.15.08L2.17,6.22A.42.42,0,0,0,2.33,7L8.93,8.6H9l8.07.84Z"/></g></g></svg>