<?xml version="1.0" encoding="UTF-8"?>
<svg id="Layer_2" data-name="Layer 2" xmlns="http://www.w3.org/2000/svg" viewBox="0 0 15 15">
  <defs>
    <style>
      .cls-1 {
        fill: #1b2659;
        stroke-width: 0px;
      }
    </style>
  </defs>
  <g id="Layer_1-2" data-name="Layer 1">
    <g>
      <path class="cls-1" d="M7.5,4.74c-1.52,0-2.76,1.24-2.76,2.76s1.24,2.75,2.76,2.75,2.76-1.24,2.76-2.75-1.24-2.76-2.76-2.76Z"/>
      <path class="cls-1" d="M7.5,0C3.36,0,0,3.36,0,7.5s3.36,7.5,7.5,7.5,7.5-3.36,7.5-7.5S11.64,0,7.5,0ZM7.5,11.65c-2.29,0-4.16-1.86-4.16-4.15s1.86-4.16,4.16-4.16,4.16,1.86,4.16,4.16-1.86,4.15-4.16,4.15Z"/>
    </g>
  </g>
</svg>