<svg xmlns="http://www.w3.org/2000/svg" viewBox="0 0 20.17 28"><defs><style>.cls-1{fill:#1b2659;}.cls-2{fill:#fff;}</style></defs><g id="Layer_2" data-name="Layer 2"><g id="レイヤー_1" data-name="レイヤー 1"><path class="cls-1" d="M10.38,14.58l.06.1,1.81,3s0,.05,0,.08l4.14,9.55a1.09,1.09,0,0,0,1.59.47l1.66-1.08A1.09,1.09,0,0,0,20,25.3L13.22,13.2s0,0,0-.08"/><path class="cls-1" d="M.08,9.86,2.9,3.59a.84.84,0,0,1,.42-.43L9.6.09a.91.91,0,0,1,.74,0l6.48,2.81a.92.92,0,0,1,.48.49l2.55,6.51a.87.87,0,0,1,0,.69L17,16.81a.88.88,0,0,1-.46.45L10.31,20a.85.85,0,0,1-.7,0L3.37,17.28a.88.88,0,0,1-.46-.45L.08,10.59A.85.85,0,0,1,.08,9.86Z"/><path class="cls-2" d="M3.79,9.37l2-3.67a.91.91,0,0,1,.42-.38l3.85-1.63a.85.85,0,0,1,.7,0l3.8,1.78A.87.87,0,0,1,15,6l1.15,4a.8.8,0,0,1,0,.55l-1.5,3.9a.87.87,0,0,1-.52.51l-4,1.36a.84.84,0,0,1-.64,0L5.66,14.53a.9.9,0,0,1-.44-.48l-1.48-4A.87.87,0,0,1,3.79,9.37Z"/></g></g></svg>