<?xml version="1.0" encoding="UTF-8"?>
<svg id="Layer_2" data-name="Layer 2" xmlns="http://www.w3.org/2000/svg" viewBox="0 0 35 35">
  <defs>
    <style>
      .cls-1 {
        fill: #fff;
      }

      .cls-2 {
        fill: #1b2659;
      }
    </style>
  </defs>
  <g id="Layer_1-2" data-name="Layer 1">
    <g>
      <circle class="cls-2" cx="17.5" cy="17.5" r="17.5"/>
      <g>
        <path class="cls-1" d="M29.31,16.56c0-5.25-5.27-9.53-11.74-9.53S5.83,11.31,5.83,16.56c0,4.71,4.18,8.65,9.82,9.4,.38,.08,.9,.25,1.03,.58,.12,.3,.08,.76,.04,1.06,0,0-.14,.83-.17,1-.05,.3-.24,1.16,1.02,.63,1.25-.53,6.76-3.98,9.22-6.82h0c1.7-1.87,2.52-3.76,2.52-5.86Z"/>
        <g>
          <g>
            <path class="cls-2" d="M25.4,19.59c.12,0,.22-.1,.22-.22v-.83c0-.12-.1-.22-.22-.22h-2.24v-.86h2.24c.12,0,.22-.1,.22-.22v-.83c0-.12-.1-.22-.22-.22h-2.24v-.86h2.24c.12,0,.22-.1,.22-.22v-.83c0-.12-.1-.22-.22-.22h-3.3c-.12,0-.22,.1-.22,.22h0v5.12h0c0,.13,.1,.23,.22,.23h3.3Z"/>
            <path class="cls-2" d="M13.21,19.59c.12,0,.22-.1,.22-.22v-.83c0-.12-.1-.22-.22-.22h-2.24v-4.07c0-.12-.1-.22-.22-.22h-.83c-.12,0-.22,.1-.22,.22v5.12h0c0,.13,.1,.23,.22,.23h3.3Z"/>
            <rect class="cls-2" x="14.13" y="14.02" width="1.28" height="5.57" rx=".22" ry=".22"/>
            <path class="cls-2" d="M20.86,14.02h-.83c-.12,0-.22,.1-.22,.22v3.04l-2.34-3.17s-.01-.02-.02-.02c0,0,0,0,0,0,0,0,0,0-.01-.01,0,0,0,0,0,0,0,0,0,0-.01-.01,0,0,0,0,0,0,0,0,0,0-.01,0,0,0,0,0,0,0,0,0,0,0-.01,0,0,0,0,0,0,0,0,0,0,0-.01,0,0,0,0,0,0,0,0,0,0,0-.01,0,0,0,0,0,0,0,0,0,0,0-.01,0,0,0,0,0,0,0,0,0,0,0-.01,0,0,0,0,0-.01,0,0,0,0,0,0,0h-.83c-.12,0-.22,.1-.22,.22v5.12c0,.12,.1,.22,.22,.22h.83c.12,0,.22-.1,.22-.22v-3.04l2.35,3.17s.04,.04,.06,.06c0,0,0,0,0,0,0,0,0,0,.01,0,0,0,0,0,0,0,0,0,0,0,.01,0,0,0,0,0,.01,0,0,0,0,0,0,0,0,0,.01,0,.02,0,0,0,0,0,0,0,.02,0,.04,0,.06,0h.83c.12,0,.22-.1,.22-.22v-5.12c0-.12-.1-.22-.22-.22Z"/>
          </g>
          <g>
            <path class="cls-2" d="M25.4,19.59c.12,0,.22-.1,.22-.22v-.83c0-.12-.1-.22-.22-.22h-2.24v-.86h2.24c.12,0,.22-.1,.22-.22v-.83c0-.12-.1-.22-.22-.22h-2.24v-.86h2.24c.12,0,.22-.1,.22-.22v-.83c0-.12-.1-.22-.22-.22h-3.3c-.12,0-.22,.1-.22,.22h0v5.12h0c0,.13,.1,.23,.22,.23h3.3Z"/>
            <path class="cls-2" d="M13.21,19.59c.12,0,.22-.1,.22-.22v-.83c0-.12-.1-.22-.22-.22h-2.24v-4.07c0-.12-.1-.22-.22-.22h-.83c-.12,0-.22,.1-.22,.22v5.12h0c0,.13,.1,.23,.22,.23h3.3Z"/>
            <rect class="cls-2" x="14.13" y="14.02" width="1.28" height="5.57" rx=".22" ry=".22"/>
            <path class="cls-2" d="M20.86,14.02h-.83c-.12,0-.22,.1-.22,.22v3.04l-2.34-3.17s-.01-.02-.02-.02c0,0,0,0,0,0,0,0,0,0-.01-.01,0,0,0,0,0,0,0,0,0,0-.01-.01,0,0,0,0,0,0,0,0,0,0-.01,0,0,0,0,0,0,0,0,0,0,0-.01,0,0,0,0,0,0,0,0,0,0,0-.01,0,0,0,0,0,0,0,0,0,0,0-.01,0,0,0,0,0,0,0,0,0,0,0-.01,0,0,0,0,0,0,0,0,0,0,0-.01,0,0,0,0,0-.01,0,0,0,0,0,0,0h-.83c-.12,0-.22,.1-.22,.22v5.12c0,.12,.1,.22,.22,.22h.83c.12,0,.22-.1,.22-.22v-3.04l2.35,3.17s.04,.04,.06,.06c0,0,0,0,0,0,0,0,0,0,.01,0,0,0,0,0,0,0,0,0,0,0,.01,0,0,0,0,0,.01,0,0,0,0,0,0,0,0,0,.01,0,.02,0,0,0,0,0,0,0,.02,0,.04,0,.06,0h.83c.12,0,.22-.1,.22-.22v-5.12c0-.12-.1-.22-.22-.22Z"/>
          </g>
        </g>
      </g>
    </g>
  </g>
</svg>