<?xml version="1.0" encoding="UTF-8"?>
<svg id="Layer_2" data-name="Layer 2" xmlns="http://www.w3.org/2000/svg" viewBox="0 0 98.89 88.09">
  <defs>
    <style>
      .cls-1 {
        fill: #fff;
      }

      .cls-1, .cls-2 {
        fill-rule: evenodd;
      }

      .cls-2 {
        fill: #cf2027;
      }
    </style>
  </defs>
  <g id="Layer_1-2" data-name="Layer 1">
    <g>
      <g>
        <path class="cls-2" d="M98.57,52.9v-.17h.03s.02-.09,.03-.14h-.03c0-.29,.09-.24,.28-.31-.02-.21-.16-.21-.2-.37-.04-.05,.03-.18,.09-.23,0-.11,0-.14-.06-.2-.02,0-.04-.02-.06-.03-.04-.06,0-.12-.03-.2h-.03c-.06-.22,.19-.38,.14-.54-.02-.06-.09-.16-.06-.28h.03c0-.12,.02-.25,.03-.37h-.03v-.06s-.04-.02-.06-.03v-.06h-.03c0-.14-.02-.28-.03-.43h-.03v-.11h-.03c-.03-.08,.02-.21,.03-.26v-.34h.03v-.09h.03c.03-.06,0-.07,.06-.11-.01-.14-.05-.15-.11-.23h-.03s-.02-.08-.03-.11h-.03c0-.11,.02-.23,.03-.34-.05-.03-.09-.06-.14-.09v-.06h-.03c0-.15,.02-.3,.03-.45h-.03v-.09h-.03v-.06h-.03v-.4h-.03c0-.14,.02-.28,.03-.43-.02,0-.04-.02-.06-.03v-.06h-.03c-.03-.08,.01-.16-.03-.23-.03-.02-.06-.04-.09-.06,0-.04-.02-.08-.03-.11h-.03c-.02-.06-.04-.11-.06-.17h-.03c0-.18,.02-.36,.03-.54h-.03s-.02-.08-.03-.11c-.04-.03-.08-.06-.11-.09v-.09h-.03v-.4h-.03v-.06h-.03c-.04-.07-.03-.15-.06-.23h-.03v-.14h-.03v-.06s-.09-.08-.14-.11c-.02-.09-.04-.17-.06-.26-.07-.06-.13-.11-.2-.17-.03-.09-.06-.17-.09-.26v-.14h-.03s-.02-.08-.03-.11c-.06-.05-.11-.09-.17-.14v-.06c-.05-.09-.11-.18-.2-.23,0-.11-.01-.18-.03-.26-.13-.03-.29-.15-.34-.26,0-.06-.02-.11-.03-.17-.02,0-.04-.02-.06-.03v-.06h-.03s-.04-.06-.06-.09h-.06v-.03c-.06-.03-.11,.02-.14-.03v-.09h-.03v-.06h-.03v-.06h-.03v-.06l-.06-.06s-.02-.08-.03-.11c-.1-.06-.21-.11-.31-.17v-.06s-.04-.02-.06-.03v-.06h-.03v-.06h-.03v-.09h-.03v-.06s-.04-.02-.06-.03v-.06s-.06-.02-.09-.03c-.02-.03-.04-.06-.06-.09h-.06c-.02-.08-.08-.17-.14-.2h-.09v-.03h-.06l-.14-.2h-.06s-.02-.04-.03-.06c-.04-.03-.08-.06-.11-.09v-.06h-.03c-.05-.08,.02-.02-.06-.09v-.03c-.1-.03-.21-.06-.31-.09,0-.03-.02-.06-.03-.09-.02,0-.04-.02-.06-.03v-.06h-.03v-.06h-.03v-.06s-.06-.04-.09-.06v-.03h-.06s-.02-.04-.03-.06h-.06s-.06-.08-.09-.11h-.06v-.03s-.09-.02-.14-.03c-.05-.07-.09-.13-.14-.2v-.06s-.08-.02-.11-.03v-.03c-.05-.02-.09,.03-.09,.03-.08-.02-.15-.04-.23-.06,0-.02-.02-.04-.03-.06-.07-.06-.13-.11-.2-.17,0-.03-.02-.06-.03-.09h-.06s-.04-.06-.06-.09h-.06v-.03s-.06-.04-.09-.06c-.05-.07-.04-.12-.11-.17v-.06h-.06s-.02-.04-.03-.06c-.09,.02-.17,.04-.26,.06-.01-.08-.04-.16,.03-.23,0-.08,0-.12-.03-.17-.13,0-.21,.06-.26,.14h-.14s-.04-.06-.06-.09h-.06v-.03s-.06-.04-.09-.06c0-.02-.02-.04-.03-.06h-.06l-.06-.06v-.06l-.06-.06h-.06s-.02-.04-.03-.06c-.1,0-.21,.02-.31,.03v-.03s-.08-.02-.11-.03v-.03c-.06-.05-.09-.09-.17-.11v-.03s-.17,.08-.2,.09h-.14c-.06-.05-.11-.09-.17-.14-.02-.03-.04-.06-.06-.09h-.06s-.02-.04-.03-.06c-.05,0-.09-.02-.14-.03v-.03s-.04-.02-.06-.03v-.06h-.03v-.03s-.14,0-.17,.03v.03c-.19,0-.2,.02-.28-.09h-.03v-.06s-.04-.02-.06-.03c0-.03-.02-.06-.03-.09h-.09v-.03c-.07,0-.13,.02-.2,.03v-.03s-.08-.02-.11-.03c0-.03-.02-.06-.03-.09h-.03v-.09h-.03v-.06s-.04-.02-.06-.06h-.14v-.03h-.34v-.03s-.06-.04-.09-.06v-.06h-.03c0-.12,.02-.12,.09-.17v-.03h.09v-.03h.06v-.03h.06s.04-.06,.06-.09h.06s.02-.04,.03-.06h.03s.02-.04,.03-.06c.06,0,.11-.02,.17-.03,.08-.12,.15-.25,.23-.37,.06-.02,.11-.04,.17-.06,0-.02,.02-.04,.03-.06h.06s.04-.06,.06-.09h.06s.02-.06,.03-.09c.08-.07,.15-.13,.23-.2,.02-.03,.04-.06,.06-.09,.06-.02,.11-.04,.17-.06,.04-.05,.08-.09,.11-.14h.06s.08-.09,.11-.14h.03s.02-.06,.03-.09h.06s.02-.04,.03-.06h.06v-.03h.03s.02-.06,.03-.09h.03c0-.11,.02-.23,.03-.34h.03v-.03c.16,0,.18,.05,.34,.06v-.23h.03v-.03h.2v-.03s.04-.02,.06-.03c-.02-.08-.04-.15-.09-.2-.02,0-.04-.02-.06-.03v-.06h-.03c0-.18,.06-.15,.2-.2v-.03h.2v-.03c.24-.06,.11-.23,.2-.4h.03s.06-.08,.09-.11c.08,0,.15,.02,.23,.03,0-.16-.09-.21-.2-.26,0-.15,.01-.26,.06-.37h.03v-.06h.03v-.11c.02-.05,.09-.12,.11-.17,.06,0,.11-.02,.17-.03v.03c.17-.01,.16-.06,.23-.17h.03v-.06h.03s.02-.09,.03-.14h.03s.08-.09,.11-.14h.11v-.03h.09v-.03c.11-.09,.01-.06,.06-.17,.02-.05,.09-.11,.14-.14,0-.14,0-.21-.09-.26,0-.06,0-.11,.03-.14h.06s.04-.06,.06-.09c.02,0,.04-.02,.06-.03,.07-.12-.02-.34,.03-.48h.03v-.06h.03v-.28c.08-.04,.2-.08,.28-.11,0-.05,.02-.09,.03-.14h.03c0-.17-.02-.1-.11-.17-.02-.03-.04-.06-.06-.09h-.03v-.09h-.03c0-.11,.02-.23,.03-.34,.03-.02,.06-.04,.09-.06v-.09h.03c0-.07,.02-.13,.03-.2h.03c.05-.07,.16-.13,.26-.14v-.11s-.04-.02-.06-.03c0-.05-.02-.09-.03-.14h-.03c0-.18,.06-.22,.14-.31,.02,0,.04-.02,.06-.03v-.14h.03v-.09h.03s.02-.08,.03-.11h.03c0-.09,.02-.17,.03-.26,.02,0,.04-.02,.06-.03v-.06h.03v-.06h.03c.1-.27-.21-.36-.14-.6,.02-.09,.14-.28,.09-.43h-.03v-.06h-.03v-.09h-.03c-.07-.21,.12-.3,.06-.51h-.03v-.09h-.03v-.37h-.03c0-.06-.02-.11-.03-.17h-.03c.02-.09,.04-.17,.06-.26h.03s-.04-.19-.06-.23h-.03v-.31h-.03v-.14h-.03v-.11h-.03v-.14h-.03c.02-.09,.04-.17,.06-.26h-.03v-.06s-.06-.04-.09-.06v-.06h-.03v-.11c-.04-.11-.03-.24,.06-.31v-.14s-.04-.02-.06-.03c-.03-.04-.06-.08-.09-.11-.02,0-.04-.02-.06-.03,0-.04-.02-.08-.03-.11h-.03c-.06-.16,.06-.4,0-.54-.02,0-.04-.02-.06-.03,0-.03-.02-.06-.03-.09h-.03v-.06h-.03v-.06h-.03v-.09h-.03v-.09h-.03v-.37h-.03v-.09h-.03s-.02-.08-.03-.11h-.03v-.34s-.06-.04-.09-.06c-.08-.09-.19-.22-.23-.34v-.28h-.03v-.09s-.08-.06-.11-.09v-.06c-.07-.11-.22-.37-.03-.48v-.14s-.06-.02-.09-.03c0-.02-.02-.04-.03-.06-.05-.04-.09-.08-.14-.11,0-.05-.02-.09-.03-.14h-.03v-.06h-.03v-.09h-.03v-.06h-.03v-.06s-.04-.02-.06-.03v-.06h-.03v-.06h-.03v-.09h-.03v-.06h-.03v-.06s-.09-.08-.14-.11v-.06s-.04-.02-.06-.03v-.06h-.03s-.02-.08-.03-.11h-.03c-.04-.12,.06-.18,0-.26v-.03h-.17v-.03c-.18-.11-.05-.23-.14-.37-.06-.05-.11-.09-.17-.14,0-.15-.02-.3-.03-.45h-.03c-.05-.18-.14-.09-.26-.17,0-.02-.02-.04-.03-.06h-.03c-.02-.09-.04-.17-.06-.26-.07-.06-.13-.11-.2-.17,0-.04-.02-.08-.03-.11h-.03c0-.08-.02-.15-.03-.23-.02,0-.04-.02-.06-.03v-.03s-.04-.02-.06-.03v-.06s-.08-.06-.11-.09v-.06s-.04-.02-.06-.03c0-.04-.02-.08-.03-.11-.02,0-.04-.02-.06-.03v-.06s-.04-.02-.06-.03c-.06-.07-.15-.15-.17-.26-.04-.05-.03-.19-.03-.28-.13,0-.16-.04-.26-.06-.07-.31-.33-.49-.4-.8-.08-.02-.25-.14-.28-.2v-.09h-.03v-.06h-.03v-.06s-.08-.06-.11-.09v-.06h-.03v-.06h-.03s-.02-.06-.03-.09c-.03,0-.06-.02-.09-.03v-.03c-.11-.07-.14-.03-.23-.14h-.03v-.14c-.1-.07-.21-.13-.31-.2v-.03s-.04-.02-.06-.03v-.06h-.03v-.06s-.04-.02-.06-.03v-.06h-.03s-.02-.09-.03-.14c-.06-.05-.11-.09-.17-.14h-.06c-.05-.06-.09-.11-.14-.17h-.06v-.03s-.06-.04-.09-.06c-.13-.19,.02-.49-.26-.57-.06-.04-.27,.06-.31,.11-.18,0-.28-.05-.37-.14-.02-.03-.04-.06-.06-.09h-.06v-.03h-.09v-.03h-.06s-.04-.06-.06-.09h-.03v-.14s-.04-.02-.06-.03v-.03h-.06s-.06-.08-.09-.11c-.09-.02-.17-.04-.26-.06,0,0-.03-.04-.06-.06v-.11h.03c.09-.03,.17-.06,.26-.09,0-.07-.01-.1-.03-.14h-.2s-.04,.06-.06,.09c-.1,0-.21,.02-.31,.03v-.03h-.09v-.03c-.09-.06-.11-.16-.17-.26-.02,0-.04-.02-.06-.03v-.06h-.03c0-.13-.02-.27-.03-.4h-.03v-.06s-.06-.02-.09-.06c-.13,0-.23,.01-.28,.09v.06s-.06,.02-.09,.06c-.06,0-.11-.02-.17-.03,.03-.13,.15-.18,.26-.23,0-.17-.09-.16-.17-.26-.12,0-.16,.03-.23,.09,0,.02-.02,.04-.03,.06-.09,0-.19-.02-.28-.03,0,.22,.1,.16,.14,.31h.03s-.02,.06-.03,.09h-.11v.03h-.03v-.03h-.09c-.02-.06-.04-.16-.09-.2-.07-.07-.19-.02-.26-.06v-.03c-.12-.07-.09-.14-.14-.28h-.03c-.03-.08,.01-.16-.03-.23-.05-.04-.09-.08-.14-.11,0-.02-.02-.04-.03-.06h-.06s-.04-.06-.06-.09h-.09v-.03c-.15,0-.23,.02-.26,.14h-.17v-.03c-.18-.05-.03-.1-.09-.23,0,0-.04-.03-.06-.06-.09,0-.17,.02-.26,.03v-.03h-.09v-.03h-.06s-.02-.04-.03-.06c-.01,0-.19-.05-.23-.03v.03h-.17v-.03s-.06-.04-.09-.06v-.06c-.06-.05-.11-.09-.17-.14v-.06s-.04-.02-.06-.03c0-.03-.02-.06-.03-.09-.07-.05-.17,.01-.26-.03,0-.02-.02-.04-.03-.06h-.06v-.03h-.09c-.13-.05-.37-.1-.45-.2-.25,0-.22,.01-.34-.11-.02,0-.04-.02-.06-.03v-.06h-.03v-.06h-.03v-.06c-.09-.02-.17-.04-.26-.06v-.03h-.06v-.03c-.08-.03-.16-.02-.23-.06v-.03h-.06v-.03h-.06v-.03h-.28c-.08-.03-.14-.12-.17-.2-.08,0-.1,.01-.14,.06-.22-.01-.22-.12-.31-.26-.02,0-.04-.02-.06-.03v-.06h-.03c-.05-.08,.02-.02-.06-.09v-.03c-.06-.04-.13,0-.2-.03v-.03h-.17v-.03h-.09v-.03h-.06v-.03h-.06c-.05-.06-.09-.11-.14-.17v-.06h-.03v-.06h-.03v-.06s-.06-.04-.09-.06v-.03h-.06v-.03c-.09-.03-.37,.1-.45,.11-.03-.03-.09-.06-.11-.09v-.06h-.03v-.06s-.06-.04-.09-.06v-.03h-.09v-.03h-.11v-.03h-.06v-.03h-.06c-.09-.06-.04-.16-.2-.2-.1-.09-.2,.03-.31,0v-.03h-.09c-.02-.09-.04-.17-.06-.26-.04-.01-.1-.05-.17-.03v.03h-.14v-.03h-.06s-.11-.16-.11-.17c-.16,0-.23,.03-.34,.06v-.03h-.06l-.06-.06v-.06h-.03v-.06s-.04-.02-.06-.06c-.23,0-.37-.09-.54-.14-.09,0-.19,.02-.28,.03v-.03h-.06s-.08-.09-.11-.14h-.11v-.03h-.09v-.03h-.09v-.03h-.06v-.03h-.06s-.08-.09-.11-.14h-.06s-.02-.04-.03-.06c-.19,0-.38,.02-.57,.03v-.03h-.11v-.03c-.06-.02-.11-.04-.17-.06v-.03h-.14v.03c-.09,.02-.21-.01-.26-.03-.02-.12-.02-.16,0-.28-.08-.03-.18-.03-.28,0v.03h-.11v-.03h-.06s-.02-.04-.03-.06c-.04,0-.08-.02-.11-.03v-.03h-.34v-.03h-.06s-.04-.06-.06-.09h-.06v-.03h-.06l-.06-.06h-.06c-.05-.06-.09-.11-.14-.17-.11-.02-.23-.04-.34-.06v.03h-.17s-.04-.06-.06-.09c-.1-.07-.15-.02-.23-.14-.07,0-.1,.01-.14,.03,0,.03,.02,.06,.03,.09h.03v.06h.03c.04,.12-.08,.2-.11,.26-.15,0-.11-.01-.2-.06,0-.1,0-.18,.06-.23-.02-.13-.03-.1-.14-.14,0,0-.02-.05-.09-.03-.06,.02-.11,.12-.23,.09v-.03s-.08-.02-.11-.03v-.03h-.14c-.07-.02-.52-.14-.63-.09v.03c-.07,.05-.13,.09-.2,.14-.25,0-.17-.09-.28-.2-.04-.04-.1-.04-.14-.09h-.17v.03h-.06v.03h-.11v-.03c-.14-.03-.29,.05-.34,.11-.11,0-.18-.01-.26-.03-.02-.06,0-.02-.03-.06,0-.16,0-.19-.06-.28-.09,.02-.19,.04-.28,.06-.01,0-.03,.04-.06,.06v.14s-.08,.02-.11,.03l-.11-.2c-.06,.02-.11,.04-.17,.06v.03c-.07,.03-.29,.02-.34-.03h-.28s-.02-.04-.03-.06c-.03,0-.06-.02-.09-.03v-.03s-.05-.04-.11-.06v-.03s-.12,.04-.14,.06v.03h-.06v.03s-.08-.02-.11-.03c-.05-.27-.18-.2-.31-.34-.18,0-.09,0-.14,.11h-.03v.09s-.02,0-.03,.03c-.06,0-.11-.02-.17-.03,0-.12-.02-.15,.06-.2,0-.07-.01-.1-.03-.14-.1,.01-.12,.02-.14,.11-.06,.02-.07,.02-.11,.06v.03h-.06s-.02,.04-.03,.06c-.05,.03-.06,0-.11,.06-.12-.01-.16-.05-.23-.11,0-.02-.02-.04-.03-.06-.17,.02-.34,.04-.51,.06v-.03h-.06s-.06-.08-.09-.11h-.06v-.03h-.11v.03h-.31v.03s-.16,.05-.23,.03v-.03s-.08-.02-.11-.03c0-.02-.02-.04-.03-.06-.07-.06-.13-.08-.26-.09-.02,.07-.03,.06-.06,.11-.33,0-.21-.17-.28-.4-.06-.02-.02,0-.06-.03-.08,0-.12,0-.17,.03,.01,.11,.05,.17,.09,.26-.03,.03-.03,.06-.06,.09-.05,.04-.02-.02-.06,.03-.05,0-.09-.02-.14-.03,0-.02-.02-.04-.03-.06-.06-.02-.11-.04-.17-.06v-.03h-.11v-.03h-.11v-.03c-.08-.03-.19-.02-.23-.09-.02-.03,.03-.28,.03-.28h-.03c-.02-.07-.03-.06-.06-.11h-.11v-.03s-.09,.02-.14,.03c-.04,.09-.07,.2-.09,.31-.06,0-.11-.02-.17-.03v-.03c-.12,0-.25,.02-.37,.03-.08,.03-.22,.16-.37,.11v-.03c-.06-.02-.11-.04-.17-.06v-.03c-.16-.06-.31,.05-.43-.09-.03-.04,0-.13,0-.23h-.14s-.02,.08-.03,.11h.03v.09s.03-.01,.03,.03c0,.01-.04,.02-.06,.06-.07,.01-.16,.05-.26,.03,0,0-.02-.04-.09-.03v.03h-.37v-.03c-.06-.02-.11-.04-.17-.06v-.03c-.16,0-.32,.02-.48,.03-.06-.02-.11-.12-.23-.09v.03h-.06s-.02,.04-.03,.06c-.08,0-.15,.02-.23,.03v.03h-.06s-.02,.04-.03,.06h-.06v.03c-.11,.04-.2-.04-.26-.06h-.28s-.02-.04-.03-.06c-.03,0-.06-.02-.09-.03v-.03s-.41,.1-.45,.11c-.14,.04-.24-.04-.34,.06h-.17s-.06-.08-.09-.11h-.06v-.03c-.22-.08-.38,.19-.6,.11v-.03s-.08-.02-.11-.03v-.03c-.09,0-.19,.02-.28,.03-.06,0-.06-.03-.06-.03h-.14v-.03s-.18,.04-.26,.03c-.1,0-.18-.1-.31-.06v.03h-.11v.03h-.11v.03s-.08,.02-.11,.03v.03c-.12,.04-.33-.05-.4-.09v-.03c-.08-.03-.22,.02-.26,.03-.11,0-.23-.02-.34-.03v.03h-.09v.03c-.29,0-.21-.15-.4-.2-.09,.02-.19,.04-.28,.06v.03h-.17c-.05,.02-.12,.09-.23,.06v-.03s-.09-.02-.14-.03c0-.02-.02-.04-.03-.06h-.06s-.02-.04-.03-.06c-.04,0-.08-.02-.11-.03v-.03c-.28,.02-.57,.04-.85,.06-.11,0-.23-.02-.34-.03,0,.02-.02,.04-.03,.06-.04,.02-.18,.06-.26,.03v-.03h-.06s-.04-.06-.06-.09c-.1-.04-.18,.07-.23,.09h-.31v.03c-.08,.03-.27,.13-.4,.09v-.03h-.09v-.03s-.08-.02-.11-.03v-.03c-.09-.02-.17-.04-.26-.06v-.03h-.23v.03h-.06v.03h-.4v.03s-.16,.05-.23,.03v-.03h-.09v-.03h-.03v.03c-.06,.02-.11,.04-.17,.06v.03h-.26c-.06-.05-.11-.09-.17-.14,0-.02-.02-.04-.03-.06h-.06V.03c-.25-.09-.27,.34-.45,.03h-.17s-.02,.04-.03,.06h-.06s-.02,.04-.03,.06h-.06v.03c-.13,0-.27,.02-.4,.03v.03h-.17v-.03h-.09s-.08-.09-.11-.14h-.11c-.18,0-.31,.02-.4-.09h-.11s-.08,.23-.09,.28c-.06,0-.11,.02-.17,.03-.05-.01-.18-.1-.28-.06-.02,.03-.04,.06-.06,.09h-.09v.03h-.14s-.02-.04-.03-.06c-.03-.02-.06-.04-.09-.06v-.06h-.03s-.01-.04-.09-.06v-.03h-.14v.03h-.2v-.03h-.17v.03s-.08,.02-.11,.03c0,.02-.02,.04-.03,.06h-.06v.03c-.06,0-.11,.02-.17,.03v-.03c-.36,0-.21,.04-.34,.23h-.03s-.02,.04-.03,.06h-.06v.03c-.12,0-.24-.01-.31-.06,0-.02-.02-.04-.03-.06h-.06v-.03c-.17-.06-.24,.15-.4-.03-.14,0-.16,.05-.2,.14-.12,0-.1-.02-.17-.06v-.06h-.06v-.03s-.15,.07-.17,.09v.03h-.06v.03c-.14,.06-.25-.06-.4,0v.03h-.06s-.02,.04-.03,.06c-.03,0-.06,.02-.09,.03-.03-.05-.08-.07-.11-.11-.12,0-.2,.02-.26,.09,0,.03-.02,.06-.03,.09h-.06v.03c-.21,.08-.28-.17-.51-.09v.03c-.05,.02-.11,.02-.14,.06v.06h-.03s-.02,.04-.03,.06c-.11,0-.23-.02-.34-.03v.03h-.11v.03h-.09v.03h-.09v.03h-.09s-.02,.04-.03,.06c-.04,.02-.24,.11-.31,.09v-.03s-.08-.02-.11-.03v-.03c-.06-.01-.17,.07-.2,.09h-.06v.03h-.06v.03c-.06,.03-.16,.04-.23,0,0-.02-.02-.04-.03-.06-.05-.03-.06,0-.11-.06-.2,.01-.2,.11-.34,.17v.03c-.09,0-.19-.02-.28-.03v.03h-.09v.03c-.07,.02-.14,0-.2,.03v.03s-.04,.02-.06,.03v.06h-.03s-.04,.06-.06,.09h-.06v.03c-.1,0-.16-.01-.23-.06v-.03s-.06-.05-.14-.06c-.1,0-.11,.02-.17,.06v.03h-.28v.03h-.09v.03c-.09,.02-.25-.08-.28-.11-.19,.01-.24,.08-.34,.17,0,.02-.02,.04-.03,.06-.1,0-.21,.02-.31,.03v.03s-.08,.02-.11,.03c-.03,.04-.06,.08-.09,.11h-.11c-.17,0-.23-.08-.28-.2-.16,0-.17,.04-.26,.11,0,.02-.02,.04-.03,.06h-.31v.03c-.06,.02-.11,.04-.17,.06v.03h-.06v.03s-.08,.02-.11,.03c-.02,.03-.04,.06-.06,.09h-.06v.03h-.09v.03h-.09v.03s-.08,.02-.11,.03v.03c-.09,.03-.13-.03-.17-.06v-.03c-.12,0-.25-.02-.37-.03-.03,.03-.09,.06-.11,.09v.06h-.03c-.05,.08,.02,.02-.06,.09v.03h-.06v.03c-.15,0-.3-.02-.45-.03-.14,.04-.26,.13-.4,.17-.15,0-.3,.02-.45,.03v.03c-.06,.02-.11,.04-.17,.06v.03h-.09v.03h-.31c-.07,.03-.24,.22-.28,.28-.16,0-.32-.02-.48-.03v.03h-.06c-.05,.06-.09,.11-.14,.17-.03,0-.06,.02-.09,.03,0,.02-.02,.04-.03,.06h-.06s-.02,.04-.03,.06c-.05,0-.09,.02-.14,.03v.03h-.57v.03h-.06c-.06,.07-.11,.13-.17,.2h-.06v.03s-.06,.02-.09,.06c-.15,0-.2-.07-.31-.11v.03h-.06s-.02,.04-.03,.06h-.03v.11h-.03v.03c-.1,0-.26-.01-.31-.06h-.43c.03,.06,.09,.16,.03,.23-.02,.08-.05,.08-.09,.14-.12,0-.24-.08-.31-.06v.03s-.08,.02-.11,.03v.03h-.09v.03h-.06v.03h-.06s-.04,.06-.06,.09h-.03v.06s-.04,.02-.06,.03v.06s-.06,.02-.09,.06c-.08,0-.1-.01-.14-.06-.18,0-.29,.11-.31,.26-.19-.01-.08-.03-.17-.11v-.03h-.06v-.03s-.06,.02-.09,.03v.03h-.06s-.04,.06-.06,.09c-.06,0-.11,.02-.17,.03v.03h-.31v-.03c-.17-.05-.38,.03-.48,.06-.05,.23-.17,.24-.34,.34h-.06c-.05,.07-.09,.13-.14,.2-.08,0-.1-.01-.14-.06-.1,0-.19,0-.26,.03,0,.1,.02,.13,.09,.17,0,.07-.01,.1-.03,.14h-.14c-.07-.02-.19-.12-.31-.09v.03s-.09,.02-.14,.03c-.02,.03-.04,.06-.06,.09h-.06s-.02,.04-.03,.06c-.06,.02-.11,.04-.17,.06-.02,.03-.04,.06-.06,.09h-.06s-.02,.04-.03,.06h-.09v.03h-.09v.03h-.06v.03h-.06s-.02,.04-.03,.06h-.06v.03c-.06,.02-.09-.03-.09-.03-.09-.02-.41,.03-.45,.06v.03c-.07,.06-.13,.11-.2,.17v.06s-.1,.16-.11,.17c-.14,.1-.47,.02-.6,.14-.07,.05-.11,.17-.14,.26-.08,.02-.4,.09-.43,.14-.06,.11,.06,.24,0,.31v.06c-.04,.06-.24,.02-.31,.06v.03c-.06,.05-.11,.09-.17,.14-.16-.02-.09-.03-.14-.14h-.03s-.02-.06-.03-.09h-.11v.03h-.03v.34s-.07,.06-.09,.09c-.05,0-.09,.02-.14,.03-.03,.15-.11,.31-.26,.34-.07,.05-.13-.04-.2-.09v-.03s-.08,.02-.11,.03c-.03,.12-.09,.19-.14,.28-.1,0-.18,0-.23-.06v-.06s-.09-.05-.11-.09h-.11c-.07,.04-.02,.14-.06,.23h-.03v.06h-.03c-.04,.13-.06,.07-.17,.11v.03h-.09v.03h-.06s-.02,.04-.03,.06h-.06s-.02,.04-.03,.06h-.06s-.04,.06-.06,.09h-.06s-.02,.04-.03,.06h-.06v.03s-.08,.06-.11,.09v.09s-.08,.06-.11,.09v.03c-.09,.03-.17,.06-.26,.09,0,.04-.02,.08-.03,.11h-.03v.17h-.03s-.02,.06-.03,.09c-.11,0-.13-.03-.2-.06-.01,.02-.06,.06-.06,.06v.31s-.02,0-.03,.06c-.04,0-.08,.02-.11,.03v-.03h-.09v-.03c-.07-.03-.15-.07-.23-.09-.03,.03-.09,.06-.11,.09v.06h-.03c-.05,.09-.06,.14-.17,.17-.03,.03-.19,.06-.26,.03,0-.02-.02-.04-.03-.06h-.06v-.03c-.08,0-.12,0-.17,.03,0,.04,.02,.08,.03,.11,.08,.02,.09,.03,.11,.11h-.09v.03c-.15,0-.14,.06-.23,.11v.14c.1,.02,.12,.07,.2,.11v.09c-.1,.02-.21,.04-.31,.06v.03h-.06s-.02,.04-.03,.06h-.06v.03h-.26v.03c-.09,.04-.14,.1-.23,.14,0,.17,.06,.23,.09,.37-.03,.03-.06,.07-.09,.11-.11,.04-.23,.08-.34,.11-.02,.08-.05,.1-.09,.17-.05,0-.09,.02-.14,.03v-.03c-.17-.08-.19-.26-.4-.31,.01,.1,.02,.11,.09,.14-.02,.2-.17,.3-.34,.34,0,.03-.02,.06-.03,.09h-.03v.06h-.03c-.05,.13,.04,.3-.03,.4h-.03s-.06,.08-.09,.11c-.06,.04-.03-.03-.09,.06h-.09v.03c-.06,0-.11-.02-.17-.03-.01,.12-.04,.19-.09,.28h-.03v.2l-.03,.03c-.11,.04-.29,.01-.37,.09-.17,.05-.16,.26-.23,.4v.06c-.07,.05-.13,.09-.2,.14-.05,0-.09,.02-.14,.03-.02,.04-.04,.08-.06,.11-.1,.09-.21,.19-.31,.28v.06h-.03v.06h-.03c-.05,.14,.11,.21,.06,.37h-.03v.06h-.03s-.02,.06-.03,.09c-.11,.02-.23,.04-.34,.06v.11h.03c.02,.08,0,.21-.03,.26h-.03s-.04,.06-.06,.09h-.23v.03c-.07,.05-.02,.02-.06,.09h-.03v.06h-.03v.26h-.03v.06c-.08,.04-.15,.08-.23,.11v.06h-.03c-.05,.11,.05,.09-.06,.17-.03,.03,0,.01-.06,.03-.04-.04-.08-.07-.14-.09v-.03c-.08-.03-.17,.17-.14,.26h.03c.03,.1,.04,.2,.11,.26,0,.17,0,.21-.06,.31-.11,0-.18,.01-.26,.03-.06,.23-.3,.29-.51,.37v.09h.03v.17s-.06,.04-.09,.06c-.06,.08-.11,.15-.17,.23h-.26c0,.09,.02,.19,.03,.28-.04,.03-.05,.08-.09,.11-.02,0-.04,.02-.06,.03v.06h-.03v.06h-.03v.09h-.03s-.02,.04-.03,.06h-.06s-.02,.04-.03,.06h-.06s-.02,.04-.03,.06c-.05,.04-.09,.08-.14,.11-.03,.09-.06,.17-.09,.26-.02,0-.04,.02-.06,.03v.06s-.06,.02-.09,.03c0,.02-.02,.04-.03,.06h-.06v.03h-.03v.06h-.03c.02,.06,.04,.11,.06,.17h.03c.04,.11-.01,.38-.06,.43-.05,.09-.15,.13-.26,.17h-.11v.03h-.06s-.02,.04-.06,.06c-.01,.06-.03,.06-.03,.06v.14h-.03v.34h-.03v.09h-.03v.06h-.03v.11h-.03v.14h-.03v.06c-.07,.06-.13,.11-.2,.17v.06s-.04,.02-.06,.03c-.04,.11-.08,.23-.11,.34v.09c-.07,.06-.13,.11-.2,.17,0,.04-.02,.08-.03,.11h-.03v.06h-.03c-.02,.06-.04,.11-.06,.17h-.03c-.02,.09-.04,.17-.06,.26h-.03v.06h-.03v.09h-.03v.23h-.03v.06h-.03v.06h-.03v.06h-.03v.06h-.03v.06h-.03v.06h-.03s-.02,.08-.03,.11h-.03c0,.07-.02,.13-.03,.2h-.03c-.02,.06-.04,.11-.06,.17h-.03c0,.11,.02,.23,.03,.34h-.03c-.05,.11-.1,.18-.17,.26-.03,.02-.06,.04-.09,.06-.08,.12-.01,.24-.06,.4h-.03v.2h-.03v.06s-.06,.02-.09,.03v.03s-.06,.04-.09,.06v.06h-.03v.26c-.02,.06-.13,.17-.09,.28,.02,0,.04,.02,.06,.03,.02,.03,.05,.17,.03,.23h-.03c-.02,.06-.04,.11-.06,.17h-.03v.11h-.03v.11h-.03v.37s-.04,0-.03,.06h.03v.14h-.03v.11h-.03c0,.09-.02,.17-.03,.26h-.03v.06s-.06,.04-.09,.06v.28c-.02,.05-.09,.11-.14,.14,0,.07,0,.1,.03,.14h.03c0,.11,.02,.23,.03,.34-.05,.06-.09,.11-.14,.17h-.03v.06c-.05,.06,.02,.14,.09,.17,0,.16-.04,.19-.14,.26h-.06v.03s-.06,.04-.09,.06v.06h-.03c0,.18,0,.18,.09,.26v.03h.06v.03s.05,.04,.11,.06c0,.05,.02,.09,.03,.14h.03c0,.09-.02,.19-.03,.28-.04,.03-.03,.05-.06,.09-.1,.09-.21,.17-.31,.26,.02,.14,.08,.11,.11,.23h.03s-.02,.08-.03,.11h-.03v.06s-.04,.02-.06,.03c0,.12,.02,.25,.03,.37h.03v.09h.03v.06h.03v.28c.02,.05,.09,.12,.06,.23h-.03c-.03,.09-.03,.15-.06,.23h-.03c-.02,.07,.07,.2,.03,.31h-.03v.06s-.06,.04-.09,.06l.06,.26h.03c.04,.12-.07,.17-.09,.23-.03,.1,.04,.18,.06,.23v.11h-.03c-.04,.16,.02,.25-.09,.34v.06h.03s.07,.11,.11,.14c0,.22-.04,.3-.17,.37,0,.14,.08,.21,.17,.26,0,.09,0,.17-.03,.23-.02,0-.04,.02-.06,.03v.09h-.03c0,.06,0,.12,.03,.14h.09v.03s.06,.02,.09,.03c0,.15-.09,.5-.17,.57,.01,.22,.11,.27,.2,.4v.06s.04,.02,.06,.03c.03,.05,0,.06,.06,.11,0,.27-.16,.46-.23,.68-.03,.1,0,.36,.03,.43,.03,.02,.06,.04,.09,.06v.06h.03v.31c.09,.02,.1,.07,.17,.11-.01,.16-.12,.39-.23,.45,.02,.06,0,.02,.03,.06v.03c.07,0,.13-.02,.2-.03v.03h.06s.02,.04,.06,.06c0,.09,0,.14-.03,.2h-.03c0,.13,.02,.27,.03,.4h-.03c0,.11,.02,.23,.03,.34h-.03c-.04,.06-.07,.09-.09,.17,.09,.07,.11,.21,.2,.28v.11h-.03c-.03,.12-.09,.1-.2,.14v.09c.08,.04,.15,.08,.23,.11,.01,.07,.06,.2,.03,.31-.02,.05-.08,.2-.06,.28h.03v.09h.03v.06s.04,.02,.06,.03v.06h.03v.06h.03v.06h.03v.06l.06,.06v.06s.04,.02,.06,.03c.03,.05,.12,.29,.09,.4h-.03s-.02,.08-.03,.11c-.02,0-.04,.02-.06,.03,0,.04-.02,.08-.03,.11,.05,.04,.07,.1,.11,.14,.02,0,.04,.02,.06,.03v.09h.03c0,.11-.02,.16-.09,.2v.11c.07,.05,.13,.09,.2,.14,0,.05,.02,.09,.03,.14h.03v.09h.03v.06h.03c0,.16,.02,.32,.03,.48,.15,0,.2-.04,.31-.06,.03,.03,.1,.09,.14,.11v.11c-.06,.02-.11,.04-.17,.06-.02,.06,0,.02-.03,.06,0,.1,0,.19,.03,.26h.03v.06h.03c.03,.08-.01,.16,.03,.23,.05,.04,.09,.08,.14,.11,0,.02,.02,.04,.03,.06h.06s.02,.04,.03,.06h.06s.04,.06,.06,.09h.03v.06s.06,.04,.09,.06v.06h.03s.02,.08,.03,.11h.03v.11h.03v.14s.09,.08,.14,.11v.06h.03v.06h.03v.14h.03v.06h.03v.03s.06,.02,.09,.03v.03h.06v.03s.08,.06,.11,.09c0,.1,.08,.24,.06,.31h-.03v.06h-.03c-.03,.06,0,.07-.06,.11,.03,.06,.04,.07,.11,.09v.03c.05,.02,.04-.02,.06-.03h.26v.03s.06,.04,.09,.06v.06s.04,.02,.06,.03c0,.04,.02,.08,.03,.11,.02,0,.04,.02,.06,.03,.05,.15,.09,.3,.14,.45,.06,0,.11,.05,.2,.03v-.03h.17v.03h.03s.02,.26,0,.34h-.03v.14h.03s.02,.06,.03,.09c.1,.02,.21,.04,.31,.06,0,.05,.03,.19,.06,.23v.03c.07,.04,.2-.02,.28,.06,.15,.09,.03,.11,.09,.26h.03v.06s.09,.08,.14,.11c.02,.09,.04,.19,.06,.28,.09,0,.13,0,.17-.06,.28,.01,.13,.18,.23,.34,.07,.05,.13,.09,.2,.14,.02,.09,.04,.17,.06,.26,.12,.02,.09,0,.23,0,0,.03,.02,.06,.03,.09h.03v.09h.03c.05,.07,.12,.1,.14,.2h.03s-.04,.1-.06,.11v.09s.15,.03,.2,.06v.03s.06,.04,.09,.06v.06h.03c.07,.13,.01,.16,.14,.26v.03h.26c.05,.08,.09,.15,.14,.23h.11v.03s.08,.02,.11,.03c.03,.04,.06,.08,.09,.11,.02,0,.04,.02,.06,.03v.06s.04,.02,.06,.03v.06c.09,.08,.17,.15,.26,.23v.06l.06,.06v.06h.03v.06s.08,.06,.11,.09c.02,.07,.04,.13,.06,.2,.05,0,.09,.02,.14,.03v.03c.11,.04,.21-.02,.28,.06,.15,.04,.06,.04,.11,.14h.03v.06l.06,.06v.06s.06,.04,.09,.06v.06s.04,.02,.06,.03c.02,.06,.04,.11,.06,.17h.03s.04,.06,.06,.09c.03,0,.06,.02,.09,.03v-.03s.09-.02,.14-.03c.03,.04,.04,.06,.09,.09,.01,.07,.05,.16,.03,.26h-.03v.11s.05,.1,.03,.17h-.03v.06s-.04,.02-.06,.03v.06s-.04,.02-.06,.03v.06h-.03v.23h-.03s-.02,.09-.03,.14h-.03v.06h-.03v.09c-.09,.07-.17,.13-.26,.2-.02,.09-.04,.19-.06,.28-.06,.02-.02,0-.06,.03-.23,.01-.16,.1-.23,.26h-.03v.06h-.03s-.02,.08-.03,.11h-.03v.11h-.03s-.06,.08-.09,.11h-.11v-.03c-.15,0-.14,.06-.23,.11v.09c.11,0,.18-.01,.26-.03,.03,.03,.18,.14,.11,.26h-.03v.06s-.08,.06-.11,.09c0,.02-.02,.04-.03,.06h-.09v.03h-.11v.03h-.09s0,.04-.09,.06c-.02,.07-.04,.11-.09,.14,0,.03,.02,.06,.03,.09h.09v-.03c.13,0,.16,.02,.23,.06,0,.1,0,.18-.06,.23-.05,.19-.15,.08-.26,.17-.08,.05-.11,.17-.14,.26v.11s-.04,.02-.06,.03v.06h-.03v.06h-.03v.11h.03v.06c.06,.04,.11,.08,.17,.11,.03,.05,0,.07,.06,.11,0,.07-.01,.1-.03,.14-.09,0-.15-.03-.2-.09-.19,.02-.11,.1-.2,.2,0,.13,.02,.16,.06,.23,.14,0,.21-.02,.26-.11,.2,0,.15,.06,.26,.14v.09h-.03c-.03,.12-.12,.16-.23,.2h-.17s-.03,.05-.06,.06c.02,.06,.04,.11,.06,.17h.03v.17c.02,.06,.1,.16,.06,.28h-.03v.06h-.03v.26c-.02,.05-.14,.16-.11,.26h.03v.06s.04,.02,.06,.03v.06h.03v.06h.03c.06,.15-.03,.66-.09,.71-.08,.11-.1,0-.2,.06,0,.02-.02,.04-.03,.06h-.03v.03h.03v.06c.09,.03,.17,.06,.26,.09v.26h-.03v.2c-.02,.05-.09,.11-.14,.14,0,.08,0,.12,.03,.17,.07,.01,.1,.03,.2,.03,.02-.07,.04-.13,.06-.2,.12,0,.1,.02,.17,.06-.01,.1-.04,.14-.09,.2-.02,0-.04,.02-.06,.03v.14h-.03c-.03,.08,0,.09-.06,.14,0,.11,.04,.16,.11,.2,0,.13-.02,.16-.09,.23-.02,0-.04,.02-.06,.03v.06s-.04,.02-.06,.03v.09h-.03v.09h-.03c.03,.09,.06,.17,.09,.26-.1,.02-.15,.07-.23,.11v.14h.03v.06s.06,.04,.09,.06v.06s.09,.08,.14,.11v.03h.09v.03s.06,.04,.09,.06c0,.14,0,.36,.06,.43-.02,.2-.13,.28-.28,.34,0,.17,.05,.15,.17,.2h.09s0,.04,.09,.06c.02,.07,.07,.12,.06,.2h-.03v.11h-.03v.03h.03c.02,.06,.04,.11,.06,.17h.03c0,.15-.02,.3-.03,.45h.03v.06s.04,.02,.06,.03c.02,.06,.04,.11,.06,.17,.02,0,.04,.02,.06,.03v.06s.08,.06,.11,.09v.06h.03c.02,.09,.04,.19,.06,.28h.03v.06h.03v.06s.04,.02,.06,.03c.03,.09,.06,.17,.09,.26h.03v.06h.03c.05,.15-.07,.24,0,.37,.06,.05,.11,.09,.17,.14,.02,.03,.04,.06,.06,.09h.03v.06c.07,.05,.13,.09,.2,.14h.06v.03s.09,.08,.14,.11v.14h-.03v.11h-.03v.03h.03c.02,.11,.17,.28,.26,.31h.14c.05,.07,.09,.13,.14,.2v.06h.03s.06,.08,.09,.11h.06s.04,.06,.06,.09h.06s.02,.06,.06,.09c0,.12-.02,.2-.09,.26,.01,.27,.16,.21,.28,.34,.05,.09,.09,.17,.14,.26,.1,.04,.21,.08,.31,.11,.04,.05,.08,.09,.11,.14h.06c.05,.03,.11,.08,.17,.11,.02,.09,.03,.26,.09,.31,.04,.07,.15,.11,.23,.14h.09v.03s.06,.04,.09,.06v.09h.03v.06h.03s.06,.08,.09,.11c.03,0,.15,.06,.2,.03v-.03c.25,.02,.11,.07,.17,.23h.03v.06c.06,.05,.11,.09,.17,.14,0,.02,.02,.04,.03,.06h.06s.04,.06,.06,.09h.06v.03h.11c.02,.07,.04,.13,.06,.2,.03,.04,.18,.09,.23,.11h.06c.08,.09,.15,.19,.23,.28,.14,.05,.28,.09,.43,.14,0,.02,.02,.04,.03,.06h.06l.11,.14s.08,.02,.11,.03c0,.02,.02,.04,.03,.06,.06,.02,.11,.04,.17,.06,0,.02,.02,.04,.03,.06h.06s.02,.04,.06,.06c.03,.1,.06,.21,.09,.31,.11,0,.18,.03,.26-.06h.17s.02,.04,.03,.06h.06s.04,.06,.06,.09h.06s.02,.06,.03,.09c.02,0,.04,.02,.06,.03v.06h.03v.06s.06,.04,.09,.06v.03h.09v.03c.14,0,.28-.02,.43-.03v.03s.08,.02,.11,.03c.03,.04,.06,.08,.09,.11h.06l.06,.06h.06v.03h.06s.04,.06,.06,.09h.06s.04,.06,.06,.09h.06v.03c.15,.02,.3,.04,.45,.06,0,.03,.02,.06,.03,.09h.03s.04,.06,.06,.09h.09v.03h.34v.03h.09v.03s.08,.02,.11,.03v.03h.11v.03h.14v.03h.17v.03c.06,0,.11,.02,.17,.03v.03c.13,.03,.09,.08,.14,.2h.03s.02,.06,.03,.09h.14c.07-.02,.12-.12,.26-.09v.03h.09v.03h.06s.02,.04,.03,.06c.05,0,.09,.02,.14,.03v.03h.23v-.03s.08,.02,.11,.03c.02,.1,.07,.14,.11,.23,.04,0,.08,.02,.11,.03v.03h.26v.03h.09v.03h.09v.03c.09,0,.17-.02,.26-.03,.02,.03,.04,.06,.06,.09h.06s.02,.04,.03,.06c.05,0,.09,.02,.14,.03v.03s.08,.02,.11,.03v.03h.06s.02,.04,.03,.06h.06v.03h.06v.03h.11v.03h.06s.02,.04,.03,.06h.09v.03c.22-.03,.08-.12,.17-.23v-.03c.1,.03,.1,.09,.17,.14v.03c.09,0,.19-.02,.28-.03,.07,.04,.13,.08,.2,.11,0,.09,.02,.19,.03,.28,0,0,.05,.04,.06,.06,.21,0,.3-.12,.37-.26,.19,0,.17,.02,.28,.09,0,.12,.01,.22,.03,.31,.16,0,.18-.04,.23-.14,.09,.01,.09,.02,.14,.06v.03c.16,0,.32-.02,.48-.03v.03h.06s.02,.04,.03,.06h.06v.03h.06v.03c.1,0,.21,.02,.31,.03,.09,.03,.09,.11,.23,.14,.06,.05,.19-.04,.23-.11,.19,0,.21,.07,.2,.26h.03c.03-.07,.08-.11,.11-.17,.07,0,.1-.01,.14-.03,.06,.05,.11,.09,.17,.14,.07,.08,.07,.17,.2,.2,.05,.04,.22,.04,.31,.03,.2-.02,.57-.09,.65-.23,.09,0,.13,0,.17,.06h.06s.11,.19,.11,.23c.06,.02,.02,0,.06,.03,.17,0,.23-.04,.28-.14h.17v.03c.09,.07,.15,.18,.17,.31,.06,.02,.02,0,.06,.03,.13,0,.18-.04,.2-.14,.07-.01,.13-.03,.23-.03,.04,.05,.1,.05,.14,.09v.03s.04,.02,.06,.03v.06h.03s.08,.09,.11,.14h.06v.03s.17-.02,.2-.03v-.14h-.03c0-.06,0-.12,.03-.14h.06c.14-.07,.29,.07,.34,.17,.05,0,.09-.02,.14-.03v-.03c.11-.04,.27,.04,.34-.03h.17v.03h.03v.17h.03s.02,.06,.03,.09c.25,0,.25-.11,.31-.28,.13,0,.27,.02,.4,.03v.03s.19-.06,.28-.03v.03c.08,.03,.23,.1,.37,.06v-.03h.09v-.03s.08-.02,.11-.03v-.03h.09c.11-.04,.25-.06,.4-.06,.03,.04,.09,.06,.11,.09,0,.03,.02,.06,.03,.09,.04,.03,.07,0,.11,.06,.15,0,.26-.01,.37-.06v-.03h.06v-.03c.11-.04,.23,.01,.31-.06h.23v.03s.06,.04,.09,.06v.06s.04,.02,.06,.03c.07,.07,.08,.12,.2,.14v.03s.06-.02,.09-.03c.02-.08,.05-.08,.09-.14,.1,0,.21,.02,.31,.03,0,.02,.02,.04,.03,.06h.06v.03h.06v.03h.14v-.03c.1-.03,.19,.02,.26,.03,.02,.08,.04,.06,.06,.14h.11s.02-.04,.03-.06c.04-.03,.11-.02,.14-.06v-.06s.04-.02,.06-.03v-.06s.06-.02,.09-.06c.09,.01,.15,.02,.23,.06v.03h.09v.03h.06v.03h.06v.03h.06v.03h.06v.03c.16,.05,.16-.13,.31-.09v.03h.06s.02,.04,.03,.06h.28c.06,.02,.16,.09,.28,.06,.04-.01,.17-.06,.26-.03v.03h.06v.03h.17v-.11s-.04-.02-.06-.03v-.09h-.03v-.03h.03s.02-.06,.03-.09c.06,0,.11,.02,.17,.03v.03c.09,0,.19-.02,.28-.03v.03h.09v.03c.08,.04,.14,.12,.17,.2v.09h.03v.06h.03s.02,.06,.03,.09h.09c.02-.07,.04-.13,.06-.2,.08-.07,.15-.13,.23-.2h.17v.03h.06v.03s.06,.02,.09,.03v.03s.17-.09,.2-.11v-.03h.06v-.03h.14v.03s.08,.02,.11,.03v.03c.17,.06,.37-.07,.48,.06,.13,0,.19,0,.26-.06,0-.02,.02-.04,.03-.06,.05-.04,.04,.01,.09-.06,.16,0,.27,.03,.34,.11,.14,0,.21-.08,.26-.17,.15,0,.2,.05,.26,.14,.11,0,.15-.02,.23-.06v-.03c.09,0,.19-.02,.28-.03v-.03c.06,0,.11-.02,.17-.03,.12,.03,.36,.22,.57,.14,.12-.04,.07-.13,.28-.14,.03,.04,.05,.03,.09,.06,.04,.05,.08,.09,.11,.14,.02,0,.04,.02,.06,.03v.06h.03s.04,.06,.06,.09h.11c0-.06,.02-.11,.03-.17h-.03v-.11h.03c.05-.08,.15-.09,.2-.17,.1,0,.15,.02,.23,.03,.02,.07,.04,.11,.09,.14-.03,.18-.13,.12-.14,.34,.06,.02,.02,0,.06,.03,.13,0,.12-.04,.2-.09v-.23c.09-.02,.21-.11,.26-.17,.15,0,.2,.05,.26,.14,.12,0,.2,0,.26-.06,.17,0,.11,.05,.2,.11h.06v.03c.1-.01,.13-.04,.17-.11,.09,.02,.17,.04,.26,.06v.03h.06v.03h.34c.02-.11,.05-.23,.09-.31,.1,0,.18,0,.23,.06,.24,0,.14,.05,.23,.17h.03s.04,.06,.06,.09c.17,0,.17-.03,.28-.06,.03-.1,.09-.13,.11-.23h.09s.02,.04,.03,.06c.06,.06,.1,.06,.2,.09v.03h.03v-.03c.15-.01,.2-.09,.26-.2,.24,.03,.36,.21,.57,.26,.03-.04,.09-.06,.11-.09v-.06h.03s.02-.04,.03-.06h.11v-.03c.06,0,.11-.02,.17-.03v-.03h.11v.03s.07,.18,.09,.26c.05-.01,.23-.11,.26-.14,0-.06,.02-.11,.03-.17h.03s.02-.04,.03-.06h.09v-.03c.19,.02,.42,.27,.65,.2v-.03c.06,0,.11-.02,.17-.03v-.03h.06v-.03h.06s.02-.04,.03-.06h.06v-.03h.11v-.03c.14,0,.28-.02,.43-.03,0-.02,.02-.04,.03-.06h.06v-.03h.06v-.03h.09v-.03h.09v-.03s.08-.02,.11-.03v-.03h.09v-.03c.05,0,.19,.07,.23,.09,.1,.02,.21,.04,.31,.06v.03h.06v.03s.08,.02,.11,.03c0,.02,.02,.04,.03,.06h.06v.03h.11c.12,.04,.12,.02,.23-.03,0-.06,.02-.11,.03-.17,0,0-.04-.01-.03-.06h.03v-.09c.05-.02,.11-.05,.14-.09,.17,0,.24,0,.34,.06v.06h-.03s-.07,.11-.11,.14c0,.1,0,.18,.06,.23,0,.02,.02,.04,.03,.06,.2,0,.23-.14,.23-.34h.03v-.03h.11v-.03c.26-.01,.33,.02,.37,.23h.14s.02-.04,.03-.06h.09v-.03c.09,0,.17-.02,.26-.03,.02-.03,.04-.06,.06-.09,.05-.05,.15-.09,.23-.11h.17v.03h.17c.11,.03,.11,.05,.17-.06,.24,0,.25,.17,.4,.26-.02,.09-.05,.1-.14,.11v.06c.12,0,.1-.01,.17-.06v-.03c.18,0,.36,.02,.54,.03,0-.02,.02-.04,.03-.06,.05-.04,.21-.17,.31-.14,.04,.01,.13,.09,.17,.11,.01,.07,.03,.13,.03,.23h.11s.09-.06,.11-.09v-.06h.03v-.03h.06v-.03h.31v-.03h.37v.03s.08,.02,.11,.03c.03,.04,.06,.08,.09,.11h.06v.03h.06v.03h.09v.03h.17v.03c.09,.04,.12,.09,.23,.11,.03-.03,.07-.04,.09-.06,0-.04,.02-.08,.03-.11,.02,0,.04-.02,.06-.03v-.06s.08-.06,.11-.09v-.06s.06-.04,.09-.06c.03-.03,0-.01,.06-.03,.05,.06,.1,.07,.17,.11,0,.02,.02,.04,.03,.06h.09v.03c.07,0,.13-.02,.2-.03v-.03s.25-.1,.28-.09v.03c.11,.03,.04,0,.09,.09h.03v.06h.03v.06h.03v.06h.03s.04,.06,.06,.09h.14c.05-.09,.09-.17,.14-.26,.05-.05,.15-.06,.2-.11,.27,0,.18,.03,.31,.14v.06s.08,.02,.11,.03c0-.02,.02-.04,.03-.06h.06c.02-.09,.07-.1,.09-.2,.03,0,.06-.02,.09-.03v.03c.16,.04,.14,.18,.26,.26v.06c.21,0,.27-.06,.43-.09,0-.03,.02-.06,.03-.09,.07-.01,.25-.03,.31,.03,.18,0,.22,0,.28,.11v.06h.03v.06h.03c.05,.06,.09,.11,.14,.17,.21-.03,.08-.09,.14-.23,0,0,.04-.03,.06-.06h.14v.03h.06s.02,.04,.03,.06c.05,.03,.16,.04,.2,.09v.06s.04,.02,.06,.03v.06h.03v.06s.04,.02,.06,.03v.03h.06v.03h.06s.02,.04,.03,.06h.2v.03h.11v.03h.06c.06,.09,.11,.17,.17,.26,.06,.04,.15,0,.23,.03v.03c.06,.02,.11,.04,.17,.06v.03h.09v.03c.08,.06,.1,.11,.14,.2v.06h.03v.06h.03s.04,.06,.06,.09h.28s0,.02,.06,.03c.02,.11,.04,.23,.06,.34,.02,0,.04,.02,.06,.03v.06s.04,.02,.06,.03v.06h.03s.02,.09,.03,.14h.03s.02,.06,.03,.09c.02,0,.04,.02,.06,.03,0,.09,.02,.19,.03,.28,.09,.06,.17,.11,.26,.17,0,.12,.02,.25,.03,.37h-.03v.11h-.03c-.02,.07,0,.22,.03,.26,.05,.16,.09,.06,.23,.11v.03h.09v.03s.06,.04,.09,.06c.03,.15,.05,.36-.03,.48-.04,.03-.08,.06-.11,.09v.06h-.03c0,.11,.02,.23,.03,.34-.01,.11-.06,.16-.06,.31h.03v.06s.06,.04,.09,.06v.03h.06s.02,.04,.03,.06h.03s-.02,.02,.03,.06c0,.05-.02,.09-.03,.14-.1,.02-.18,.04-.28,0v-.03h-.06v-.03c-.06,0-.11-.02-.17-.03v-.03c-.08-.04-.13-.05-.26-.06v.09s.06,.02,.09,.03v.03h.06v.03h.06c.05,.06,.09,.11,.14,.17h.06c.06,.07,.11,.13,.17,.2-.02,.18-.07,.11-.2,.17v.03s-.06,.02-.09,.03c0,.19,.05,.23,.17,.28v.06s-.06,.02-.09,.03c0,.02-.02,.04-.03,.06h-.03c0,.09-.02,.17-.03,.26-.03,0-.06,.02-.09,.03-.01,.08-.04,.23-.09,.28v.03h-.09c-.13,.05-.16,0-.28-.03v.09c.08,.02,.08,.05,.14,.09,0,.19,0,.24-.17,.26h-.11s-.02,.04-.03,.06h-.06s-.04,.06-.06,.09c-.05,.02-.17-.02-.2-.03v-.03h-.14c-.02,.06-.04,.11-.06,.17h.03s.02,.06,.03,.09h.26s.02,.06,.03,.09c-.04,.03-.03,.05-.06,.09h-.03v.06s-.08,.06-.11,.09v.06l-.06,.06h-.06s-.02,.04-.03,.06c-.06,.02-.11,.04-.17,.06-.01,.05-.11,.23-.14,.26h-.06s-.02,.04-.03,.06c-.03,0-.06,.02-.09,.03-.02,.03-.1,.32-.09,.4h.03v.11h-.03v.09h-.03c-.05,.12-.02,.25,0,.37,.08,.02,.07,.05,.09,.06,.08,0,.15,.02,.23,.03,.02,.03,.04,.06,.06,.09,.05,.04,.09,.08,.14,.11v.06c.06,.09,.21,.26,.31,.31v.17h-.03c0,.08,0,.12,.03,.17,.1-.01,.11-.02,.14-.09,.09,0,.15,0,.2,.03,.03,.15,.09,.32-.03,.43v.14h.03c.09,.09,.18,.01,.31,.06v.03s.09,.02,.14,.03v.03c.11,0,.17,0,.23-.06,0-.02,.02-.04,.03-.06,.03,0,.06-.02,.09-.03,.02-.03,.04-.06,.06-.09,.09-.03,.19-.06,.28-.09,0-.02,.02-.04,.03-.06h.06c.05-.06,.09-.11,.14-.17,.11-.07,.34-.04,.45-.11,.04-.05,.08-.09,.11-.14,.02,0,.04-.02,.06-.03v-.06s.04-.02,.06-.03v-.03h.06l.06-.06h.06s.02-.04,.03-.06c.06-.02,.11-.04,.17-.06,.04-.05,.08-.09,.11-.14,.02,0,.04-.02,.06-.03v-.06s.04-.02,.06-.03v-.03c.06-.02,.11-.04,.17-.06v-.03h.06s.02-.04,.03-.06h.06v-.03h.09v-.03c.11,0,.23-.02,.34-.03,.11-.12,.23-.25,.34-.37,.15-.09,.33,.06,.48,0v-.03h.06c.05-.06,.09-.11,.14-.17,.04,0,.08-.02,.11-.03,.11-.06,.22-.15,.28-.26h.14v.03h.11s.08-.09,.11-.14h.03s.02-.04,.03-.06h.06c.06-.07,.11-.13,.17-.2h.06s.02-.04,.03-.06c.04,0,.08-.02,.11-.03v-.03c.06-.02,.11-.04,.17-.06v-.03h.09v-.03h.06v-.03h.09v-.03h.09v-.03h.06s.1-.15,.11-.17v-.06s.08-.06,.11-.09v-.03s.08-.02,.11-.03c.02-.03,.04-.06,.06-.09,.03,0,.06-.02,.09-.03,0-.02,.02-.04,.03-.06h.06l.06-.06h.06v-.03h.06s.02-.04,.03-.06h.06s.02-.04,.03-.06h.06v-.03c.09,0,.17-.02,.26-.03,0-.02,.02-.04,.03-.06,.03-.02,.06-.04,.09-.06v-.06h.03v-.09h.03s.02-.09,.03-.14c.07-.06,.13-.11,.2-.17v-.06s.04-.02,.06-.03v-.06s.06-.04,.09-.06c.05-.06,.09-.11,.14-.17h.06v-.03s.09-.02,.14-.03v-.03s.06-.02,.09-.03c.02-.06,.03-.13,.03-.23,.07-.03,.13-.06,.2-.09,.02-.06,0-.02,.03-.06v-.26s.06-.04,.09-.06c0-.02,.02-.04,.03-.06h.09s.04-.06,.06-.09h.03s.02-.06,.03-.09h.03v-.06h.03s.06-.08,.09-.11h.06s.08-.09,.11-.14h.03s.02-.06,.03-.09h.06s.02-.04,.03-.06h.06s.02-.04,.03-.06h.03s.02-.08,.03-.11c.05-.04,.09-.08,.14-.11v-.06h.03v-.34h.03c.02-.06,.04-.11,.06-.17h.03v-.09h.03s.02-.08,.03-.11h.03s.02-.08,.03-.11c.02,0,.04-.02,.06-.03v-.06s.06-.04,.09-.06v-.03h.06s.02-.04,.03-.06c.1-.04,.21-.08,.31-.11-.01-.11-.04-.14-.09-.23h-.03v-.17s.03-.05,.06-.09h.03v-.06c.06-.05,.11-.09,.17-.14v-.09h.03c0-.18,.02-.36,.03-.54h.03v-.06c.07-.05,.13-.09,.2-.14v-.06h.03v-.11h-.03v-.23c.07-.06,.13-.11,.2-.17v-.06s.06-.04,.09-.06c.07-.1,.11-.24,.2-.31v-.03c.06,0,.11,.02,.17,.03v-.03h.03c0-.06-.02-.11-.03-.17h-.03c-.05-.14,.03-.32,.06-.4v-.09s.04-.02,.06-.03c.02-.03,.04-.06,.06-.09h.06c.06-.04,.13-.08,.17-.14h.03v-.28h.03v-.06h.03v-.06c.06-.05,.11-.09,.17-.14,0-.02,.02-.04,.03-.06h.06s.02-.04,.03-.06c.04-.02,.12-.02,.14-.06v-.06h.03v-.09h.03v-.09c.11-.18,.23-.36,.34-.54,.12-.03,.25-.06,.37-.09v-.03h.03v-.03h.03v-.06h.03v-.09h.03s.04-.06,.06-.09h.09v-.03h.06c.06-.07,.11-.13,.17-.2h.06l.06-.06h.06v-.03h.06s.04-.06,.06-.09c.04,0,.08-.02,.11-.03v-.03c.09-.02,.17-.04,.26-.06,.06-.07,.11-.13,.17-.2h.06v-.03h.06v-.03h.09s.02-.04,.03-.06h.09v-.03c.16,0,.32-.02,.48-.03v-.03h.06c.05-.06,.09-.11,.14-.17h.06s.02-.04,.03-.06c.04,0,.08-.02,.11-.03,0-.02,.02-.04,.03-.06,.04,0,.08-.02,.11-.03,0-.02,.02-.04,.03-.06,.13-.07,.36,.02,.51-.03v-.03c.08-.03,.17-.02,.23-.06,.04-.05,.08-.09,.11-.14h.06v-.03c.06-.02,.16,.06,.26,.03v-.03h.06v-.03h.06s.02-.04,.03-.06h.09v-.03c.14-.05,.36,.05,.45-.03,.13-.03,.09-.08,.14-.2h.03s.02-.06,.03-.09c.04-.02,.05-.01,.11-.03v-.03h.03v.03c.09,0,.19-.02,.28-.03,0-.02,.02-.04,.03-.06h.06v-.03h.06v-.03h.06l.06-.06h.06v-.03c.08-.08,.04-.13,.17-.17,.02,.03,.05,.04,.09,.06,0,.07-.02,.13-.03,.2,.12,0,.15-.01,.23-.06v-.03h.06v-.03h.09v-.03c.06-.02,.17,.01,.2,.03,0,.02,.02,.04,.03,.06,.06,0,.11-.02,.17-.03,.02-.09,.15-.31,.23-.34,.07,0,.13-.02,.2-.03v-.03s.06-.04,.09-.06v-.11h.03v-.03c.1,.03,.07,.06,.17,.09v.03s.09-.02,.14-.03v-.03c.09,0,.17-.02,.26-.03v-.03h.06c.05-.07,.09-.13,.14-.2,.15,0,.2,.04,.31,.06,.03-.04,.16-.12,.2-.14h.09s.02-.04,.03-.06c.07-.06,.13-.11,.2-.17,.11,0,.18,.04,.23,.11,.07,0,.07-.01,.11-.03,0-.11-.02-.15-.06-.23h-.03c-.03-.09,0-.16-.06-.23,0-.07,.01-.07,.03-.11,.22,.03,.2,.18,.37,.23v.03c.06-.02,.11-.04,.17-.06v-.03c.08,0,.15-.02,.23-.03v-.03h.06v-.03c.09-.05,.19-.08,.31-.09v-.03h.03v-.11h-.03c0-.07,.01-.1,.03-.14,.16-.03,.29-.06,.51-.06-.02-.06,0-.02-.03-.06,0-.12-.01-.15,.09-.17v-.03s.05,.03,.06,.03c.09,.03,.14,.06,.2,.11,0,.02,.02,.04,.03,.06,.05,.03,.03-.03,.09,.03,.07,0,.13-.02,.2-.03v-.03l.03-.03s-.06-.04-.09-.06c-.04-.06,0-.12-.03-.2h-.03c0-.12-.02-.25-.03-.37h.03c0-.06,0-.09-.03-.11h-.06s-.02-.04-.06-.06c0-.06,.02-.11,.03-.17,.03,0,.06-.02,.09-.03v.03h.06s.02,.08,.03,.11h-.03v.11h.03v.03h.23l.03,.03v.14h.03v.06h.03s.04,.06,.06,.09c.05,0,.09-.02,.14-.03,0-.03,.02-.06,.03-.09h.03v-.06h.03c0-.08-.02-.15-.03-.23h.03v-.06s.04-.02,.06-.03v-.06h.03c.04-.11,.08-.23,.11-.34,.11,.01,.18,.13,.31,.09v-.03s.09-.02,.14-.03v-.03h.06v-.03c.06,0,.11-.02,.17-.03,.06-.07,.11-.13,.17-.2,.07,0,.13-.02,.2-.03v-.03s.08-.02,.11-.03v-.03h.11v-.03s.08-.02,.11-.03v-.03h.09v-.03s.08-.02,.11-.03c.02-.03,.04-.06,.06-.09,.03,0,.06-.02,.09-.03v-.03c.06-.05,.11-.09,.17-.14v-.03s.46,.15,.48,.14v-.03s.06-.02,.09-.03c0-.11,0-.18-.06-.23,0-.13,.05-.16,.11-.23,.02,0,.04-.02,.06-.03,.04-.06,.03-.15,.06-.23h.03c.03-.11-.03-.24,.03-.31,0-.03,.02-.06,.03-.09,.15,0,.2,.03,.26,.11v.06s.06,.02,.09,.06h.23v-.03h.03c0-.07,.02-.13,.03-.2h.03v-.06s.04-.02,.06-.03v-.11h.03v-.17h.03c.13-.21,.33-.09,.51-.14,0-.03,.02-.06,.03-.09-.07-.06-.11-.15-.2-.2v-.03s-.23,.12-.34,.06v-.03h-.06v-.03c.06-.04,.11-.11,.14-.17,.13,0,.13,.02,.23,.06v.03c.06,0,.11-.02,.17-.03v-.03c.07-.02,.21,.06,.26,.09v.03h.09v.03c.08,0,.08,0,.11-.06,.02-.03,.04,.01,.03-.03h-.03v-.09h-.03v-.31c-.09,0-.07,0-.11,.06h-.03v.06s-.04,.02-.06,.06c-.19,0-.23-.02-.34-.09,.02-.18,.13-.27,.2-.4,.19,0,.25,.03,.31,.14,.19-.01,.29-.16,.4-.26,0-.02,.02-.04,.03-.06h.06s.02-.04,.03-.06c.04,0,.08-.02,.11-.03v-.03s.06-.04,.09-.06c0-.19-.03-.29,0-.45,.05,0,.06-.03,.06-.03h.37v-.03s.09-.2,.06-.28c-.03-.02-.06-.04-.09-.06,0-.03-.02-.06-.03-.09,.08-.09,.15-.17,.23-.26h.09v-.03c.1-.04,.15,.01,.23-.06h.03s-.02-.09-.03-.11h-.03v-.17h.03c.06-.07,.11-.13,.17-.2h.06s.02-.04,.03-.06h.06c.05-.04,.05-.18,.09-.2h.14v-.03h.06s.02-.04,.03-.06h.06v-.03s.06-.02,.09-.03c0-.16-.05-.27-.14-.34v-.03s-.09-.02-.14-.03v-.03s-.04-.02-.06-.03c-.03-.05,0-.07-.06-.11,0-.27,.03-.18,.14-.31,.15,0,.11,.01,.2,.06,0,.11-.07,.26-.03,.31,0,.03,.02,.06,.03,.09,.16,0,.23-.01,.31-.09,.02-.03,.04-.06,.06-.09h.14v-.03h.03v-.14h-.03c0-.12-.02-.1-.06-.17-.12,0-.2,.05-.28,0v-.03s-.06-.04-.09-.06c-.01-.07-.04-.19-.09-.23,0-.19-.02-.19,.11-.26v-.03h.11v.03h.06v.03s.05,.04,.11,.06v.03c.14,.05,.28-.24,.34-.28,.03,0,.06-.02,.09-.03,0-.09-.02-.17-.03-.26h-.03s-.02-.08-.03-.11c.04-.02,.12-.05,.2-.03v.03h.17s.02-.04,.03-.06h.06s.06-.08,.09-.11h.06v-.03h.06v-.03h.17v-.03h.06v-.03s.06-.02,.09-.03c0-.15-.04-.14-.09-.23h-.11v.03c-.06,.04-.14,.1-.23,.03-.03,0-.06-.02-.09-.03,.01-.14,.09-.21,.17-.28v-.03s.06-.02,.09-.03c.07-.06,.11-.15,.2-.2,0-.14-.01-.22-.09-.28,.02-.07,.03-.06,.06-.11,.08-.02,.15-.04,.23-.06,0-.19-.02-.38-.03-.57h-.03c0-.06-.02-.11-.03-.17h-.03s.04-.21,.06-.23c.02-.06,0-.02,.03-.06,.09-.03,.17-.06,.26-.09,.02-.08,.09-.19,.03-.26-.04-.17-.11-.1-.23-.17-.02,0-.02-.04-.06-.06,0-.12,.02-.1,.06-.17,.13,0,.18,.04,.28,.06,.03-.09,.06-.17,.09-.26,.15-.03,.28-.02,.37,.09,.08,0,.12,0,.17-.03,0-.12-.02-.14-.11-.17h-.09s-.03-.04-.06-.06c.02-.12,.04-.25,.06-.37,.02,0,.04-.02,.06-.03,0-.06,.02-.11,.03-.17-.13-.03-.22-.06-.4-.06v-.03h-.03v-.11c.24-.05,.51-.27,.65,0,.16,0,.23-.02,.26-.14-.09-.03-.19-.06-.28-.09,0-.02-.02-.04-.03-.06h-.06v-.03h-.11c-.13-.02-.15-.04-.2-.14,.05-.06,.09-.11,.14-.17,.03-.02,.06-.04,.09-.06v-.06c.06-.05,.11-.09,.17-.14v-.09h.03c.03-.11-.05-.2-.06-.26,0-.04,.02-.08,.03-.11,.06-.02,.02,0,.06-.03h.48s.02-.04,.03-.06h.03v-.06h.03c0-.06-.03-.28-.06-.31,0-.03-.02-.06-.03-.09h-.14v.03h-.03v-.03h-.09c-.03-.14-.09-.18-.09-.37,.08-.02,.15-.05,.23-.09v-.03h.2v-.03s.04,0,.03-.06h-.03v-.06s-.04-.02-.06-.03c0-.05-.02-.09-.03-.14h-.03c0-.06,.02-.11,.03-.17,.12,0,.17,.02,.26,.06v-.03h.03c0-.12-.02-.25-.03-.37h-.03c-.02-.09-.04-.17-.06-.26h.03v-.06s.04-.02,.06-.03v-.06s.04-.02,.06-.03v-.06h.03c0-.15-.1-.26-.2-.31Z"/>
        <path class="cls-2" d="M64.21,.88h-.03v-.03c-.07,.02-.06,.03-.11,.06v.11c.09-.01,.08-.03,.14-.06v-.09Z"/>
        <path class="cls-2" d="M84.76,8.7c.12,0,.15,.02,.2-.06,.03-.03,.01,0,.03-.06-.03-.02-.04-.05-.06-.09-.1,.01-.11,.04-.2,.06,0,.04-.02,.08-.03,.11,.06,.02,.02,0,.06,.03Z"/>
        <path class="cls-2" d="M86.04,9.58c.02-.06,0-.02,.03-.06-.01-.09-.03-.08-.06-.14-.07,0-.1,.01-.14,.03,0,.05-.02,.09-.03,.14h-.03s.02,.06,.03,.09c.1-.01,.11-.04,.2-.06Z"/>
        <path class="cls-2" d="M9.92,11.74v-.03h.03v-.03h-.14s.04,.09,.11,.06Z"/>
        <path class="cls-2" d="M90.3,36.89v-.03h-.06s0,.01,.06,.03Z"/>
        <path class="cls-2" d="M7.02,51.7v-.03h.03c0-.11-.01-.13-.09-.17,0,.04-.02,.08-.03,.11,.03,.02,.03,.03,.06,.06v.03h.03Z"/>
        <path class="cls-2" d="M8.75,53.47c.04-.06,.09-.08,.11-.17-.03-.02-.03-.03-.06-.06-.03-.03,0-.01-.06-.03-.02,.06-.05,.16-.06,.23-.09,.02-.13,.05-.2,.09v.11c.06,.02,.02,0,.06,.03,.26,0,.1-.05,.17-.2h.03Z"/>
        <path class="cls-2" d="M8.33,54.35s.02-.03,.06-.06v-.23h.03v-.06h.03s-.02-.08-.03-.11c-.2,.01-.14,.12-.26,.2,0,.13,.04,.15,.09,.23,.03,0,.06,.02,.09,.03Z"/>
        <path class="cls-2" d="M93.17,66.06s-.07,.06-.11,.09c0,.08,.01,.1,.06,.14,.03,.03,0,.01,.06,.03v-.03h.03v-.09h.03c0-.1,0-.1-.06-.14Z"/>
        <path class="cls-2" d="M49.68,76.91c-.03,.08-.03,.06,0,.14,.07,0,.1-.01,.14-.03,0-.07-.01-.07-.03-.11h-.11Z"/>
        <path class="cls-2" d="M39.65,77.48c.06,.02,.02,0,.06,.03,.07,0,.07-.01,.11-.03,0-.03,.02-.06,.03-.09-.05-.02-.11-.03-.2-.03v.11Z"/>
        <path class="cls-2" d="M38.51,77.43c-.02,.06,0,.02-.03,.06,0,.1,0,.1,.06,.14v.03s.06-.02,.09-.03c.02-.11,.02-.09,0-.2h-.11Z"/>
      </g>
      <g>
        <path class="cls-1" d="M39.61,31.96h-.03v-.13h-.03v-.13s-.04-.02-.07-.03v-.07s-.04-.02-.07-.03c-.09-.2,.12-.36,.07-.52h-.03v-.07h-.03v-.07h-.03c-.01-.07-.02-.13-.03-.2h-.03v-.07c-.07-.11-.13-.22-.2-.33-.13,0-.33,.05-.39,0-.13-.04-.04,0-.1-.1h-.03v-.07h-.03v-.07l-.07-.03s-.04-.07-.07-.1h-.07c-.05-.07-.11-.13-.16-.2h-.13s-.02,.04-.03,.07h-.07v.07s-.09,.04-.13,.07c-.03,.04-.07,.09-.1,.13h-.03c-.06,.09-.04,.13-.16,.16-.11,.1-.23-.03-.36,0v.03h-.1v-.03h-.13c-.1,.23-.2,.46-.29,.69-.03,.02-.07,.04-.1,.07v.07l-.07,.07h-.07s-.02,.04-.03,.07h-.07c-.07,.05-.13,.11-.2,.16v.07h-.03c-.07,.13,0,.13-.13,.23v.03h-.33v.03h-.07v.03s-.07,.04-.1,.07c.01,.11,.02,.22,.03,.33h.03v.23h-.03v.03c0,.09,.16,.21,.1,.39h-.03s-.02,.09-.03,.13l-.07,.03v.07s-.04,.02-.07,.03v.07l-.07,.03v.07h-.03s-.02,.09-.03,.13h-.03c-.02,.17-.04,.35-.07,.52v.23h-.03v.07l-.07,.03c-.05,.07-.08,.14-.1,.23-.06,0-.22,.03-.26,.07-.23,.06-.11,.4,0,.49-.02,.26-.14,.21-.2,.36v.23h-.03v.1h-.03v.07c-.05,.04-.11,.09-.16,.13v.07h-.03c-.05,.13,.07,.31,.07,.39h-.03v.13h-.03v.1s-.04,.02-.07,.03v.07c-.07,.05-.13,.11-.2,.16-.01,.04-.02,.09-.03,.13h-.03c-.02,.24-.04,.48-.07,.72h-.03c-.03,.06-.02,.13-.07,.16h-.07v.03h-.07s-.02,.04-.03,.07h-.03v.07l-.07,.07v.07h-.03v.07s-.04,.02-.07,.03c-.03,.06-.09,.22-.07,.33h.03v.13h-.03c-.03,.15-.07,.31-.1,.46-.04,.03-.09,.07-.13,.1v.07h-.03c-.05,.13,.09,.24,.1,.39-.07,.06-.11,.15-.2,.2,.02,.08,.04,.15,.1,.2-.03,.09-.04,.08-.1,.13v.03l-.1,.03v.07h-.03c-.01,.14-.02,.28-.03,.43h-.03v.07c-.08,.05-.15,.11-.23,.16-.04,.06,0,.15-.03,.23h-.03v.07s-.04,.02-.07,.03c-.08,.13-.02,.32,.07,.39v.2s-.07,.02-.1,.03l-.03,.07h-.07s-.05,.05-.07,.07v.03c-.05,.01-.11,.02-.16,.03v.03c-.24,0-.34-.01-.46-.13-.02-.03-.04-.07-.07-.1h-.07l-.03-.07h-.1v-.03h-.07v-.03h-.07v-.03h-.07v-.03s-.09-.02-.13-.03l-.03-.07c-.07-.02-.13-.04-.2-.07v-.03s-.09-.07-.13-.1v-.07c-.1-.05-.2-.11-.29-.16-.09-.1-.17-.2-.26-.29h-.07s-.02-.04-.03-.07h-.07v-.03h-.07v-.03h-.1v-.03h-.1v-.03l-.1-.07v-.07s-.04-.02-.07-.03v-.07l-.07-.03v-.03h-.07v-.03h-.07s-.02-.04-.03-.07h-.07s-.07-.09-.1-.13c-.09-.08-.17-.15-.26-.23v-.07h-.03c-.07-.09-.13-.16-.26-.2-.01-.06-.16-.34-.2-.36h-.07v-.03h-.1v-.03c-.05-.01-.11-.02-.16-.03v-.03l-.1-.03s-.02-.04-.03-.07h-.07l-.07-.07v-.07l-.07-.03v-.07s-.07-.04-.1-.07c-.07-.09-.05-.13-.16-.2v-.07c-.16-.04-.38-.22-.49-.33-.03-.04-.07-.09-.1-.13-.05-.01-.11-.02-.16-.03-.07-.08-.13-.15-.2-.23h-.07l-.03-.07h-.03c-.07-.08-.07-.2-.16-.26v-.07c-.1-.03-.2-.07-.29-.1-.03-.04-.07-.09-.1-.13-.02-.01-.04-.02-.07-.03-.03-.04-.02-.13-.07-.16-.07-.02-.13-.04-.2-.07-.01-.02-.02-.04-.03-.07l-.1-.03s-.04-.07-.07-.1c-.04-.01-.09-.02-.13-.03-.01-.02-.02-.04-.03-.07h-.07l-.07-.1c-.11-.11-.23-.19-.43-.23,0-.06-.03-.12-.03-.13h.03v-.1s.07-.02,.1-.03v-.13h-.03v-.03c-.05-.03-.07,.06-.16,0-.04-.07-.09-.13-.13-.2h-.07v-.03c-.15-.06-.26,.08-.36,0-.21-.06-.16-.23-.26-.39l-.07-.03v-.1h-.03c-.01-.09-.02-.17-.03-.26l-.07-.03c-.12-.12-.25-.16-.49-.16v-.1s.11-.04,.1-.13h-.03v-.1h-.03c-.05-.08-.19-.17-.29-.2-.02-.07-.09-.2-.13-.23h-.07s-.02-.04-.03-.07h-.07s-.07-.09-.1-.13l-.07-.03v-.07s-.04-.02-.07-.03v-.07c-.05-.04-.11-.09-.16-.13v-.07l-.07-.03c-.03-.1-.07-.2-.1-.29-.1-.08-.2-.15-.29-.23v-.07l-.07-.07v-.07h-.03v-.07c-.08-.07-.15-.13-.23-.2v-.07l-.07-.03s-.02-.09-.03-.13c-.02-.01-.04-.02-.07-.03v-.07c-.05-.04-.11-.09-.16-.13v-.07s-.04-.02-.07-.03v-.07h-.03v-.07h-.03v-.1l-.07-.03v-.07s-.04-.02-.07-.03v-.07h-.03s-.02-.09-.03-.13c-.11-.09-.22-.17-.33-.26v-.07l-.07-.03v-.07h-.03l-.07-.1h-.07s-.02-.04-.03-.07h-.07s-.19-.12-.2-.13c-.05-.07-.01-.2-.07-.26-.13-.12-.61-.04-.75-.16h-.23s-.02,.04-.03,.07h-.07l-.03,.07c-.07,.05-.13,.11-.2,.16-.02,.03-.04,.07-.07,.1h-.23v.03c-.09,.01-.17,.02-.26,.03v.03h-.07v.03h-.1c-.16,.1-.33,.2-.49,.29-.01,.07-.06,.16-.03,.26h.03v.16h-.03v.1l-.07,.03v.07h-.03v.07c-.23,.2-.46,.39-.69,.59v.1h-.03v.1h-.03v.07h-.03v.07s-.07,.04-.1,.07v.03h-.07v.03c-.05,.04-.11,.09-.16,.13v.07h-.03c.01,.1,.02,.2,.03,.29h.03c-.01,.05-.02,.11-.03,.16h.03v.13h.03v.07s.07,.04,.1,.07v.07s.07,.04,.1,.07v.07s.04,.02,.07,.03c.01,.05,.02,.11,.03,.16h.03c.01,.14,.02,.28,.03,.43h-.03v.2h.03c.02,.07,.04,.13,.07,.2h.03v.16h.03v.1h.03v.1h.03c.06,.14,.06,.27,.16,.36-.01,.13-.04,.18-.13,.23,0,.14,0,.26,.07,.33,.04,.06,.08,.08,.16,.1,.01,.07,.06,.16,.03,.26h-.03c-.01,.08-.02,.15-.03,.23h.03v.13h.03v.1h.03v.1h.03c.01,.09,.02,.17,.03,.26h.03s.02,.09,.03,.13h.03c-.03,.1-.07,.2-.1,.29h.03v.07l.07,.03v.07h.03c.02,.16,.04,.33,.07,.49h.03s.02,.09,.03,.13h.03v.1h.03v.16h.03v.1h.03v.1h.03v.2h.03v.07s.07,.04,.1,.07v.07l.07,.03v.07h.03v.13h.03v.13h.03v.03c0,.07-.11,.17-.07,.29h.03v.07h.03c.08,.18,.03,.41-.1,.49,0,.12,0,.22,.03,.29,.06,0,.07,.03,.07,.03h.29s.02,.04,.03,.07c.02,.04,.04-.01,.03,.03h-.03v.07s-.07,.02-.1,.03v.07h-.03v.49c-.03,.09-.16,.22-.1,.39h.03v.07h.03c.01,.09,.02,.17,.03,.26,.1,.04,.2,.09,.29,.13,.02,.07,.04,.13,.07,.2h-.03v.1c-.07,.05-.13,.11-.2,.16v.07h-.03c.01,.13,.02,.26,.03,.39h-.03s-.06,.19-.03,.26h.03s.02,.09,.03,.13c.04,.03,.09,.07,.13,.1,.04,.07,0,.14,.03,.23h.03c-.01,.17-.02,.35-.03,.52h-.03c-.04,.09-.16,.23-.1,.39h.03s.02,.09,.03,.13h.03v.1h.03c.08,.24-.09,.4-.07,.59v.03h.03c.04,.17-.04,.46-.1,.52,0,.1,0,.18,.03,.23,.02,.01,.04,.02,.07,.03v.07s.04,.02,.07,.03c-.02,.21-.04,.42-.07,.62h.03v.07h.03s.07,.13,.03,.2h-.03v.23h.03s.04,.07,.07,.1h.07c.07,.08,.13,.15,.2,.23h.07v.03c.1,.01,.2,.02,.29,.03v.03s.09,.07,.13,.1v.07h.03c.06,.09-.02,.02,.07,.1v.03h.07v.03h.13v.03h.36s.02,.04,.03,.07h.07v.03h.07v.03c.13,.04,.2-.08,.26-.1,.2-.07,.3,.05,.43-.1,.22,.01,.17,.09,.33,.13v.03c.06,.02,.24-.19,.26-.23,.05,0,.13-.03,.13-.03v.03c.05,.01,.11,.02,.16,.03v.03c.05,.01,.11,.02,.16,.03,.05,.09,.11,.17,.16,.26,.21-.03,.1-.05,.16-.2h.03v-.07h.03v-.07c.08-.07,.15-.13,.23-.2v-.07h.03c-.01-.13-.02-.26-.03-.39h.03v-.13h.03v-.13h.03v-.16h.03v-.29h.03v-.1h.03c.01-.11,.02-.22,.03-.33h.03v-.39c.01-.07,.02-.13,.03-.2h-.03v-.1h-.03v-.07h-.03v-.49h-.03v-.49h-.03c-.01-.17-.02-.35-.03-.52,.03-.1,.12-.39,.07-.56h-.03v-.07h-.03v-.07h-.03v-.1h-.03c.01-.14,.07-.21,.16-.26,0-.08,0-.12-.03-.16h-.03v-.07l-.07-.03v-.07h-.03c-.03-.09,.05-.34,.07-.39v-.33h-.03c.01-.12,.02-.24,.03-.36h-.03v-.1h-.03c-.03-.1,.02-.27,.03-.33v-.26h-.03c-.01-.08,0-.07,.03-.1,.01-.03,.02-.07,.03-.1,.13-.02,.82-.09,.92,0,.22,0,.22,.05,.29,.2h.03v.1s.04,.02,.07,.03l.03,.07c.1,.02,.2,.04,.29,.07l.03,.07h.07c.08,.09,.15,.17,.23,.26h.07c.08,.05,.15,.11,.23,.16,.03,.1,.07,.2,.1,.29,.03,.01,.07,.02,.1,.03l.03,.07h.07c.05,.07,.11,.13,.16,.2v.1h.03v.13h.03s.02,.09,.03,.13c.13,.03,.17,.12,.26,.16,.15,.02,.31,.04,.46,.07l.03,.07h.07s.02,.04,.03,.07h.07s.02,.04,.03,.07h.07c.07,.08,.13,.15,.2,.23,.08,.02,.15,.04,.23,.07v.03s.04,.02,.07,.03v.07c.04,.07,.08,.25,.13,.29h.07l.03,.07h.07v.03c.07,.02,.1-.03,.1-.03,.09,.01,.17,.02,.26,.03,.07,.08,.13,.15,.2,.23,.05,.01,.11,.02,.16,.03v.03h.07v.03l.1,.03c.01,.05,.02,.11,.03,.16h.03c.04,.12,0,.28,.07,.36,.01,.03,.02,.07,.03,.1,.07-.01,.13-.02,.2-.03v-.03c.16,0,.16,.02,.23,.1h.03l.03,.1c.05,.01,.11,.02,.16,.03v.03s.07,.04,.1,.07v.07h.03v.1s.04,.02,.07,.03c.11,.12,.19,.22,.36,.29v.07h.03c.02,.07-.03,.1-.03,.1-.02,.1,.02,.16,.03,.23,.21,0,.26-.07,.43-.1,.03,.04,.08,.04,.1,.07,.01,.07,.02,.13,.03,.2h.03s.02,.09,.03,.13c.02,.01,.04,.02,.07,.03v.07c.08,.04,.15,.09,.23,.13h.1v.03h.07l.03,.07h.07v.03h.07v.03h.07l.07,.07h.07s.02,.07,.03,.1c.02,.01,.04,.02,.07,.03v.07h.03s.04,.07,.07,.1c.04,.01,.09,.02,.13,.03l.03,.07h.07v.03h.07v.03h.1v.03h.13v.03h.07s.02,.04,.03,.07h.07l.03,.07h.07v.03h.23v.03h.13v.03h.16v.03c.12-.01,.24-.02,.36-.03v.03c.11,.02,.22,.04,.33,.07v.03c.05,.01,.26-.06,.29-.07,.25-.01,.5-.02,.75-.03v.03s.09,.02,.13,.03l.03,.1s.04,.02,.07,.03c.03-.1,.07-.2,.1-.29,.02-.01,.04-.02,.07-.03v-.07s.04-.02,.07-.03c.01-.03,.02-.07,.03-.1,.05-.02,.11-.04,.16-.07v.03h.07v.07s.07,.02,.1,.03v-.03h.07c.01-.07,.02-.13,.03-.2h-.07c-.02-.08-.03-.14-.03-.26,.04-.03,.07-.08,.1-.13h.16v.03h.07v.03c.06,.01,.06-.03,.07-.03,.16-.03,.27,.03,.36,.07,.03-.07,0-.12,.03-.2h.03v-.16h.03v-.07h.03c.01-.11,.02-.22,.03-.33h.03c-.01-.1-.02-.2-.03-.29h.03v-.07c.07-.04,.13-.09,.2-.13,.02-.12,.04-.24,.07-.36,.03-.02,.07-.04,.1-.07v-.07h.03c-.01-.15-.02-.31-.03-.46h.03v-.07l.07-.03s.02-.09,.03-.13h.03v-.29h.03v-.07h.03s.02-.09,.03-.13c.02-.01,.04-.02,.07-.03v-.07h.03c.06-.11,.07-.22,.07-.39,.09-.02,.24-.15,.2-.29-.02-.07-.14-.13-.1-.26h.03v-.07l.07-.03v-.07h.03v-.2h.03v-.16h.03v-.1c.09-.08,.17-.15,.26-.23v-.39h.03v-.07c.05-.07,.11-.13,.16-.2h.07s.03-.07,.07-.1c-.01-.14-.06-.18-.13-.26h-.03v-.07h-.03c.03-.1,.07-.2,.1-.29h.03c.01-.09,.02-.17,.03-.26,.03-.02,.07-.04,.1-.07v-.07h.03c.01-.09,.02-.17,.03-.26h.03v-.1h.03v-.07h.03v-.13h.03v-.13l.07-.03v-.07l.13-.1s.02-.09,.03-.13h.03c-.01-.17-.02-.35-.03-.52h.03c.02-.11,.04-.22,.07-.33h.03v-.16h.03v-.07h.03v-.1s.04-.02,.07-.03v-.07l.07-.03c.02-.11,.04-.22,.07-.33h.03v-.07h.03c.02-.07,.04-.13,.07-.2h.03v-.1h.03c.08-.24-.09-.5,0-.72h.03v-.07s.04-.02,.07-.03v-.1h.03v-.1h.03v-.1h.03c.01-.11,.02-.22,.03-.33h.03v-.23h.03v-.13h.03v-.1h.03v-.07h.03v-.1h.03v-.2h.03v-.1l.07-.03v-.07l.07-.03c.01-.05,.02-.11,.03-.16h.03v-.23h.03v-.13h.03v-.13h.03c.01-.11,.02-.22,.03-.33h.03v-.07h.03v-.07s.04-.02,.07-.03c.01-.04,.02-.09,.03-.13h.03c-.01-.16-.02-.33-.03-.49,.04-.15,.12-.35,.16-.49v-.16h.03c-.01-.11-.02-.22-.03-.33,.03-.1,.14-.27,.1-.43Z"/>
        <path class="cls-1" d="M54.46,46.31h-.07v-.03h-.13v-.03h-.1v-.03h-.07v-.03h-.07s-.04-.14-.07-.16c-.09-.03-.17-.07-.26-.1-.04-.1-.09-.23,0-.33,0-.15,0-.32-.03-.43h-.46v.03h-.1v.03h-.13v.03c-.12-.02-.24-.04-.36-.07-.07,.05-.13,.11-.2,.16v.03h-.07s0,.01-.07,.03c-.03-.03-.06-.05-.1-.07-.02-.05-.01-.07-.03-.13h-.03v-.23h-.03s0,0-.03-.03c-.04,.08-.09,.15-.13,.23-.07,.01-.42,.08-.52,.03-.01-.02-.02-.04-.03-.07-.04-.01-.09-.02-.13-.03-.02,.03-.06,.06-.07,.07-.01,.05-.02,.11-.03,.16-.01,.02-.05,.03-.07,.07-.18,0-.27-.03-.39-.07-.17,.01-.35,.02-.52,.03v-.03h-.29v-.03h-.1v-.03h-.1v-.03h-.13v-.03c-.13-.02-.26-.04-.39-.07v-.03h-.07v-.03h-.07s-.02-.04-.03-.07h-.07v-.03h-.07v-.03h-.07l-.07-.07h-.07v-.03s-.07-.02-.1-.03c-.01-.02-.02-.04-.03-.07h-.07s-.02-.04-.03-.07c-.07-.05-.13-.11-.2-.16,0-.2,.18-.43,.43-.36v.03c.05,.01,.11,.02,.16,.03v-.03h.07l.07-.1h.07v-.03h.07v-.03h.13v-.03h.1s.04-.07,.07-.1c.03-.01,.07-.02,.1-.03v-.03h.13v-.03h.13v-.03h.13v-.03h.1v-.03h.07v-.03h.1v-.03h.13v-.03h.07c.07-.1,.13-.2,.2-.29,.1-.03,.2-.07,.29-.1,.05-.07,.11-.13,.16-.2,.02-.01,.04-.02,.07-.03v-.07c.05-.07,.11-.13,.16-.2h.1v-.03h.16l.03-.07h.03c.03-.1,.07-.2,.1-.29,.1-.09,.2-.17,.29-.26v-.07s.04-.02,.07-.03c.01-.03,.02-.07,.03-.1h.03v-.07l.07-.07v-.07h.03v-.07h.03v-.07l.07-.03v-.07l.07-.03v-.07l.07-.07v-.07h.03v-.07l.07-.07v-.07c.07-.05,.13-.11,.2-.16,.01-.04,.02-.09,.03-.13l.07-.03s.02-.09,.03-.13c.02-.01,.04-.02,.07-.03,.03-.1,.07-.2,.1-.29,.01-.12,.02-.24,.03-.36h.03v-.07h.03v-.07h.03c.02-.07,.04-.13,.07-.2h.03c.03-.1-.03-.16-.03-.23v-.39h-.03v-.1h-.03c-.01-.11-.02-.22-.03-.33h-.03c-.03-.11-.01-.4,.03-.46v-.23s-.04-.02-.07-.03v-.07c-.1-.09-.2-.17-.29-.26v-.07h-.03c-.04-.2-.09-.39-.13-.59h-.03v-.07c-.05-.03-.11-.07-.16-.1-.02-.12-.04-.24-.07-.36-.12-.11-.24-.22-.36-.33v-.07h-.03s-.04-.07-.07-.1c-.05-.01-.11-.02-.16-.03v-.03h-.1v-.03s-.07-.04-.1-.07c-.01-.08-.02-.15-.03-.23-.03-.01-.07-.02-.1-.03v.03h-.16v-.03h-.07v-.03h-.07c-.05-.07-.11-.13-.16-.2v-.07h-.03v-.07h-.03v-.07l-.07-.03v-.07s-.07-.04-.1-.07v-.07c-.07-.05-.13-.11-.2-.16h-.07v-.03h-.07v-.03c-.12-.02-.24-.04-.36-.07v-.03c-.07-.02-.13-.04-.2-.07v-.03h-.07v-.03h-.07v-.03h-.1v-.03h-.13v-.03h-.13v-.03c-.17-.02-.35-.04-.52-.07h-.29v-.03c-.05-.01-.11-.02-.16-.03l-.03-.07h-.07v-.03h-.1v-.03c-.07-.02-.1,.03-.1,.03-.11,.03-.18,.01-.26,.07-.02,.03-.04,.07-.07,.1h-.07v.03c-.14,.05-.24-.05-.33-.07-.07,.05-.13,.11-.2,.16v.1h-.03s-.02,.07-.03,.1c-.07,.02-.03,0-.07,.03-.15-.02-.18-.1-.33-.13-.03,.04,0,0-.03,.03,0,.12,.03,.15,.07,.23-.06,.03-.05,.05-.13,.07-.09,.08-.25,.05-.36,.03-.02-.1-.06-.12-.1-.2-.16,0-.18,.03-.26,.1l-.03,.07h-.26c-.1,.04-.2,.09-.29,.13-.02,.05-.03,.05-.03,.13l.03,.03s-.12,.04-.16,.07c-.11,.12-.22,.24-.33,.36h-.07s-.02,.04-.03,.07h-.07c-.13,.14-.26,.28-.39,.43h-.07c-.02,.07-.03,.08-.07,.13h-.03s-.02,.09-.03,.13c-.09,.05-.17,.11-.26,.16h-.07s-.03,.04-.07,.07c-.01,.07-.06,.16-.03,.26h.03v.23c-.05,.08-.11,.15-.16,.23-.09-.01-.17-.02-.26-.03v-.03s-.09,.02-.13,.03c-.02,.07,0,.03-.03,.07v.2c.09,.04,.17,.09,.26,.13,0,.1,0,.17-.03,.23-.05,.01-.11,.02-.16,.03v-.03h-.23s-.02,.04-.03,.07c-.06,.05-.13,.13-.16,.2v.07h-.03v.1h-.03v.1h-.03c.01,.1,.02,.2,.03,.29h-.03v.1h-.03v.1h-.03v.1h-.03v.13h-.03v.1h-.03s-.02,.09-.03,.13h-.03v.07s-.09,.07-.13,.1v.07s-.04,.02-.07,.03v.07h-.03c-.04,.07,0,.07-.07,.13,0,.22,.04,.22,.1,.36v.1s.04,.02,.07,.03c.01,.11,.02,.22,.03,.33h-.03s-.02,.09-.03,.13c-.03,.02-.07,.04-.1,.07v.07l-.07,.03c-.01,.14-.02,.28-.03,.43h-.03v.16h-.03s-.02,.09-.03,.13h-.03v.13h-.03v.26s-.02,.04-.03,.07h.03c.01,.08,.02,.15,.03,.23h.03c-.01,.12-.02,.24-.03,.36h.16v.03h.07s.11,.24,.1,.29h-.03v.13l-.07,.03v.07h-.03c-.04,.07,.04,.04-.03,.1,0,.19,.02,.31,.1,.43,.05,.04,.11,.09,.16,.13v.07h.03c-.02,.13-.04,.26-.07,.39,.08,.07,.15,.13,.23,.2,.04,.07,0,.2,.07,.26,0,.23-.05,.25-.2,.33,.02,.08,.02,.05,.07,.1v.03h.07s.02,.04,.03,.07c.04,.01,.09,.02,.13,.03v.03c.15,.06,.25-.04,.36,.07,.08,.05,.02,.02,.07,.1h.03v.07h.03v.23h.03c.01,.07,.02,.13,.03,.2h.03v.1h.03c.14,.22,.29,.05,.46,.16v.03c.09,.08,0,0,.07,.1h.03v.1c.05,.04,.11,.09,.16,.13v.03h.07v.03h.1s.18,.11,.2,.13v.07h.03v.1h.03v.07l.1,.07v.03c.13,.01,.26,.02,.39,.03,.03,.05,.07,.11,.1,.16,.03,.01,.07,.02,.1,.03,.01,.02,.02,.04,.03,.07h.07s.04,.07,.07,.1h.07s.02,.07,.03,.1c.03,.02,.07,.04,.1,.07,0,.13-.02,.15-.1,.2,.04,.14,.12,.13,.23,.2,.01,.02,.02,.04,.03,.07h.07v.03h.36v.03c.07,.02,.13,.04,.2,.07v.03h.07v.03s.09,.02,.13,.03v.03c.1,.08,.13,.2,.26,.23v.03s.11-.02,.13-.03v-.03h.16v.03h.03v.2h.03v.03c.13-.01,.26-.02,.39-.03,.03,.04,.07,.03,.1,.07,.01,.03,.02,.07,.03,.1,.04,.06,.12,.08,.16,.16,.22,0,.53,0,.69,.07v.03h.07v.03s.09,.02,.13,.03v.03h.1v.03c.29-.01,.59-.02,.88-.03,.09,.02,.23,.11,.39,.07v-.03h.16v-.03h.13v-.03h.2v-.03c.13-.01,.26-.02,.39-.03v-.03c.08-.01,.15-.02,.23-.03v-.03h.13v.03c.09-.01,.17-.02,.26-.03v-.03h.07c.07-.08,.13-.15,.2-.23l.13-.03v-.03h.13v-.03h.13v-.03h.33v-.03h.07v-.03h.1v-.03c.12-.01,.24-.02,.36-.03,.07-.09,.13-.17,.2-.26,.04-.01,.09-.02,.13-.03l.07-.1h.07s.02-.04,.03-.07c.1-.01,.2-.02,.29-.03v-.03h.1v-.03s.07-.02,.1-.03c.02-.12,.07-.28,.1-.39,.01-.12,.02-.24,.03-.36h.03v-.07c.07-.05,.13-.11,.2-.16,.02-.1,.04-.2,.07-.29h.03c.04-.09,.06-.15,.1-.23-.04-.02-.05-.06-.07-.07Zm-11.73-1.44h-.13s-.02-.09-.03-.13c.07-.02,.03,0,.07-.03,.08,0,.08,.01,.13,.03,0,.08-.01,.08-.03,.13Zm5.44-4.1h-.52c-.14,.04-.39,.17-.62,.1v-.03c-.05-.01-.11-.02-.16-.03-.03-.04-.07-.09-.1-.13-.04-.01-.09-.02-.13-.03v-.03c-.08-.01-.15-.02-.23-.03v-.03h-.1v-.03h-.07v-.03h-.07s-.04-.07-.07-.1h-.07c-.07-.11-.13-.22-.2-.33v-.2h.03s.02-.09,.03-.13l.07-.03c.09-.14,.09-.33-.03-.43,.02-.13,.07-.15,.13-.23h.03v-.07s.04-.02,.07-.03v-.13h.03s.02-.09,.03-.13h.03c.08-.09,0-.01,.1-.07v-.03h.07s.02-.04,.03-.07h.07v-.03h.07l.03-.07h.07s.04-.07,.07-.1h.07c.04-.05,.09-.11,.13-.16,.1-.09,.2-.17,.29-.26,.21,0,.37,0,.52,.07v.03h.1v.03c.14,.04,.26-.14,.43-.07,.01,.02,.02,.04,.03,.07,.09,.01,.17,.02,.26,.03v.03h.07s.02,.04,.03,.07c.06,.04,.2,.03,.26,.07v.03s.07,.04,.1,.07c.01,.07,.02,.13,.03,.2h-.03v.16c.11,.07,.22,.13,.33,.2v.49s-.09,.07-.13,.1c-.01,.05-.02,.11-.03,.16h-.03v.1s-.04,.02-.07,.03v.07c-.05,.04-.11,.09-.16,.13-.02,.1-.04,.2-.07,.29h-.03v.07h-.03v.07l-.07,.03v.07h-.03s-.07,.09-.1,.13c-.07,.02-.13,.04-.2,.07v.03h-.13v.03h-.13v.03Z"/>
        <path class="cls-1" d="M80.94,39v-.13c-.03-.09-.11-.24-.07-.39,.05-.17,0-.36,0-.59v-.29h-.03v-.07h-.03v-.07h-.03c-.04-.08-.03-.17-.07-.26h-.03v-.1h-.03v-.16h-.03c-.06-.16-.1-.37-.23-.46-.02-.07,0-.03-.03-.07-.02,.09-.04,.17-.07,.26-.08,.07-.15,.13-.23,.2,.01,.05,.02,.11,.03,.16h-.03s-.02,.07-.03,.1c-.09,0-.11-.01-.16-.03-.03-.1-.07-.2-.1-.29-.03-.01-.07-.02-.1-.03v-.03s-.07-.02-.1-.03c-.01-.02-.02-.04-.03-.07h-.07s-.02-.04-.03-.07h-.1v-.03h-.1v-.03h-.07v-.03h-.07s-.04-.11-.07-.16h-.03v-.1h-.03s-.04-.07-.07-.1c-.24,.03-.14,.15-.23,.29-.03,.02-.07,.04-.1,.07-.01,.04-.02,.09-.03,.13h-.03c-.08,.22,.1,.41-.16,.49-.09,.06-.41-.13-.56-.16-.07,.08-.07,.02-.16,.07v.03h-.07v.03h-.1v.03s-.07,.02-.1,.03c-.01,.02-.02,.04-.03,.07-.08,.01-.15,.02-.23,.03v.03s-.09,.07-.13,.1v.49l-.1,.07v.07s-.04,.02-.07,.03c-.03,.08,.06,.22,.07,.26-.01,.1-.02,.2-.03,.29,.03,.1,.21,.25,.16,.39h-.03s-.02,.09-.03,.13h-.03v.62h.03v.13s-.04,.02-.07,.03v.07s-.07,.04-.1,.07v.07s-.04,.02-.07,.03c-.01,.04-.02,.09-.03,.13h-.03v.13h-.03v.1l-.07,.03c-.03,.05-.07,.56-.03,.66h.03v.07h.03c-.02,.07,0,.03-.03,.07v.03h-.2v.03s-.06,.06-.1,.1c0,.09,0,.18,.03,.23,.02,.01,.04,.02,.07,.03,.04,.06,0,.08,.07,.13v.1h-.03v.03h-.26c-.03,.06-.05,.12-.1,.16,.01,.26,.04,.09,.2,.16,0,0,.03,.05,.07,.07,0,.13,0,.16-.07,.23l-.07,.03c-.01,.07-.02,.13-.03,.2h-.03v.03h-.2v.03l-.1,.03c-.03,.09-.07,.17-.1,.26v.1h-.03v.07h-.03v.07l-.07,.03c-.05,.08-.06,.14-.13,.2v.23h.03v.07h.03c.04,.06,.1,.16,.03,.23-.02,.09-.04,.11-.13,.13v.03l-.03-.03h-.1v-.03s-.13-.07-.2-.03v.03c-.25,.07-.14,.28-.26,.46-.15,.12-.31,.24-.46,.36-.05,.08,0,.19-.03,.29h-.03s-.02,.09-.03,.13c-.04,.01-.09,.02-.13,.03v.03h-.13v-.03c-.22-.06-.39,.06-.52-.1-.09,0-.2,.04-.23,.1v.16h-.03v.07s-.05,.03-.07,.07c-.07,.02-.03,0-.07,.03-.05-.01-.11-.02-.16-.03-.02-.08-.03-.07-.07-.13h-.13v.03c-.29,0-.33,.04-.43-.16h-.03v-.23h-.03v-.07s-.07-.04-.1-.07v-.07l-.07-.03v-.07l-.07-.07v-.07h-.03v-.07h-.03v-.07h-.03v-.07l-.07-.03s-.02-.09-.03-.13c-.03-.02-.07-.04-.1-.07v-.07s-.09-.07-.13-.1c-.03-.1-.07-.2-.1-.29l-.07-.03v-.1h-.03v-.1h-.03v-.16h-.03v-.1h-.03v-.1h-.03v-.1h-.03v-.07h-.03c-.01-.07-.02-.13-.03-.2h-.03c.01-.09,.02-.17,.03-.26h-.03v-.1h-.03v-.07h-.03v-.07s-.04-.02-.07-.03v-.07h-.03c-.01-.1-.02-.2-.03-.29h-.03v-.07h-.03c-.01-.05-.02-.11-.03-.16h-.03s-.02-.09-.03-.13h-.03v-.1h-.03v-.1h-.03c-.01-.1-.02-.2-.03-.29h-.03v-.2c-.08-.23-.3-.33-.36-.59,.01-.07,.02-.13,.03-.2-.07,.02-.08,.03-.13,.07v.03h-.07v.03h-.07v.03h-.1v.03c-.11-.01-.22-.02-.33-.03-.06-.07-.06-.03-.13-.07v-.03h-.07c-.05-.1-.11-.2-.16-.29h-.49c-.04,.08-.09,.15-.13,.23-.15,.1-.27-.03-.33,.2-.07,.01-.16,.06-.26,.03v-.03h-.16v.03h-.07v.03h-.07v.03c-.1,.02-.2,.04-.29,.07-.04,.03-.04,.12-.07,.16h-.03s-.07,.09-.1,.13c-.12,.01-.24,.03-.33-.07h-.16c-.07,.08-.13,.15-.2,.23-.05,.12,.04,.28-.03,.36-.04,.15-.17,.18-.29,.23-.02,.1-.04,.2-.07,.29h-.03c-.01,.1-.02,.2-.03,.29l-.07,.03v.07c-.05,.04-.11,.09-.16,.13v.07c-.07,.05-.13,.11-.2,.16-.01,.07-.02,.13-.03,.2l-.07,.03c-.02,.07-.04,.13-.07,.2-.02,.01-.04,.02-.07,.03v.1h-.03v.26h-.03v.13h-.03v.07h-.03v.07h-.03s-.04,.07-.07,.1c-.07,.01-.13,.02-.2,.03v.03c-.09,.09-.04,.25-.1,.36h-.03s-.02,.09-.03,.13c-.04,.03-.09,.07-.13,.1v.07l-.07,.03c-.02,.1-.04,.2-.07,.29-.03,.08-.1,.16-.13,.23h-.39s-.03,.05-.1,.03v-.03h-.1v-.03h-.16v-.03c-.05-.01-.11-.02-.16-.03-.01-.08-.06-.18-.03-.29h.03v-.26l-.13-.1v-.07h-.03c-.04-.11,0-.62,.03-.69,.01-.03,.17-.21,.2-.23-.03-.22-.11-.1-.16-.2v-.07h-.03c-.04-.08,.03-.22,.03-.26,.01-.15,.02-.31,.03-.46,.03-.09,.2-.35,.16-.49h-.03c-.04-.16,.05-.36,.1-.46h.03v-.13h.03v-.16h.03c.05-.17-.03-.35,.03-.49,.06-.14,.25-.25,.29-.36,.07-.17-.05-.37,.03-.56h.03v-.07l.07-.03c.02-.1,.04-.2,.07-.29h.03c.02-.07,.04-.13,.07-.2h.03v-.1h.03v-.26h.03v-.1h.03v-.07h.03v-.1h.03c.01-.1,.02-.2,.03-.29h.03v-.1h.03v-.13h.03v-.16c.03-.09,.14-.24,.1-.39h-.03v-.13h-.03v-.23h.03v-.13h.03c.04-.1,.15-.32,.1-.49h-.03v-.23h-.03s-.02-.07-.03-.1h-.29v.03l-.13,.03v-.03h-.03c0-.11,0-.15,.07-.2v-.16h-.03c-.08-.07-.35,0-.46-.07-.01-.02-.02-.04-.03-.07h-.07s-.07-.09-.1-.13c-.07-.02-.13-.04-.2-.07-.01-.03-.02-.07-.03-.1l-.07-.03v-.07h-.03v-.07l-.07-.07h-.07v-.03c-.25,.03-.31,.21-.49,.29-.09,.04-.41,.11-.56,.07-.06-.02-.24-.12-.36-.07-.01,.02-.02,.04-.03,.07-.09,.07-.17,.13-.26,.2-.1,.04-.39-.08-.49-.1-.03,.03-.04,.03-.07,.07-.1,.12,.04,.2,0,.33-.02,.07-.1,.13-.13,.2-.09,0-.12-.01-.16-.07-.14,0-.11,.02-.2,.07,0,.16,0,.24,.1,.29-.01,.25-.16,.15-.26,.29h-.07c-.02,.06-.16,.29-.1,.39h.03c0,.27-.15,.32-.33,.39v.13c.14,.03,.16,.11,.26,.16-.03,.24-.12,.14-.26,.23-.01,.02-.02,.04-.03,.07-.03,.01-.07,.02-.1,.03v.07h-.03c-.04,.15,.17,.19,.1,.39h-.03v.07h-.03v.1h-.03v.07h-.03v.1c-.13,.14-.26,.28-.39,.43v.16h.03c.02,.08,.02,.05,.07,.1v.03h.07v.03s.07,.02,.1,.03c.02,.07,0,.03,.03,.07,0,.2,0,.17-.1,.26-.01,.02-.02,.04-.03,.07h-.07v.03s-.07,.04-.1,.07c-.05,.06,.03,.02-.03,.07,0,.22,.06,.32,.2,.39,0,.23-.04,.18-.2,.23,0,.13,.12,.45,.07,.56-.05,.04-.11,.09-.16,.13v.43h-.03s-.02,.09-.03,.13h-.03v.07l-.07,.03v.36h-.03v.13h-.03v.36h-.03v.26h.03c.01,.05,.02,.11,.03,.16,0,.08-.12,.14-.13,.2,.01,.03,.02,.07,.03,.1h.03v.07h.03c-.02,.14-.04,.28-.07,.43h.03c.01,.07,.02,.13,.03,.2h.03s.02,.09,.03,.13h.03v.1h.03c.05,.15-.02,.42-.03,.52-.03,.18,.06,.28,.1,.39v.43h.03v.43h.03v.07h.03s.02,.09,.03,.13c.03,.02,.07,.04,.1,.07v.07l.1,.07v.07h.03s.02,.09,.03,.13h.03v.1h.03v.1h.03v.16h.03v.2c.05,.13,.2,.3,.29,.39l.1,.07v.07h.03v.07h.03v.13h.03v.1c.09,.07,.17,.13,.26,.2,.02,.07,.04,.13,.07,.2,.04,.03,.09,.07,.13,.1v.07h.03v.07h.03s.02,.07,.03,.1c.18,.07,.41,.03,.56,.13,.07,.08,.13,.15,.2,.23h.07s.02,.04,.03,.07c.04,.03,.09,.07,.13,.1,.05,.07,.04,.18,.1,.23h.07l.03,.07c.21,.05,.42,.11,.62,.16,.09,.04,.13,.14,.2,.2v.07c.05,.01,.11,.02,.16,.03v.03c.15,.05,.26-.02,.39,.07,.02,.03,.04,.07,.07,.1h.07s.02,.04,.03,.07h.07v.03h.88v-.03c.05-.01,.11-.02,.16-.03l.03-.07h.07s.07-.09,.1-.13h.07s.02-.04,.03-.07l.13-.03s.02-.04,.03-.07h.07s.02-.04,.03-.07l.1-.03s.04-.07,.07-.1h.07s.07-.09,.1-.13c.11-.1,.22-.2,.33-.29,.04-.05,.09-.11,.13-.16h.07c.09-.05,.17-.11,.26-.16,.02-.08,.04-.15,.07-.23,.08-.07,.15-.13,.23-.2v-.07l.07-.03s.02-.09,.03-.13c.07-.05,.13-.11,.2-.16v-.07l.1-.07v-.03h.07s.07-.09,.1-.13h.03v-.07s.04-.02,.07-.03c.01-.03,.02-.07,.03-.1h.03s.02-.09,.03-.13c.02-.01,.04-.02,.07-.03v-.07l.07-.03v-.07s.07-.04,.1-.07v-.07s.04-.02,.07-.03v-.07s.04-.02,.07-.03c.03-.04,.07-.09,.1-.13h.07c.07-.04,.15-.13,.29-.1v.03h.16v-.03c.05-.04,.05-.05,.13-.07,.07,.05,.13,.11,.2,.16v.07c.05,.08,.11,.15,.16,.23h.07v.03s.07,.02,.1,.03v.03h.03c.01,.05,.02,.11,.03,.16h.03v.07s.04,.02,.07,.03v.07l.07,.03v.07h.03c.04,.05,.09,.11,.13,.16h.1v.03c.05,.01,.11,.02,.16,.03,.05,.04,.12,.28,.13,.36,.04-.03,.04-.02,.07-.07h.16v.03s.07,.04,.1,.07v.07h.03c.05,.11-.04,.03,.07,.13v.03h.07l.07,.07h.07v.03h.07l.03,.07h.07c.12,.14,.24,.28,.36,.43,.11,.01,.22,.02,.33,.03v.03h.1v.03h.1v.03c.12,.02,.24,.04,.36,.07l.03,.07h.07s.04,.07,.07,.1h.07l.03,.07s.09,.02,.13,.03v.03h.26v-.03h.07v-.03h.23c.44,.02,.87,.04,1.31,.07v-.03h.1s.04-.07,.07-.1l.13-.03v-.03c.15-.01,.31-.02,.46-.03v-.03h.23v-.03h.2v-.03h.13v-.03h.07v-.03h.1v-.03c.05-.01,.11-.02,.16-.03,.04-.05,.09-.11,.13-.16h.07l.07-.1s.09-.02,.13-.03c.11-.12,.22-.24,.33-.36v-.07l.1-.07v-.07l.07-.07h.07c.07-.08,.13-.15,.2-.23h.07s.04-.07,.07-.1h.07l.07-.1h.07c.04-.05,.09-.11,.13-.16,.03-.01,.07-.02,.1-.03v-.07l.07-.03v-.1s.04-.02,.07-.03v-.07s.09-.07,.13-.1v-.07l.07-.03s.02-.09,.03-.13h.03c.01-.1,.02-.2,.03-.29,.04-.03,.09-.07,.13-.1v-.07s.07-.04,.1-.07v-.07l.07-.03c.02-.07,.04-.13,.07-.2h.03v-.07l.07-.07v-.07s.04-.02,.07-.03c.01-.07,.02-.13,.03-.2h.03c.01-.08,.02-.15,.03-.23l.07-.03v-.07s.04-.02,.07-.03c.05-.08,.11-.15,.16-.23h.07c.03-.11,.1-.15,.16-.23h.03v-.07h.03c-.01-.14-.02-.28-.03-.43h.03v-.07s.07-.04,.1-.07v-.07s.04-.02,.07-.03v-.07h.03c.06-.15-.03-.33,.03-.46,.02-.01,.04-.02,.07-.03v-.07c.09-.08,.17-.15,.26-.23v-.07s.04-.02,.07-.03c.01-.04,.02-.09,.03-.13l.07-.03c.07-.13-.02-.34,.03-.49h.03v-.1h.03v-.1h.03c.02-.11,.04-.22,.07-.33h.03v-.1h.03c.01-.08,.02-.15,.03-.23,.02-.01,.04-.02,.07-.03v-.1h.03c.01-.09,.02-.17,.03-.26l.07-.03c.06-.07,.1-.1,.13-.2h.03c-.02-.07-.04-.13-.07-.2h-.03c-.1-.29,.41-.45,.2-.69-.01-.33,.04-.37,.26-.46,.01-.07,.07-.18,.03-.29-.04-.13-.13-.35-.07-.52h.03v-.07h.03c.03-.12,.07-.24,.1-.36,.03-.02,.07-.04,.1-.07v-.07h.03c.02-.07-.03-.1-.03-.1Z"/>
      </g>
    </g>
  </g>
</svg>