<?xml version="1.0" encoding="UTF-8"?>
<svg id="Layer_2" data-name="Layer 2" xmlns="http://www.w3.org/2000/svg" viewBox="0 0 35 35">
  <defs>
    <style>
      .cls-1 {
        fill: #fff;
      }

      .cls-2 {
        fill: #1b2659;
      }
    </style>
  </defs>
  <g id="Layer_1-2" data-name="Layer 1">
    <g>
      <path class="cls-2" d="M35,17.5C35,7.84,27.16,0,17.5,0S0,7.84,0,17.5c0,8.73,6.4,15.97,14.77,17.29v-12.23h-4.44v-5.06h4.44v-3.86c0-4.39,2.61-6.81,6.61-6.81,1.91,0,3.92,.34,3.92,.34v4.31h-2.21c-2.17,0-2.85,1.35-2.85,2.73v3.28h4.85l-.78,5.06h-4.08v12.23c8.37-1.31,14.77-8.55,14.77-17.29Z"/>
      <path class="cls-1" d="M24.31,22.56l.78-5.06h-4.85v-3.28c0-1.38,.68-2.73,2.85-2.73h2.21V7.18s-2-.34-3.92-.34c-4,0-6.61,2.42-6.61,6.81v3.86h-4.44v5.06h4.44v12.23c.89,.14,1.8,.21,2.73,.21s1.84-.07,2.73-.21v-12.23h4.08Z"/>
    </g>
  </g>
</svg>