<svg xmlns="http://www.w3.org/2000/svg" viewBox="0 0 31.77 32.39"><defs><style>.cls-1{fill:#fff;}</style></defs><g id="Layer_2" data-name="Layer 2"><g id="レイヤー_1" data-name="レイヤー 1"><path class="cls-1" d="M10.43,17.33a.78.78,0,0,0-.92.07L7.83,18.82l-.65,1.05L2.77,16a.85.85,0,0,0-.5-.2l-1.46,0A.79.79,0,0,0,.13,17l4.62,7a.85.85,0,0,1,.11.26l1.26,5.57a.79.79,0,0,0,.45.54l4.28,1.89a.88.88,0,0,0,.32.07l13,.08a.77.77,0,0,0,.39-.11l6.15-3.52a.8.8,0,0,0,.39-.57L31.77,23a.83.83,0,0,0-.12-.53l-2.93-4.59a.78.78,0,0,0-.91-.33L24.2,18.78a.93.93,0,0,1-.24,0L13.34,19a.81.81,0,0,1-.42-.12Z"/><path class="cls-1" d="M14,17.84l10.44-.16a.67.67,0,0,0,.24,0l1.56-.53a.79.79,0,0,0,.21-1.38l-2.09-1.56a.81.81,0,0,0-.46-.15L15,13.86a.76.76,0,0,0-.21,0l-3.45.92A.79.79,0,0,0,10.87,16l.68,1.16a.8.8,0,0,0,.54.37l1.76.33Z"/><path class="cls-1" d="M17.34,14.84V13.26a.79.79,0,0,0-.2-.52l-.74-.84a.79.79,0,0,1-.17-.72L16.54,10a.79.79,0,0,1,.31-.45L18,8.79a.79.79,0,0,1,.86,0l1.49,1a.78.78,0,0,1,.33.9l-.32,1a.7.7,0,0,1-.23.35l-1,.84a.79.79,0,0,0-.26.59v2Z"/><path class="cls-1" d="M8.81,16.38,9.54,14a.78.78,0,0,0,0-.52L8.2,10.11a.79.79,0,0,1,0-.62l2.49-5.34a.8.8,0,0,1,.43-.4l4.93-1.91a.74.74,0,0,1,.44,0l8.84,1.75a.81.81,0,0,1,.54.39l2.94,5.38a.79.79,0,0,1,.09.5l-.5,3a.81.81,0,0,1-.12.29l-.59.92a.8.8,0,0,0-.08.69l.6,1.67,2.1-3.8a.85.85,0,0,0,.09-.38V8.44a.85.85,0,0,0-.08-.35L27.43,2.42A.79.79,0,0,0,26.88,2L16.78,0a.8.8,0,0,0-.48.06L9.17,3.33a.8.8,0,0,0-.4.41L6.1,10a.83.83,0,0,0,0,.64Z"/></g></g></svg>