<svg xmlns="http://www.w3.org/2000/svg" viewBox="0 0 105.81 66.9"><defs><style>.cls-1{fill:#d0121b;fill-rule:evenodd;}.cls-2{fill:#fff;}</style></defs><g id="Layer_2" data-name="Layer 2"><g id="レイヤー_1" data-name="レイヤー 1"><path class="cls-1" d="M81.47,7.74,26.1,5.28l-.21,0L1.91,0A1.58,1.58,0,0,0,0,1.84L5.88,33.72a1.6,1.6,0,0,0,0,.21l7.68,19.31a1.55,1.55,0,0,0,1.22,1.07l20.64,3.83a1.56,1.56,0,0,1,1.28,1.35l.46,3.71a1.59,1.59,0,0,0,1.27,1.36l12.18,2.32a2.26,2.26,0,0,0,.45,0l18.1-1.82a1.56,1.56,0,0,0,1.33-1l1.11-3.14a1.58,1.58,0,0,1,1.28-1l16.41-2.21a1.6,1.6,0,0,0,1.14-.74L99,43a1.78,1.78,0,0,0,.21-.54l6.63-36.78A1.59,1.59,0,0,0,104,3.83L81.86,7.72A1.28,1.28,0,0,1,81.47,7.74Z"/><path class="cls-2" d="M32.17,27.53h2.49v1.25a3.13,3.13,0,0,1,2.59-1.41,2.64,2.64,0,0,1,2.47,1.39,3.62,3.62,0,0,1,2.88-1.39c1.85,0,3,1.11,3,3.22V36.3H43.08V31.41c0-1.18-.53-1.78-1.46-1.78s-1.51.6-1.51,1.78V36.3H37.62V31.41c0-1.18-.52-1.78-1.45-1.78s-1.51.6-1.51,1.78V36.3H32.17Z"/><path class="cls-2" d="M47.41,32v0a4.36,4.36,0,0,1,4.34-4.56c2.92,0,4.27,2.27,4.27,4.76,0,.2,0,.43,0,.66h-6.1A2,2,0,0,0,52,34.5a2.87,2.87,0,0,0,2.13-.9l1.42,1.26A4.63,4.63,0,0,1,47.41,32Zm6.19-.74a1.89,1.89,0,0,0-1.85-1.87,2,2,0,0,0-1.9,1.87Z"/><path class="cls-2" d="M57.9,27.53h2.49v1.25A3.09,3.09,0,0,1,63,27.37c1.88,0,3,1.24,3,3.26V36.3H63.45V31.41c0-1.18-.56-1.78-1.5-1.78s-1.56.6-1.56,1.78V36.3H57.9Z"/><path class="cls-2" d="M68.14,33.21V27.53h2.48v4.9c0,1.17.56,1.78,1.51,1.78s1.56-.61,1.56-1.78v-4.9h2.48V36.3H73.69V35.06a3.11,3.11,0,0,1-2.57,1.41C69.23,36.47,68.14,35.22,68.14,33.21Z"/></g></g></svg>