<svg xmlns="http://www.w3.org/2000/svg" viewBox="0 0 105.81 66.9"><defs><style>.cls-1{fill:#d0121b;fill-rule:evenodd;}.cls-2{fill:#fff;}</style></defs><g id="Layer_2" data-name="Layer 2"><g id="レイヤー_1" data-name="レイヤー 1"><path class="cls-1" d="M81.47,7.74,26.1,5.28l-.21,0L1.91,0A1.58,1.58,0,0,0,0,1.84L5.88,33.72a1.6,1.6,0,0,0,0,.21l7.68,19.31a1.55,1.55,0,0,0,1.22,1.07l20.64,3.83a1.56,1.56,0,0,1,1.28,1.35l.46,3.71a1.59,1.59,0,0,0,1.27,1.36l12.18,2.32a2.26,2.26,0,0,0,.45,0l18.1-1.82a1.56,1.56,0,0,0,1.33-1l1.11-3.14a1.58,1.58,0,0,1,1.28-1l16.41-2.21a1.6,1.6,0,0,0,1.14-.74L99,43a1.78,1.78,0,0,0,.21-.54l6.63-36.78A1.59,1.59,0,0,0,104,3.83L81.86,7.72A1.28,1.28,0,0,1,81.47,7.74Z"/><path class="cls-2" d="M33.81,36.14a6.62,6.62,0,0,1-3.1-.71,5.55,5.55,0,0,1-2.13-7.7,5.38,5.38,0,0,1,2.13-2,6.62,6.62,0,0,1,3.1-.71,6,6,0,0,1,3,.71,4.36,4.36,0,0,1,1.86,2l-2.42,1.3A2.79,2.79,0,0,0,35.16,28a2.72,2.72,0,0,0-1.37-.36,2.88,2.88,0,0,0-1.44.36,2.61,2.61,0,0,0-1,1,3.64,3.64,0,0,0,0,3.2,2.61,2.61,0,0,0,1,1,2.88,2.88,0,0,0,1.44.36,2.82,2.82,0,0,0,1.37-.35,2.69,2.69,0,0,0,1.05-1.13l2.42,1.32a4.32,4.32,0,0,1-1.86,2A6,6,0,0,1,33.81,36.14Z"/><path class="cls-2" d="M40.34,36V21.14h3.12V36Z"/><path class="cls-2" d="M51.36,36.14a6.28,6.28,0,0,1-3-.72,5.46,5.46,0,0,1-2.1-2,5.7,5.7,0,0,1,0-5.72,5.44,5.44,0,0,1,2.1-2,6.39,6.39,0,0,1,3-.71,6.46,6.46,0,0,1,3,.71,5.41,5.41,0,0,1,2.1,1.95,5.48,5.48,0,0,1,.76,2.88,5.3,5.3,0,0,1-2.86,4.82A6.35,6.35,0,0,1,51.36,36.14Zm0-2.56a2.75,2.75,0,0,0,1.4-.36,2.56,2.56,0,0,0,1-1,3.71,3.71,0,0,0,0-3.19,2.6,2.6,0,0,0-1-1A2.9,2.9,0,0,0,50,28a2.56,2.56,0,0,0-1,1,3.62,3.62,0,0,0,0,3.19,2.52,2.52,0,0,0,1,1A2.73,2.73,0,0,0,51.36,33.58Z"/><path class="cls-2" d="M62.93,36.14a10.46,10.46,0,0,1-2.65-.33,6.57,6.57,0,0,1-2-.83l1-2.24a6.54,6.54,0,0,0,1.75.75,6.9,6.9,0,0,0,2,.29,3.3,3.3,0,0,0,1.53-.26A.79.79,0,0,0,65,32.8a.62.62,0,0,0-.35-.57,3.19,3.19,0,0,0-.93-.29l-1.27-.2c-.46-.07-.93-.16-1.39-.27A4.4,4.4,0,0,1,59.81,31a2.56,2.56,0,0,1-.93-.92,2.82,2.82,0,0,1-.35-1.5,2.86,2.86,0,0,1,.59-1.8,3.86,3.86,0,0,1,1.71-1.23,7.16,7.16,0,0,1,2.68-.45,10.88,10.88,0,0,1,2.24.24,6,6,0,0,1,1.9.7l-1,2.22A5.74,5.74,0,0,0,65,27.59a7.54,7.54,0,0,0-1.53-.17A3.08,3.08,0,0,0,62,27.7a.83.83,0,0,0-.48.72.63.63,0,0,0,.35.6,3.23,3.23,0,0,0,.93.32c.38.08.81.15,1.27.21a11.74,11.74,0,0,1,1.39.27,5.11,5.11,0,0,1,1.27.51,2.67,2.67,0,0,1,.93.9,3.06,3.06,0,0,1-.24,3.26,4,4,0,0,1-1.73,1.21A7.7,7.7,0,0,1,62.93,36.14Z"/><path class="cls-2" d="M75.24,36.14A7,7,0,0,1,72,35.42,5.23,5.23,0,0,1,69.1,30.6a5.32,5.32,0,0,1,2.8-4.83,6.09,6.09,0,0,1,2.94-.71,5.94,5.94,0,0,1,2.85.67,5,5,0,0,1,2,1.92,5.69,5.69,0,0,1,.74,3,3,3,0,0,1,0,.41c0,.16,0,.3,0,.43H71.64V29.66h7.1l-1.2.54a3,3,0,0,0-.34-1.46,2.44,2.44,0,0,0-.94-1,2.74,2.74,0,0,0-1.4-.35,2.83,2.83,0,0,0-1.41.35,2.49,2.49,0,0,0-1,1,3.18,3.18,0,0,0-.34,1.49v.48a3,3,0,0,0,.39,1.55,2.52,2.52,0,0,0,1.1,1,3.8,3.8,0,0,0,1.67.35,4.08,4.08,0,0,0,1.51-.26A3.51,3.51,0,0,0,78,32.6l1.66,1.8a4.79,4.79,0,0,1-1.86,1.29A6.83,6.83,0,0,1,75.24,36.14Z"/></g></g></svg>