<svg xmlns="http://www.w3.org/2000/svg" viewBox="0 0 22.03 30.64"><defs><style>.cls-1{fill:#fff;}</style></defs><g id="Layer_2" data-name="Layer 2"><g id="レイヤー_1" data-name="レイヤー 1"><path class="cls-1" d="M3.76,20,.55,21.3a.88.88,0,0,0-.52,1L1.22,27a1,1,0,0,0,.23.41L4,29.89a.91.91,0,0,0,.53.25l4.22.49a.89.89,0,0,0,.55-.11l5-2.94a.9.9,0,0,0,.42-.6l2.09-10.73a.29.29,0,0,1,0-.09l2-6.56,0-.06,3.15-8a.9.9,0,0,0-.65-1.2L19.72,0a.88.88,0,0,0-1,.63l-3.09,11s0,.05,0,.08l-1.94,10A.41.41,0,0,1,13,22l-1.12-1a.87.87,0,0,0-.46-.2l-7.18-.94A1.17,1.17,0,0,0,3.76,20Z"/></g></g></svg>