<svg xmlns="http://www.w3.org/2000/svg" viewBox="0 0 16 36.37"><defs><style>.cls-1{fill:#fff;}</style></defs><g id="Layer_2" data-name="Layer 2"><g id="レイヤー_1" data-name="レイヤー 1"><path class="cls-1" d="M14.27,36.19l-1.63.17a1.43,1.43,0,0,1-1.22-.47h0a1.46,1.46,0,0,1-.35-.87l-.25-4.73a1.23,1.23,0,0,0,0-.19L9.41,22.93a1.39,1.39,0,0,0-.06-.19L8.28,19.66A1.41,1.41,0,0,0,7.82,19L3.48,15.55a1.4,1.4,0,0,1-.39-.48l-2.94-6A1.42,1.42,0,0,1,.07,8.05L1.49,3.61A1.42,1.42,0,0,1,2,2.89L4.46,1.16A1.11,1.11,0,0,1,4.88,1l3-.89a1.42,1.42,0,0,1,1.23.2l4.1,2.91A1.41,1.41,0,0,1,13.8,4l1.37,5.68a1.36,1.36,0,0,1,0,.72l-1.32,4.16a1.41,1.41,0,0,1-.33.58L11.82,18a1.45,1.45,0,0,0-.37,1.14l.5,4a1.08,1.08,0,0,0,.07.31l3.06,8.65s0,.07.05.1l.75,1.7a1.42,1.42,0,0,1-.46,1.72l-.45.33A1.34,1.34,0,0,1,14.27,36.19Z"/></g></g></svg>