<?xml version="1.0" encoding="UTF-8"?>
<svg id="Layer_2" data-name="Layer 2" xmlns="http://www.w3.org/2000/svg" viewBox="0 0 1098.66 441.59">
  <defs>
    <style>
      .cls-1 {
        fill: #004f9d;
      }

      .cls-2 {
        opacity: .1;
      }
    </style>
  </defs>
  <g id="_レイヤー_1" data-name="レイヤー 1">
    <g>
      <g class="cls-2">
        <g>
          <circle class="cls-1" cx="2.89" cy="2.89" r="2.89"/>
          <circle class="cls-1" cx="43.37" cy="2.89" r="2.89"/>
          <circle class="cls-1" cx="83.84" cy="2.89" r="2.89"/>
          <circle class="cls-1" cx="124.32" cy="2.89" r="2.89"/>
          <circle class="cls-1" cx="164.8" cy="2.89" r="2.89"/>
          <circle class="cls-1" cx="205.28" cy="2.89" r="2.89"/>
          <circle class="cls-1" cx="245.75" cy="2.89" r="2.89"/>
          <circle class="cls-1" cx="286.23" cy="2.89" r="2.89"/>
          <circle class="cls-1" cx="326.71" cy="2.89" r="2.89"/>
          <circle class="cls-1" cx="367.18" cy="2.89" r="2.89"/>
          <circle class="cls-1" cx="407.66" cy="2.89" r="2.89"/>
          <circle class="cls-1" cx="448.14" cy="2.89" r="2.89"/>
          <circle class="cls-1" cx="488.61" cy="2.89" r="2.89"/>
          <circle class="cls-1" cx="529.09" cy="2.89" r="2.89"/>
          <circle class="cls-1" cx="569.57" cy="2.89" r="2.89"/>
          <circle class="cls-1" cx="610.04" cy="2.89" r="2.89"/>
          <circle class="cls-1" cx="650.52" cy="2.89" r="2.89"/>
        </g>
        <g>
          <circle class="cls-1" cx="2.89" cy="39.24" r="2.89"/>
          <circle class="cls-1" cx="43.37" cy="39.24" r="2.89"/>
          <circle class="cls-1" cx="83.84" cy="39.24" r="2.89"/>
          <circle class="cls-1" cx="124.32" cy="39.24" r="2.89"/>
          <circle class="cls-1" cx="164.8" cy="39.24" r="2.89"/>
          <circle class="cls-1" cx="205.28" cy="39.24" r="2.89"/>
          <circle class="cls-1" cx="245.75" cy="39.24" r="2.89"/>
          <circle class="cls-1" cx="286.23" cy="39.24" r="2.89"/>
          <circle class="cls-1" cx="326.71" cy="39.24" r="2.89"/>
          <circle class="cls-1" cx="367.18" cy="39.24" r="2.89"/>
          <circle class="cls-1" cx="407.66" cy="39.24" r="2.89"/>
          <circle class="cls-1" cx="448.14" cy="39.24" r="2.89"/>
          <circle class="cls-1" cx="488.61" cy="39.24" r="2.89"/>
          <circle class="cls-1" cx="529.09" cy="39.24" r="2.89"/>
          <circle class="cls-1" cx="569.57" cy="39.24" r="2.89"/>
          <circle class="cls-1" cx="610.04" cy="39.24" r="2.89"/>
          <circle class="cls-1" cx="650.52" cy="39.24" r="2.89"/>
        </g>
        <g>
          <circle class="cls-1" cx="2.89" cy="75.58" r="2.89"/>
          <circle class="cls-1" cx="43.37" cy="75.58" r="2.89"/>
          <circle class="cls-1" cx="83.84" cy="75.58" r="2.89"/>
          <circle class="cls-1" cx="124.32" cy="75.58" r="2.89"/>
          <circle class="cls-1" cx="164.8" cy="75.58" r="2.89"/>
          <circle class="cls-1" cx="205.28" cy="75.58" r="2.89"/>
          <circle class="cls-1" cx="245.75" cy="75.58" r="2.89"/>
          <circle class="cls-1" cx="286.23" cy="75.58" r="2.89"/>
          <circle class="cls-1" cx="326.71" cy="75.58" r="2.89"/>
          <circle class="cls-1" cx="367.18" cy="75.58" r="2.89"/>
          <circle class="cls-1" cx="407.66" cy="75.58" r="2.89"/>
          <circle class="cls-1" cx="448.14" cy="75.58" r="2.89"/>
          <circle class="cls-1" cx="488.61" cy="75.58" r="2.89"/>
          <circle class="cls-1" cx="529.09" cy="75.58" r="2.89"/>
          <circle class="cls-1" cx="569.57" cy="75.58" r="2.89"/>
          <circle class="cls-1" cx="610.04" cy="75.58" r="2.89"/>
          <circle class="cls-1" cx="650.52" cy="75.58" r="2.89"/>
        </g>
        <g>
          <circle class="cls-1" cx="2.89" cy="111.93" r="2.89"/>
          <circle class="cls-1" cx="43.37" cy="111.93" r="2.89"/>
          <circle class="cls-1" cx="83.84" cy="111.93" r="2.89"/>
          <circle class="cls-1" cx="124.32" cy="111.93" r="2.89"/>
          <circle class="cls-1" cx="164.8" cy="111.93" r="2.89"/>
          <circle class="cls-1" cx="205.28" cy="111.93" r="2.89"/>
          <circle class="cls-1" cx="245.75" cy="111.93" r="2.89"/>
          <circle class="cls-1" cx="286.23" cy="111.93" r="2.89"/>
          <circle class="cls-1" cx="326.71" cy="111.93" r="2.89"/>
          <circle class="cls-1" cx="367.18" cy="111.93" r="2.89"/>
          <circle class="cls-1" cx="407.66" cy="111.93" r="2.89"/>
          <circle class="cls-1" cx="448.14" cy="111.93" r="2.89"/>
          <circle class="cls-1" cx="488.61" cy="111.93" r="2.89"/>
          <circle class="cls-1" cx="529.09" cy="111.93" r="2.89"/>
          <circle class="cls-1" cx="569.57" cy="111.93" r="2.89"/>
          <circle class="cls-1" cx="610.04" cy="111.93" r="2.89"/>
          <circle class="cls-1" cx="650.52" cy="111.93" r="2.89"/>
        </g>
        <g>
          <circle class="cls-1" cx="2.89" cy="148.28" r="2.89"/>
          <circle class="cls-1" cx="43.37" cy="148.28" r="2.89"/>
          <circle class="cls-1" cx="83.84" cy="148.28" r="2.89"/>
          <circle class="cls-1" cx="124.32" cy="148.28" r="2.89"/>
          <circle class="cls-1" cx="164.8" cy="148.28" r="2.89"/>
          <circle class="cls-1" cx="205.28" cy="148.28" r="2.89"/>
          <circle class="cls-1" cx="245.75" cy="148.28" r="2.89"/>
          <circle class="cls-1" cx="286.23" cy="148.28" r="2.89"/>
          <circle class="cls-1" cx="326.71" cy="148.28" r="2.89"/>
          <circle class="cls-1" cx="367.18" cy="148.28" r="2.89"/>
          <circle class="cls-1" cx="407.66" cy="148.28" r="2.89"/>
          <circle class="cls-1" cx="448.14" cy="148.28" r="2.89"/>
          <circle class="cls-1" cx="488.61" cy="148.28" r="2.89"/>
          <circle class="cls-1" cx="529.09" cy="148.28" r="2.89"/>
          <circle class="cls-1" cx="569.57" cy="148.28" r="2.89"/>
          <circle class="cls-1" cx="610.04" cy="148.28" r="2.89"/>
          <circle class="cls-1" cx="650.52" cy="148.28" r="2.89"/>
        </g>
        <g>
          <circle class="cls-1" cx="2.89" cy="184.62" r="2.89"/>
          <circle class="cls-1" cx="43.37" cy="184.62" r="2.89"/>
          <circle class="cls-1" cx="83.84" cy="184.62" r="2.89"/>
          <circle class="cls-1" cx="124.32" cy="184.62" r="2.89"/>
          <circle class="cls-1" cx="164.8" cy="184.62" r="2.89"/>
          <circle class="cls-1" cx="205.28" cy="184.62" r="2.89"/>
          <circle class="cls-1" cx="245.75" cy="184.62" r="2.89"/>
          <circle class="cls-1" cx="286.23" cy="184.62" r="2.89"/>
          <circle class="cls-1" cx="326.71" cy="184.62" r="2.89"/>
          <circle class="cls-1" cx="367.18" cy="184.62" r="2.89"/>
          <circle class="cls-1" cx="407.66" cy="184.62" r="2.89"/>
          <circle class="cls-1" cx="448.14" cy="184.62" r="2.89"/>
          <circle class="cls-1" cx="488.61" cy="184.62" r="2.89"/>
          <circle class="cls-1" cx="529.09" cy="184.62" r="2.89"/>
          <circle class="cls-1" cx="569.57" cy="184.62" r="2.89"/>
          <circle class="cls-1" cx="610.04" cy="184.62" r="2.89"/>
          <circle class="cls-1" cx="650.52" cy="184.62" r="2.89"/>
        </g>
        <g>
          <circle class="cls-1" cx="2.89" cy="220.97" r="2.89"/>
          <circle class="cls-1" cx="43.37" cy="220.97" r="2.89"/>
          <circle class="cls-1" cx="83.84" cy="220.97" r="2.89"/>
          <circle class="cls-1" cx="124.32" cy="220.97" r="2.89"/>
          <circle class="cls-1" cx="164.8" cy="220.97" r="2.89"/>
          <circle class="cls-1" cx="205.28" cy="220.97" r="2.89"/>
          <circle class="cls-1" cx="245.75" cy="220.97" r="2.89"/>
          <circle class="cls-1" cx="286.23" cy="220.97" r="2.89"/>
          <circle class="cls-1" cx="326.71" cy="220.97" r="2.89"/>
          <circle class="cls-1" cx="367.18" cy="220.97" r="2.89"/>
          <circle class="cls-1" cx="407.66" cy="220.97" r="2.89"/>
          <circle class="cls-1" cx="448.14" cy="220.97" r="2.89"/>
          <circle class="cls-1" cx="488.61" cy="220.97" r="2.89"/>
          <circle class="cls-1" cx="529.09" cy="220.97" r="2.89"/>
          <circle class="cls-1" cx="569.57" cy="220.97" r="2.89"/>
          <circle class="cls-1" cx="610.04" cy="220.97" r="2.89"/>
          <circle class="cls-1" cx="650.52" cy="220.97" r="2.89"/>
        </g>
        <g>
          <circle class="cls-1" cx="2.89" cy="257.32" r="2.89"/>
          <circle class="cls-1" cx="43.37" cy="257.32" r="2.89"/>
          <circle class="cls-1" cx="83.84" cy="257.32" r="2.89"/>
          <circle class="cls-1" cx="124.32" cy="257.32" r="2.89"/>
          <circle class="cls-1" cx="164.8" cy="257.32" r="2.89"/>
          <circle class="cls-1" cx="205.28" cy="257.32" r="2.89"/>
          <circle class="cls-1" cx="245.75" cy="257.32" r="2.89"/>
          <circle class="cls-1" cx="286.23" cy="257.32" r="2.89"/>
          <circle class="cls-1" cx="326.71" cy="257.32" r="2.89"/>
          <circle class="cls-1" cx="367.18" cy="257.32" r="2.89"/>
          <circle class="cls-1" cx="407.66" cy="257.32" r="2.89"/>
          <circle class="cls-1" cx="448.14" cy="257.32" r="2.89"/>
          <circle class="cls-1" cx="488.61" cy="257.32" r="2.89"/>
          <circle class="cls-1" cx="529.09" cy="257.32" r="2.89"/>
          <circle class="cls-1" cx="569.57" cy="257.32" r="2.89"/>
          <circle class="cls-1" cx="610.04" cy="257.32" r="2.89"/>
          <circle class="cls-1" cx="650.52" cy="257.32" r="2.89"/>
        </g>
        <g>
          <circle class="cls-1" cx="2.89" cy="293.66" r="2.89"/>
          <circle class="cls-1" cx="43.37" cy="293.66" r="2.89"/>
          <circle class="cls-1" cx="83.84" cy="293.66" r="2.89"/>
          <circle class="cls-1" cx="124.32" cy="293.66" r="2.89"/>
          <circle class="cls-1" cx="164.8" cy="293.66" r="2.89"/>
          <circle class="cls-1" cx="205.28" cy="293.66" r="2.89"/>
          <circle class="cls-1" cx="245.75" cy="293.66" r="2.89"/>
          <circle class="cls-1" cx="286.23" cy="293.66" r="2.89"/>
          <circle class="cls-1" cx="326.71" cy="293.66" r="2.89"/>
          <circle class="cls-1" cx="367.18" cy="293.66" r="2.89"/>
          <circle class="cls-1" cx="407.66" cy="293.66" r="2.89"/>
          <circle class="cls-1" cx="448.14" cy="293.66" r="2.89"/>
          <circle class="cls-1" cx="488.61" cy="293.66" r="2.89"/>
          <circle class="cls-1" cx="529.09" cy="293.66" r="2.89"/>
          <circle class="cls-1" cx="569.57" cy="293.66" r="2.89"/>
          <circle class="cls-1" cx="610.04" cy="293.66" r="2.89"/>
          <circle class="cls-1" cx="650.52" cy="293.66" r="2.89"/>
        </g>
        <g>
          <circle class="cls-1" cx="2.89" cy="330.01" r="2.89"/>
          <circle class="cls-1" cx="43.37" cy="330.01" r="2.89"/>
          <circle class="cls-1" cx="83.84" cy="330.01" r="2.89"/>
          <circle class="cls-1" cx="124.32" cy="330.01" r="2.89"/>
          <circle class="cls-1" cx="164.8" cy="330.01" r="2.89"/>
          <circle class="cls-1" cx="205.28" cy="330.01" r="2.89"/>
          <circle class="cls-1" cx="245.75" cy="330.01" r="2.89"/>
          <circle class="cls-1" cx="286.23" cy="330.01" r="2.89"/>
          <circle class="cls-1" cx="326.71" cy="330.01" r="2.89"/>
          <circle class="cls-1" cx="367.18" cy="330.01" r="2.89"/>
          <circle class="cls-1" cx="407.66" cy="330.01" r="2.89"/>
          <circle class="cls-1" cx="448.14" cy="330.01" r="2.89"/>
          <circle class="cls-1" cx="488.61" cy="330.01" r="2.89"/>
          <circle class="cls-1" cx="529.09" cy="330.01" r="2.89"/>
          <circle class="cls-1" cx="569.57" cy="330.01" r="2.89"/>
          <circle class="cls-1" cx="610.04" cy="330.01" r="2.89"/>
          <circle class="cls-1" cx="650.52" cy="330.01" r="2.89"/>
        </g>
        <g>
          <circle class="cls-1" cx="2.89" cy="366.36" r="2.89"/>
          <circle class="cls-1" cx="43.37" cy="366.36" r="2.89"/>
          <circle class="cls-1" cx="83.84" cy="366.36" r="2.89"/>
          <circle class="cls-1" cx="124.32" cy="366.36" r="2.89"/>
          <circle class="cls-1" cx="164.8" cy="366.36" r="2.89"/>
          <circle class="cls-1" cx="205.28" cy="366.36" r="2.89"/>
          <circle class="cls-1" cx="245.75" cy="366.36" r="2.89"/>
          <circle class="cls-1" cx="286.23" cy="366.36" r="2.89"/>
          <circle class="cls-1" cx="326.71" cy="366.36" r="2.89"/>
          <circle class="cls-1" cx="367.18" cy="366.36" r="2.89"/>
          <circle class="cls-1" cx="407.66" cy="366.36" r="2.89"/>
          <circle class="cls-1" cx="448.14" cy="366.36" r="2.89"/>
          <circle class="cls-1" cx="488.61" cy="366.36" r="2.89"/>
          <circle class="cls-1" cx="529.09" cy="366.36" r="2.89"/>
          <circle class="cls-1" cx="569.57" cy="366.36" r="2.89"/>
          <circle class="cls-1" cx="610.04" cy="366.36" r="2.89"/>
          <circle class="cls-1" cx="650.52" cy="366.36" r="2.89"/>
        </g>
        <g>
          <circle class="cls-1" cx="2.89" cy="402.7" r="2.89"/>
          <circle class="cls-1" cx="43.37" cy="402.7" r="2.89"/>
          <circle class="cls-1" cx="83.84" cy="402.7" r="2.89"/>
          <circle class="cls-1" cx="124.32" cy="402.7" r="2.89"/>
          <circle class="cls-1" cx="164.8" cy="402.7" r="2.89"/>
          <circle class="cls-1" cx="205.28" cy="402.7" r="2.89"/>
          <circle class="cls-1" cx="245.75" cy="402.7" r="2.89"/>
          <circle class="cls-1" cx="286.23" cy="402.7" r="2.89"/>
          <circle class="cls-1" cx="326.71" cy="402.7" r="2.89"/>
          <circle class="cls-1" cx="367.18" cy="402.7" r="2.89"/>
          <circle class="cls-1" cx="407.66" cy="402.7" r="2.89"/>
          <circle class="cls-1" cx="448.14" cy="402.7" r="2.89"/>
          <circle class="cls-1" cx="488.61" cy="402.7" r="2.89"/>
          <circle class="cls-1" cx="529.09" cy="402.7" r="2.89"/>
          <circle class="cls-1" cx="569.57" cy="402.7" r="2.89"/>
          <circle class="cls-1" cx="610.04" cy="402.7" r="2.89"/>
          <circle class="cls-1" cx="650.52" cy="402.7" r="2.89"/>
        </g>
        <g>
          <circle class="cls-1" cx="2.89" cy="438.7" r="2.89"/>
          <circle class="cls-1" cx="43.37" cy="438.7" r="2.89"/>
          <circle class="cls-1" cx="83.84" cy="438.7" r="2.89"/>
          <circle class="cls-1" cx="124.32" cy="438.7" r="2.89"/>
          <circle class="cls-1" cx="164.8" cy="438.7" r="2.89"/>
          <circle class="cls-1" cx="205.28" cy="438.7" r="2.89"/>
          <circle class="cls-1" cx="245.75" cy="438.7" r="2.89"/>
          <circle class="cls-1" cx="286.23" cy="438.7" r="2.89"/>
          <circle class="cls-1" cx="326.71" cy="438.7" r="2.89"/>
          <circle class="cls-1" cx="367.18" cy="438.7" r="2.89"/>
          <circle class="cls-1" cx="407.66" cy="438.7" r="2.89"/>
          <circle class="cls-1" cx="448.14" cy="438.7" r="2.89"/>
          <circle class="cls-1" cx="488.61" cy="438.7" r="2.89"/>
          <circle class="cls-1" cx="529.09" cy="438.7" r="2.89"/>
          <circle class="cls-1" cx="569.57" cy="438.7" r="2.89"/>
          <circle class="cls-1" cx="610.04" cy="438.7" r="2.89"/>
          <circle class="cls-1" cx="650.52" cy="438.7" r="2.89"/>
        </g>
      </g>
      <g class="cls-2">
        <g>
          <circle class="cls-1" cx="691" cy="2.89" r="2.89"/>
          <circle class="cls-1" cx="731.47" cy="2.89" r="2.89"/>
          <circle class="cls-1" cx="771.95" cy="2.89" r="2.89"/>
          <circle class="cls-1" cx="812.43" cy="2.89" r="2.89"/>
          <circle class="cls-1" cx="852.9" cy="2.89" r="2.89"/>
          <circle class="cls-1" cx="893.38" cy="2.89" r="2.89"/>
          <circle class="cls-1" cx="933.86" cy="2.89" r="2.89"/>
          <circle class="cls-1" cx="974.34" cy="2.89" r="2.89"/>
          <circle class="cls-1" cx="1014.81" cy="2.89" r="2.89"/>
          <circle class="cls-1" cx="1055.29" cy="2.89" r="2.89"/>
          <circle class="cls-1" cx="1095.77" cy="2.89" r="2.89"/>
        </g>
        <g>
          <circle class="cls-1" cx="691" cy="39.24" r="2.89"/>
          <circle class="cls-1" cx="731.47" cy="39.24" r="2.89"/>
          <circle class="cls-1" cx="771.95" cy="39.24" r="2.89"/>
          <circle class="cls-1" cx="812.43" cy="39.24" r="2.89"/>
          <circle class="cls-1" cx="852.9" cy="39.24" r="2.89"/>
          <circle class="cls-1" cx="893.38" cy="39.24" r="2.89"/>
          <circle class="cls-1" cx="933.86" cy="39.24" r="2.89"/>
          <circle class="cls-1" cx="974.34" cy="39.24" r="2.89"/>
          <circle class="cls-1" cx="1014.81" cy="39.24" r="2.89"/>
          <circle class="cls-1" cx="1055.29" cy="39.24" r="2.89"/>
          <circle class="cls-1" cx="1095.77" cy="39.24" r="2.89"/>
        </g>
        <g>
          <circle class="cls-1" cx="691" cy="75.58" r="2.89"/>
          <circle class="cls-1" cx="731.47" cy="75.58" r="2.89"/>
          <circle class="cls-1" cx="771.95" cy="75.58" r="2.89"/>
          <circle class="cls-1" cx="812.43" cy="75.58" r="2.89"/>
          <circle class="cls-1" cx="852.9" cy="75.58" r="2.89"/>
          <circle class="cls-1" cx="893.38" cy="75.58" r="2.89"/>
          <circle class="cls-1" cx="933.86" cy="75.58" r="2.89"/>
          <circle class="cls-1" cx="974.34" cy="75.58" r="2.89"/>
          <circle class="cls-1" cx="1014.81" cy="75.58" r="2.89"/>
          <circle class="cls-1" cx="1055.29" cy="75.58" r="2.89"/>
          <circle class="cls-1" cx="1095.77" cy="75.58" r="2.89"/>
        </g>
        <g>
          <circle class="cls-1" cx="691" cy="111.93" r="2.89"/>
          <circle class="cls-1" cx="731.47" cy="111.93" r="2.89"/>
          <circle class="cls-1" cx="771.95" cy="111.93" r="2.89"/>
          <circle class="cls-1" cx="812.43" cy="111.93" r="2.89"/>
          <circle class="cls-1" cx="852.9" cy="111.93" r="2.89"/>
          <circle class="cls-1" cx="893.38" cy="111.93" r="2.89"/>
          <circle class="cls-1" cx="933.86" cy="111.93" r="2.89"/>
          <circle class="cls-1" cx="974.34" cy="111.93" r="2.89"/>
          <circle class="cls-1" cx="1014.81" cy="111.93" r="2.89"/>
          <circle class="cls-1" cx="1055.29" cy="111.93" r="2.89"/>
          <circle class="cls-1" cx="1095.77" cy="111.93" r="2.89"/>
        </g>
        <g>
          <circle class="cls-1" cx="691" cy="148.28" r="2.89"/>
          <circle class="cls-1" cx="731.47" cy="148.28" r="2.89"/>
          <circle class="cls-1" cx="771.95" cy="148.28" r="2.89"/>
          <circle class="cls-1" cx="812.43" cy="148.28" r="2.89"/>
          <circle class="cls-1" cx="852.9" cy="148.28" r="2.89"/>
          <circle class="cls-1" cx="893.38" cy="148.28" r="2.89"/>
          <circle class="cls-1" cx="933.86" cy="148.28" r="2.89"/>
          <circle class="cls-1" cx="974.34" cy="148.28" r="2.89"/>
          <circle class="cls-1" cx="1014.81" cy="148.28" r="2.89"/>
          <circle class="cls-1" cx="1055.29" cy="148.28" r="2.89"/>
          <circle class="cls-1" cx="1095.77" cy="148.28" r="2.89"/>
        </g>
        <g>
          <circle class="cls-1" cx="691" cy="184.62" r="2.89"/>
          <circle class="cls-1" cx="731.47" cy="184.62" r="2.89"/>
          <circle class="cls-1" cx="771.95" cy="184.62" r="2.89"/>
          <circle class="cls-1" cx="812.43" cy="184.62" r="2.89"/>
          <circle class="cls-1" cx="852.9" cy="184.62" r="2.89"/>
          <circle class="cls-1" cx="893.38" cy="184.62" r="2.89"/>
          <circle class="cls-1" cx="933.86" cy="184.62" r="2.89"/>
          <circle class="cls-1" cx="974.34" cy="184.62" r="2.89"/>
          <circle class="cls-1" cx="1014.81" cy="184.62" r="2.89"/>
          <circle class="cls-1" cx="1055.29" cy="184.62" r="2.89"/>
          <circle class="cls-1" cx="1095.77" cy="184.62" r="2.89"/>
        </g>
        <g>
          <circle class="cls-1" cx="691" cy="220.97" r="2.89"/>
          <circle class="cls-1" cx="731.47" cy="220.97" r="2.89"/>
          <circle class="cls-1" cx="771.95" cy="220.97" r="2.89"/>
          <circle class="cls-1" cx="812.43" cy="220.97" r="2.89"/>
          <circle class="cls-1" cx="852.9" cy="220.97" r="2.89"/>
          <circle class="cls-1" cx="893.38" cy="220.97" r="2.89"/>
          <circle class="cls-1" cx="933.86" cy="220.97" r="2.89"/>
          <circle class="cls-1" cx="974.34" cy="220.97" r="2.89"/>
          <circle class="cls-1" cx="1014.81" cy="220.97" r="2.89"/>
          <circle class="cls-1" cx="1055.29" cy="220.97" r="2.89"/>
          <circle class="cls-1" cx="1095.77" cy="220.97" r="2.89"/>
        </g>
        <g>
          <circle class="cls-1" cx="691" cy="257.32" r="2.89"/>
          <circle class="cls-1" cx="731.47" cy="257.32" r="2.89"/>
          <circle class="cls-1" cx="771.95" cy="257.32" r="2.89"/>
          <circle class="cls-1" cx="812.43" cy="257.32" r="2.89"/>
          <circle class="cls-1" cx="852.9" cy="257.32" r="2.89"/>
          <circle class="cls-1" cx="893.38" cy="257.32" r="2.89"/>
          <circle class="cls-1" cx="933.86" cy="257.32" r="2.89"/>
          <circle class="cls-1" cx="974.34" cy="257.32" r="2.89"/>
          <circle class="cls-1" cx="1014.81" cy="257.32" r="2.89"/>
          <circle class="cls-1" cx="1055.29" cy="257.32" r="2.89"/>
          <circle class="cls-1" cx="1095.77" cy="257.32" r="2.89"/>
        </g>
        <g>
          <circle class="cls-1" cx="691" cy="293.66" r="2.89"/>
          <circle class="cls-1" cx="731.47" cy="293.66" r="2.89"/>
          <circle class="cls-1" cx="771.95" cy="293.66" r="2.89"/>
          <circle class="cls-1" cx="812.43" cy="293.66" r="2.89"/>
          <circle class="cls-1" cx="852.9" cy="293.66" r="2.89"/>
          <circle class="cls-1" cx="893.38" cy="293.66" r="2.89"/>
          <circle class="cls-1" cx="933.86" cy="293.66" r="2.89"/>
          <circle class="cls-1" cx="974.34" cy="293.66" r="2.89"/>
          <circle class="cls-1" cx="1014.81" cy="293.66" r="2.89"/>
          <circle class="cls-1" cx="1055.29" cy="293.66" r="2.89"/>
          <circle class="cls-1" cx="1095.77" cy="293.66" r="2.89"/>
        </g>
        <g>
          <circle class="cls-1" cx="691" cy="330.01" r="2.89"/>
          <circle class="cls-1" cx="731.47" cy="330.01" r="2.89"/>
          <circle class="cls-1" cx="771.95" cy="330.01" r="2.89"/>
          <circle class="cls-1" cx="812.43" cy="330.01" r="2.89"/>
          <circle class="cls-1" cx="852.9" cy="330.01" r="2.89"/>
          <circle class="cls-1" cx="893.38" cy="330.01" r="2.89"/>
          <circle class="cls-1" cx="933.86" cy="330.01" r="2.89"/>
          <circle class="cls-1" cx="974.34" cy="330.01" r="2.89"/>
          <circle class="cls-1" cx="1014.81" cy="330.01" r="2.89"/>
          <circle class="cls-1" cx="1055.29" cy="330.01" r="2.89"/>
          <circle class="cls-1" cx="1095.77" cy="330.01" r="2.89"/>
        </g>
        <g>
          <circle class="cls-1" cx="691" cy="366.36" r="2.89"/>
          <circle class="cls-1" cx="731.47" cy="366.36" r="2.89"/>
          <circle class="cls-1" cx="771.95" cy="366.36" r="2.89"/>
          <circle class="cls-1" cx="812.43" cy="366.36" r="2.89"/>
          <circle class="cls-1" cx="852.9" cy="366.36" r="2.89"/>
          <circle class="cls-1" cx="893.38" cy="366.36" r="2.89"/>
          <circle class="cls-1" cx="933.86" cy="366.36" r="2.89"/>
          <circle class="cls-1" cx="974.34" cy="366.36" r="2.89"/>
          <circle class="cls-1" cx="1014.81" cy="366.36" r="2.89"/>
          <circle class="cls-1" cx="1055.29" cy="366.36" r="2.89"/>
          <circle class="cls-1" cx="1095.77" cy="366.36" r="2.89"/>
        </g>
        <g>
          <circle class="cls-1" cx="691" cy="402.7" r="2.89"/>
          <circle class="cls-1" cx="731.47" cy="402.7" r="2.89"/>
          <circle class="cls-1" cx="771.95" cy="402.7" r="2.89"/>
          <circle class="cls-1" cx="812.43" cy="402.7" r="2.89"/>
          <circle class="cls-1" cx="852.9" cy="402.7" r="2.89"/>
          <circle class="cls-1" cx="893.38" cy="402.7" r="2.89"/>
          <circle class="cls-1" cx="933.86" cy="402.7" r="2.89"/>
          <circle class="cls-1" cx="974.34" cy="402.7" r="2.89"/>
          <circle class="cls-1" cx="1014.81" cy="402.7" r="2.89"/>
          <circle class="cls-1" cx="1055.29" cy="402.7" r="2.89"/>
          <circle class="cls-1" cx="1095.77" cy="402.7" r="2.89"/>
        </g>
        <g>
          <circle class="cls-1" cx="691" cy="438.7" r="2.89"/>
          <circle class="cls-1" cx="731.47" cy="438.7" r="2.89"/>
          <circle class="cls-1" cx="771.95" cy="438.7" r="2.89"/>
          <circle class="cls-1" cx="812.43" cy="438.7" r="2.89"/>
          <circle class="cls-1" cx="852.9" cy="438.7" r="2.89"/>
          <circle class="cls-1" cx="893.38" cy="438.7" r="2.89"/>
          <circle class="cls-1" cx="933.86" cy="438.7" r="2.89"/>
          <circle class="cls-1" cx="974.34" cy="438.7" r="2.89"/>
          <circle class="cls-1" cx="1014.81" cy="438.7" r="2.89"/>
          <circle class="cls-1" cx="1055.29" cy="438.7" r="2.89"/>
          <circle class="cls-1" cx="1095.77" cy="438.7" r="2.89"/>
        </g>
      </g>
    </g>
  </g>
</svg>
