<svg viewBox="31.285803799999996 159.039347344 738.2760000000001 483.85464" xmlns="http://www.w3.org/2000/svg" data-name="Layer 2" id="Layer_2">
  <defs>
    <style>
      .cls-1 {
        fill: #fff;
      }
    </style>
  </defs>
  <g data-name="Layer 1" id="Layer_1-2">
    <path d="M798.91,0c0,264.62,0,529.23,.09,793.85,0,3.75-.84,4.59-4.59,4.59-263.27-.1-526.54-.1-789.82,0-3.75,0-4.59-.84-4.59-4.59C.1,529.23,.09,264.62,.09,0H798.91ZM232.05,193.83c-2.36,.09-3.39,2.66-5.07,3.18-4.69,1.45-9.27,2.59-11.24,7.82-.12,.31-.94,.69-1.21,.56-2.81-1.32-4.47,.99-6.7,1.73-4.27,1.43-7.44,4.24-11.1,6.43-2.12,1.26-4.88,2.33-5.73,4.24-1.71,3.83-5.21,4.98-8.19,6.74-3.49,2.06-7.19,3.54-10.5,6.15-2.84,2.23-7.57,1.97-8.69,6.67-.06,.25-.92,.25-1.36,.46-3.86,1.84-8.04,2.31-11.87,5.05-7.81,5.59-17.66,7.74-25.73,13.21-3.78,2.55-7.39,5.55-10.68,8.44-3.92,3.44-7.25,7.71-11.68,10.75-3.53,2.42-6.61,5.13-7.43,9.67-.2,1.08-.73,2.25-1.99,2.69-7.75,2.7-12.07,9.84-15.77,15.75-4.2,6.69-9.7,12.77-12.23,20.99-2.29,7.45-8.44,13.66-12.6,20.62-2.18,3.65-2.39,7.77-4.61,11.28-3.74,5.89-8.81,11.31-7.82,19.23,.1,.82-1.1,2.01-1.96,2.7-1.14,.9-1.78,1.81-1.79,3.31,0,4.57-1.16,9.09-1.56,13.48-.8,8.69-1.89,17.58-1.17,26.29,.52,6.31,.53,12.58,.74,18.87,.05,1.49-.25,3.19,.37,4.42,1.48,2.94,3.69,5.5,.61,8.86-.92,1.01,1.2,2.05,1.38,3.31,1.82-.64,1.51,.58,1.67,1.71,.75,5.4,1.95,10.78,.12,16.2-.2,.59-.17,1.82,.02,1.88,3.61,1.09,1.93,4.42,2.96,6.52,1.82,3.71-1.4,7.59,.89,11.03,2.25,3.38,2.71,7.44,2.75,11.07,.06,6.78,1.81,12.84,5.03,18.6,.77,1.37,1.45,2.52,.81,4.15-1.87,4.75-.55,8.64,4.28,11.9-4.5,2-2.54,4.77-.82,7.23,2.04,2.93,5.07,5.32,4.64,9.55,.18-1.34,.35-2.69,.53-4.03,.34,3.74,1.37,6.93,3.61,10.01,3.57,4.93,5.78,10.65,10.1,15.28,2.79,2.99,6.33,5.6,8.35,8.95,4.92,8.13,13.7,11.12,20.36,16.85,6.26,5.39,15.52,3.69,21.61,9.37,.22,.21,.6,.32,.92,.36,7.18,.9,14.28,2.42,20.87,5.29,5.07,2.21,10.63,1.9,15.53,4.05,3.51,1.55,7.01,2.1,10.67,1.68,7.95-.9,15.51,.61,23.2,2.5,4.96,1.22,10.19,4.5,15.23,2.27,4.28-1.9,7.1-.01,10.43,1.39,.74,.31,1.54,.94,2.23,.85,9.8-1.34,19.17,2.93,28.96,2.15,5.46-.43,11.51-1.4,16.36,.4,7.47,2.76,14.64,.37,21.9,1.07,5.63,.54,11.35,.34,17.03,.14,8.26-.29,16.6,3.98,24.82-.44,.52-.28,1.77,.08,2.25,.57,1.68,1.7,3.74,1.04,5.67,1.2,3.7,.32,7.44-.69,11.07,1.65,1.61,1.04,4.52,1.14,6.55-.67l-.02,.02c4.32-.2,8.46,1.39,12.85,1.06,8.02-.6,16.25-1.22,24.09-.63,10.76,.81,21.42-.39,32.13,.4,9.86,.73,19.79-.03,29.68-1.15,6.98-.79,14.1-.27,21.1-.91,9.59-.88,19.07-3.28,28.82-1.89,.91,.13,2.17,0,2.81-.55,2.54-2.14,5.32-1.4,8.06-.95,1.14,.19,2.21,.72,3.4,.32,7.04-2.34,14.12-4.41,21.68-3.74,1.06,.09,2.13,.01,3.38,.01-.75-1.69-2.53-.25-2.84-1.09,6.56-4.1,14.2-2.79,21.37-4.09,7.2-1.31,13.82-4.31,20.86-5.34,3.15-.46,4.44-3.82,7.59-3.17,5.18,1.08,9.99-.93,14.49-2.64,7.84-2.97,15.05-7.71,23.85-7.72,.15,0,.29-.32,.43-.48-1-1.11-2.79,.35-3.65-1.28,2.7-.35,5.59,.46,7.89-1.09,4.89-3.29,10.99-3.81,15.7-7.95,3.7-3.26,8.86-6.4,13.53-6.63,5.87-.3,10.02-3.74,14.13-6.11,5.18-2.99,10.98-4.9,15.99-8.67,4.09-3.07,9.24-6.17,14.68-7.51,4.05-.99,4.36-6.09,8.07-6.96,3.18-.75,5.41-2.94,6.06-5.37,1.74-6.48,7.43-9.84,10.86-14.95,5.85-8.71,11.43-17.32,12.84-27.96,.16-1.18,.6-2.1,1.2-3.14,4.05-7.07,4.21-15.41,4.2-22.85,0-5.39,1.97-10.34,2.86-14.97,.93-4.8,2.19-10.3,2.37-14.95,.41-10.62,2.47-20.86,4.79-31.04,.66-2.86-.4-6.33,1.17-8.21,3.82-4.58,2.49-9.84,2.76-14.68,.49-8.74-.14-17.54-.3-26.32-.08-4.16,1.08-8.86-.48-12.35-3-6.71-3.17-13.47-3.64-20.5-.57-8.52-1.03-17.34-7.22-24.32-.25-.28-.25-.94-.13-1.36,1.57-5.56-1.66-10.02-2.93-14.99-.65-2.54-3.4-3.65-3-6.62,.45-3.32,2.15-7.34-2.73-9.31-.82-.33-.67-1.44-.29-2.24,1.04-2.2-.53-3.69-1.24-5.51-.7-1.82-2.77-3.03-2.33-5.32,.68-3.57-1.14-6.11-3.5-8.43-1.43-1.4-2.6-2.81-2.62-5.1-.01-2.59-3.39-3.52-3.5-6.6-.06-1.48-1.26,1.8-2.09,.86-.87-.99,.14-2.13,.76-3.11,.03-.04-.37-.51-.59-.53-5.16-.42-6.51-5.8-8.98-8.6-4.62-5.23-9.84-9.47-15.16-13.71-1.99-1.59-1.91-5.09-4.81-5.33-3.42-.29-5.28-2.57-7.32-4.71-3.17-3.32-7.97-3.54-11.55-6.47-3.23-2.64-7.85-3.55-11.86-5.25-4.64-1.97-8.78-5.73-13.9-5.83-7.17-.14-13.04-4.18-19.05-6.68-4.75-1.98-9.76-2.25-14.44-3.83-2.54-.85-4.8-3.55-8.32-2.75-3.6,.82-7.44-.61-11.01-1.28-7.03-1.31-13.88-3.39-21.13-3.65-5.71-.21-11.5-.5-17.07-1.66-5.72-1.19-11.35-2.62-17.22-2.23-3.67,.25-7.02,1.17-11.05,.29-4.84-1.06-10.55,.19-15.19-1.59-5.24-2-9.81,1.2-15.15-.19-6.73-1.76-14.27-.72-21.44-.45-4.23,.16-7.72-3.26-12.05-2.01-3.89,1.12-7.47,1.34-11.4-.81-2.23-1.22-5.19-1.81-8.19-2.01-4.41-.3-9.35,1.01-13.3-2.42-2.95-2.55-6.51-1.88-9.99-1.67-3.06,.18-6.44,1.89-9.09,.27-3.53-2.16-6.34-5.61-10.96-2.47-.32,.22-1.01,.07-1.46-.08-4-1.36-8.04-2.66-12.28-2.84-4.49-.19-9.13-.7-13.45,.19-3.31,.68-5.95-3.65-9.48-.39-1.17,1.08-4.18,.26-6.34,.16-7.12-.35-14.07,1.19-21.07,1.72-6.14,.47-12.21-.19-18.37,1.78-2.84,.91-6.06,.37-9.28,1.73-1.92,.81-5.31,2.34-6.37,2.03-5.37-1.55-9.05,1.22-12.72,3.82-3.61,2.56-7.64,.12-11.4,1.74-2.96,1.27-6.1,4.28-9.92,1.38-.75-.57-1.72,.7-2.59,1.15-10.55,5.56-21.11,11.07-33.4,11.68-.77,.04-1.99,.28-2.21,.77-1.33,2.96-3.69,3.45-6.55,3.26-1.21-.08-1.69,.85-1.86,1.93l.02-.02Z" class="cls-1"/>
  </g>
</svg>