<?xml version="1.0" encoding="UTF-8"?>
<svg id="Layer_2" data-name="Layer 2" xmlns="http://www.w3.org/2000/svg" viewBox="0 0 609.73 1090.32">
  <defs>
    <style>
      .cls-1 {
        fill: #004f9d;
      }

      .cls-2 {
        opacity: .1;
      }
    </style>
  </defs>
  <g id="_レイヤー_1" data-name="レイヤー 1">
    <g class="cls-2">
      <g>
        <g>
          <circle class="cls-1" cx="2.88" cy="2.88" r="2.88"/>
          <circle class="cls-1" cx="43.14" cy="2.88" r="2.88"/>
          <circle class="cls-1" cx="83.41" cy="2.88" r="2.88"/>
          <circle class="cls-1" cx="123.67" cy="2.88" r="2.88"/>
          <circle class="cls-1" cx="163.94" cy="2.88" r="2.88"/>
          <circle class="cls-1" cx="204.2" cy="2.88" r="2.88"/>
          <circle class="cls-1" cx="244.47" cy="2.88" r="2.88"/>
          <circle class="cls-1" cx="284.73" cy="2.88" r="2.88"/>
          <circle class="cls-1" cx="325" cy="2.88" r="2.88"/>
          <circle class="cls-1" cx="365.27" cy="2.88" r="2.88"/>
          <circle class="cls-1" cx="405.53" cy="2.88" r="2.88"/>
          <circle class="cls-1" cx="445.8" cy="2.88" r="2.88"/>
          <circle class="cls-1" cx="486.06" cy="2.88" r="2.88"/>
          <circle class="cls-1" cx="526.33" cy="2.88" r="2.88"/>
          <circle class="cls-1" cx="566.59" cy="2.88" r="2.88"/>
          <circle class="cls-1" cx="606.86" cy="2.88" r="2.88"/>
        </g>
        <g>
          <circle class="cls-1" cx="2.88" cy="39.03" r="2.88"/>
          <circle class="cls-1" cx="43.14" cy="39.03" r="2.88"/>
          <circle class="cls-1" cx="83.41" cy="39.03" r="2.88"/>
          <circle class="cls-1" cx="123.67" cy="39.03" r="2.88"/>
          <circle class="cls-1" cx="163.94" cy="39.03" r="2.88"/>
          <circle class="cls-1" cx="204.2" cy="39.03" r="2.88"/>
          <circle class="cls-1" cx="244.47" cy="39.03" r="2.88"/>
          <circle class="cls-1" cx="284.73" cy="39.03" r="2.88"/>
          <circle class="cls-1" cx="325" cy="39.03" r="2.88"/>
          <circle class="cls-1" cx="365.27" cy="39.03" r="2.88"/>
          <circle class="cls-1" cx="405.53" cy="39.03" r="2.88"/>
          <circle class="cls-1" cx="445.8" cy="39.03" r="2.88"/>
          <circle class="cls-1" cx="486.06" cy="39.03" r="2.88"/>
          <circle class="cls-1" cx="526.33" cy="39.03" r="2.88"/>
          <circle class="cls-1" cx="566.59" cy="39.03" r="2.88"/>
          <circle class="cls-1" cx="606.86" cy="39.03" r="2.88"/>
        </g>
        <g>
          <circle class="cls-1" cx="2.88" cy="75.19" r="2.88"/>
          <circle class="cls-1" cx="43.14" cy="75.19" r="2.88"/>
          <circle class="cls-1" cx="83.41" cy="75.19" r="2.88"/>
          <circle class="cls-1" cx="123.67" cy="75.19" r="2.88"/>
          <circle class="cls-1" cx="163.94" cy="75.19" r="2.88"/>
          <circle class="cls-1" cx="204.2" cy="75.19" r="2.88"/>
          <circle class="cls-1" cx="244.47" cy="75.19" r="2.88"/>
          <circle class="cls-1" cx="284.73" cy="75.19" r="2.88"/>
          <circle class="cls-1" cx="325" cy="75.19" r="2.88"/>
          <circle class="cls-1" cx="365.27" cy="75.19" r="2.88"/>
          <circle class="cls-1" cx="405.53" cy="75.19" r="2.88"/>
          <circle class="cls-1" cx="445.8" cy="75.19" r="2.88"/>
          <circle class="cls-1" cx="486.06" cy="75.19" r="2.88"/>
          <circle class="cls-1" cx="526.33" cy="75.19" r="2.88"/>
          <circle class="cls-1" cx="566.59" cy="75.19" r="2.88"/>
          <circle class="cls-1" cx="606.86" cy="75.19" r="2.88"/>
        </g>
        <g>
          <circle class="cls-1" cx="2.88" cy="111.35" r="2.88"/>
          <circle class="cls-1" cx="43.14" cy="111.35" r="2.88"/>
          <circle class="cls-1" cx="83.41" cy="111.35" r="2.88"/>
          <circle class="cls-1" cx="123.67" cy="111.35" r="2.88"/>
          <circle class="cls-1" cx="163.94" cy="111.35" r="2.88"/>
          <circle class="cls-1" cx="204.2" cy="111.35" r="2.88"/>
          <circle class="cls-1" cx="244.47" cy="111.35" r="2.88"/>
          <circle class="cls-1" cx="284.73" cy="111.35" r="2.88"/>
          <circle class="cls-1" cx="325" cy="111.35" r="2.88"/>
          <circle class="cls-1" cx="365.27" cy="111.35" r="2.88"/>
          <circle class="cls-1" cx="405.53" cy="111.35" r="2.88"/>
          <circle class="cls-1" cx="445.8" cy="111.35" r="2.88"/>
          <circle class="cls-1" cx="486.06" cy="111.35" r="2.88"/>
          <circle class="cls-1" cx="526.33" cy="111.35" r="2.88"/>
          <circle class="cls-1" cx="566.59" cy="111.35" r="2.88"/>
          <circle class="cls-1" cx="606.86" cy="111.35" r="2.88"/>
        </g>
        <g>
          <circle class="cls-1" cx="2.88" cy="147.5" r="2.88"/>
          <circle class="cls-1" cx="43.14" cy="147.5" r="2.88"/>
          <circle class="cls-1" cx="83.41" cy="147.5" r="2.88"/>
          <circle class="cls-1" cx="123.67" cy="147.5" r="2.88"/>
          <circle class="cls-1" cx="163.94" cy="147.5" r="2.88"/>
          <circle class="cls-1" cx="204.2" cy="147.5" r="2.88"/>
          <circle class="cls-1" cx="244.47" cy="147.5" r="2.88"/>
          <circle class="cls-1" cx="284.73" cy="147.5" r="2.88"/>
          <circle class="cls-1" cx="325" cy="147.5" r="2.88"/>
          <circle class="cls-1" cx="365.27" cy="147.5" r="2.88"/>
          <circle class="cls-1" cx="405.53" cy="147.5" r="2.88"/>
          <circle class="cls-1" cx="445.8" cy="147.5" r="2.88"/>
          <circle class="cls-1" cx="486.06" cy="147.5" r="2.88"/>
          <circle class="cls-1" cx="526.33" cy="147.5" r="2.88"/>
          <circle class="cls-1" cx="566.59" cy="147.5" r="2.88"/>
          <circle class="cls-1" cx="606.86" cy="147.5" r="2.88"/>
        </g>
        <g>
          <circle class="cls-1" cx="2.88" cy="183.66" r="2.88"/>
          <circle class="cls-1" cx="43.14" cy="183.66" r="2.88"/>
          <circle class="cls-1" cx="83.41" cy="183.66" r="2.88"/>
          <circle class="cls-1" cx="123.67" cy="183.66" r="2.88"/>
          <circle class="cls-1" cx="163.94" cy="183.66" r="2.88"/>
          <circle class="cls-1" cx="204.2" cy="183.66" r="2.88"/>
          <circle class="cls-1" cx="244.47" cy="183.66" r="2.88"/>
          <circle class="cls-1" cx="284.73" cy="183.66" r="2.88"/>
          <circle class="cls-1" cx="325" cy="183.66" r="2.88"/>
          <circle class="cls-1" cx="365.27" cy="183.66" r="2.88"/>
          <circle class="cls-1" cx="405.53" cy="183.66" r="2.88"/>
          <circle class="cls-1" cx="445.8" cy="183.66" r="2.88"/>
          <circle class="cls-1" cx="486.06" cy="183.66" r="2.88"/>
          <circle class="cls-1" cx="526.33" cy="183.66" r="2.88"/>
          <circle class="cls-1" cx="566.59" cy="183.66" r="2.88"/>
          <circle class="cls-1" cx="606.86" cy="183.66" r="2.88"/>
        </g>
        <g>
          <circle class="cls-1" cx="2.88" cy="219.82" r="2.88"/>
          <circle class="cls-1" cx="43.14" cy="219.82" r="2.88"/>
          <circle class="cls-1" cx="83.41" cy="219.82" r="2.88"/>
          <circle class="cls-1" cx="123.67" cy="219.82" r="2.88"/>
          <circle class="cls-1" cx="163.94" cy="219.82" r="2.88"/>
          <circle class="cls-1" cx="204.2" cy="219.82" r="2.88"/>
          <circle class="cls-1" cx="244.47" cy="219.82" r="2.88"/>
          <circle class="cls-1" cx="284.73" cy="219.82" r="2.88"/>
          <circle class="cls-1" cx="325" cy="219.82" r="2.88"/>
          <circle class="cls-1" cx="365.27" cy="219.82" r="2.88"/>
          <circle class="cls-1" cx="405.53" cy="219.82" r="2.88"/>
          <circle class="cls-1" cx="445.8" cy="219.82" r="2.88"/>
          <circle class="cls-1" cx="486.06" cy="219.82" r="2.88"/>
          <circle class="cls-1" cx="526.33" cy="219.82" r="2.88"/>
          <circle class="cls-1" cx="566.59" cy="219.82" r="2.88"/>
          <circle class="cls-1" cx="606.86" cy="219.82" r="2.88"/>
        </g>
        <g>
          <circle class="cls-1" cx="2.88" cy="255.97" r="2.88"/>
          <circle class="cls-1" cx="43.14" cy="255.97" r="2.88"/>
          <circle class="cls-1" cx="83.41" cy="255.97" r="2.88"/>
          <circle class="cls-1" cx="123.67" cy="255.97" r="2.88"/>
          <circle class="cls-1" cx="163.94" cy="255.97" r="2.88"/>
          <circle class="cls-1" cx="204.2" cy="255.97" r="2.88"/>
          <circle class="cls-1" cx="244.47" cy="255.97" r="2.88"/>
          <circle class="cls-1" cx="284.73" cy="255.97" r="2.88"/>
          <circle class="cls-1" cx="325" cy="255.97" r="2.88"/>
          <circle class="cls-1" cx="365.27" cy="255.97" r="2.88"/>
          <circle class="cls-1" cx="405.53" cy="255.97" r="2.88"/>
          <circle class="cls-1" cx="445.8" cy="255.97" r="2.88"/>
          <circle class="cls-1" cx="486.06" cy="255.97" r="2.88"/>
          <circle class="cls-1" cx="526.33" cy="255.97" r="2.88"/>
          <circle class="cls-1" cx="566.59" cy="255.97" r="2.88"/>
          <circle class="cls-1" cx="606.86" cy="255.97" r="2.88"/>
        </g>
        <g>
          <circle class="cls-1" cx="2.88" cy="292.13" r="2.88"/>
          <circle class="cls-1" cx="43.14" cy="292.13" r="2.88"/>
          <circle class="cls-1" cx="83.41" cy="292.13" r="2.88"/>
          <circle class="cls-1" cx="123.67" cy="292.13" r="2.88"/>
          <circle class="cls-1" cx="163.94" cy="292.13" r="2.88"/>
          <circle class="cls-1" cx="204.2" cy="292.13" r="2.88"/>
          <circle class="cls-1" cx="244.47" cy="292.13" r="2.88"/>
          <circle class="cls-1" cx="284.73" cy="292.13" r="2.88"/>
          <circle class="cls-1" cx="325" cy="292.13" r="2.88"/>
          <circle class="cls-1" cx="365.27" cy="292.13" r="2.88"/>
          <circle class="cls-1" cx="405.53" cy="292.13" r="2.88"/>
          <circle class="cls-1" cx="445.8" cy="292.13" r="2.88"/>
          <circle class="cls-1" cx="486.06" cy="292.13" r="2.88"/>
          <circle class="cls-1" cx="526.33" cy="292.13" r="2.88"/>
          <circle class="cls-1" cx="566.59" cy="292.13" r="2.88"/>
          <circle class="cls-1" cx="606.86" cy="292.13" r="2.88"/>
        </g>
        <g>
          <circle class="cls-1" cx="2.88" cy="328.29" r="2.88"/>
          <circle class="cls-1" cx="43.14" cy="328.29" r="2.88"/>
          <circle class="cls-1" cx="83.41" cy="328.29" r="2.88"/>
          <circle class="cls-1" cx="123.67" cy="328.29" r="2.88"/>
          <circle class="cls-1" cx="163.94" cy="328.29" r="2.88"/>
          <circle class="cls-1" cx="204.2" cy="328.29" r="2.88"/>
          <circle class="cls-1" cx="244.47" cy="328.29" r="2.88"/>
          <circle class="cls-1" cx="284.73" cy="328.29" r="2.88"/>
          <circle class="cls-1" cx="325" cy="328.29" r="2.88"/>
          <circle class="cls-1" cx="365.27" cy="328.29" r="2.88"/>
          <circle class="cls-1" cx="405.53" cy="328.29" r="2.88"/>
          <circle class="cls-1" cx="445.8" cy="328.29" r="2.88"/>
          <circle class="cls-1" cx="486.06" cy="328.29" r="2.88"/>
          <circle class="cls-1" cx="526.33" cy="328.29" r="2.88"/>
          <circle class="cls-1" cx="566.59" cy="328.29" r="2.88"/>
          <circle class="cls-1" cx="606.86" cy="328.29" r="2.88"/>
        </g>
        <g>
          <circle class="cls-1" cx="2.88" cy="364.44" r="2.88"/>
          <circle class="cls-1" cx="43.14" cy="364.44" r="2.88"/>
          <circle class="cls-1" cx="83.41" cy="364.44" r="2.88"/>
          <circle class="cls-1" cx="123.67" cy="364.44" r="2.88"/>
          <circle class="cls-1" cx="163.94" cy="364.44" r="2.88"/>
          <circle class="cls-1" cx="204.2" cy="364.44" r="2.88"/>
          <circle class="cls-1" cx="244.47" cy="364.44" r="2.88"/>
          <circle class="cls-1" cx="284.73" cy="364.44" r="2.88"/>
          <circle class="cls-1" cx="325" cy="364.44" r="2.88"/>
          <circle class="cls-1" cx="365.27" cy="364.44" r="2.88"/>
          <circle class="cls-1" cx="405.53" cy="364.44" r="2.88"/>
          <circle class="cls-1" cx="445.8" cy="364.44" r="2.88"/>
          <circle class="cls-1" cx="486.06" cy="364.44" r="2.88"/>
          <circle class="cls-1" cx="526.33" cy="364.44" r="2.88"/>
          <circle class="cls-1" cx="566.59" cy="364.44" r="2.88"/>
          <circle class="cls-1" cx="606.86" cy="364.44" r="2.88"/>
        </g>
        <g>
          <circle class="cls-1" cx="2.88" cy="400.6" r="2.88"/>
          <circle class="cls-1" cx="43.14" cy="400.6" r="2.88"/>
          <circle class="cls-1" cx="83.41" cy="400.6" r="2.88"/>
          <circle class="cls-1" cx="123.67" cy="400.6" r="2.88"/>
          <circle class="cls-1" cx="163.94" cy="400.6" r="2.88"/>
          <circle class="cls-1" cx="204.2" cy="400.6" r="2.88"/>
          <circle class="cls-1" cx="244.47" cy="400.6" r="2.88"/>
          <circle class="cls-1" cx="284.73" cy="400.6" r="2.88"/>
          <circle class="cls-1" cx="325" cy="400.6" r="2.88"/>
          <circle class="cls-1" cx="365.27" cy="400.6" r="2.88"/>
          <circle class="cls-1" cx="405.53" cy="400.6" r="2.88"/>
          <circle class="cls-1" cx="445.8" cy="400.6" r="2.88"/>
          <circle class="cls-1" cx="486.06" cy="400.6" r="2.88"/>
          <circle class="cls-1" cx="526.33" cy="400.6" r="2.88"/>
          <circle class="cls-1" cx="566.59" cy="400.6" r="2.88"/>
          <circle class="cls-1" cx="606.86" cy="400.6" r="2.88"/>
        </g>
      </g>
      <g>
        <g>
          <circle class="cls-1" cx="2.88" cy="436.88" r="2.88"/>
          <circle class="cls-1" cx="43.14" cy="436.88" r="2.88"/>
          <circle class="cls-1" cx="83.41" cy="436.88" r="2.88"/>
          <circle class="cls-1" cx="123.67" cy="436.88" r="2.88"/>
          <circle class="cls-1" cx="163.94" cy="436.88" r="2.88"/>
          <circle class="cls-1" cx="204.2" cy="436.88" r="2.88"/>
          <circle class="cls-1" cx="244.47" cy="436.88" r="2.88"/>
          <circle class="cls-1" cx="284.73" cy="436.88" r="2.88"/>
          <circle class="cls-1" cx="325" cy="436.88" r="2.88"/>
          <circle class="cls-1" cx="365.27" cy="436.88" r="2.88"/>
          <circle class="cls-1" cx="405.53" cy="436.88" r="2.88"/>
          <circle class="cls-1" cx="445.8" cy="436.88" r="2.88"/>
          <circle class="cls-1" cx="486.06" cy="436.88" r="2.88"/>
          <circle class="cls-1" cx="526.33" cy="436.88" r="2.88"/>
          <circle class="cls-1" cx="566.59" cy="436.88" r="2.88"/>
          <circle class="cls-1" cx="606.86" cy="436.88" r="2.88"/>
        </g>
        <g>
          <circle class="cls-1" cx="2.88" cy="473.03" r="2.88"/>
          <circle class="cls-1" cx="43.14" cy="473.03" r="2.88"/>
          <circle class="cls-1" cx="83.41" cy="473.03" r="2.88"/>
          <circle class="cls-1" cx="123.67" cy="473.03" r="2.88"/>
          <circle class="cls-1" cx="163.94" cy="473.03" r="2.88"/>
          <circle class="cls-1" cx="204.2" cy="473.03" r="2.88"/>
          <circle class="cls-1" cx="244.47" cy="473.03" r="2.88"/>
          <circle class="cls-1" cx="284.73" cy="473.03" r="2.88"/>
          <circle class="cls-1" cx="325" cy="473.03" r="2.88"/>
          <circle class="cls-1" cx="365.27" cy="473.03" r="2.88"/>
          <circle class="cls-1" cx="405.53" cy="473.03" r="2.88"/>
          <circle class="cls-1" cx="445.8" cy="473.03" r="2.88"/>
          <circle class="cls-1" cx="486.06" cy="473.03" r="2.88"/>
          <circle class="cls-1" cx="526.33" cy="473.03" r="2.88"/>
          <circle class="cls-1" cx="566.59" cy="473.03" r="2.88"/>
          <circle class="cls-1" cx="606.86" cy="473.03" r="2.88"/>
        </g>
        <g>
          <circle class="cls-1" cx="2.88" cy="509.19" r="2.88"/>
          <circle class="cls-1" cx="43.14" cy="509.19" r="2.88"/>
          <circle class="cls-1" cx="83.41" cy="509.19" r="2.88"/>
          <circle class="cls-1" cx="123.67" cy="509.19" r="2.88"/>
          <circle class="cls-1" cx="163.94" cy="509.19" r="2.88"/>
          <circle class="cls-1" cx="204.2" cy="509.19" r="2.88"/>
          <circle class="cls-1" cx="244.47" cy="509.19" r="2.88"/>
          <circle class="cls-1" cx="284.73" cy="509.19" r="2.88"/>
          <circle class="cls-1" cx="325" cy="509.19" r="2.88"/>
          <circle class="cls-1" cx="365.27" cy="509.19" r="2.88"/>
          <circle class="cls-1" cx="405.53" cy="509.19" r="2.88"/>
          <circle class="cls-1" cx="445.8" cy="509.19" r="2.88"/>
          <circle class="cls-1" cx="486.06" cy="509.19" r="2.88"/>
          <circle class="cls-1" cx="526.33" cy="509.19" r="2.88"/>
          <circle class="cls-1" cx="566.59" cy="509.19" r="2.88"/>
          <circle class="cls-1" cx="606.86" cy="509.19" r="2.88"/>
        </g>
        <g>
          <circle class="cls-1" cx="2.88" cy="545.35" r="2.88"/>
          <circle class="cls-1" cx="43.14" cy="545.35" r="2.88"/>
          <circle class="cls-1" cx="83.41" cy="545.35" r="2.88"/>
          <circle class="cls-1" cx="123.67" cy="545.35" r="2.88"/>
          <circle class="cls-1" cx="163.94" cy="545.35" r="2.88"/>
          <circle class="cls-1" cx="204.2" cy="545.35" r="2.88"/>
          <circle class="cls-1" cx="244.47" cy="545.35" r="2.88"/>
          <circle class="cls-1" cx="284.73" cy="545.35" r="2.88"/>
          <circle class="cls-1" cx="325" cy="545.35" r="2.88"/>
          <circle class="cls-1" cx="365.27" cy="545.35" r="2.88"/>
          <circle class="cls-1" cx="405.53" cy="545.35" r="2.88"/>
          <circle class="cls-1" cx="445.8" cy="545.35" r="2.88"/>
          <circle class="cls-1" cx="486.06" cy="545.35" r="2.88"/>
          <circle class="cls-1" cx="526.33" cy="545.35" r="2.88"/>
          <circle class="cls-1" cx="566.59" cy="545.35" r="2.88"/>
          <circle class="cls-1" cx="606.86" cy="545.35" r="2.88"/>
        </g>
        <g>
          <circle class="cls-1" cx="2.88" cy="581.5" r="2.88"/>
          <circle class="cls-1" cx="43.14" cy="581.5" r="2.88"/>
          <circle class="cls-1" cx="83.41" cy="581.5" r="2.88"/>
          <circle class="cls-1" cx="123.67" cy="581.5" r="2.88"/>
          <circle class="cls-1" cx="163.94" cy="581.5" r="2.88"/>
          <circle class="cls-1" cx="204.2" cy="581.5" r="2.88"/>
          <circle class="cls-1" cx="244.47" cy="581.5" r="2.88"/>
          <circle class="cls-1" cx="284.73" cy="581.5" r="2.88"/>
          <circle class="cls-1" cx="325" cy="581.5" r="2.88"/>
          <circle class="cls-1" cx="365.27" cy="581.5" r="2.88"/>
          <circle class="cls-1" cx="405.53" cy="581.5" r="2.88"/>
          <circle class="cls-1" cx="445.8" cy="581.5" r="2.88"/>
          <circle class="cls-1" cx="486.06" cy="581.5" r="2.88"/>
          <circle class="cls-1" cx="526.33" cy="581.5" r="2.88"/>
          <circle class="cls-1" cx="566.59" cy="581.5" r="2.88"/>
          <circle class="cls-1" cx="606.86" cy="581.5" r="2.88"/>
        </g>
        <g>
          <circle class="cls-1" cx="2.88" cy="617.66" r="2.88"/>
          <circle class="cls-1" cx="43.14" cy="617.66" r="2.88"/>
          <circle class="cls-1" cx="83.41" cy="617.66" r="2.88"/>
          <circle class="cls-1" cx="123.67" cy="617.66" r="2.88"/>
          <circle class="cls-1" cx="163.94" cy="617.66" r="2.88"/>
          <circle class="cls-1" cx="204.2" cy="617.66" r="2.88"/>
          <circle class="cls-1" cx="244.47" cy="617.66" r="2.88"/>
          <circle class="cls-1" cx="284.73" cy="617.66" r="2.88"/>
          <circle class="cls-1" cx="325" cy="617.66" r="2.88"/>
          <circle class="cls-1" cx="365.27" cy="617.66" r="2.88"/>
          <circle class="cls-1" cx="405.53" cy="617.66" r="2.88"/>
          <circle class="cls-1" cx="445.8" cy="617.66" r="2.88"/>
          <circle class="cls-1" cx="486.06" cy="617.66" r="2.88"/>
          <circle class="cls-1" cx="526.33" cy="617.66" r="2.88"/>
          <circle class="cls-1" cx="566.59" cy="617.66" r="2.88"/>
          <circle class="cls-1" cx="606.86" cy="617.66" r="2.88"/>
        </g>
        <g>
          <circle class="cls-1" cx="2.88" cy="653.82" r="2.88"/>
          <circle class="cls-1" cx="43.14" cy="653.82" r="2.88"/>
          <circle class="cls-1" cx="83.41" cy="653.82" r="2.88"/>
          <circle class="cls-1" cx="123.67" cy="653.82" r="2.88"/>
          <circle class="cls-1" cx="163.94" cy="653.82" r="2.88"/>
          <circle class="cls-1" cx="204.2" cy="653.82" r="2.88"/>
          <circle class="cls-1" cx="244.47" cy="653.82" r="2.88"/>
          <circle class="cls-1" cx="284.73" cy="653.82" r="2.88"/>
          <circle class="cls-1" cx="325" cy="653.82" r="2.88"/>
          <circle class="cls-1" cx="365.27" cy="653.82" r="2.88"/>
          <circle class="cls-1" cx="405.53" cy="653.82" r="2.88"/>
          <circle class="cls-1" cx="445.8" cy="653.82" r="2.88"/>
          <circle class="cls-1" cx="486.06" cy="653.82" r="2.88"/>
          <circle class="cls-1" cx="526.33" cy="653.82" r="2.88"/>
          <circle class="cls-1" cx="566.59" cy="653.82" r="2.88"/>
          <circle class="cls-1" cx="606.86" cy="653.82" r="2.88"/>
        </g>
        <g>
          <circle class="cls-1" cx="2.88" cy="689.97" r="2.88"/>
          <circle class="cls-1" cx="43.14" cy="689.97" r="2.88"/>
          <circle class="cls-1" cx="83.41" cy="689.97" r="2.88"/>
          <circle class="cls-1" cx="123.67" cy="689.97" r="2.88"/>
          <circle class="cls-1" cx="163.94" cy="689.97" r="2.88"/>
          <circle class="cls-1" cx="204.2" cy="689.97" r="2.88"/>
          <circle class="cls-1" cx="244.47" cy="689.97" r="2.88"/>
          <circle class="cls-1" cx="284.73" cy="689.97" r="2.88"/>
          <circle class="cls-1" cx="325" cy="689.97" r="2.88"/>
          <circle class="cls-1" cx="365.27" cy="689.97" r="2.88"/>
          <circle class="cls-1" cx="405.53" cy="689.97" r="2.88"/>
          <circle class="cls-1" cx="445.8" cy="689.97" r="2.88"/>
          <circle class="cls-1" cx="486.06" cy="689.97" r="2.88"/>
          <circle class="cls-1" cx="526.33" cy="689.97" r="2.88"/>
          <circle class="cls-1" cx="566.59" cy="689.97" r="2.88"/>
          <circle class="cls-1" cx="606.86" cy="689.97" r="2.88"/>
        </g>
        <g>
          <circle class="cls-1" cx="2.88" cy="726.13" r="2.88"/>
          <circle class="cls-1" cx="43.14" cy="726.13" r="2.88"/>
          <circle class="cls-1" cx="83.41" cy="726.13" r="2.88"/>
          <circle class="cls-1" cx="123.67" cy="726.13" r="2.88"/>
          <circle class="cls-1" cx="163.94" cy="726.13" r="2.88"/>
          <circle class="cls-1" cx="204.2" cy="726.13" r="2.88"/>
          <circle class="cls-1" cx="244.47" cy="726.13" r="2.88"/>
          <circle class="cls-1" cx="284.73" cy="726.13" r="2.88"/>
          <circle class="cls-1" cx="325" cy="726.13" r="2.88"/>
          <circle class="cls-1" cx="365.27" cy="726.13" r="2.88"/>
          <circle class="cls-1" cx="405.53" cy="726.13" r="2.88"/>
          <circle class="cls-1" cx="445.8" cy="726.13" r="2.88"/>
          <circle class="cls-1" cx="486.06" cy="726.13" r="2.88"/>
          <circle class="cls-1" cx="526.33" cy="726.13" r="2.88"/>
          <circle class="cls-1" cx="566.59" cy="726.13" r="2.88"/>
          <circle class="cls-1" cx="606.86" cy="726.13" r="2.88"/>
        </g>
        <g>
          <circle class="cls-1" cx="2.88" cy="762.29" r="2.88"/>
          <circle class="cls-1" cx="43.14" cy="762.29" r="2.88"/>
          <circle class="cls-1" cx="83.41" cy="762.29" r="2.88"/>
          <circle class="cls-1" cx="123.67" cy="762.29" r="2.88"/>
          <circle class="cls-1" cx="163.94" cy="762.29" r="2.88"/>
          <circle class="cls-1" cx="204.2" cy="762.29" r="2.88"/>
          <circle class="cls-1" cx="244.47" cy="762.29" r="2.88"/>
          <circle class="cls-1" cx="284.73" cy="762.29" r="2.88"/>
          <circle class="cls-1" cx="325" cy="762.29" r="2.88"/>
          <circle class="cls-1" cx="365.27" cy="762.29" r="2.88"/>
          <circle class="cls-1" cx="405.53" cy="762.29" r="2.88"/>
          <circle class="cls-1" cx="445.8" cy="762.29" r="2.88"/>
          <circle class="cls-1" cx="486.06" cy="762.29" r="2.88"/>
          <circle class="cls-1" cx="526.33" cy="762.29" r="2.88"/>
          <circle class="cls-1" cx="566.59" cy="762.29" r="2.88"/>
          <circle class="cls-1" cx="606.86" cy="762.29" r="2.88"/>
        </g>
        <g>
          <circle class="cls-1" cx="2.88" cy="798.44" r="2.88"/>
          <circle class="cls-1" cx="43.14" cy="798.44" r="2.88"/>
          <circle class="cls-1" cx="83.41" cy="798.44" r="2.88"/>
          <circle class="cls-1" cx="123.67" cy="798.44" r="2.88"/>
          <circle class="cls-1" cx="163.94" cy="798.44" r="2.88"/>
          <circle class="cls-1" cx="204.2" cy="798.44" r="2.88"/>
          <circle class="cls-1" cx="244.47" cy="798.44" r="2.88"/>
          <circle class="cls-1" cx="284.73" cy="798.44" r="2.88"/>
          <circle class="cls-1" cx="325" cy="798.44" r="2.88"/>
          <circle class="cls-1" cx="365.27" cy="798.44" r="2.88"/>
          <circle class="cls-1" cx="405.53" cy="798.44" r="2.88"/>
          <circle class="cls-1" cx="445.8" cy="798.44" r="2.88"/>
          <circle class="cls-1" cx="486.06" cy="798.44" r="2.88"/>
          <circle class="cls-1" cx="526.33" cy="798.44" r="2.88"/>
          <circle class="cls-1" cx="566.59" cy="798.44" r="2.88"/>
          <circle class="cls-1" cx="606.86" cy="798.44" r="2.88"/>
        </g>
        <g>
          <circle class="cls-1" cx="2.88" cy="870.97" r="2.88"/>
          <circle class="cls-1" cx="43.14" cy="870.97" r="2.88"/>
          <circle class="cls-1" cx="83.41" cy="870.97" r="2.88"/>
          <circle class="cls-1" cx="123.67" cy="870.97" r="2.88"/>
          <circle class="cls-1" cx="163.94" cy="870.97" r="2.88"/>
          <circle class="cls-1" cx="204.2" cy="870.97" r="2.88"/>
          <circle class="cls-1" cx="244.47" cy="870.97" r="2.88"/>
          <circle class="cls-1" cx="284.73" cy="870.97" r="2.88"/>
          <circle class="cls-1" cx="325" cy="870.97" r="2.88"/>
          <circle class="cls-1" cx="365.27" cy="870.97" r="2.88"/>
          <circle class="cls-1" cx="405.53" cy="870.97" r="2.88"/>
          <circle class="cls-1" cx="445.8" cy="870.97" r="2.88"/>
          <circle class="cls-1" cx="486.06" cy="870.97" r="2.88"/>
          <circle class="cls-1" cx="526.33" cy="870.97" r="2.88"/>
          <circle class="cls-1" cx="566.59" cy="870.97" r="2.88"/>
          <circle class="cls-1" cx="606.86" cy="870.97" r="2.88"/>
        </g>
        <g>
          <circle class="cls-1" cx="2.88" cy="907.13" r="2.88"/>
          <circle class="cls-1" cx="43.14" cy="907.13" r="2.88"/>
          <circle class="cls-1" cx="83.41" cy="907.13" r="2.88"/>
          <circle class="cls-1" cx="123.67" cy="907.13" r="2.88"/>
          <circle class="cls-1" cx="163.94" cy="907.13" r="2.88"/>
          <circle class="cls-1" cx="204.2" cy="907.13" r="2.88"/>
          <circle class="cls-1" cx="244.47" cy="907.13" r="2.88"/>
          <circle class="cls-1" cx="284.73" cy="907.13" r="2.88"/>
          <circle class="cls-1" cx="325" cy="907.13" r="2.88"/>
          <circle class="cls-1" cx="365.27" cy="907.13" r="2.88"/>
          <circle class="cls-1" cx="405.53" cy="907.13" r="2.88"/>
          <circle class="cls-1" cx="445.8" cy="907.13" r="2.88"/>
          <circle class="cls-1" cx="486.06" cy="907.13" r="2.88"/>
          <circle class="cls-1" cx="526.33" cy="907.13" r="2.88"/>
          <circle class="cls-1" cx="566.59" cy="907.13" r="2.88"/>
          <circle class="cls-1" cx="606.86" cy="907.13" r="2.88"/>
        </g>
        <g>
          <circle class="cls-1" cx="2.88" cy="943.29" r="2.88"/>
          <circle class="cls-1" cx="43.14" cy="943.29" r="2.88"/>
          <circle class="cls-1" cx="83.41" cy="943.29" r="2.88"/>
          <circle class="cls-1" cx="123.67" cy="943.29" r="2.88"/>
          <circle class="cls-1" cx="163.94" cy="943.29" r="2.88"/>
          <circle class="cls-1" cx="204.2" cy="943.29" r="2.88"/>
          <circle class="cls-1" cx="244.47" cy="943.29" r="2.88"/>
          <circle class="cls-1" cx="284.73" cy="943.29" r="2.88"/>
          <circle class="cls-1" cx="325" cy="943.29" r="2.88"/>
          <circle class="cls-1" cx="365.27" cy="943.29" r="2.88"/>
          <circle class="cls-1" cx="405.53" cy="943.29" r="2.88"/>
          <circle class="cls-1" cx="445.8" cy="943.29" r="2.88"/>
          <circle class="cls-1" cx="486.06" cy="943.29" r="2.88"/>
          <circle class="cls-1" cx="526.33" cy="943.29" r="2.88"/>
          <circle class="cls-1" cx="566.59" cy="943.29" r="2.88"/>
          <circle class="cls-1" cx="606.86" cy="943.29" r="2.88"/>
        </g>
        <g>
          <circle class="cls-1" cx="2.88" cy="979.44" r="2.88"/>
          <circle class="cls-1" cx="43.14" cy="979.44" r="2.88"/>
          <circle class="cls-1" cx="83.41" cy="979.44" r="2.88"/>
          <circle class="cls-1" cx="123.67" cy="979.44" r="2.88"/>
          <circle class="cls-1" cx="163.94" cy="979.44" r="2.88"/>
          <circle class="cls-1" cx="204.2" cy="979.44" r="2.88"/>
          <circle class="cls-1" cx="244.47" cy="979.44" r="2.88"/>
          <circle class="cls-1" cx="284.73" cy="979.44" r="2.88"/>
          <circle class="cls-1" cx="325" cy="979.44" r="2.88"/>
          <circle class="cls-1" cx="365.27" cy="979.44" r="2.88"/>
          <circle class="cls-1" cx="405.53" cy="979.44" r="2.88"/>
          <circle class="cls-1" cx="445.8" cy="979.44" r="2.88"/>
          <circle class="cls-1" cx="486.06" cy="979.44" r="2.88"/>
          <circle class="cls-1" cx="526.33" cy="979.44" r="2.88"/>
          <circle class="cls-1" cx="566.59" cy="979.44" r="2.88"/>
          <circle class="cls-1" cx="606.86" cy="979.44" r="2.88"/>
        </g>
        <g>
          <circle class="cls-1" cx="2.88" cy="1015.13" r="2.88"/>
          <circle class="cls-1" cx="43.14" cy="1015.13" r="2.88"/>
          <circle class="cls-1" cx="83.41" cy="1015.13" r="2.88"/>
          <circle class="cls-1" cx="123.67" cy="1015.13" r="2.88"/>
          <circle class="cls-1" cx="163.94" cy="1015.13" r="2.88"/>
          <circle class="cls-1" cx="204.2" cy="1015.13" r="2.88"/>
          <circle class="cls-1" cx="244.47" cy="1015.13" r="2.88"/>
          <circle class="cls-1" cx="284.73" cy="1015.13" r="2.88"/>
          <circle class="cls-1" cx="325" cy="1015.13" r="2.88"/>
          <circle class="cls-1" cx="365.27" cy="1015.13" r="2.88"/>
          <circle class="cls-1" cx="405.53" cy="1015.13" r="2.88"/>
          <circle class="cls-1" cx="445.8" cy="1015.13" r="2.88"/>
          <circle class="cls-1" cx="486.06" cy="1015.13" r="2.88"/>
          <circle class="cls-1" cx="526.33" cy="1015.13" r="2.88"/>
          <circle class="cls-1" cx="566.59" cy="1015.13" r="2.88"/>
          <circle class="cls-1" cx="606.86" cy="1015.13" r="2.88"/>
        </g>
        <g>
          <circle class="cls-1" cx="2.88" cy="1051.29" r="2.88"/>
          <circle class="cls-1" cx="43.14" cy="1051.29" r="2.88"/>
          <circle class="cls-1" cx="83.41" cy="1051.29" r="2.88"/>
          <circle class="cls-1" cx="123.67" cy="1051.29" r="2.88"/>
          <circle class="cls-1" cx="163.94" cy="1051.29" r="2.88"/>
          <circle class="cls-1" cx="204.2" cy="1051.29" r="2.88"/>
          <circle class="cls-1" cx="244.47" cy="1051.29" r="2.88"/>
          <circle class="cls-1" cx="284.73" cy="1051.29" r="2.88"/>
          <circle class="cls-1" cx="325" cy="1051.29" r="2.88"/>
          <circle class="cls-1" cx="365.27" cy="1051.29" r="2.88"/>
          <circle class="cls-1" cx="405.53" cy="1051.29" r="2.88"/>
          <circle class="cls-1" cx="445.8" cy="1051.29" r="2.88"/>
          <circle class="cls-1" cx="486.06" cy="1051.29" r="2.88"/>
          <circle class="cls-1" cx="526.33" cy="1051.29" r="2.88"/>
          <circle class="cls-1" cx="566.59" cy="1051.29" r="2.88"/>
          <circle class="cls-1" cx="606.86" cy="1051.29" r="2.88"/>
        </g>
        <g>
          <circle class="cls-1" cx="2.88" cy="1087.44" r="2.88"/>
          <circle class="cls-1" cx="43.14" cy="1087.44" r="2.88"/>
          <circle class="cls-1" cx="83.41" cy="1087.44" r="2.88"/>
          <circle class="cls-1" cx="123.67" cy="1087.44" r="2.88"/>
          <circle class="cls-1" cx="163.94" cy="1087.44" r="2.88"/>
          <circle class="cls-1" cx="204.2" cy="1087.44" r="2.88"/>
          <circle class="cls-1" cx="244.47" cy="1087.44" r="2.88"/>
          <circle class="cls-1" cx="284.73" cy="1087.44" r="2.88"/>
          <circle class="cls-1" cx="325" cy="1087.44" r="2.88"/>
          <circle class="cls-1" cx="365.27" cy="1087.44" r="2.88"/>
          <circle class="cls-1" cx="405.53" cy="1087.44" r="2.88"/>
          <circle class="cls-1" cx="445.8" cy="1087.44" r="2.88"/>
          <circle class="cls-1" cx="486.06" cy="1087.44" r="2.88"/>
          <circle class="cls-1" cx="526.33" cy="1087.44" r="2.88"/>
          <circle class="cls-1" cx="566.59" cy="1087.44" r="2.88"/>
          <circle class="cls-1" cx="606.86" cy="1087.44" r="2.88"/>
        </g>
        <g>
          <circle class="cls-1" cx="2.88" cy="834.6" r="2.88"/>
          <circle class="cls-1" cx="43.14" cy="834.6" r="2.88"/>
          <circle class="cls-1" cx="83.41" cy="834.6" r="2.88"/>
          <circle class="cls-1" cx="123.67" cy="834.6" r="2.88"/>
          <circle class="cls-1" cx="163.94" cy="834.6" r="2.88"/>
          <circle class="cls-1" cx="204.2" cy="834.6" r="2.88"/>
          <circle class="cls-1" cx="244.47" cy="834.6" r="2.88"/>
          <circle class="cls-1" cx="284.73" cy="834.6" r="2.88"/>
          <circle class="cls-1" cx="325" cy="834.6" r="2.88"/>
          <circle class="cls-1" cx="365.27" cy="834.6" r="2.88"/>
          <circle class="cls-1" cx="405.53" cy="834.6" r="2.88"/>
          <circle class="cls-1" cx="445.8" cy="834.6" r="2.88"/>
          <circle class="cls-1" cx="486.06" cy="834.6" r="2.88"/>
          <circle class="cls-1" cx="526.33" cy="834.6" r="2.88"/>
          <circle class="cls-1" cx="566.59" cy="834.6" r="2.88"/>
          <circle class="cls-1" cx="606.86" cy="834.6" r="2.88"/>
        </g>
      </g>
    </g>
  </g>
</svg>