<?xml version="1.0" encoding="UTF-8"?>
<svg id="Layer_2" data-name="Layer 2" xmlns="http://www.w3.org/2000/svg" viewBox="0 0 81.37 167.61">
  <defs>
    <style>
      .cls-1 {
        fill-rule: evenodd;
      }

      .cls-1, .cls-2 {
        fill: #c30d23;
      }

      .cls-3 {
        fill: #231815;
      }
    </style>
  </defs>
  <g id="_レイヤー_1" data-name="レイヤー 1">
    <g>
      <g>
        <path class="cls-3" d="M69.42,93.56v1.84c0,.34,.14,.71,.56,.71h1.8c.68,0,1.36-.06,2.04-.06,.76,0,1.08,.23,1.08,1.01,0,.57-.04,1.17-.06,1.74l-.14,6.41c0,.15-.02,.31-.02,.46,0,.42,.16,.44,.54,.44h-.21c.41,0,.55-.02,.65-.45,.06-.31,.16-1.27,.18-1.59,.02-.41,.02-.63,.51-.63,.43,0,1.02,.12,1.45,.29,.47,.16,.92,.43,.92,.98,0,.9-.35,2.2-.59,3.06-.39,1.29-1.24,1.35-2.41,1.35h-1.6c-1.7,0-2.84,.17-2.84-1.76,0-.53,.04-1.06,.06-1.59l.11-6.21c0-.26-.15-.44-.45-.44h-.87c-.49,0-.55,.42-.57,.78-.15,1.75-.44,3.55-1.2,5.13-1.06,2.26-2.66,3.74-4.69,5.09-.17,.13-.36,.23-.57,.23-.72,0-2.03-1.63-2.03-2.3,0-.21,.17-.32,.32-.4,2.79-1.71,4.41-3.53,4.9-6.82,.04-.34,.11-.95,.11-1.27s-.15-.44-.46-.44h-.36c-.85,0-1.71,.06-2.56,.06-.55,0-.59-.25-.59-.91v-1.25c0-.74,.04-.97,.59-.97,.85,0,1.71,.06,2.56,.06h.31c.52,0,.54-.52,.54-.78v-1.8c0-.27-.04-.8-.04-.94,0-.38,.3-.38,.5-.38,.36,0,2.56,.12,2.82,.17,.14,.04,.24,.13,.24,.29,0,.13-.14,.21-.26,.27-.26,.19-.26,.34-.26,.63Z"/>
        <path class="cls-2" d="M60.79,123.41c.44-1.25,.73-2.73,.85-4.04,.04-.45,.06-.55,.22-.55,.04,0,1.17,.2,1.68,.28,.12,.02,.14,.02,.22,.04,.18,.04,.49,.12,.49,.34,0,.12-.14,.2-.2,.22-.18,.08-.22,.14-.24,.34-.14,1.23-.42,2.81-.79,3.98-.14,.44-.18,.52-.44,.52-.67,0-1.88-.42-1.88-.83,0-.08,.04-.2,.08-.28Zm2.62-8.83c1.02-.28,1-.81,1-.81v-.1s.1-.28,.3-.28,.93,.08,1.17,.1c1.21,.12,1.5,.12,1.5,.4,0,.12-.08,.18-.18,.28-.14,.14-.79,.57-.79,.57v3.7s.77,.46,1.07,.46c.12,0,.3-.04,.44-.08,.1-.04,.24-.06,.34-.06,.44,0,.47,.34,.89,1.54,.04,.14,.16,.49,.34,.49,.16,0-.07-.47-.07-.47v-4.51l1-.97v-.2s-.64-.24-.46-.24c.57,0,1.5,.02,2.08,.06,.26,.02,.63,.04,.63,.28,0,.1-.06,.16-.2,.26-.12,.1-.16,.28-.18,.46-.02,.24,.12,2.12,.12,2.12v1c0,.24,.06,.51,.33,.51,.16,0,.37-.1,.51-.16,.16-.06,.43-.14,.65-.14,.35,0,.43,.29,.98,1.84,.06,.18,.18,.61,.37,.61,.16,0,.16-.29,.16-.41v-5.06s-.12-1.29-.17-1.82c-.02-.1-.02-.14-.02-.22,0-.22,.2-.24,.38-.24,.57,0,1.52,.04,2.12,.08,.3,.02,.63,.02,.63,.26,0,.12-.08,.2-.18,.28-.14,.12-.18,.26-.2,.44-.02,.24-.02,1.78,.44,2.14v10.79c-.46,1.11-.4,2.22-.4,3.31,0,.46-.81,.34-.81,.34h-1.13s-.83,.12-.83-.3c0-1.13,.06-2.24,.17-3.35v-3.64c-.12-.12-.16-.28-.29-.28-.12,0-.36,.12-.47,.16-.26,.12-.79,.32-1.07,.32-.3,0-.36-.24-.42-.49-.1-.44-.24-.91-.38-1.35-.08-.26-.22-.83-.4-.83-.1,0-.12,.16,.03,.24v4.67c-.14,1.11-.1,2.22-.1,3.33,0,.44-.75,.53-.75,.53h-1.11s-.83-.09-.83-.51c0-1.11,.06-2.24-.2-3.34v-1.94c.26-.28,.24-.61-.11-.61-.22,0-.47,.1-.67,.16-.18,.06-.51,.16-.69,.16-.26,0-.32-.26-.34-.46,0-.04-.02-.1-.04-.2-.1-.49-.34-1.6-.51-1.6-.14,0-.16,.4-.16,.49-.18,2.06-.61,4.16-1.5,6.02-.46,.93-1.21,2.14-1.96,2.85-.12,.12-.18,.16-.34,.16-.65,0-2.14-.95-2.14-1.41,0-.14,.12-.26,.22-.34,.26-.28,.81-1.03,1.05-1.37,.75-1.11,1.33-2.34,1.66-3.64,.44-1.64-.46-5.28-.46-5.28v-4.67Z"/>
        <path class="cls-3" d="M75.76,137.58c1.41,1.41,2.1,3.13,2.1,5.09,0,2.79-1.52,5.25-3.98,6.57-.49,.28-1.8,.89-2.36,.89-.69,0-1.74-1.82-1.74-2.38,0-.18,.18-.26,.75-.4,2.3-.59,4.18-2.04,4.18-4.57,0-3.11-2.38-4.33-2.97-4.33-.34,0-.38,.36-.4,.71-.22,2.75-1.01,6.12-2.83,8.29-.73,.89-1.68,1.64-2.87,1.64-1.33,0-2.42-.91-3.01-2.04-.45-.87-.65-2-.65-2.97,0-4.75,3.66-8.53,8.43-8.53,2.02,0,3.92,.59,5.34,2.02Zm-10.83,6.47c0,.47,.12,1.92,.81,1.92,.47,0,1.15-1.31,1.35-1.72,.69-1.43,1.25-4.35,1.25-5.07,0-.16-.08-.3-.26-.3-.57,0-3.15,1.82-3.15,5.17Z"/>
        <path class="cls-2" d="M47.63,106c-.1,.06-.29,.14-.29,.28,0,.3,2.25,.63,2.6,.69,.29,.04,.46,.12,.46,.45,0,.69-.56,2.26-1.35,2.26-.19,0-.52-.08-.73-.14-1.9-.49-3.98-1.46-5.46-2.79-.08-.06-.19-.2-.29-.2-.15,0-.15,.16-.15,.32v.3c0,.77-.17,.89-.62,1.01-1.5,.42-4.42,.87-6.04,1.09-.29,.04-.27,.04-.38,.28-.06,.12-.1,.24-.33,.24-.29,0-.35-.24-.42-.49-.1-.34-.58-1.98-.58-2.2,0-.42,.48-.4,.77-.42,1.5-.08,1.6-.12,1.6-.85v-6.18c0-.24-.02-.4-.2-.4-.16,0-.56,.26-.73,.36-.22,.14-.56,.32-.83,.32-.68,0-1.75-1.62-1.75-2.1,0-.24,.28-.34,.6-.49,2.68-1.31,5.32-2.97,7.03-5.4,.18-.26,.26-.36,.48-.36,.4,0,2.52,.44,3.08,.55,.08,.02,.28,.12,.28,.3,0,.14-.1,.22-.18,.3-.04,.04-.06,.1-.06,.16,0,.18,.52,.67,.67,.81,1.77,1.72,3.83,2.79,6.1,3.7,.16,.06,.26,.14,.26,.34,0,.57-.79,2.32-1.45,2.32-.28,0-1.35-.59-1.67-.79-.16-.1-.32-.2-.44-.2-.18,0-.2,.14-.2,.44v1.74c0,.49,.02,1.01,.02,1.52,0,.24,0,.36,.14,.36h-.37c.15,0,.31,.1,.44,.2,.56,.42,1.08,.85,1.63,1.27,.12,.1,.35,.26,.35,.42,0,.12-.08,.26-.21,.26-.11,0-.29-.08-.38-.08-.06,0-.14,.04-.19,.06-.42,.24-.81,.51-1.21,.77Zm-3.23-5.89c.14-.54,.26-.66,.02-.8v-.12c.24-.14,.12-.26-.02-.09h-4.85c-.14-.17-.24-.05-.13,.09v.12c-.11,.16,0,.26,.13,.8h4.85Zm-4.85,1c-.14,.08-.24,.2-.13,.34v.12c-.11,.14,0,.26,.13,.54h4.85c.14-.28,.26-.4,.02-.54v-.12c.24-.16,.12-.26-.02-.34h-4.85Zm.42,3c-.32,0-.55,.24-.55,.55v1.11c0,.38,.04,.57,.38,.57,.28,0,1.58-.24,1.86-.3,.18-.04,.38-.12,.38-.32,0-.12-.1-.26-.28-.51-.16-.26-.4-.63-.49-.79-.18-.28-.47-.32-.83-.32h-.46Zm.19-7c.38,0,.67-.12,.67-.57,0-.18-.06-.55-.06-.73,0-.24,.14-.3,.36-.3,.26,0,1.39,.12,1.7,.14,.08,.02,.2,.04,.3,.04,.06,0,.14-.04,.14-.12,0-.06-.22-.3-.46-.53-.1-.1-.2-.18-.28-.28-.12-.12-.26-.3-.44-.3s-.36,.22-.55,.42c-.61,.59-1.25,1.17-1.9,1.7-.1,.1-.32,.24-.32,.38s.16,.16,.4,.16h.44Zm4.34,0c.26,0,.34-.02,.34-.16,0-.04-.06-.14-.1-.18-.18-.18-.53-.42-.65-.53-.04-.04-.12-.08-.2-.08-.22,0-.45,.26-.45,.46,0,.26,.18,.49,.71,.49h.36Zm-.22,7c-.26,0-.4,0-.4,.16,0,.18,.95,1.01,1.33,1.01,.32,0,1.27-.81,1.27-.99,0-.14-.22-.16-.34-.16-.51,0-1.03-.02-1.54-.02h-.32Z"/>
        <path class="cls-3" d="M41.96,126.89c-.53,0-2.63-.12-2.93-.55-.12-.18-.22-1.84-.22-2.16,0-.28,.14-.44,.42-.44s.95,.2,1.23,.28c.26,.08,.59,.12,.85,.12,.42,0,.69-.12,.69-.57,0-.42-.38-1.19-.85-1.19-.22,0-.91,.42-1.15,.55-1.21,.75-3.03,1.86-4.16,2.67-.32,.22-.34,.24-.51,.53-.1,.16-.18,.3-.34,.3-.22,0-.63-.73-.87-1.15-.4-.67-.83-1.44-.83-1.72,0-.22,.24-.3,.63-.44,.93-.34,3.8-1.98,4.91-2.55,.22-.12,.36-.26,.36-.49,0-.12-.04-.2-.1-.3-.2-.38-.3-.79-.3-1.21,0-.79,.51-2.67,1.21-2.67,.32,0,2.28,.65,2.28,.95,0,.06-.06,.16-.16,.32-.18,.3-.46,.75-.46,1.27,0,.34,.38,.81,.73,.81,.08,0,.14-.02,.22-.02,.3-.04,.52-.06,.81-.06,2.28,0,4.1,.85,5.68,2.45,.42,.42,1.98,2.24,1.98,2.75,0,.44-2.02,1.56-2.53,1.56-.22,0-.36-.28-.49-.57-.63-1.27-1.29-2.32-2.51-3.09-.22-.14-.47-.28-.61-.28-.12,0-.24,.1-.24,.26,0,.08,.02,.14,.06,.22,.28,.51,.46,1.33,.46,1.92,0,2.04-1.48,2.49-3.25,2.49Zm-1.23-14.81c.24,0,1.82,.77,2.12,.93,.36,.18,2.06,1.01,2.06,1.37,0,.4-.67,1.41-.91,1.76-.16,.24-.44,.63-.65,.63-.16,0-.34-.16-.44-.26-.87-.77-2.04-1.41-3.07-1.9-.3-.14-.47-.22-.47-.44,0-.28,.83-2.1,1.37-2.1Z"/>
        <path class="cls-2" d="M41.11,131.84c.16,.04,.44,.12,.44,.28,0,.08-.08,.14-.14,.16-.32,.18-.36,.42-.46,.91-.49,2.43-.63,4.93-.63,7.4,0,1.56,0,3.17,1.58,3.17,1.25,0,2.43-.73,3.19-1.68,.65-.81,1.09-1.86,1.27-2.87,.08-.4,.14-.75,.47-.75,.44,0,1.03,.53,1.35,.81,.36,.32,.95,.85,.95,1.35,0,.59-.55,1.9-.85,2.43-1.27,2.34-3.5,3.88-6.21,3.88-1.41,0-2.91-.47-3.82-1.62-.99-1.27-1.11-3.36-1.11-4.95,0-2.28,.2-4.71,.36-6.85,.04-.42,.06-1.09,.06-1.54s0-.69,.34-.69c.46,0,2.59,.44,3.23,.57Z"/>
        <path class="cls-3" d="M42.63,152.33c.24,0,.99-.42,1.25-.55,.16-.08,.4-.2,.57-.2,.45,0,1.17,1.64,1.17,2.12,0,.32-.24,.48-.49,.61-.38,.22-.79,.42-1.23,.59-.18,.08-.4,.16-.4,.36,0,.06,.06,.38,.3,.38,.38,0,1.62-.75,2-.99,.16-.1,.44-.26,.61-.26,.3,0,.55,.42,.73,.71,.24,.38,.67,1.07,.67,1.41,0,.32-.38,.51-1.07,.83-.49,.24-.83,.4-1.27,.57-.22,.1-.4,.24-.4,.49,0,.42,1.21,2.34,1.76,3.03,.24,.28,.55,.65,.55,1.03,0,.52-1.6,1.66-2.12,1.66-.22,0-.36-.16-.55-.36-.85-.79-2.08-1.23-3.25-1.23-.55,0-1.48,.18-1.48,.91,0,1.11,1.82,1.27,2.61,1.27,.44,0,.87-.06,1.31-.1,.2-.02,.44-.06,.63-.06,.47,0,.57,.32,.57,1.17,0,1.86-.32,1.88-.93,1.88-1.05,0-2.22-.02-3.17-.18-2.04-.36-3.82-1.6-3.82-3.88,0-2.4,1.86-3.54,4.06-3.54,.36,0,.73,.04,1.07,.1h.08c.14,0,.3-.1,.3-.28,0-.04-.04-.18-.18-.42-.1-.18-.22-.32-.44-.32-.08,0-.14,.02-.2,.04-1.15,.34-4.02,.89-5.17,.89-.3,0-.4-.14-.51-.4-.2-.47-.46-1.5-.46-2.02,0-.36,.18-.44,.97-.47,1.15-.06,2.71-.2,3.9-.49,.18-.04,.34-.12,.34-.32,0-.16-.14-.36-.3-.36-.08,0-.2,.04-.26,.06-.59,.14-1.92,.38-2.49,.38-.36,0-.46-.2-.57-.49-.14-.38-.44-1.37-.44-1.76,0-.42,.3-.51,.93-.55,.97-.06,1.56-.08,1.56-.57,0-.14-.12-.34-.26-.57-.12-.2-.42-.67-.42-.85,0-.34,.59-.51,.85-.59,.57-.18,1.23-.38,1.62-.38,.49,0,.57,.26,.77,.85,.2,.61,.3,.85,.65,.85Zm6.59,.82c0,.38-.97,1.09-1.19,1.09-.12,0-.24-.16-.3-.24-.44-.57-.91-1.09-1.39-1.58-.08-.08-.22-.2-.22-.3,0-.32,1.05-1.01,1.27-1.01,.16,0,1.82,1.74,1.82,2.04Zm1.29-2.59c.53,.57,.95,1.05,.95,1.23,0,.38-.99,1.09-1.21,1.09-.08,0-.18-.08-.3-.24-.42-.55-.89-1.09-1.39-1.58-.08-.08-.2-.2-.2-.3,0-.32,1.05-1.01,1.25-1.01,.16,0,.51,.4,.89,.81Z"/>
        <path class="cls-3" d="M7.42,98.01c-.26-.3-.5-.55-.79-.55-.14,0-.28,.02-.44,.02-.44,0-.49-.2,.23-.73v-1.23c-.72-.51-.21-.4-.21-.4h.4s.55-.55,.81-.86v-1.03c-.26-.59-.3-1.19-.3-1.33,0-.3,.18-.34,.42-.34,.16,0,1.96,.1,2.2,.12,.16,.02,.4,.06,.4,.28,0,.16-.12,.24-.24,.32-.16,.12,.53,1.05,.53,1.05v.93s-.47,.59-.15,.59c.14,0,.34-.02,.49-.02,.48,0,.51,.2,.66,.75v1.09c-.14,.59-.18,.81-.66,.81-.16,0-.32-.02-.47-.02-.32,0,.13,.55,.13,.55v1.31s-.63,.44-.39,.44c.18,0,.49-.18,.67-.28,.06-.02,.14-.06,.22-.06,.47,0,.49,1.03,.49,1.68,0,.79-.02,.83-1.13,1.33-.34,.14-.57,.26,.13,.67v2.55c-.71,.47-.67,.95-.67,1.43,0,1.84-1.27,2.41-2.91,2.41-.51,0-1.23-.02-1.23-2.12,0-.67,.12-.77,.46-.77,.16,0,.36,.02,.61,.02,.44,0,.73-.69,.73-.69v-1.76s-.4-.34-.58-.34c-.22,0-.28,.22-.32,.28-.04,.14-.16,.24-.3,.24-.22,0-.24-.28-.28-.44-.12-.57-.26-1.17-.38-1.74-.04-.18-.1-.4-.1-.57,0-.28,.14-.3,1.17-.57,.3-.08,.49-.18,.77-.53v-2.47Zm10-2.43c0-.1-.04-.2-.17-.2-.21,0-.25,.08-.32,.24-.89,2.04-3.51,4.02-4.01,4.02s-1.71-1.31-1.71-1.76c0-.18,.32-.34,.61-.49,1.08-.55,2.45-1.72,2.79-2.85,.04-.18,.06-.4,.32-.4,.15,0,1.82,.44,2.11,.51,.04,0,.08,.02,.13,.02,.17,0,.25-.1,.25-.26v.29s-.32-.4-.54-.59h-1.98c-.32,.2-.55,.43-.48,.77v.36c-.07,.42-.89-.13-.89-.13h-.87s-.83,.54-.83,.11c0-.18,.04-.44-.41-.67v-.95c.45-.44,.41-.69,.41-.91,0-.75,.65-.77,1.23-.77,.61,0,1.23,.04,1.84,.2h5.01c.61-.16,1.21-.2,1.8-.2,.55,0,1.29,0,1.29,.75,0,.22-.58,.93-.58,.93v.95s.56,.53,.56,.67c0,.44-.32,.47-.89-.11h-.95c-.44,.58-.75,.54-.75,.11,0-.22,.02-.42,.02-.61s-.12-.3-.24-.49h-.12c-.14,.2-.63,.45-.63,.45v1.31s.39,.81,.75,.24h.16c.4,.57,.46,.33,.47-.06,.02-.28,.3-.32,.53-.32,.51,0,1.13,.14,1.58,.36,.28,.14,.42,.28,.42,.59,0,.59-.3,1.48-.65,1.98-.42,.55-1.7,.45-1.7,.45h-1.54s-.18,.18-.24,.24l-.08,.08c-.18,.16-.3,.32-.3,.55,0,.3,.28,.49,.55,.12h1.15c.71,.37,1.41,.33,2.1,.33,.57,0,.8,.87,.8,.87v.99s-.23,.81-.8,.81c-.69,0-1.37-.04-2.04,0h-.32c-.16-.03-.22,.06-.22,.16,0,.12,.1,.18,.24,.34,.73,.87,2.06,2.1,2.93,2.81,.24,.2,.49,.38,.49,.63,0,.53-1.39,1.82-1.84,1.82s-2.34-2.57-2.65-3.07c-.06-.1-.14-.2-.26-.2-.16,0-.18,.2,.46,.32v.79c-.64,.69-.58,1.41-.58,2.1,0,.59-.89,.29-.89,.29h-1.72c-.65,0-.85-.06-.85-.65,0-.69,.04-1.39,.04-2.1v-.89c0-.12-.02-.28-.16-.28-.13,0-.25,.24-.32,.36-.32,.47-2.14,3.09-2.56,3.09-.5,0-1.77-1.37-1.77-1.92,0-.2,.2-.36,.32-.46,1.08-.79,2.05-1.76,2.92-2.87,.07-.1,.29-.36,.29-.47,0-.18-.11-.2-.47-.2-.46,0-1.01,.03-1.5,.04-.42,0-.76-.33-.76-.74v-1.05c0-.71,.06-.89,.7-.89,.74,0,1.48,.04,2.2,.04h1.18c.34,0,.61-.24,.61-.55,0-.26-.04-.57-.04-.85s.15-.36,.42-.36c.25,0,.61,.04,.76,.04,.17,0,.3-.08,.3-.24,0-.1-.15-.38-.15-1.03,0-.28,.02-.55,.02-.85v-.69Z"/>
        <path class="cls-2" d="M19.46,121.11c.57,0,1.13-.04,1.68-.04,.74,0,1.31,.02,1.31,.67,0,.3-.04,.61-.04,.97v2.08c0,.34,.04,.67,.04,.97,0,.65-.72,.67-1.33,.67-.23,0-.43-.02-.66-.02-.1,0-.21,.02-.21,.14,0,.2,.62,.75,.78,.89,.76,.67,1.7,1.31,2.59,1.78,.37,.2,.45,.24,.45,.4,0,.69-1.56,2.04-2.09,2.04-.37,0-1.83-1.21-2.16-1.5-.6-.53-1.36-1.31-1.85-1.94-.12-.16-.29-.34-.51-.34s-.37,.16-.49,.32c-.72,.97-1.62,1.82-2.63,2.53-.31,.22-1.38,.95-1.72,.95-.53,0-1.97-1.58-1.97-2.06,0-.24,.27-.34,.45-.44,.99-.48,2.01-1.19,2.85-1.92,.14-.12,.64-.53,.64-.71,0-.12-.12-.14-.21-.14-.2,0-.41,.02-.62,.02-.64,0-1.38,0-1.38-.67,0-.3,.02-.63,.02-.97v-.97c0-.06,0-.28-.09-.28-.06,0-.09,.06-.13,.12-.11,.22-.71,1.25-.92,1.25-.19,0-.52-.63-.62-.79-.04-.06-.07-.12-.13-.12-.11,0-.11,.16-.11,.28v3.62c0,.89,.06,1.78,.06,2.69,0,.48-.21,.52-.84,.52h-1.43c-.63,0-.84-.04-.84-.52,0-.89,.06-1.8,.06-2.69v-2.04c0-.14,0-.3-.11-.3-.13,0-.21,.26-.25,.36-.25,.65-.44,1.13-.69,1.13-.38,0-1.5-1.48-1.5-1.84,0-.16,.23-.61,.3-.77,.55-1.13,1.03-2.28,1.41-3.48,.08-.24,.38-1.35,.38-1.52,0-.24-.13-.32-.34-.32-.25,0-.57,.04-.8,.04-.36,0-.4-.26-.4-.79v-1.19c0-.55,.04-.75,.46-.75,.23,0,.51,.04,.8,.04,.4,0,.74-.08,.74-.55v-.81s.29-1.31,.28-1.39c-.02-.1-.02-.12-.02-.18,0-.2,.18-.24,.36-.24,.12,0,.34,.02,.46,.02,.65,.08,1.31,.12,1.96,.2,.16,.02,.38,.06,.38,.26,0,.16-.1,.18-.26,.3-.16,.12-.15,.77-.15,.77v1.23s.22,.55,.54,.55c.08,0,.28-.02,.47-.02,.38,0-.02,.59-.02,.59v.59c0,.16,.1,.3,.29,.3,.1,0,.42-.22,.6-.38,.06-.04,.1-.08,.15-.1,1.33-.95,2.76-2.34,3.49-3.78,.08-.16,.12-.26,.33-.26,.31,0,2.14,.65,2.6,.81,.15,.04,.35,.14,.35,.34,0,.14-.08,.22-.21,.28-.06,.02-.1,.08-.1,.14,0,.24,1.16,1.17,1.39,1.35,.87,.73,1.83,1.39,2.8,1.96,.19,.12,.44,.28,.44,.52,0,.55-1.43,1.96-1.95,1.96-.17,0-.87-.53-1.04-.67-.08-.08-.17-.16-.29-.16-.17,0-.19,.12-.25,.26-.06,.16-.46,.18-.6,.18-.27,0-.52-.02-.79-.02-.06,0-.21,.04-.21,.26v.1c0,.14,.12,.26,.27,.26h.77Zm-3.71,0c.14-.47,.26-.59,.67-.73v-.1c-.41-.18-.51-.26-.67-.26-.26,0-.53,.02-.79,.02-.18,0-.44-.04-.51-.24-.06-.1-.08-.16-.16-.16-.1,0-.47,.32-.57,.4-.2,.18-.32,.26-.49,.26-.42,0-.89-.42-1.17-.69-.22-.22-.22-.32-1.25-.32-.2,0-.44,.1-.44,.34,0,.51,.34,.97,.63,1.41,.34,.49,.69,.99,1.09,1.46,.06,.06,.14,.16,.24,.16,.14,0,.16-.12,.09-.32v-.2c.06-.38,.05-.61,.05-.89,0-.61,.61-.65,1.27-.65,.53,0,1.07,.04,1.6,.51h.42Zm.06,2c-.21,0-.4,.19-.4,.42v.19c0,.21,.19,.4,.4,.4h.19c.21,0,.35-.08,.4-.27,.06-.25,.08-.42,.08-.46,0-.1-.08-.27-.35-.27h-.31Zm1.84-5c.26,0,.48,0,.48-.18,0-.12-.3-.42-.42-.53-.16-.16-.24-.3-.42-.3-.12,0-.3,.16-.42,.32-.1,.14-.36,.34-.36,.49,0,.2,.26,.2,.44,.2h.69Zm1.35,6c.23,0,.42-.19,.42-.4v-.19c0-.23-.19-.42-.42-.42h-.33c-.27,0-.38,.15-.4,.33-.02,.17-.04,.31-.04,.35,0,.25,.12,.31,.35,.31h.42Z"/>
        <path class="cls-3" d="M10.97,138.11c.62,0,1.25-.04,1.89-.04,.51,0,.56,.15,.56,.68v.66c0,.66-.06,.74-.58,.74-.62,0-1.25-.04-1.87-.04h-3.11c-.62,0-1.25,.04-1.87,.04-.33,0-.58-.02-.58-.53v-.87c0-.53,.04-.68,.53-.68,.64,0,1.28,.04,1.91,.04h3.11Zm-1.42,13c-.12,.43-.22,.53-.14,.65v.32c-.08,.47-.89,1.04-.89,1.04h-1.38c-.58,0-.77-.04-.77-.55,0-.57,.04-1.26,.04-1.93v-1.81c0-.55-.04-1.09-.04-1.62,0-.84,.36-1.14,1.09-1.14,.46,0,.94,.04,1.4,.04h1.09c.46,0,.92-.02,1.38-.02,.75,0,1.11,.27,1.11,1.14,0,.53-.04,1.05-.04,1.6v1.81c0,.65,.04,1.35,.04,1.93,0,.5-.21,.55-.79,.55h-.53s-.85-.56-.72-1.04v-.32c-.13-.1-.19-.22-.35-.65h-.51Zm.68-10c.58,0,1.17-.04,1.6-.04,.54,0,.58,.15,.58,.61v.84c0,.49-.04,.63-.58,.63-.48,0-1.02-.04-1.6-.04h-1.62c-.56,0-1.1,.04-1.6,.04s-.58-.11-.58-.53v-.91c0-.49,.08-.63,.58-.63s1.02,.04,1.6,.04h1.62Zm0,2c.58,0,1.17-.04,1.6-.04,.54,0,.58,.15,.58,.61v.81c0,.36-.29,.66-.65,.65-.46,0-.98-.04-1.53-.04h-1.62c-.56,0-1.1,.04-1.6,.04s-.58-.11-.58-.53v-.93c0-.48,.08-.61,.58-.61s1.02,.04,1.6,.04h1.62Zm.29-8c.59,.08,1.13,.04,1.52,.04,.51,0,.55,.16,.37,.67v.93c.18,.55,.14,.71-.37,.71-.4,0-.91-.04-1.52-.36h-1.54c-.61,.32-1.11,.36-1.5,.36-.48,0-.57-.14-1.06-.59v-1.11c.48-.48,.56-.61,1.06-.61,.42,0,.91,.04,1.5-.04h1.54Zm-1.11,13.96c-.12,.28,.08,.47,.35,.04h.08c.28,.43,.48,.21,.57-.04v-.53c-.09-.26-.29-.48-.57-.42h-.08c-.26-.05-.48,.16-.35,.42v.53Zm10-10.43c0-.32-.25-.52-.55-.52h-2.05c-.64,0-1.28,.06-1.92,.06-.43,0-.49-.23-.49-.85v-1.4c0-.62,.04-.87,.49-.87,.64,0,1.28,.06,1.92,.06h3.28c.5,0,.99-.02,1.48-.02,.66,0,.87,.12,.87,.85,0,.67-.04,1.33-.04,1.98v3.11s-.02,2-.02,3.01c0,.47-.18,.53-.85,.07h-1.19c-.67,.46-.73,.4-.83,.21-.08-.22-.3-.22-.49,.79h-1.33c-.3-1.01-.29-.46-.29-.46v3.29c0,.87,0,1.17,.67,1.17h2.14c.65,0,.91-.23,1.12-2.02,.04-.44,.02-.67,.5-.67,.82,0,2.48,.27,2.48,1.31,0,.81-.43,2.27-.78,3.02-.58,1.25-1.21,1.35-2.53,1.35h-4.21c-1.75,0-2.42-.54-2.42-2.25,0-.6,.02-1.19,.02-1.79v-5.01c0-.41-.02-.82-.02-1.24,0-.64,.23-.73,.86-.73,.49,0,.99,.02,1.48,.02h2.13c.3,0,.55-.25,.55-.55v-1.92Z"/>
      </g>
      <g>
        <path class="cls-1" d="M81.34,42.27c.05-.24,.01-.83-.04-1.05-.02-.31-.04-.62-.05-.93-.09-.42-.12-.79-.2-1.21-.02-.09,.02-.32,.04-.41,0-.26,.01-.52,.02-.79,.04-.17,.06-.68,.02-.87-.08-.37-.01-.83-.11-1.21-.08-.31-.19-.57-.27-.89-.03-.13,.01-.31,.04-.41,.06-.27,.07-.79,0-1.05-.06-.22-.12-.47-.18-.7-.03-.21-.06-.43-.09-.64-.07-.24-.14-.48-.21-.71-.05-.19-.03-.36-.09-.54-.11-.33-.37-.54-.5-.86-.09-.22-.1-.47-.18-.71-.06-.2-.15-.42-.21-.62-.04-.18-.07-.36-.11-.54-.11-.29-.23-.58-.34-.87-.04-.17-.07-.33-.11-.5-.13-.41-.35-.76-.52-1.14l-.29-.86c-.09-.21-.25-.41-.34-.62-.06-.27-.12-.54-.18-.8-.08-.2-.23-.36-.34-.54-.13-.21-.17-.46-.27-.7-.13-.29-.34-.53-.46-.82-.19-.43-.29-.86-.52-1.23-.22-.35-.48-.69-.7-1.03-.2-.31-.37-.62-.59-.91-.3-.4-.81-.62-1.11-1.02-.33-.45-.57-.95-.87-1.43-.31-.49-.65-1-1-1.46-.19-.26-.52-.47-.71-.73-.32-.42-.65-.79-1.07-1.11-.26-.19-.38-.54-.64-.73-.29-.21-.68-.29-.96-.5-.34-.25-.43-.76-.77-1-.32-.23-.74-.35-1.05-.59-.17-.18-.33-.37-.5-.55-.21-.16-.54-.25-.7-.46-.18-.24-.29-.54-.54-.71-.14-.1-.28-.16-.43-.25-.19-.12-.36-.28-.55-.39-.2-.08-.4-.17-.61-.25-.24-.15-.42-.39-.68-.52-.25-.13-.55-.13-.77-.29-.14-.14-.29-.29-.43-.43-.23-.18-.47-.34-.71-.52-.2-.14-.38-.32-.62-.43-.4-.17-.82-.31-1.25-.43-.27-.08-.53-.06-.77-.16-.37-.15-.69-.41-1.02-.61-.22-.13-.47-.2-.71-.3-.24-.11-.48-.27-.73-.37-.38-.16-.81-.28-1.21-.39-.25-.07-.51-.07-.73-.16-.27-.12-.43-.36-.71-.46-.12-.05-.39-.03-.52,0-.26,.05-.58-.01-.77-.07-.28-.09-.53-.25-.82-.34-.25-.08-.54-.03-.77-.12-.33-.14-.6-.34-.98-.45-.29-.08-.68-.09-1.02-.09-.19,0-.38-.01-.57-.02-.41-.1-.75-.24-1.12-.36-.3-.1-.62-.11-.95-.18-.24-.05-.73,0-.93,.04-.15,0-.3,.01-.45,.02-.05,0-.14,.03-.21,.02-.17-.02-.33-.05-.5-.07-.35-.1-.66-.22-1.11-.21-.06,.04-.16,.02-.23,.04-.19,.05-.39,.07-.64,.07h-.41c-.22,.05-.8,.15-1.07,.09-.49-.11-1.16-.19-1.69-.07-.12,0-.24,.01-.36,.02-.13,.03-.29,.02-.43,.05-.64,.17-1.4,.34-2.07,.5-.26,.01-.51,.02-.77,.04-.21,.06-.43,.12-.64,.18-.13,.03-.36,0-.46-.02-.24-.05-.77-.08-1.02-.02-.44,.11-.81,.28-1.21,.41-.27,.09-.59,.04-.87,.12-.24,.07-.45,.23-.68,.3-.24,.08-.56,.03-.8,.11-.59,.19-1.02,.64-1.59,.87-.28,.12-.63,.02-.95,.11-.33,.09-.5,.33-.79,.45-.34,.14-.83,.09-1.16,.23-.24,.1-.36,.3-.55,.45-.21,.16-.41,.34-.66,.45-.22,.1-.45,.13-.68,.23-.25,.1-.46,.28-.68,.41-.26,.11-.52,.23-.79,.34-.27,.16-.53,.35-.82,.5-.15,.07-.3,.09-.46,.16-.38,.16-.75,.33-1.07,.55-.58,.41-1.03,.95-1.59,1.37-.25,.19-.43,.47-.68,.66-.21,.16-.45,.31-.68,.45-.16,.1-.34,.14-.48,.25-.28,.21-.4,.61-.68,.82-.6,.45-1.31,.8-1.91,1.25-.21,.16-.55,.57-.7,.8-.15,.25-.22,.54-.39,.77-.22,.29-.6,.46-.82,.75-.18,.24-.43,.42-.61,.66-.26,.35-.5,.72-.77,1.07-.08,.07-.15,.14-.23,.21-.18,.18-.36,.36-.54,.54-.18,.13-.37,.3-.5,.48-.19,.25-.35,.51-.54,.77-.17,.24-.38,.45-.54,.71-.15,.25-.13,.65-.29,.89-.13,.21-.39,.33-.52,.55-.12,.2-.1,.5-.21,.7-.13,.21-.37,.34-.5,.55-.13,.21-.14,.51-.27,.73-.1,.17-.24,.31-.36,.46-.21,.29-.41,.58-.59,.89-.2,.34-.17,.86-.37,1.2-.18,.31-.46,.55-.61,.89-.12,.29-.06,.66-.16,.98-.14,.47-.44,.85-.62,1.3-.1,.25-.13,.54-.2,.82-.01,.15-.02,.3-.04,.45-.09,.36-.3,.63-.43,.95-.07,.17-.07,.35-.14,.52-.18,.43-.36,.79-.48,1.3-.07,.3,.05,.61,0,.95-.03,.23-.04,.49-.09,.71-.01,.17-.02,.34-.04,.52-.06,.22-.14,.45-.2,.66-.07,.25-.02,.52-.09,.79-.08,.34-.17,.65-.25,1.02-.03,.12,0,.32,.02,.41,0,.12,.01,.24,.02,.36,.05,.24,.11,.81,.05,1.09-.18,.83-.19,1.78-.37,2.6-.06,.29,.05,.58,.05,.86,0,.4-.24,.77-.14,1.2,.11,.47,.29,.79,.39,1.27v.96s.22,.71,1,1.05v.3c-.62,.4-.55,.78-.46,1.17,.07,.32-.1,.63-.04,.92,.07,.29,.19,.5,.27,.76,.06,.21-.04,.48,.02,.71,.07,.27,.22,.47,.3,.73,.02,.27,.05,.53,.07,.8,.06,.18,.12,.36,.18,.53,.07,.24,.05,.49,.14,.71,.09,.22,.25,.41,.34,.64,.11,.3,.03,.72,.14,.99,.15,.36,.41,.66,.57,1.01,.09,.2,.11,.4,.18,.62,.08,.24,.19,.48,.28,.71,.1,.24,.13,.48,.23,.71,.17,.38,.46,.69,.62,1.07,.13,.31,.06,.82,.2,1.14,.14,.34,.41,.56,.6,.83,.21,.29,.27,.72,.48,1.01,.11,.15,.34,.41,.48,.52,.04,.03,.09,.05,.12,.09,.22,.29,.48,.55,.67,.87,.26,.41,.49,.85,.71,1.28,.08,.17,.12,.34,.21,.5,.18,.3,.41,.56,.59,.85,.15,.25,.24,.52,.41,.75,.28,.39,.75,.61,1.08,.94,.14,.14,.27,.3,.39,.46,.12,.16,.31,.29,.43,.46,.13,.19,.22,.39,.36,.57,.25,.34,.71,.52,1.01,.82,.27,.27,.45,.64,.67,.94,.21,.28,.57,.43,.85,.64,.17,.17,.33,.33,.5,.5,.26,.2,.53,.39,.8,.59,.42,.31,.6,.9,1.01,1.21,.51,.38,1.17,.61,1.69,.99,.49,.36,.84,.88,1.37,1.21,.24,.15,.54,.17,.82,.28,.27,.12,.51,.32,.76,.46,.1,.06,.21,.08,.32,.12,.25,.11,.52,.24,.76,.37,.22,.12,.46,.24,.66,.39,.16,.12,.28,.3,.44,.41,.27,.18,.8,.11,1.08,.27,.24,.13,.43,.33,.69,.44,.37,.16,.8,.19,1.12,.39,.26,.16,.48,.39,.78,.52,.37,.16,.85,.16,1.21,.32,.28,.12,.53,.32,.82,.44,.43,.18,1-.06,1.44,.09,.45,.15,.72,.5,1.17,.64,.5,.15,1.09-.1,1.6,.04,.44,.12,.69,.4,1.1,.52,.27,.07,.57-.05,.85,.02,.23,.05,.48,.09,.73,.14,.17,0,.34,.01,.52,.02,.29,.07,.59,.13,.89,.2,.24,.01,.49,.02,.73,.04,.28,.06,.62,.05,.96-.29h.41c.44,.44,.92,.34,1.39,0h.37c.26,.4,.52,.45,.76,.5,.31,.07,.65-.05,.87-.11,.2-.03,.6,.6,.6,.6h.66l.94-1h.53c.5-.11,.82-.34,1.34-.46,.29-.07,.64,.03,.95-.04,.7-.15,1.52,.07,2.21-.12,.38-.11,.82-.19,1.18-.34,.25-.11,.45-.29,.71-.37,.23-.07,.56,.02,.8-.05,.28-.09,.48-.3,.77-.39,.15-.05,.29-.03,.45-.07,.31-.08,.59-.21,.87-.3,.19-.06,.36-.07,.54-.14,.25-.11,.43-.32,.66-.45,.22-.12,.51-.14,.75-.25,.14-.06,.29-.16,.41-.23,.2-.12,.43-.17,.66-.27,.23-.1,.45-.26,.68-.36,.33-.14,.81-.09,1.14-.23,.48-.2,.66-.66,1.07-.91,.18-.08,.37-.17,.55-.25,.19-.12,.39-.25,.61-.34,.37-.15,.73-.19,1.05-.39,.25-.15,.61-.43,.79-.66,.07-.1,.16-.23,.25-.3,.31-.24,.73-.36,1.05-.59l.82-.82c.46-.33,1.13-.42,1.59-.75,.23-.17,.45-.41,.62-.64,.08-.11,.21-.2,.29-.3,.09-.11,.17-.27,.29-.36,.24-.19,.59-.36,.77-.61,.11-.15,.15-.34,.25-.5,.11-.18,.25-.34,.39-.48,.27-.27,.63-.48,.86-.79,.2-.26,.48-.65,.73-.84,.17-.13,.46-.27,.59-.43,.17-.22,.26-.52,.43-.75,.24-.32,.69-.48,.93-.8,.18-.24,.28-.54,.45-.8,.13-.21,.32-.4,.45-.61,.19-.3,.26-.67,.45-.96,.21-.34,.61-.5,.82-.84,.09-.2,.18-.39,.27-.59,.15-.24,.35-.45,.5-.7,.14-.3,.27-.59,.41-.89,.18-.29,.47-.52,.61-.84,.15-.34,.14-.8,.29-1.14,.19-.44,.55-.72,.79-1.11,.2-.33,.15-.81,.3-1.18,.11-.25,.29-.47,.43-.7,.22-.35,.43-.73,.59-1.12,.17-.42,.14-.97,.29-1.43,.12-.37,.3-.71,.41-1.11,.06-.45,.12-.89,.18-1.34,.13-.46,.31-.86,.43-1.32,.13-.48-.18-.89-.07-1.37,.11-.49,.34-.8,.46-1.25,.02-.19,.04-.38,.05-.57,.05-.22,.14-.57,.07-.86-.05-.24-.16-.61-.09-.93,.13-.55,.25-1.03,.37-1.61ZM45.25,6.63c.25-.37,.84-.24,1.33-.37,.1-.03,.24,0,.32-.05,.41,0,.64,.12,.94,.21,.3,.1,.64,.14,.92,.23,.46,.15,1.02,.13,1.47,.28,.63,.21,1.13,.56,1.72,.8,.21,.09,.42,.11,.62,.2,.31,.13,.63,.3,.96,.41,.28,.09,.7,.01,.96,.12,.23,.1,.38,.33,.62,.43,.2,.08,.48,.04,.67,.12,.22,.1,.37,.32,.57,.44,.24,.15,.6,.15,.83,.3,.42,.26,.76,.64,1.19,.91,.33,.21,.82,.27,1.14,.5,.27,.19,.44,.5,.71,.69,.32,.23,.81,.28,1.14,.52,.11,.11,.22,.22,.34,.34,.21,.21,.46,.45,.71,.62,.17,.12,.37,.23,.55,.34,.21,.13,.46,.19,.6,.37,.1,.14,.2,.27,.3,.41,.21,.21,.43,.41,.64,.62,.22,.3,.43,.65,.73,.87,.26,.19,.55,.33,.82,.52,.21,.15,.37,.36,.57,.52,.12,.09,.28,.2,.37,.32,.17,.22,.31,.45,.48,.67,.13,.17,.32,.29,.44,.46,.25,.34,.4,.75,.71,1.03,.42,.38,.64,.51,.85,1.12,.05,.14,.12,.43,.04,.6-.22,.44-.91,.07-1.23-.04-.1-.02-.2-.04-.3-.05-.27-.08-.57-.16-.83-.23-.22-.06-.44-.02-.67-.07-.28-.07-.54-.14-.8-.21-.2-.06-.39-.04-.59-.11-.26-.09-.49-.24-.73-.34-.33-.14-.68-.15-.94-.34-.23-.17-.44-.38-.69-.53-.41-.25-.95-.28-1.42-.48-.29-.12-.51-.34-.8-.46-.2-.05-.39-.11-.59-.16-.29-.12-.49-.39-.78-.52-.54-.23-1.22-.22-1.69-.52-.29-.18-.44-.5-.73-.67-.24-.14-.57-.15-.78-.3-.3-.22-.49-.56-.82-.76-.27-.17-.69-.17-.99-.3-.34-.15-.57-.45-.85-.66-.26-.19-.56-.32-.82-.52-.16-.12-.28-.29-.44-.41-.26-.19-.53-.36-.78-.55-.03-.04-.06-.08-.09-.12-.18-.21-.37-.42-.57-.62-.34-.35-.78-.64-1.19-.92-.39-.27-.79-.49-1.17-.76-.29-.2-.56-.43-.83-.64-.24-.18-.48-.58-.66-.83-.05-.06-.08-.15-.14-.2-.29-.22-.64-.38-.89-.64-.26-.27-.81-1.06-.46-1.58ZM12.43,20.02c.06-.17,.07-.35,.16-.5,.13-.21,.33-.36,.5-.53,.15-.15,.28-.32,.41-.5l.34-.34c.2-.27,.4-.54,.6-.82,.07-.07,.14-.14,.21-.21,.06-.07,.11-.16,.18-.21,.41-.31,.83-.61,1.24-.92,.25-.19,.43-.47,.67-.66,.24-.18,.59-.41,.76-.64,.15-.2,.29-.59,.48-.73,.19-.15,.46-.21,.66-.36,.18-.14,.24-.42,.43-.55,.19-.14,.47-.18,.67-.32,.25-.17,.41-.46,.67-.62,.11-.07,.22-.09,.34-.14,.33-.15,.69-.31,.99-.5,.33-.21,.56-.54,.89-.75,.3-.19,.75-.19,1.05-.37,.31-.19,.51-.5,.82-.69,.36-.22,.85-.29,1.24-.46,.47-.2,.8-.57,1.26-.76,.17-.07,.36-.05,.55-.11,.28-.09,.57-.19,.85-.28,.35-.11,.72-.08,1.03-.21,.3-.13,.57-.32,.83-.48,.18-.11,.38-.15,.59-.23,.23-.09,.47-.21,.71-.28,.22-.03,.45-.06,.67-.09,.26-.07,.52-.14,.78-.21,.27-.02,.54-.04,.82-.05,.3-.07,.58-.18,.83-.28,.13-.05,.31-.04,.43-.11,.63,0,1.57,.18,1.33,.89-.15,.44-.58,.62-.83,.96-.12,.16-.25,.3-.37,.46-.11,.11-.22,.22-.34,.34-.16,.22-.3,.46-.46,.67-.17,.17-.33,.33-.5,.5-.17,.23-.35,.49-.59,.66-.18,.13-.36,.24-.53,.37-.2,.15-.32,.4-.53,.53-.16,.1-.34,.14-.52,.21-.26,.11-.52,.26-.75,.43-.24,.17-.45,.42-.66,.62-.05,.06-.11,.12-.16,.18-.24,.18-.53,.28-.78,.46-.19,.14-.32,.36-.52,.5-.22,.16-.54,.21-.76,.37-.46,.33-.77,.9-1.26,1.21-.25,.16-.57,.14-.87,.27-.29,.12-.44,.4-.69,.55-.29,.18-.73,.18-1.05,.32-.47,.21-.68,.74-1.19,.96-.27,.12-.57,.18-.83,.3-.18,.08-.35,.24-.53,.32-.25,.09-.51,.18-.76,.27-.22,.1-.43,.24-.66,.34-.48,.2-1.09,.21-1.56,.41-.97,.4-1.83,1-2.79,1.4-.25,.11-.53,.15-.82,.21-.22,.05-.43,0-.62,.07-.24,.08-.43,.24-.64,.36-.37,.19-1.4,.39-1.67-.02-.26-.38,.12-.88,.23-1.19Zm63.73,19.49c0,.1-.01,.2-.02,.3-.07,.3-.09,.64-.16,.96,0,.36,.01,.72,.02,1.08,.01,.05,.03,.17,.02,.25-.13,.6-.15,1.29-.3,1.88-.1,.41-.01,.94,.07,1.3,0,.11,.01,.22,.02,.34,.03,.11,.05,.37,.02,.52-.09,.39-.24,.62-.34,.96-.07,.24,.02,.58-.05,.8-.1,.31-.33,.54-.43,.87-.14,.48,0,1.14-.16,1.62-.12,.37-.41,.59-.55,.92-.14,.32-.1,.74-.21,1.1-.12,.39-.4,.66-.55,1.03-.14,.33-.13,.75-.27,1.07-.17,.39-.52,.66-.69,1.07-.28,.64-.5,1.27-.78,1.9-.14,.31-.4,.55-.53,.87-.08,.19-.07,.41-.14,.62-.1,.32-.26,.62-.43,.89-.12,.19-.29,.42-.46,.55-.11,.08-.26,.16-.34,.27-.17,.22-.28,.48-.44,.71-.12,.17-.31,.3-.43,.46-.3,.41-.46,.94-.75,1.35-.41,.58-.96,1.01-1.53,1.44-.14,.11-.28,.28-.39,.43-.31,.31-.63,.62-.94,.92-.64,.46-1.85,.07-2.4-.27-.15-.09-.31-.21-.48-.28-.26-.11-.53-.18-.76-.32-.12-.07-.25-.17-.37-.25-.24-.15-.52-.21-.75-.37-.2-.14-.36-.35-.57-.48-.18-.12-.39-.18-.57-.3-.39-.27-.58-.76-.96-1.05-.36-.27-.91-.48-1.12-.89-.09-.17-.06-.33-.11-.55-.03-.14-.1-.39-.05-.57,.1-.41,.41-.58,.6-.89,.3-.48,.5-1.01,.83-1.46,.23-.3,.67-.4,.89-.71,.15-.21,.2-.5,.36-.71,.28-.38,.79-.53,.99-1.03,.12-.28,.06-.65,.14-.96,.08-.29,.14-.61,.21-.92,.08-.37-.1-.7-.18-.94-.08-.25-.1-.52-.23-.73-.18-.3-.47-.51-.67-.78-.26-.34-.6-.66-1.01-.83-.15-.06-.32-.09-.48-.12-.4-.09-.92,.01-1.21,.11-.93,.3-1.3,.71-1.9,1.31-.22,.22-.51,.4-.69,.66-.11,.15-.14,.33-.21,.52-.07,.17-.19,.34-.3,.48-.08,.11-.21,.2-.32,.28-.17,.13-.31,.3-.48,.43-.28,.21-.61,.4-.82,.67-.17,.23-.38,.43-.55,.66-.18,.24-.35,.54-.67,.62-.22,.06-.47-.04-.6-.09-.36-.13-.6-.29-.87-.5-.11-.12-.22-.24-.34-.36-.26-.2-.64-.47-.83-.73-.29-.39-.54-.83-.83-1.23-.19-.26-.51-.44-.78-.62-.2-.14-.8-.54-1.17-.46-.23,.05-.43,.11-.64,.16-.34,.08-.69-.13-.98,.02-.17,.09-.3,.27-.46,.37-.22,.14-.54,.17-.75,.32-.18,.13-.25,.38-.37,.57-.16,.25-.35,.47-.52,.73-.15,.24-.43,.83-.32,1.3,.08,.32,.22,.58,.3,.89,.01,.11,.02,.21,.04,.32,.06,.26,.12,.52,.25,.71,.21,.31,.57,.47,.87,.69,.15,.11,.24,.32,.36,.48,.11,.16,.24,.31,.36,.46,.34,.45,.9,.67,1.3,1.07,.16,.16,.26,.37,.39,.55,.17,.22,.42,.38,.59,.6,.15,.2,.33,.53,.52,.67,.16,.13,.32,.26,.5,.37,.15,.09,.31,.14,.46,.23,.38,.24,.74,.53,1.1,.8,.21,.22,.41,.44,.62,.66,.2,.15,.46,.29,.6,.48,.18,.24,.39,.48,.64,.66,.44,.31,.98,.49,1.4,.8,.26,.19,.45,.48,.71,.67,.22,.17,.51,.35,.67,.57,.13,.17,.35,.42,.52,.55,.31,.23,.65,.42,.96,.66,.08,.06,.15,.18,.21,.27,.13,.17,.34,.35,.53,.46,.26,.16,.62,.17,.92,.3,.41,.17,.92,.65,1.03,1.12,.04,.19-.03,.4-.07,.52-.16,.43-.44,.77-.85,.94-.25,.11-.58,.09-.82,.21-.24,.13-.41,.35-.67,.46-.2,.09-.45,.07-.64,.16-.22,.11-.39,.31-.62,.41-.22,.09-.49,.08-.71,.16-.17,.06-.34,.16-.5,.23-.23,.07-.46,.13-.69,.2-.22,.09-.4,.26-.62,.36-.3,.13-.76,.04-1.05,.16-.37,.15-.69,.39-1.1,.52-.17,.02-.33,.05-.5,.07-.33,.08-.67,.13-1.01,.21-.16,.02-.32,.04-.48,.05-.39,.1-.75,.24-1.14,.34-.48,.12-.85-.24-1.35-.12-.35,.08-.64,.2-.99,.28-.3,.07-.63-.08-.92,0-.26,.07-.53,.18-.78,.27-.26,.09-.55,.08-.83,.14-.16,.04-.45,.01-.59-.02-.18,0-.36-.01-.53-.02-.3-.07-.62-.09-.89-.16-.2-.02-.4-.05-.6-.07h-.3c-.34-.08-.67-.14-1.01-.21-.28-.06-.74,.01-.99,.07-.09,.02-.25,.06-.36,.04-.34-.04-.69-.07-1.03-.11-.27-.07-.5-.17-.75-.25-.64-.21-1.45,.17-1.62-.55-.03-.15,.06-.29,.11-.37,.18-.3,.42-.5,.71-.69,.23-.16,.54-.33,.71-.55,.18-.23,.36-.47,.57-.67,.32-.32,.68-.56,.92-.96,.16-.27,.19-.64,.27-.99,.03-.15,0-.31,.04-.44,0-.14,.01-.28,.02-.43,.1-.43,.29-1.37,.16-1.86-.08-.31-.26-.52-.41-.76-.12-.26-.24-.52-.36-.78-.25-.41-.62-.73-.91-1.1-.12-.16-.26-.3-.37-.46-.11-.16-.19-.35-.36-.46-.19-.13-.48-.1-.71-.2-.3-.12-.5-.38-.82-.5-.29-.11-.64-.07-.96-.16-.24-.07-.47-.18-.69-.25-.49-.15-1.27,.13-1.71,.23-.13,0-.26,.01-.39,.02-.25,.06-.5,.09-.69,.21-.34,.22-.49,.65-.83,.87-.43,.27-.98,.36-1.26,.78-.26,.39-.31,1.01-.53,1.44-.18,.34-.51,.54-.62,.94-.06,.23,.05,.47,0,.71-.09,.43-.07,.93,.02,1.35,.05,.24-.02,.46,.04,.67,.09,.34,.23,.65,.32,.99,.1,.41-.2,.7-.6,.6-.45-.11-.81-.33-1.14-.57-.19-.14-.34-.35-.55-.48-.19-.12-.42-.16-.64-.25-.21-.09-.43-.2-.62-.32-.19-.12-.35-.3-.53-.43-.19-.14-.4-.25-.59-.39-.2-.15-.35-.35-.57-.48-.14-.09-.31-.1-.48-.16-.24-.08-.48-.2-.67-.34-.25-.18-.44-.44-.66-.66-.17-.17-.39-.32-.53-.52-.19-.26-.33-.56-.55-.78-.24-.25-.5-.48-.78-.69-.18-.13-.32-.33-.5-.46-.22-.16-.56-.26-.73-.48-.13-.18-.2-.41-.34-.59-.18-.24-.53-.33-.71-.57-.11-.14-.18-.3-.28-.44-.12-.17-.3-.31-.43-.48-.13-.18-.24-.37-.37-.55-.21-.28-.58-.41-.78-.69-.12-.16-.19-.35-.3-.52-.11-.16-.28-.29-.39-.44-.16-.21-.27-.45-.43-.67-.12-.17-.27-.32-.37-.5-.21-.34-.18-.87-.39-1.21-.22-.35-.64-.52-.85-.87-.1-.15-.14-.32-.21-.5-.1-.22-.25-.43-.34-.67-.13-.39-.15-.8-.3-1.14-.21-.47-.56-.82-.82-1.24-.17-.28-.13-.73-.27-1.05-.16-.38-.43-.69-.57-1.1-.14-.42,.04-1.06-.07-1.53-.16-.65-.44-1.16-.64-1.76-.1-.29-.03-.72-.14-.99-.05-.13-.15-.24-.21-.36-.11-.18-.17-.41-.23-.64-.06-.25,0-.52-.05-.78-.1-.47-.11-.92-.21-1.4-.06-.29,.16-.65,.09-.96-.05-.23-.14-.43-.2-.66-.06-.27,.06-.55,.11-.75,.03-.13,.03-.28,.05-.41,.06-.28-.05-.62-.11-.83-.07-.3,.05-.68-.02-.99-.06-.25-.19-.9-.12-1.21,.07-.32,.21-.57,.28-.89v-.83c.06-.25,.1-.51,.16-.76,.08-.34-.01-.71,.07-1.03,.09-.34,.22-.61,.3-.96,.02-.1,0-.28-.02-.36-.05-.23-.04-.7,.02-.91,.14-.51,.45-.86,.6-1.35,.07-.22-.02-.51,.04-.76,.05-.24,.1-.46,.21-.64,.22-.36,.46-1.01,.8-1.23,.3-.18,.68-.2,1.08-.28,.2-.01,.4-.02,.6-.04,.59-.14,1.06-.32,1.62-.48,.36-.1,.8-.03,1.17-.12,.18-.05,.39-.09,.53-.18,.27-.16,.51-.37,.83-.48,.39-.13,.94,.04,1.33-.07,.4-.12,.79-.24,1.19-.36,.3-.13,.54-.37,.87-.48,.62-.21,1.44-.13,2.02-.37,.41-.17,.79-.39,1.19-.57,.21-.09,.41-.15,.6-.27,.24-.15,.47-.33,.75-.44,.35-.15,.74-.2,1.1-.32,.65-.22,1.24-.46,1.85-.73,.31-.14,.52-.43,.82-.57,.37-.17,.87-.17,1.24-.34,.28-.12,.53-.31,.78-.46,.17-.11,.38-.14,.55-.25,.22-.13,.42-.29,.64-.43,.15-.09,.33-.14,.48-.23,.33-.21,.49-.6,.82-.82,.13-.09,.27-.13,.41-.21,.21-.13,.41-.3,.62-.43,.16-.1,.34-.15,.5-.25,.23-.14,.43-.35,.66-.5,.23-.15,.49-.24,.71-.39,.25-.18,.46-.42,.71-.6,.28-.21,.6-.37,.89-.59,.17-.12,.29-.31,.46-.43,.24-.17,.56-.24,.8-.41l.55-.55c.17-.12,.36-.21,.53-.34,.21-.16,.37-.4,.59-.55,.32-.22,.64-.41,.94-.64,.38-.29,.67-.7,1.08-.96,.37-.23,.85-.38,1.26-.55,.17-.05,.33-.09,.5-.14,.23,0,.44,0,.62,.05,1.17,.38,1.64,1.57,2.54,2.24,.28,.21,.52,.45,.8,.66l.32,.32c.23,.17,.48,.31,.71,.48,.15,.15,.31,.31,.46,.46,.35,.25,.9,.3,1.24,.55,.26,.19,.36,.56,.62,.75,.3,.22,.72,.26,1.05,.46,.27,.17,.45,.43,.71,.6,.2,.1,.4,.2,.6,.3,.25,.18,.36,.51,.6,.69,.16,.12,.35,.18,.53,.28,.13,.08,.28,.19,.41,.27,.26,.16,.61,.18,.87,.34,.22,.14,.4,.34,.66,.44,.23,.09,.5,.08,.69,.2,.22,.13,.37,.35,.57,.5,.17,.13,.36,.21,.53,.34,.18,.13,.36,.27,.55,.39,.16,.09,.33,.12,.52,.18,.31,.1,.62,.21,.96,.3,.3,.08,.58,.07,.83,.18,.28,.12,.54,.32,.8,.48,.25,.15,.53,.23,.82,.36,.24,.11,.49,.27,.73,.37,.39,.17,.83,.29,1.24,.41,.24,.07,.48,.07,.69,.16,.25,.11,.4,.36,.66,.46,.32,.14,.86-.02,1.21,.09,.33,.11,.61,.3,.94,.41,.25,.08,.52,.06,.75,.16,.31,.14,.55,.36,.91,.48,.47,.16,1.09,.07,1.6,.21,.5,.14,.91,.39,1.4,.55,.33,.11,.68,.11,1.05,.2,.34,0,.67,.01,1.01,.02,.4,.09,.73,.21,1.08,.32,.34,.1,.64,.03,.82,.28,.06,.09,.08,.19,.14,.28,.13,.21,.3,.4,.37,.66,.07,.25-.06,.55,0,.8,.09,.42,.13,.78,.25,1.15,.09,.27,.15,.6,.27,.87,.08,.21,.2,.41,.27,.64,.01,.25,.02,.51,.04,.76,.08,.35,.19,.65,.28,.99,.13,.5,.08,1.06,.2,1.56,.01,.15,.02,.3,.04,.44,.03,.13,.03,.3,.07,.44,.09,.31,.19,.61,.27,.94,.05,.23,.03,.56-.02,.76Z"/>
        <path class="cls-1" d="M57.08,34.18c-.07-.29,.09-.56,.02-.87-.06-.27-.18-.48-.25-.76,0-.21,.01-.43,.02-.64-.06-.28-.17-.52-.25-.78-.04-.22-.07-.44-.11-.66-.08-.23-.19-.47-.28-.69-.06-.16-.07-.3-.12-.46-.1-.28-.26-.55-.37-.82-.07-.16-.11-.32-.2-.46-.17-.27-.45-.44-.62-.69-.17-.25-.23-.59-.39-.83-.1-.15-.25-.28-.36-.43-.17-.23-.34-.5-.57-.67-.16-.12-.33-.23-.48-.37-.15-.14-.32-.31-.43-.48-.1-.16-.17-.37-.32-.48-.22-.17-.52-.24-.75-.41-.24-.18-.38-.48-.62-.66-.39-.28-.98-.33-1.4-.59-.28-.17-.51-.4-.78-.57-.17-.11-.38-.14-.55-.25-.2-.12-.39-.29-.59-.41-.24-.15-.55-.18-.83-.28-.29-.11-.57-.26-.87-.36-.34-.11-.75-.05-1.14-.14-.99-.24-2.12-.28-3.13-.52-.24-.05-.56,.01-.73,.05-.32,.07-.67,.02-1.01,.02-.2,0-.39,.01-.59,.02-.4-.09-.71-.2-1.21-.2-.09,.06-.38,.09-.5,.14-.17,.07-.34,.19-.52,.27-.37,.15-.81,.19-1.23,.28-.29,.07-.55-.09-.82-.02-.31,.08-.52,.29-.8,.41-.26,.1-.54,.1-.76,.23-.35,.21-.67,.46-1.01,.67-.56,.35-1.16,.61-1.7,.98-.38,.25-.69,.59-1.07,.85-.29,.2-.6,.36-.89,.57-.21,.15-.38,.36-.59,.52-.12,.09-.27,.2-.36,.32-.14,.19-.28,.38-.41,.59-.12,.2-.16,.44-.28,.64-.25,.4-.66,.65-.91,1.05-.15,.23-.19,.54-.34,.78-.18,.29-.43,.55-.6,.85-.05,.09-.06,.18-.11,.28-.13,.29-.25,.63-.39,.91-.1,.18-.17,.39-.23,.6-.06,.2-.04,.4-.11,.59-.12,.27-.25,.53-.37,.8-.18,.43-.24,.86-.36,1.35-.11,.48,.31,.98,.43,1.28,.15,.36,.11,.87,.27,1.23,.22,.51,.63,.79,1.05,1.1,.28,.21,.44,.56,.73,.76,.2,.14,.46,.2,.73,.27,.1,.02,.24,0,.32,.02h.6c.12,.03,.26,.02,.39,.05,.2,.05,.49,.17,.76,.11,.24-.08,.49-.15,.73-.23,.22-.06,.43-.03,.62-.11,.25-.1,.44-.28,.66-.41,.17-.1,.35-.16,.52-.27,.22-.15,.38-.37,.53-.59,.14-.19,.3-.37,.43-.57,.22-.35,.38-.87,.52-1.28,.14-.42,.14-.9,.3-1.3,.15-.36,.35-.67,.57-.96,.43-.58,1.01-1.04,1.44-1.62,.35-.47,.7-.97,1.28-1.21,.25-.11,.52-.07,.82-.21l.65-.13,.64-.04c.27-.07,.49-.19,.75-.25,.19-.05,.43,.02,.57,.05,.18,.04,.44,.04,.64,.02,.25-.02,.61-.08,.87-.02,.3,.08,.53,.23,.82,.32,.42,.13,1.06,0,1.47,.12,.26,.08,.52,.19,.73,.34,.12,.09,.23,.22,.36,.3,.18,.12,.38,.22,.58,.32s.37,.27,.5,.46c.24,.35,.49,.68,.72,1.05,.21,.33,.55,.6,.67,.99,.02,.24,.05,.47,.07,.71,.05,.21,.09,.45,.14,.67,.01,.17,.02,.34,.04,.52,.05,.2,.15,.51,.09,.78-.07,.24-.14,.49-.21,.73-.12,.42-.02,.97-.18,1.33-.07,.15-.18,.3-.27,.44-.12,.19-.19,.39-.32,.57-.18,.24-.51,.36-.69,.6-.35,.47-.72,.94-1.23,1.26-.25,.16-.59,.21-.85,.37-.16,.1-.28,.25-.43,.36-.2,.15-.43,.27-.67,.37-.18,.07-.36,.07-.55,.12-.42,.12-.86,.21-1.24,.37-.49,.21-.83,.59-1.3,.8-.32,.14-.75,.16-1.07,.3-.41,.18-.79,.5-1.14,.76-.14,.1-.26,.24-.41,.34-.33,.21-.77,.26-1.08,.48-.35,.24-.59,.61-.89,.91-.25,.25-.66,.45-.87,.73-.21,.27-.41,.55-.61,.83-.22,.3-.63,.73-.9,.98l-.21,.2c-.22,.29-.32,.66-.52,.98-.22,.34-.51,.63-.67,1.03-.12,.29-.15,.62-.3,.87-.09,.15-.22,.29-.32,.43-.15,.22-.24,.48-.39,.71-.29,.46-.59,.89-.78,1.46-.08,.24-.08,.52-.14,.78,0,.09-.01,.19-.02,.28-.09,.35-.2,.68-.3,1.03-.08,.3-.03,.62-.11,.94-.11,.47-.15,1.17,0,1.62,.07,.22,.2,.41,.3,.6,.17,.32,.29,.66,.5,.94,.09,.12,.21,.22,.3,.34,.2,.27,.41,.58,.69,.76,.2,.13,.45,.22,.71,.28,.18,.05,.33,.03,.5,.09,.43,.14,.78,.38,1.28,.5,.36,.08,.65-.11,.89-.18,.26-.08,.63,0,.87-.09,.37-.15,.59-.49,.91-.69,.24-.16,.55-.22,.78-.39,.19-.14,.27-.39,.41-.59,.2-.27,.54-.41,.73-.71,.2-.33,.29-.85,.39-1.28v-.28c.08-.35,.03-.66,.16-.96,.11-.26,.31-.48,.43-.75,.1-.23,.16-.46,.3-.66,.13-.18,.33-.31,.44-.5,.14-.22,.19-.49,.34-.69,.16-.16,.32-.32,.48-.48,.3-.42,.48-.95,.89-1.26,.3-.23,.63-.46,.99-.62,.21-.09,.42-.12,.62-.21,.29-.13,.51-.37,.82-.5,.2-.08,.41-.09,.62-.16,.49-.16,1.01-.35,1.47-.55,.17-.08,.34-.12,.5-.21,.22-.14,.46-.29,.69-.41,.23-.12,.47-.19,.67-.34,.32-.23,.58-.54,.92-.75,.25-.15,.6-.18,.85-.34,.34-.21,.54-.58,.85-.82,.13-.1,.3-.2,.46-.27,.17-.07,.33-.09,.48-.18,.21-.13,.34-.34,.53-.48,.19-.14,.36-.28,.55-.43,.27-.2,.48-.53,.67-.8,.3-.42,.64-.83,.92-1.28,.16-.26,.26-.56,.43-.82,.24-.38,.63-.62,.87-1.01,.18-.3,.35-.7,.46-1.05,.06-.17,.06-.32,.12-.48,.19-.45,.56-.75,.69-1.26,.05-.18,.02-.44-.02-.6-.05-.22-.02-.59,.04-.78,.15-.55,.36-1.01,.5-1.6,.01-.21,.02-.41,.04-.62,.06-.28,.18-.78,.11-1.1-.07-.32-.18-.62-.25-.92Z"/>
      </g>
    </g>
  </g>
</svg>