<?xml version="1.0" encoding="UTF-8"?>
<svg id="Layer_2" data-name="Layer 2" xmlns="http://www.w3.org/2000/svg" viewBox="0 0 162 328.87">
  <defs>
    <style>
      .cls-1 {
        fill-rule: evenodd;
      }

      .cls-1, .cls-2 {
        fill: #c30d23;
      }

      .cls-3 {
        fill: #231815;
      }
    </style>
  </defs>
  <g id="_レイヤー_1" data-name="レイヤー 1">
    <g>
      <g>
        <path class="cls-3" d="M137.53,179.64v3.8c0,.71,.28,1.46,1.11,1.46h3.56c1.35,0,2.69-.12,4.04-.12,1.51,0,2.14,.47,2.14,2.1,0,1.19-.08,2.41-.12,3.6l-.28,13.26c0,.32-.04,.63-.04,.95,0,.87,.32,.91,1.07,.91h.71c.79,0,1.07-.04,1.27-.87,.12-.59,.32-2.45,.36-3.09,.04-.79,.04-1.23,.99-1.23,.83,0,1.98,.24,2.81,.55,.91,.32,1.78,.83,1.78,1.9,0,1.74-.67,4.28-1.15,5.94-.75,2.49-2.41,2.61-4.67,2.61h-3.13c-3.56,0-5.94,.36-5.94-3.68,0-1.11,.08-2.22,.12-3.33l.24-12.99c0-.55-.32-.91-.95-.91h-3.05c-.91,0-1.03,.79-1.07,1.46-.28,3.29-.83,6.65-2.26,9.62-1.98,4.24-4.99,7.01-8.79,9.54-.32,.24-.67,.44-1.07,.44-1.35,0-3.8-3.05-3.8-4.32,0-.4,.32-.59,.59-.75,5.22-3.21,8.27-6.61,9.18-12.79,.08-.63,.2-1.78,.2-2.38s-.28-.83-.87-.83h-.67c-1.58,0-3.21,.12-4.79,.12-1.03,0-1.11-.47-1.11-1.7v-2.34c0-1.39,.08-1.82,1.11-1.82,1.58,0,3.21,.12,4.79,.12h.67c1.03,0,1.07-1.07,1.07-1.62v-3.72c0-.55-.08-1.66-.08-1.94,0-.79,.59-.79,.99-.79,.71,0,5.07,.24,5.58,.36,.28,.08,.47,.28,.47,.59,0,.28-.28,.44-.52,.56-.52,.4-.52,.71-.52,1.31Z"/>
        <path class="cls-2" d="M121.18,240.53c.87-2.49,1.46-5.46,1.7-8.08,.08-.91,.12-1.11,.43-1.11,.08,0,2.34,.4,3.37,.55,.24,.04,.28,.04,.43,.08,.36,.08,.99,.24,.99,.67,0,.24-.28,.4-.4,.44-.36,.16-.43,.28-.47,.67-.28,2.45-.83,5.62-1.58,7.96-.28,.87-.36,1.03-.87,1.03-1.35,0-3.76-.83-3.76-1.66,0-.16,.08-.4,.16-.56Zm7.28-17.65c0-.56-.12-1.43-.12-1.62v-.2c0-.43,.28-.55,.67-.55s1.86,.16,2.34,.2c2.41,.24,3.01,.24,3.01,.79,0,.24-.16,.36-.36,.55-.28,.28-.32,.63-.32,1.15v7.4c0,.56,.28,.91,.87,.91,.24,0,.59-.08,.87-.16,.2-.08,.47-.12,.67-.12,.87,0,.95,.67,1.78,3.09,.08,.28,.32,.99,.67,.99,.32,0,.4-.75,.4-.95v-9.03c0-.87-.12-1.66-.12-1.94v-.4c0-.43,.32-.47,.67-.47,1.15,0,3.01,.04,4.16,.12,.52,.04,1.27,.08,1.27,.55,0,.2-.12,.32-.4,.52-.24,.2-.32,.55-.36,.91-.04,.47-.04,3.56-.04,4.24v1.98c0,.47,.12,1.03,.67,1.03,.32,0,.75-.2,1.03-.32,.32-.12,.87-.28,1.31-.28,.71,0,.87,.59,1.98,3.72,.12,.36,.36,1.23,.75,1.23,.32,0,.32-.59,.32-.83v-10.13c0-1.27,0-2.57-.12-3.64-.04-.2-.04-.28-.04-.44,0-.43,.4-.47,.75-.47,1.15,0,3.05,.08,4.24,.16,.59,.04,1.27,.04,1.27,.52,0,.24-.16,.4-.36,.55-.28,.24-.36,.52-.39,.87-.04,.48-.04,3.56-.04,4.28v21.57c0,2.22,.12,4.43,.12,6.61,0,.91-.36,.99-1.62,.99h-2.26c-1.23,0-1.66-.08-1.66-.91,0-2.26,.12-4.47,.12-6.69v-7.28c0-.24-.08-.55-.36-.55-.24,0-.71,.24-.95,.32-.52,.24-1.58,.63-2.14,.63-.59,0-.71-.47-.83-.99-.2-.87-.47-1.82-.75-2.69-.16-.52-.44-1.66-.79-1.66-.2,0-.24,.32-.24,.47v9.34c0,2.22,.08,4.43,.08,6.65,0,.87-.32,.95-1.51,.95h-2.22c-1.23,0-1.66-.08-1.66-.91,0-2.22,.12-4.47,.12-6.69v-3.88c0-.56-.04-1.23-.75-1.23-.43,0-.95,.2-1.35,.32-.36,.12-1.03,.32-1.38,.32-.52,0-.63-.52-.67-.91,0-.08-.04-.2-.08-.4-.2-.99-.67-3.21-1.03-3.21-.28,0-.32,.79-.32,.99-.36,4.12-1.23,8.31-3.01,12.04-.91,1.86-2.41,4.28-3.92,5.7-.24,.24-.36,.32-.67,.32-1.31,0-4.28-1.9-4.28-2.81,0-.28,.24-.52,.43-.67,.52-.56,1.62-2.06,2.1-2.73,1.5-2.22,2.65-4.67,3.33-7.29,.87-3.29,1.11-7.16,1.11-10.57v-9.34Z"/>
        <path class="cls-3" d="M151.11,268.89c2.81,2.81,4.2,6.26,4.2,10.17,0,5.58-3.05,10.49-7.96,13.14-.99,.55-3.6,1.78-4.71,1.78-1.39,0-3.48-3.64-3.48-4.75,0-.36,.36-.52,1.5-.79,4.59-1.19,8.35-4.08,8.35-9.14,0-6.21-4.75-8.67-5.94-8.67-.67,0-.75,.71-.79,1.42-.44,5.5-2.02,12.23-5.66,16.59-1.46,1.78-3.37,3.29-5.74,3.29-2.65,0-4.83-1.82-6.02-4.08-.91-1.74-1.31-4-1.31-5.94,0-9.5,7.32-17.06,16.86-17.06,4.04,0,7.84,1.19,10.69,4.04Zm-21.65,12.94c0,.95,.24,3.84,1.62,3.84,.95,0,2.3-2.61,2.69-3.44,1.39-2.85,2.49-8.71,2.49-10.13,0-.32-.16-.59-.51-.59-1.15,0-6.3,3.64-6.3,10.33Z"/>
        <path class="cls-2" d="M95.95,205.33c-.2,.12-.59,.28-.59,.55,0,.59,4.63,1.27,5.34,1.39,.59,.08,.95,.24,.95,.91,0,1.39-1.15,4.51-2.77,4.51-.4,0-1.07-.16-1.5-.28-3.92-.99-8.19-2.93-11.24-5.58-.16-.12-.4-.4-.59-.4-.32,0-.32,.32-.32,.63v.59c0,1.54-.36,1.78-1.27,2.02-3.09,.83-9.11,1.74-12.43,2.18-.59,.08-.55,.08-.79,.55-.12,.24-.2,.47-.67,.47-.59,0-.71-.47-.87-.99-.2-.67-1.19-3.96-1.19-4.39,0-.83,.99-.79,1.58-.83,3.09-.16,3.29-.24,3.29-1.7v-12.35c0-.47-.04-.79-.4-.79-.32,0-1.11,.52-1.43,.71-.44,.28-1.11,.63-1.62,.63-1.35,0-3.44-3.25-3.44-4.2,0-.47,.55-.67,1.19-.99,5.27-2.61,10.45-5.94,13.82-10.81,.36-.52,.51-.71,.95-.71,.79,0,4.95,.87,6.06,1.11,.16,.04,.55,.24,.55,.59,0,.28-.2,.44-.36,.59-.08,.08-.12,.2-.12,.32,0,.36,1.03,1.35,1.31,1.62,3.48,3.44,7.52,5.58,12,7.4,.32,.12,.51,.28,.51,.67,0,1.15-1.54,4.63-2.85,4.63-.56,0-2.65-1.19-3.29-1.58-.32-.2-.63-.4-.87-.4-.36,0-.4,.28-.4,.87v3.48c0,.99,.04,2.02,.04,3.05,0,.47,0,.71,.28,.71h.28c.32,0,.63,.2,.91,.4,1.15,.83,2.22,1.7,3.36,2.53,.24,.2,.71,.52,.71,.83,0,.24-.16,.52-.44,.52-.24,0-.59-.16-.79-.16-.12,0-.28,.08-.4,.12-.87,.47-1.66,1.03-2.49,1.54Zm-7.56-12.47c.28,0,.52-.24,.52-.52v-.24c0-.28-.24-.51-.52-.51h-9.7c-.28,0-.47,.24-.47,.51v.24c0,.32,.2,.52,.47,.52h9.7Zm-9.7,3.25c-.28,0-.47,.24-.47,.52v.24c0,.28,.2,.51,.47,.51h9.7c.28,0,.52-.24,.52-.51v-.24c0-.32-.24-.52-.52-.52h-9.7Zm.63,5.03c-.63,0-1.11,.47-1.11,1.11v2.22c0,.75,.08,1.15,.75,1.15,.55,0,3.17-.47,3.72-.59,.36-.08,.75-.24,.75-.63,0-.24-.2-.51-.56-1.03-.32-.52-.79-1.27-.99-1.58-.36-.55-.95-.63-1.66-.63h-.91Zm.59-13.14c.75,0,1.35-.24,1.35-1.15,0-.36-.12-1.11-.12-1.46,0-.47,.28-.59,.71-.59,.52,0,2.77,.24,3.4,.28,.16,.04,.4,.08,.59,.08,.12,0,.28-.08,.28-.24,0-.12-.44-.59-.91-1.07-.2-.2-.4-.36-.55-.55-.24-.24-.52-.59-.87-.59s-.71,.44-1.11,.83c-1.23,1.19-2.49,2.34-3.8,3.4-.2,.2-.63,.47-.63,.75s.32,.32,.79,.32h.87Zm8.67,0c.51,0,.67-.04,.67-.32,0-.08-.12-.28-.2-.36-.36-.36-1.07-.83-1.31-1.07-.08-.08-.24-.16-.4-.16-.43,0-.91,.52-.91,.91,0,.52,.36,.99,1.42,.99h.71Zm-.44,13.14c-.51,0-.79,0-.79,.32,0,.36,1.9,2.02,2.65,2.02,.63,0,2.53-1.62,2.53-1.98,0-.28-.43-.32-.67-.32-1.03,0-2.06-.04-3.09-.04h-.63Z"/>
        <path class="cls-3" d="M83.52,247.5c-1.07,0-5.27-.24-5.86-1.11-.24-.36-.44-3.68-.44-4.32,0-.55,.28-.87,.83-.87s1.9,.4,2.45,.55c.51,.16,1.19,.24,1.7,.24,.83,0,1.39-.24,1.39-1.15,0-.83-.75-2.37-1.7-2.37-.44,0-1.82,.83-2.3,1.11-2.42,1.51-6.06,3.72-8.31,5.35-.63,.43-.67,.47-1.03,1.07-.2,.32-.36,.59-.67,.59-.44,0-1.27-1.46-1.74-2.3-.79-1.35-1.66-2.89-1.66-3.44,0-.43,.47-.59,1.27-.87,1.86-.67,7.6-3.96,9.82-5.11,.44-.24,.71-.52,.71-.99,0-.24-.08-.4-.2-.59-.4-.75-.59-1.58-.59-2.41,0-1.58,1.03-5.34,2.42-5.34,.63,0,4.55,1.31,4.55,1.9,0,.12-.12,.32-.32,.63-.36,.59-.91,1.5-.91,2.53,0,.67,.75,1.62,1.46,1.62,.16,0,.28-.04,.43-.04,.59-.08,1.03-.12,1.62-.12,4.55,0,8.19,1.7,11.36,4.91,.83,.83,3.96,4.47,3.96,5.5,0,.87-4.04,3.13-5.07,3.13-.43,0-.71-.56-.99-1.15-1.27-2.53-2.57-4.63-5.03-6.17-.43-.28-.95-.55-1.23-.55-.24,0-.47,.2-.47,.51,0,.16,.04,.28,.12,.44,.56,1.03,.91,2.65,.91,3.84,0,4.08-2.97,4.99-6.49,4.99Zm-2.46-29.61c.48,0,3.64,1.54,4.24,1.86,.71,.36,4.12,2.02,4.12,2.73,0,.79-1.35,2.81-1.82,3.52-.32,.47-.87,1.27-1.31,1.27-.32,0-.67-.32-.87-.52-1.74-1.54-4.08-2.81-6.14-3.8-.59-.28-.95-.43-.95-.87,0-.55,1.66-4.2,2.73-4.2Z"/>
        <path class="cls-2" d="M81.81,257.41c.32,.08,.87,.24,.87,.55,0,.16-.16,.28-.28,.32-.63,.36-.71,.83-.91,1.82-.99,4.87-1.27,9.86-1.27,14.81,0,3.13,0,6.33,3.17,6.33,2.49,0,4.87-1.46,6.37-3.36,1.31-1.62,2.18-3.72,2.53-5.74,.16-.79,.28-1.51,.95-1.51,.87,0,2.06,1.07,2.69,1.62,.71,.63,1.9,1.7,1.9,2.69,0,1.19-1.11,3.8-1.7,4.87-2.53,4.67-7.01,7.76-12.43,7.76-2.81,0-5.82-.95-7.64-3.25-1.98-2.53-2.22-6.73-2.22-9.9,0-4.55,.4-9.42,.71-13.7,.08-.83,.12-2.18,.12-3.09s0-1.39,.67-1.39c.91,0,5.19,.87,6.45,1.15Z"/>
        <path class="cls-3" d="M84.86,298.31c.47,0,1.98-.83,2.49-1.11,.32-.16,.79-.4,1.15-.4,.91,0,2.34,3.29,2.34,4.24,0,.63-.48,.95-.99,1.23-.75,.43-1.58,.83-2.45,1.19-.36,.16-.79,.32-.79,.71,0,.12,.12,.75,.59,.75,.75,0,3.25-1.5,4-1.98,.32-.2,.87-.52,1.23-.52,.59,0,1.11,.83,1.46,1.42,.47,.75,1.35,2.14,1.35,2.81,0,.63-.75,1.03-2.14,1.66-.99,.47-1.66,.79-2.53,1.15-.43,.2-.79,.47-.79,.99,0,.83,2.41,4.67,3.52,6.06,.48,.56,1.11,1.31,1.11,2.06,0,1.03-3.21,3.33-4.24,3.33-.44,0-.71-.32-1.11-.71-1.7-1.58-4.16-2.45-6.49-2.45-1.11,0-2.97,.36-2.97,1.82,0,2.22,3.64,2.53,5.22,2.53,.87,0,1.74-.12,2.61-.2,.39-.04,.87-.12,1.27-.12,.95,0,1.15,.63,1.15,2.34,0,3.72-.63,3.76-1.86,3.76-2.1,0-4.43-.04-6.33-.36-4.08-.71-7.64-3.21-7.64-7.76,0-4.79,3.72-7.09,8.12-7.09,.71,0,1.46,.08,2.14,.2h.16c.28,0,.59-.2,.59-.56,0-.08-.08-.36-.36-.83-.2-.36-.44-.63-.87-.63-.16,0-.28,.04-.4,.08-2.3,.67-8.04,1.78-10.33,1.78-.59,0-.79-.28-1.03-.79-.4-.95-.91-3.01-.91-4.04,0-.71,.36-.87,1.94-.95,2.3-.12,5.42-.4,7.8-.99,.36-.08,.67-.24,.67-.63,0-.32-.28-.71-.59-.71-.16,0-.4,.08-.52,.12-1.19,.28-3.84,.75-4.99,.75-.71,0-.91-.4-1.15-.99-.28-.75-.87-2.73-.87-3.52,0-.83,.59-1.03,1.86-1.11,1.94-.12,3.13-.16,3.13-1.15,0-.28-.24-.67-.52-1.15-.24-.4-.83-1.35-.83-1.7,0-.67,1.19-1.03,1.7-1.19,1.15-.36,2.45-.75,3.25-.75,.99,0,1.15,.52,1.54,1.7,.4,1.23,.59,1.7,1.31,1.7Zm13.18,1.7c0,.75-1.94,2.18-2.38,2.18-.24,0-.47-.32-.59-.48-.87-1.15-1.82-2.18-2.77-3.17-.16-.16-.44-.4-.44-.59,0-.63,2.1-2.02,2.53-2.02,.32,0,3.64,3.48,3.64,4.08Zm2.57-5.19c1.07,1.15,1.9,2.1,1.9,2.45,0,.75-1.98,2.18-2.41,2.18-.16,0-.36-.16-.59-.48-.83-1.11-1.78-2.18-2.77-3.17-.16-.16-.4-.4-.4-.59,0-.63,2.1-2.02,2.49-2.02,.32,0,1.03,.79,1.78,1.62Z"/>
        <path class="cls-3" d="M13.91,189.73c0-.59-.47-1.11-1.07-1.11-.28,0-.55,.04-.87,.04-.87,0-.99-.4-.99-1.46v-2.45c0-1.03,.12-1.39,1.03-1.39h.79c.67,0,1.11-.52,1.11-1.15v-2.06c0-1.19-.08-2.38-.08-2.65,0-.59,.36-.67,.83-.67,.32,0,3.92,.2,4.39,.24,.32,.04,.79,.12,.79,.55,0,.32-.24,.47-.47,.63-.32,.24-.36,1.03-.36,2.1v1.86c0,.63,.47,1.19,1.11,1.19,.28,0,.67-.04,.99-.04,.95,0,1.03,.4,1.03,1.51v2.18c0,1.19-.08,1.62-1.03,1.62-.32,0-.63-.04-.95-.04-.63,0-1.15,.47-1.15,1.11v2.61c0,.4,.16,.87,.63,.87,.36,0,.99-.36,1.35-.55,.12-.04,.28-.12,.44-.12,.95,0,.99,2.06,.99,3.36,0,1.58-.04,1.66-2.26,2.65-.67,.28-1.15,.52-1.15,1.35v5.11c0,.95,.08,1.9,.08,2.85,0,3.68-2.53,4.83-5.82,4.83-1.03,0-2.45-.04-2.45-4.24,0-1.35,.24-1.55,.91-1.55,.32,0,.71,.04,1.23,.04,.87,0,.95-.52,.95-1.39v-3.52c0-.36-.28-.67-.63-.67-.44,0-.55,.44-.63,.56-.08,.28-.32,.47-.59,.47-.44,0-.47-.56-.55-.87-.24-1.15-.52-2.34-.75-3.48-.08-.36-.2-.79-.2-1.15,0-.55,.28-.59,2.34-1.15,.59-.16,.99-.36,1.03-1.07v-4.95Zm20.19-4.12c0-.2-.08-.4-.32-.4-.4,0-.47,.16-.59,.47-1.66,4.08-6.57,8.04-7.52,8.04s-3.21-2.61-3.21-3.52c0-.36,.59-.67,1.15-.99,2.02-1.11,4.59-3.44,5.23-5.7,.08-.36,.12-.79,.59-.79,.28,0,3.41,.87,3.96,1.03,.08,0,.16,.04,.24,.04,.32,0,.48-.2,.48-.52v-.16c0-.44-.32-.79-.75-.79h-3.96c-.63,0-1.11,.47-1.11,1.15v.71c0,.83-.71,.91-1.62,.91h-1.74c-1.03,0-1.66-.08-1.66-.95,0-.36,.08-.87,.08-1.35v-1.9c0-.87-.08-1.38-.08-1.82,0-1.5,1.31-1.54,2.45-1.54,1.23,0,2.45,.08,3.68,.08h10.02c1.23,0,2.41-.08,3.6-.08,1.11,0,2.57,0,2.57,1.5,0,.44-.08,.99-.08,1.86v1.9c0,.59,.04,1.07,.04,1.35,0,.87-.63,.95-1.78,.95h-1.9c-.87,0-1.5-.08-1.5-.95,0-.43,.04-.83,.04-1.23s-.24-.59-.47-.59h-.24c-.28,0-.51,.24-.51,.51v2.61c0,1.35,.04,1.62,.75,1.62h.32c.79,0,.91-.47,.95-1.27,.04-.55,.59-.63,1.07-.63,1.03,0,2.26,.28,3.17,.71,.55,.28,.83,.55,.83,1.19,0,1.19-.59,2.97-1.31,3.96-.83,1.11-1.9,1.11-3.4,1.11h-3.09c-.2,0-.36,.16-.47,.28l-.16,.16c-.36,.32-.59,.63-.59,1.11,0,.59,.55,.99,1.11,.99h2.3c1.42,0,2.81-.08,4.2-.08,1.15,0,1.27,.43,1.27,1.74v1.98c0,1.23-.12,1.62-1.27,1.62-1.39,0-2.73-.08-4.08-.08h-.63c-.32,0-.44,.2-.44,.4,0,.24,.2,.36,.47,.67,1.46,1.74,4.12,4.2,5.86,5.62,.47,.4,.99,.75,.99,1.27,0,1.07-2.77,3.64-3.68,3.64s-4.67-5.15-5.3-6.14c-.12-.2-.28-.4-.51-.4-.32,0-.36,.4-.36,.63v1.58c0,1.39,.12,2.81,.12,4.2,0,1.19-.44,1.31-1.78,1.31h-2.06c-1.42,0-1.86-.12-1.86-1.31,0-1.39,.08-2.77,.08-4.2v-1.78c0-.24-.04-.55-.36-.55-.28,0-.55,.47-.71,.71-.71,.95-4.71,6.17-5.62,6.17-1.11,0-3.88-2.73-3.88-3.84,0-.4,.44-.71,.71-.91,2.38-1.58,4.51-3.52,6.41-5.74,.16-.2,.63-.71,.63-.95,0-.36-.24-.4-1.03-.4-1.15,0-2.53,.08-3.68,.08s-1.27-.44-1.27-1.58v-1.98c0-1.43,.12-1.78,1.31-1.78,1.39,0,2.77,.08,4.12,.08h2.22c.63,0,1.15-.47,1.15-1.11,0-.51-.08-1.15-.08-1.7s.28-.71,.79-.71c.48,0,1.15,.08,1.43,.08,.32,0,.55-.16,.55-.47,0-.2-.28-.75-.28-2.06,0-.55,.04-1.11,.04-1.7v-1.39Z"/>
        <path class="cls-2" d="M38.14,234.99c1.11,0,2.18-.08,3.25-.08,1.43,0,2.53,.04,2.53,1.35,0,.59-.08,1.23-.08,1.94v4.16c0,.67,.08,1.35,.08,1.94,0,1.31-1.39,1.35-2.57,1.35-.44,0-.83-.04-1.27-.04-.2,0-.4,.04-.4,.28,0,.4,1.19,1.5,1.5,1.78,1.46,1.35,3.29,2.61,4.99,3.56,.71,.4,.87,.47,.87,.79,0,1.38-3.01,4.08-4.04,4.08-.71,0-3.52-2.41-4.16-3.01-1.15-1.07-2.61-2.61-3.56-3.88-.24-.32-.55-.67-.99-.67s-.71,.32-.95,.63c-1.39,1.94-3.13,3.64-5.07,5.07-.59,.43-2.65,1.9-3.33,1.9-1.03,0-3.8-3.17-3.8-4.12,0-.48,.52-.67,.87-.87,1.9-.95,3.88-2.38,5.5-3.84,.28-.24,1.23-1.07,1.23-1.42,0-.24-.24-.28-.4-.28-.4,0-.79,.04-1.19,.04-1.23,0-2.65,0-2.65-1.35,0-.59,.04-1.27,.04-1.94v-.63c0-.12,0-.55-.2-.55-.12,0-.2,.12-.28,.24-.24,.44-1.5,2.49-1.94,2.49-.4,0-1.11-1.27-1.31-1.58-.08-.12-.16-.24-.28-.24-.24,0-.24,.32-.24,.55v7.25c0,1.78,.12,3.56,.12,5.38,0,.95-.44,1.03-1.78,1.03h-1.94c-1.31,0-1.74-.08-1.74-1.03,0-1.78,.12-3.6,.12-5.38v-4.08c0-.28,0-.59-.24-.59-.28,0-.44,.51-.51,.71-.51,1.31-.91,2.26-1.43,2.26-.79,0-3.13-2.97-3.13-3.68,0-.32,.48-1.23,.63-1.54,1.15-2.26,2.14-4.55,2.93-6.97,.16-.47,.79-2.69,.79-3.05,0-.47-.28-.63-.71-.63-.52,0-1.19,.08-1.66,.08-.75,0-.83-.52-.83-1.58v-2.37c0-1.11,.08-1.51,.95-1.51,.48,0,1.07,.08,1.66,.08,.83,0,1.54-.16,1.54-1.11v-1.98c0-1.46-.08-2.61-.12-2.77-.04-.2-.04-.24-.04-.36,0-.4,.36-.47,.71-.47,.24,0,.67,.04,.91,.04,1.31,.16,2.61,.24,3.92,.4,.32,.04,.75,.12,.75,.51,0,.32-.2,.36-.52,.59-.32,.24-.4,.71-.4,1.54v2.45c0,.67,.55,1.11,1.19,1.11,.16,0,.55-.04,.95-.04,.75,0,.99,.2,.99,1.19v.24c0,.32,.2,.59,.55,.59,.2,0,.79-.43,1.15-.75,.12-.08,.2-.16,.28-.2,2.53-1.9,5.26-4.67,6.65-7.56,.16-.32,.24-.52,.63-.52,.59,0,4.08,1.31,4.95,1.62,.28,.08,.67,.28,.67,.67,0,.28-.16,.43-.4,.55-.12,.04-.2,.16-.2,.28,0,.47,2.22,2.34,2.65,2.69,1.66,1.46,3.48,2.77,5.34,3.92,.36,.24,.83,.55,.83,1.03,0,1.11-2.73,3.92-3.72,3.92-.32,0-1.66-1.07-1.98-1.35-.16-.16-.32-.32-.55-.32-.32,0-.36,.24-.47,.52-.12,.32-.87,.36-1.15,.36-.51,0-.99-.04-1.5-.04-.12,0-.4,.08-.4,.52v.2c0,.28,.24,.51,.52,.51h.83Zm-7.05,0c.28,0,.52-.24,.52-.51v-.2c0-.36-.2-.52-.52-.52-.51,0-1.07,.04-1.58,.04-.36,0-.87-.08-1.03-.47-.12-.2-.16-.32-.32-.32-.2,0-.95,.63-1.15,.79-.4,.36-.63,.52-.99,.52-.83,0-1.78-.83-2.34-1.39-.44-.43-.44-.63-2.49-.63-.4,0-.87,.2-.87,.67,0,1.03,.67,1.94,1.27,2.81,.67,.99,1.39,1.98,2.18,2.93,.12,.12,.28,.32,.47,.32,.28,0,.32-.24,.32-.63v-.4c0-.75-.04-1.23-.04-1.78,0-1.23,1.23-1.31,2.53-1.31,1.07,0,2.14,.08,3.21,.08h.83Zm-.83,4.2c-.4,0-.75,.36-.75,.79v.36c0,.4,.36,.75,.75,.75h.36c.4,0,.67-.16,.75-.52,.12-.47,.16-.79,.16-.87,0-.2-.16-.52-.67-.52h-.59Zm4.63-9.94c.52,0,.95,0,.95-.36,0-.24-.59-.83-.83-1.07-.32-.32-.47-.59-.83-.59-.24,0-.59,.32-.83,.63-.2,.28-.71,.67-.71,.99,0,.4,.51,.4,.87,.4h1.39Zm3.25,11.84c.44,0,.79-.36,.79-.75v-.36c0-.43-.36-.79-.79-.79h-.63c-.52,0-.71,.28-.75,.63-.04,.32-.08,.59-.08,.67,0,.47,.24,.59,.67,.59h.79Z"/>
        <path class="cls-3" d="M21.79,269.56c1.19,0,2.42-.08,3.64-.08,.99,0,1.07,.32,1.07,1.43v1.38c0,1.39-.12,1.55-1.11,1.55-1.19,0-2.41-.08-3.6-.08h-5.98c-1.19,0-2.42,.08-3.6,.08-.63,0-1.11-.04-1.11-1.11v-1.82c0-1.11,.08-1.43,1.03-1.43,1.23,0,2.45,.08,3.68,.08h5.98Zm-3.09,27.24c-.24,0-.44,.2-.44,.43v.63c0,.95-.4,1.03-1.62,1.03h-2.34c-1.19,0-1.58-.08-1.58-1.03,0-1.07,.08-2.38,.08-3.64v-3.4c0-1.03-.08-2.06-.08-3.05,0-1.58,.75-2.14,2.26-2.14,.95,0,1.94,.08,2.89,.08h2.26c.95,0,1.9-.04,2.85-.04,1.54,0,2.3,.52,2.3,2.14,0,.99-.08,1.98-.08,3.01v3.4c0,1.23,.08,2.53,.08,3.64,0,.95-.44,1.03-1.62,1.03h-1.78c-1.31,0-1.7-.08-1.7-1.03v-.63c0-.2-.12-.43-.44-.43h-1.03Zm1.86-21.81c1.11,0,2.22-.08,3.05-.08,1.03,0,1.11,.32,1.11,1.27v1.74c0,1.03-.08,1.31-1.11,1.31-.91,0-1.94-.08-3.05-.08h-3.09c-1.07,0-2.1,.08-3.05,.08s-1.11-.24-1.11-1.11v-1.9c0-1.03,.16-1.31,1.11-1.31s1.94,.08,3.05,.08h3.09Zm0,5.42c1.11,0,2.22-.08,3.05-.08,1.03,0,1.11,.32,1.11,1.27v1.74c0,1.03-.08,1.31-1.11,1.31-.91,0-1.94-.08-3.05-.08h-3.09c-1.07,0-2.1,.08-3.05,.08s-1.11-.24-1.11-1.11v-1.94c0-.99,.16-1.27,1.11-1.27s1.94,.08,3.05,.08h3.09Zm.08-16.31c1.19,0,2.26-.08,3.05-.08,1.03,0,1.11,.32,1.11,1.35v1.86c0,1.11-.08,1.43-1.11,1.43-.79,0-1.82-.08-3.05-.08h-3.09c-1.23,0-2.22,.08-3.01,.08-.95,0-1.15-.28-1.15-1.19v-2.22c0-.95,.16-1.23,1.15-1.23,.83,0,1.82,.08,3.01,.08h3.09Zm-2.45,27.75c0,.55,.4,.95,.95,.95h.16c.55,0,.95-.44,.95-.95v-1.07c0-.52-.4-.95-.95-.95h-.16c-.52,0-.95,.44-.95,.95v1.07Zm20.39-20.43c0-.67-.52-1.11-1.11-1.11h-4.59c-1.31,0-2.61,.12-3.92,.12-.87,0-.99-.43-.99-1.62v-2.65c0-1.19,.08-1.66,.99-1.66,1.31,0,2.61,.12,3.92,.12h6.69c1.03,0,2.02-.04,3.01-.04,1.35,0,1.78,.24,1.78,1.62,0,1.27-.08,2.53-.08,3.76v5.82c0,1.98,.12,4,.12,6.02,0,.95-.36,1.07-1.7,1.07h-2.38c-1.35,0-1.46-.12-1.66-.52-.16-.43-.59-.43-.99-.43h-2.65c-.59,0-1.11,.51-1.11,1.11v7.25c0,1.66,0,2.22,1.23,2.22h3.92c1.19,0,1.66-.43,2.06-3.84,.08-.83,.04-1.27,.91-1.27,1.5,0,4.55,.51,4.55,2.49,0,1.54-.79,4.32-1.43,5.74-1.07,2.38-2.22,2.57-4.63,2.57h-7.72c-3.21,0-4.43-1.03-4.43-4.28,0-1.15,.04-2.26,.04-3.4v-9.74c0-.87-.04-1.74-.04-2.61,0-1.35,.48-1.54,1.74-1.54,.99,0,2.02,.04,3.01,.04h4.35c.59,0,1.11-.52,1.11-1.11v-4.12Z"/>
      </g>
      <g>
        <path class="cls-1" d="M161.95,84.15c.11-.48,.02-1.66-.07-2.1-.04-.62-.07-1.23-.11-1.85-.18-.83-.25-1.57-.39-2.42-.03-.18,.03-.64,.07-.82,.01-.52,.02-1.04,.04-1.56,.07-.34,.12-1.35,.04-1.74-.16-.74-.02-1.65-.21-2.42-.15-.62-.39-1.13-.53-1.78-.06-.26,.03-.61,.07-.82,.12-.53,.14-1.58,0-2.1-.12-.44-.24-.93-.36-1.39-.06-.43-.12-.85-.18-1.28-.14-.47-.28-.95-.43-1.42-.1-.37-.06-.72-.18-1.07-.22-.66-.74-1.08-.99-1.71-.18-.45-.2-.94-.36-1.42-.13-.39-.3-.84-.43-1.24-.07-.36-.14-.71-.21-1.07-.22-.58-.45-1.16-.67-1.74-.07-.33-.14-.66-.21-.99-.27-.82-.7-1.52-1.03-2.27l-.57-1.71c-.18-.42-.49-.82-.67-1.24-.12-.53-.24-1.07-.36-1.6-.16-.39-.46-.72-.67-1.07-.25-.41-.33-.92-.53-1.39-.25-.57-.67-1.06-.92-1.63-.37-.85-.57-1.7-1.03-2.45-.43-.71-.95-1.37-1.39-2.06-.39-.62-.74-1.24-1.17-1.81-.6-.79-1.61-1.23-2.2-2.02-.66-.89-1.14-1.89-1.74-2.84-.62-.98-1.29-1.99-1.99-2.91-.39-.51-1.03-.94-1.42-1.46-.63-.83-1.3-1.57-2.13-2.2-.51-.38-.75-1.08-1.28-1.46-.58-.41-1.36-.58-1.92-.99-.67-.5-.85-1.5-1.53-1.99-.64-.46-1.47-.7-2.1-1.17-.33-.37-.66-.73-.99-1.1-.43-.32-1.07-.5-1.39-.92-.36-.48-.58-1.07-1.07-1.42-.27-.2-.57-.32-.85-.5-.37-.24-.72-.55-1.1-.78-.4-.17-.81-.33-1.21-.5-.48-.3-.84-.77-1.35-1.03-.49-.26-1.1-.27-1.53-.57-.28-.28-.57-.57-.85-.85-.47-.35-.94-.68-1.42-1.03-.39-.29-.77-.64-1.24-.85-.79-.35-1.63-.61-2.49-.85-.53-.15-1.06-.12-1.53-.32-.73-.31-1.37-.81-2.02-1.21-.44-.27-.94-.39-1.42-.6-.48-.21-.96-.53-1.46-.75-.75-.33-1.61-.55-2.42-.78-.5-.14-1.02-.13-1.46-.32-.53-.23-.86-.72-1.42-.92-.25-.09-.78-.05-1.03,0-.51,.1-1.16-.02-1.53-.14-.56-.18-1.06-.5-1.63-.67-.5-.15-1.08-.06-1.53-.25-.66-.27-1.2-.68-1.95-.89-.58-.16-1.36-.17-2.02-.18-.38-.01-.76-.02-1.14-.04-.82-.19-1.49-.47-2.24-.71-.59-.19-1.24-.21-1.88-.36-.47-.1-1.46,0-1.85,.07-.3,.01-.59,.02-.89,.04-.09,.01-.28,.07-.43,.04-.33-.05-.66-.09-.99-.14-.69-.19-1.31-.44-2.2-.43-.11,.07-.31,.03-.46,.07-.37,.1-.78,.14-1.28,.14h-.82c-.44,.1-1.59,.3-2.13,.18-.97-.21-2.32-.38-3.37-.14-.24,.01-.47,.02-.71,.04-.26,.06-.58,.03-.85,.11-1.28,.34-2.8,.67-4.12,.99-.51,.02-1.02,.05-1.53,.07-.43,.12-.85,.24-1.28,.36-.26,.06-.72,0-.92-.04-.47-.1-1.53-.16-2.02-.04-.88,.21-1.62,.56-2.42,.82-.53,.17-1.18,.08-1.74,.25-.48,.15-.89,.45-1.35,.6-.48,.16-1.11,.06-1.6,.21-1.18,.38-2.02,1.27-3.16,1.74-.57,.23-1.25,.05-1.88,.21-.65,.17-1,.65-1.56,.89-.68,.29-1.65,.18-2.31,.46-.49,.21-.72,.6-1.1,.89-.41,.31-.81,.67-1.31,.89-.44,.19-.9,.27-1.35,.46-.49,.21-.92,.55-1.35,.82-.52,.22-1.04,.45-1.56,.67-.54,.33-1.05,.7-1.63,.99-.3,.15-.6,.19-.92,.32-.76,.31-1.5,.66-2.13,1.1-1.15,.81-2.05,1.9-3.16,2.74-.49,.37-.85,.94-1.35,1.31-.43,.32-.89,.61-1.35,.89-.32,.19-.67,.28-.96,.5-.56,.42-.79,1.21-1.35,1.63-1.19,.9-2.61,1.59-3.8,2.49-.42,.31-1.1,1.14-1.39,1.6-.31,.5-.45,1.08-.78,1.53-.43,.58-1.19,.91-1.63,1.49-.36,.48-.85,.84-1.21,1.31-.53,.7-1,1.44-1.53,2.13-.15,.14-.31,.28-.46,.43-.36,.36-.71,.71-1.07,1.07-.35,.27-.73,.61-.99,.96-.37,.5-.7,1.02-1.07,1.53-.35,.47-.76,.9-1.07,1.42-.29,.5-.26,1.28-.57,1.78-.27,.43-.77,.66-1.03,1.1-.23,.39-.19,1-.43,1.39-.26,.42-.73,.68-.99,1.1-.26,.42-.28,1.02-.53,1.46-.2,.34-.49,.62-.71,.92-.42,.57-.81,1.16-1.17,1.78-.39,.67-.34,1.71-.75,2.38-.37,.61-.92,1.09-1.21,1.78-.24,.57-.13,1.31-.32,1.95-.28,.94-.87,1.69-1.24,2.59-.2,.5-.26,1.07-.39,1.63-.02,.3-.05,.59-.07,.89-.19,.72-.59,1.25-.85,1.88-.14,.34-.14,.69-.28,1.03-.35,.85-.72,1.57-.96,2.59-.14,.6,.1,1.21,0,1.88-.07,.45-.08,.98-.18,1.42-.02,.34-.05,.69-.07,1.03-.11,.45-.27,.89-.39,1.31-.14,.49-.05,1.04-.18,1.56-.17,.68-.33,1.29-.5,2.02-.05,.24,0,.64,.04,.82,.01,.24,.02,.47,.04,.71,.11,.47,.23,1.62,.11,2.17-.37,1.66-.38,3.54-.75,5.19-.13,.58,.11,1.16,.11,1.71,0,.79-.48,1.53-.28,2.38,.21,.94,.57,1.58,.78,2.52v1.03c.14,.65,.03,1.42,.18,2.1v.6c.18,.8,.32,1.55,.5,2.34,.15,.65-.2,1.26-.07,1.85,.13,.59,.39,.99,.53,1.53,.11,.42-.08,.97,.04,1.42,.13,.54,.45,.94,.6,1.46,.05,.53,.09,1.07,.14,1.6,.12,.36,.24,.71,.36,1.07,.14,.47,.1,.99,.28,1.42,.18,.44,.51,.82,.67,1.28,.22,.6,.05,1.45,.28,1.99,.3,.72,.83,1.31,1.14,2.02,.17,.4,.21,.81,.36,1.24,.16,.48,.38,.97,.57,1.42,.2,.48,.26,.96,.46,1.42,.33,.77,.92,1.38,1.24,2.13,.27,.62,.12,1.63,.39,2.27,.29,.68,.81,1.12,1.21,1.67,.42,.58,.55,1.44,.96,2.02,.21,.3,.67,.81,.96,1.03,.09,.07,.18,.09,.25,.18,.44,.58,.95,1.11,1.35,1.74,.51,.82,.99,1.69,1.42,2.56,.17,.33,.24,.68,.43,.99,.36,.59,.81,1.12,1.17,1.71,.31,.5,.49,1.03,.82,1.49,.56,.77,1.5,1.21,2.17,1.88,.28,.28,.54,.61,.78,.92,.25,.33,.61,.58,.85,.92,.26,.37,.44,.78,.71,1.14,.51,.67,1.43,1.04,2.02,1.63,.53,.53,.9,1.28,1.35,1.88,.42,.56,1.14,.86,1.71,1.28,.33,.33,.66,.66,.99,.99,.53,.4,1.07,.77,1.6,1.17,.84,.63,1.19,1.79,2.02,2.42,1.02,.76,2.34,1.23,3.37,1.99,.98,.72,1.69,1.77,2.74,2.42,.47,.29,1.09,.34,1.63,.57,.55,.23,1.02,.63,1.53,.92,.21,.12,.42,.15,.64,.25,.51,.22,1.03,.48,1.53,.75,.43,.24,.92,.49,1.31,.78,.32,.23,.56,.6,.89,.82,.54,.35,1.6,.22,2.17,.53,.48,.26,.85,.66,1.39,.89,.74,.31,1.6,.38,2.24,.78,.53,.33,.95,.77,1.56,1.03,.75,.31,1.69,.32,2.42,.64,.56,.25,1.05,.65,1.63,.89,.86,.35,1.99-.12,2.88,.18,.89,.3,1.44,1,2.34,1.28,1,.31,2.19-.2,3.2,.07,.88,.23,1.37,.81,2.2,1.03,.55,.15,1.15-.09,1.71,.04,.46,.11,.96,.17,1.46,.28,.34,.01,.69,.02,1.03,.04,.58,.13,1.17,.25,1.78,.39,.49,.02,.97,.05,1.46,.07,.56,.12,1.24,.11,1.92,.11h.82c.87,.19,1.85,0,2.77,0h.75c.52,.11,1.04,.21,1.53,.32,.62,.14,1.31-.09,1.74-.21,.4-.06,.81-.12,1.21-.18h1.31c.63-.02,1.26-.05,1.88-.07h1.07c.99-.23,1.64-.68,2.66-.92,.58-.14,1.28,.06,1.88-.07,1.4-.31,3.04,.13,4.4-.25,.75-.21,1.63-.37,2.34-.67,.49-.21,.9-.57,1.42-.75,.45-.15,1.12,.04,1.6-.11,.56-.17,.96-.6,1.53-.78,.3-.1,.57-.06,.89-.14,.61-.16,1.17-.42,1.74-.6,.38-.12,.73-.14,1.07-.28,.49-.22,.85-.64,1.31-.89,.45-.23,1.01-.29,1.49-.5,.27-.12,.57-.31,.82-.46,.4-.24,.86-.34,1.31-.53,.45-.2,.9-.52,1.35-.71,.65-.28,1.61-.18,2.27-.46,.95-.4,1.31-1.31,2.13-1.81,.37-.17,.73-.33,1.1-.5,.38-.23,.78-.5,1.21-.67,.75-.31,1.46-.38,2.1-.78,.49-.31,1.22-.86,1.56-1.31,.14-.19,.31-.46,.5-.6,.62-.48,1.46-.71,2.1-1.17,.54-.54,1.09-1.09,1.63-1.63,.91-.65,2.26-.84,3.16-1.49,.47-.33,.9-.82,1.24-1.28,.16-.21,.41-.39,.57-.6,.17-.23,.35-.54,.57-.71,.48-.38,1.17-.71,1.53-1.21,.22-.3,.3-.67,.5-.99,.21-.35,.5-.67,.78-.96,.53-.53,1.25-.96,1.71-1.56,.39-.52,.95-1.29,1.46-1.67,.34-.25,.92-.54,1.17-.85,.35-.44,.52-1.04,.85-1.49,.48-.64,1.36-.95,1.85-1.6,.36-.48,.56-1.07,.89-1.6,.26-.42,.63-.79,.89-1.21,.37-.6,.52-1.33,.89-1.92,.43-.67,1.22-1.01,1.63-1.67,.18-.39,.36-.78,.53-1.17,.29-.48,.7-.9,.99-1.39,.27-.59,.54-1.18,.82-1.78,.35-.58,.93-1.04,1.21-1.67,.3-.68,.28-1.6,.57-2.27,.38-.87,1.09-1.44,1.56-2.2,.4-.65,.29-1.6,.6-2.34,.21-.5,.57-.94,.85-1.39,.44-.7,.85-1.45,1.17-2.24,.35-.84,.27-1.93,.57-2.84,.24-.73,.59-1.41,.82-2.2,.12-.89,.24-1.78,.36-2.66,.25-.91,.61-1.71,.85-2.63,.25-.96-.36-1.78-.14-2.74,.22-.97,.68-1.58,.92-2.49,.04-.38,.07-.76,.11-1.14,.1-.43,.27-1.14,.14-1.71-.11-.48-.32-1.21-.18-1.85,.25-1.1,.49-2.06,.75-3.2ZM90.09,11.97c.49-.73,1.68-.49,2.66-.75,.21-.05,.47,0,.64-.11,.83,.01,1.29,.23,1.88,.43,.61,.2,1.28,.28,1.85,.46,.91,.3,2.04,.27,2.95,.57,1.26,.42,2.26,1.11,3.45,1.6,.42,.17,.83,.22,1.24,.39,.63,.26,1.26,.6,1.92,.82,.55,.18,1.39,.02,1.92,.25,.47,.2,.76,.65,1.24,.85,.4,.17,.96,.08,1.35,.25,.45,.19,.73,.64,1.14,.89,.48,.3,1.2,.31,1.67,.6,.84,.52,1.53,1.28,2.38,1.81,.67,.42,1.63,.54,2.27,.99,.54,.38,.88,1,1.42,1.39,.65,.45,1.63,.57,2.27,1.03,.22,.22,.45,.45,.67,.67,.43,.43,.92,.89,1.42,1.24,.35,.25,.74,.45,1.1,.67,.41,.25,.92,.38,1.21,.75,.21,.27,.4,.54,.6,.82,.43,.41,.85,.83,1.28,1.24,.45,.6,.86,1.3,1.46,1.74,.51,.38,1.11,.65,1.63,1.03,.41,.29,.74,.73,1.14,1.03,.25,.19,.56,.39,.75,.64,.33,.44,.63,.91,.96,1.35,.25,.33,.64,.58,.89,.92,.49,.69,.8,1.5,1.42,2.06,.83,.75,1.29,1.03,1.71,2.24,.1,.29,.25,.86,.07,1.21-.45,.88-1.83,.13-2.45-.07-.2-.04-.4-.07-.6-.11-.54-.15-1.13-.31-1.67-.46-.43-.12-.89-.03-1.35-.14-.55-.13-1.09-.28-1.6-.43-.4-.11-.79-.09-1.17-.21-.52-.17-.97-.47-1.46-.67-.67-.27-1.35-.3-1.88-.67-.47-.33-.88-.76-1.39-1.07-.81-.49-1.91-.57-2.84-.96-.58-.24-1.03-.68-1.6-.92-.39-.11-.78-.21-1.17-.32-.59-.25-.98-.77-1.56-1.03-1.07-.47-2.44-.45-3.37-1.03-.57-.36-.88-1-1.46-1.35-.47-.29-1.13-.3-1.56-.6-.61-.43-.98-1.12-1.63-1.53-.54-.34-1.38-.34-1.99-.6-.69-.3-1.14-.9-1.71-1.31-.52-.38-1.12-.65-1.63-1.03-.32-.23-.57-.58-.89-.82-.52-.38-1.06-.72-1.56-1.1-.06-.08-.12-.17-.18-.25-.37-.41-.75-.85-1.14-1.24-.69-.7-1.57-1.28-2.38-1.85-.77-.54-1.57-.99-2.34-1.53-.57-.4-1.11-.86-1.67-1.28-.48-.36-.95-1.17-1.31-1.67-.09-.12-.16-.3-.28-.39-.58-.45-1.27-.75-1.78-1.28-.52-.54-1.63-2.11-.92-3.16ZM24.45,38.75c.12-.35,.14-.7,.32-.99,.26-.42,.66-.73,.99-1.07,.3-.3,.56-.65,.82-.99,.22-.22,.45-.45,.67-.67,.41-.54,.8-1.08,1.21-1.63,.14-.14,.28-.28,.43-.43,.11-.15,.21-.32,.36-.43,.82-.62,1.66-1.22,2.49-1.85,.5-.37,.85-.94,1.35-1.31,.47-.35,1.18-.82,1.53-1.28,.3-.4,.59-1.18,.96-1.46,.39-.29,.93-.42,1.31-.71,.36-.27,.49-.83,.85-1.1,.38-.29,.94-.37,1.35-.64,.51-.34,.82-.91,1.35-1.24,.22-.13,.43-.18,.67-.28,.66-.29,1.39-.61,1.99-.99,.66-.42,1.12-1.08,1.78-1.49,.6-.37,1.49-.38,2.1-.75,.63-.38,1.02-1.01,1.63-1.39,.71-.44,1.71-.58,2.49-.92,.93-.41,1.61-1.14,2.52-1.53,.34-.14,.72-.11,1.1-.21,.57-.19,1.14-.38,1.7-.57,.7-.21,1.44-.17,2.06-.43,.61-.25,1.14-.63,1.67-.96,.36-.22,.76-.29,1.17-.46,.45-.19,.93-.42,1.42-.57,.45-.06,.9-.12,1.35-.18,.52-.14,1.04-.28,1.56-.43,.54-.04,1.09-.07,1.63-.11,.6-.15,1.15-.36,1.67-.57,.25-.1,.61-.07,.85-.21,1.26,0,3.13,.35,2.66,1.78-.29,.89-1.16,1.25-1.67,1.92-.24,.32-.5,.6-.75,.92-.22,.22-.45,.45-.67,.67-.33,.44-.59,.91-.92,1.35-.33,.33-.66,.66-.99,.99-.35,.46-.71,.98-1.17,1.31-.36,.26-.72,.48-1.07,.75-.39,.3-.63,.79-1.07,1.07-.32,.2-.67,.27-1.03,.43-.53,.23-1.05,.53-1.49,.85-.47,.35-.9,.83-1.31,1.24-.11,.12-.21,.24-.32,.36-.48,.36-1.07,.57-1.56,.92-.38,.27-.65,.72-1.03,.99-.45,.32-1.08,.43-1.53,.75-.91,.65-1.53,1.79-2.52,2.42-.51,.32-1.15,.28-1.74,.53-.57,.24-.88,.79-1.39,1.1-.58,.35-1.46,.36-2.1,.64-.95,.41-1.37,1.47-2.38,1.92-.54,.24-1.13,.36-1.67,.6-.36,.17-.71,.47-1.07,.64-.51,.18-1.02,.36-1.53,.53-.44,.19-.86,.49-1.31,.67-.97,.4-2.18,.43-3.13,.82-1.94,.8-3.65,1.99-5.58,2.81-.5,.21-1.06,.29-1.63,.43-.44,.1-.85,.01-1.24,.14-.49,.16-.85,.49-1.28,.71-.73,.38-2.79,.77-3.34-.04-.51-.76,.24-1.75,.46-2.38Zm127.66,39.64c-.01,.2-.02,.4-.04,.6-.14,.61-.18,1.29-.32,1.92,.01,.72,.02,1.44,.04,2.17,.02,.1,.07,.34,.04,.5-.27,1.21-.3,2.57-.6,3.77-.21,.81-.02,1.87,.14,2.59,.01,.22,.02,.45,.04,.67,.05,.23,.1,.75,.04,1.03-.18,.79-.49,1.24-.67,1.92-.13,.48,.04,1.16-.11,1.6-.21,.62-.65,1.07-.85,1.74-.29,.96-.01,2.29-.32,3.23-.24,.74-.82,1.17-1.1,1.85-.27,.64-.2,1.48-.43,2.2-.24,.79-.8,1.31-1.1,2.06-.27,.67-.25,1.49-.53,2.13-.34,.78-1.03,1.32-1.39,2.13-.56,1.28-1.01,2.55-1.56,3.8-.28,.63-.8,1.11-1.07,1.74-.16,.38-.15,.82-.28,1.24-.21,.64-.52,1.24-.85,1.78-.24,.38-.57,.84-.92,1.1-.21,.16-.51,.32-.67,.53-.34,.44-.56,.96-.89,1.42-.24,.33-.61,.59-.85,.92-.59,.82-.91,1.88-1.49,2.7-.82,1.16-1.92,2.02-3.05,2.88-.29,.22-.56,.56-.78,.85-.63,.62-1.26,1.23-1.88,1.85-1.28,.91-3.71,.13-4.8-.53-.3-.18-.62-.42-.96-.57-.52-.23-1.06-.35-1.53-.64-.25-.15-.5-.35-.75-.5-.48-.29-1.04-.43-1.49-.75-.4-.28-.72-.69-1.14-.96-.37-.23-.79-.36-1.14-.6-.77-.54-1.16-1.53-1.92-2.1-.72-.54-1.81-.95-2.24-1.78-.17-.33-.11-.67-.21-1.1-.07-.29-.19-.78-.11-1.14,.19-.81,.82-1.16,1.21-1.78,.6-.96,1.01-2.03,1.67-2.91,.45-.6,1.34-.81,1.78-1.42,.3-.43,.4-1.01,.71-1.42,.57-.76,1.57-1.06,1.99-2.06,.23-.56,.12-1.3,.28-1.92,.16-.59,.28-1.22,.43-1.85,.17-.73-.2-1.41-.36-1.88-.17-.51-.21-1.04-.46-1.46-.37-.6-.94-1.02-1.35-1.56-.51-.68-1.2-1.32-2.02-1.67-.29-.12-.64-.17-.96-.25-.8-.19-1.83,.02-2.42,.21-1.85,.6-2.6,1.43-3.8,2.63-.44,.44-1.03,.8-1.39,1.31-.21,.3-.27,.66-.43,1.03-.15,.34-.39,.67-.6,.96-.16,.22-.42,.4-.64,.57-.33,.25-.62,.6-.96,.85-.56,.41-1.22,.8-1.63,1.35-.34,.46-.77,.86-1.1,1.31-.35,.48-.69,1.08-1.35,1.24-.45,.11-.94-.08-1.21-.18-.73-.27-1.19-.58-1.74-.99-.22-.24-.45-.47-.67-.71-.52-.39-1.29-.94-1.67-1.46-.59-.78-1.08-1.66-1.67-2.45-.39-.51-1.02-.88-1.56-1.24-.41-.27-1.6-1.08-2.34-.92-.45,.09-.86,.22-1.28,.32-.69,.16-1.38-.26-1.95,.04-.35,.18-.6,.54-.92,.75-.45,.28-1.07,.34-1.49,.64-.36,.26-.51,.75-.75,1.14-.32,.51-.71,.93-1.03,1.46-.29,.47-.86,1.66-.64,2.59,.15,.64,.43,1.16,.6,1.78,.02,.21,.05,.43,.07,.64,.13,.52,.24,1.03,.5,1.42,.42,.62,1.15,.94,1.74,1.39,.3,.23,.49,.64,.71,.96,.22,.31,.48,.61,.71,.92,.68,.9,1.81,1.34,2.59,2.13,.31,.32,.51,.74,.78,1.1,.33,.45,.84,.76,1.17,1.21,.29,.39,.67,1.06,1.03,1.35,.32,.26,.64,.53,.99,.75,.3,.18,.63,.27,.92,.46,.76,.48,1.49,1.06,2.2,1.6,.41,.44,.83,.88,1.24,1.31,.39,.29,.91,.57,1.21,.96,.36,.48,.78,.97,1.28,1.31,.88,.61,1.96,.97,2.81,1.6,.52,.39,.91,.96,1.42,1.35,.44,.33,1.02,.7,1.35,1.14,.26,.34,.69,.85,1.03,1.1,.61,.46,1.31,.85,1.92,1.31,.17,.13,.3,.36,.43,.53,.26,.35,.69,.69,1.07,.92,.53,.32,1.23,.35,1.85,.6,.82,.34,1.84,1.31,2.06,2.24,.09,.38-.06,.8-.14,1.03-.33,.87-.87,1.53-1.71,1.88-.5,.21-1.16,.18-1.63,.43-.49,.25-.83,.71-1.35,.92-.41,.17-.9,.13-1.28,.32-.45,.22-.78,.62-1.24,.82-.43,.18-.97,.15-1.42,.32-.33,.12-.67,.33-.99,.46-.46,.13-.92,.26-1.39,.39-.43,.19-.81,.53-1.24,.71-.6,.25-1.53,.09-2.1,.32-.75,.31-1.38,.78-2.2,1.03-.33,.05-.66,.09-.99,.14-.66,.16-1.35,.26-2.02,.43-.32,.04-.64,.07-.96,.11-.78,.21-1.49,.48-2.27,.67-.97,.24-1.69-.49-2.7-.25-.7,.17-1.28,.41-1.99,.57-.59,.13-1.27-.16-1.85,0-.53,.14-1.06,.37-1.56,.53-.52,.17-1.09,.16-1.67,.28-.32,.07-.9,.02-1.17-.04-.36-.01-.71-.02-1.07-.04-.59-.13-1.24-.18-1.78-.32-.4-.05-.81-.09-1.21-.14h-.6c-.69-.16-1.34-.27-2.02-.43-.56-.13-1.48,.02-1.99,.14-.17,.04-.49,.12-.71,.07-.69-.07-1.37-.14-2.06-.21-.53-.13-1.01-.34-1.49-.5-1.28-.42-2.9,.35-3.23-1.1-.07-.3,.12-.59,.21-.75,.36-.61,.84-1,1.42-1.39,.47-.31,1.08-.66,1.42-1.1,.35-.47,.73-.94,1.14-1.35,.63-.63,1.37-1.13,1.85-1.92,.33-.54,.37-1.28,.53-1.99,.07-.3,.01-.62,.07-.89,.01-.28,.02-.57,.04-.85,.2-.87,.58-2.74,.32-3.73-.17-.63-.52-1.04-.82-1.53-.24-.52-.47-1.04-.71-1.56-.5-.81-1.25-1.45-1.81-2.2-.24-.32-.52-.6-.75-.92-.23-.32-.38-.7-.71-.92-.38-.26-.96-.2-1.42-.39-.6-.25-1-.76-1.63-.99-.58-.22-1.28-.14-1.92-.32-.48-.13-.93-.36-1.39-.5-.99-.3-2.54,.27-3.41,.46-.26,.01-.52,.02-.78,.04-.5,.11-1.01,.19-1.39,.43-.69,.43-.98,1.3-1.67,1.74-.85,.54-1.97,.73-2.52,1.56-.53,.79-.62,2.03-1.07,2.88-.35,.67-1.03,1.08-1.24,1.88-.12,.46,.11,.93,0,1.42-.19,.86-.15,1.86,.04,2.7,.1,.47-.04,.93,.07,1.35,.18,.69,.47,1.3,.64,1.99,.2,.82-.4,1.4-1.21,1.21-.91-.22-1.63-.65-2.27-1.14-.39-.29-.68-.7-1.1-.96-.39-.24-.84-.31-1.28-.5-.42-.18-.87-.4-1.24-.64-.38-.24-.7-.59-1.07-.85-.39-.28-.79-.5-1.17-.78-.39-.29-.71-.7-1.14-.96-.29-.17-.61-.2-.96-.32-.48-.16-.97-.4-1.35-.67-.5-.36-.88-.88-1.31-1.31-.35-.34-.77-.63-1.07-1.03-.38-.52-.66-1.11-1.1-1.56-.48-.49-1.01-.97-1.56-1.39-.35-.27-.63-.66-.99-.92-.44-.32-1.13-.52-1.46-.96-.27-.35-.41-.81-.67-1.17-.36-.48-1.06-.66-1.42-1.14-.21-.28-.36-.59-.57-.89-.24-.35-.6-.62-.85-.96-.27-.36-.48-.74-.75-1.1-.41-.55-1.16-.82-1.56-1.39-.23-.33-.37-.7-.6-1.03-.22-.32-.55-.58-.78-.89-.32-.43-.54-.91-.85-1.35-.23-.33-.53-.64-.75-.99-.41-.69-.37-1.75-.78-2.42-.44-.71-1.27-1.04-1.71-1.74-.19-.31-.27-.65-.43-.99-.2-.44-.51-.86-.67-1.35-.26-.77-.3-1.59-.6-2.27-.42-.95-1.12-1.65-1.63-2.49-.34-.56-.26-1.46-.53-2.1-.32-.76-.87-1.38-1.14-2.2-.28-.85,.09-2.12-.14-3.05-.32-1.31-.89-2.33-1.28-3.52-.19-.58-.06-1.43-.28-1.99-.11-.26-.29-.49-.43-.71-.22-.37-.35-.82-.46-1.28-.13-.5,.01-1.03-.11-1.56-.21-.94-.23-1.84-.43-2.81-.12-.58,.32-1.29,.18-1.92-.11-.46-.28-.86-.39-1.31-.13-.54,.12-1.11,.21-1.49,.07-.27,.05-.57,.11-.82,.12-.56-.11-1.24-.21-1.67-.14-.59,.11-1.35-.04-1.99-.11-.5-.39-1.8-.25-2.42,.15-.65,.42-1.14,.57-1.78v-1.67c.11-.49,.2-1.01,.32-1.53,.15-.69-.02-1.42,.14-2.06,.17-.68,.44-1.22,.6-1.92,.05-.21,0-.56-.04-.71-.1-.46-.08-1.4,.04-1.81,.28-1.02,.91-1.72,1.21-2.7,.13-.44-.05-1.01,.07-1.53,.11-.47,.21-.91,.43-1.28,.43-.72,.92-2.02,1.6-2.45,.59-.37,1.37-.39,2.17-.57,.4-.02,.81-.05,1.21-.07,1.17-.28,2.13-.65,3.23-.96,.72-.2,1.6-.06,2.34-.25,.36-.09,.77-.18,1.07-.36,.54-.33,1.01-.74,1.67-.96,.78-.25,1.88,.08,2.66-.14,.79-.24,1.59-.47,2.38-.71,.6-.26,1.08-.74,1.74-.96,1.23-.42,2.88-.27,4.05-.75,.82-.34,1.59-.79,2.38-1.14,.42-.18,.83-.3,1.21-.53,.48-.3,.94-.66,1.49-.89,.71-.3,1.47-.4,2.2-.64,1.3-.43,2.49-.92,3.69-1.46,.62-.28,1.03-.86,1.63-1.14,.75-.34,1.74-.35,2.49-.67,.55-.24,1.06-.62,1.56-.92,.35-.21,.76-.29,1.1-.5,.43-.26,.85-.59,1.28-.85,.31-.19,.66-.27,.96-.46,.66-.42,.99-1.2,1.63-1.63,.26-.17,.55-.26,.82-.43,.42-.26,.82-.59,1.24-.85,.32-.2,.67-.3,.99-.5,.46-.29,.86-.71,1.31-.99,.46-.29,.98-.47,1.42-.78,.51-.35,.93-.84,1.42-1.21,.57-.42,1.2-.75,1.78-1.17,.33-.24,.59-.61,.92-.85,.48-.34,1.13-.47,1.6-.82,.37-.37,.73-.73,1.1-1.1,.35-.25,.73-.42,1.07-.67,.43-.32,.73-.79,1.17-1.1,.63-.44,1.28-.82,1.88-1.28,.76-.58,1.34-1.4,2.17-1.92,.73-.46,1.71-.76,2.52-1.1,.33-.09,.66-.19,.99-.28,.47,0,.89,0,1.24,.11,2.33,.76,3.29,3.15,5.08,4.48,.57,.42,1.05,.9,1.6,1.31l.64,.64c.46,.34,.96,.62,1.42,.96,.31,.31,.62,.62,.92,.92,.7,.5,1.8,.59,2.49,1.1,.52,.38,.73,1.12,1.24,1.49,.59,.43,1.45,.53,2.1,.92,.55,.33,.91,.85,1.42,1.21,.4,.2,.81,.4,1.21,.6,.5,.35,.72,1.02,1.21,1.39,.32,.24,.71,.35,1.07,.57,.27,.16,.55,.37,.82,.53,.51,.31,1.22,.36,1.74,.67,.45,.27,.81,.68,1.31,.89,.45,.19,1,.15,1.39,.39,.43,.27,.74,.7,1.14,.99,.34,.25,.72,.43,1.07,.67,.36,.25,.72,.55,1.1,.78,.31,.19,.66,.23,1.03,.36,.62,.2,1.24,.42,1.92,.6,.6,.16,1.17,.14,1.67,.36,.57,.25,1.09,.65,1.6,.96,.51,.31,1.07,.46,1.63,.71,.49,.21,.97,.53,1.46,.75,.78,.34,1.66,.58,2.49,.82,.48,.14,.96,.13,1.39,.32,.5,.22,.81,.71,1.31,.92,.65,.27,1.72-.05,2.42,.18,.67,.22,1.22,.6,1.88,.82,.5,.16,1.05,.13,1.49,.32,.62,.27,1.11,.73,1.81,.96,.95,.31,2.18,.14,3.2,.43,1,.28,1.83,.78,2.81,1.1,.66,.22,1.35,.22,2.1,.39,.67,.01,1.35,.02,2.02,.04,.81,.18,1.46,.42,2.17,.64,.68,.21,1.27,.07,1.63,.57,.13,.18,.17,.38,.28,.57,.25,.41,.6,.81,.75,1.31,.14,.5-.11,1.1,0,1.6,.19,.84,.25,1.57,.5,2.31,.18,.54,.31,1.19,.53,1.74,.17,.41,.41,.82,.53,1.28,.02,.51,.05,1.02,.07,1.53,.16,.69,.39,1.3,.57,1.99,.26,1,.16,2.13,.39,3.13,.02,.3,.05,.59,.07,.89,.06,.27,.06,.6,.14,.89,.17,.62,.38,1.22,.53,1.88,.11,.45,.05,1.12-.04,1.53Z"/>
        <path class="cls-1" d="M114,66.67c-.13-.57,.18-1.12,.04-1.74-.13-.54-.37-.96-.5-1.53,.01-.43,.02-.85,.04-1.28-.13-.56-.35-1.03-.5-1.56-.07-.44-.14-.88-.21-1.31-.15-.47-.39-.94-.57-1.39-.13-.31-.13-.6-.25-.92-.21-.57-.51-1.11-.75-1.63-.14-.32-.21-.64-.39-.92-.33-.54-.9-.87-1.24-1.39-.33-.5-.45-1.17-.78-1.67-.2-.3-.5-.56-.71-.85-.34-.47-.68-1-1.14-1.35-.32-.24-.67-.47-.96-.75-.29-.28-.63-.61-.85-.96-.2-.32-.34-.74-.64-.96-.44-.33-1.05-.49-1.49-.82-.48-.36-.75-.96-1.24-1.31-.78-.56-1.97-.66-2.81-1.17-.55-.34-1.02-.8-1.56-1.14-.34-.21-.75-.28-1.1-.5-.41-.25-.77-.57-1.17-.82-.48-.29-1.1-.35-1.67-.57-.57-.22-1.13-.51-1.74-.71-.69-.23-1.51-.1-2.27-.28-1.97-.48-4.24-.57-6.25-1.03-.47-.11-1.11,.03-1.46,.11-.64,.15-1.33,.03-2.02,.04-.39,.01-.78,.02-1.17,.04-.81-.18-1.42-.4-2.42-.39-.18,.12-.76,.18-.99,.28-.34,.15-.68,.39-1.03,.53-.74,.31-1.62,.38-2.45,.57-.58,.13-1.11-.17-1.63-.04-.63,.16-1.03,.59-1.6,.82-.52,.21-1.09,.2-1.53,.46-.69,.42-1.34,.93-2.02,1.35-1.13,.69-2.32,1.23-3.41,1.95-.75,.5-1.39,1.19-2.13,1.7-.58,.41-1.2,.73-1.78,1.14-.42,.3-.77,.72-1.17,1.03-.24,.18-.53,.4-.71,.64-.28,.38-.57,.76-.82,1.17-.24,.4-.32,.88-.57,1.28-.49,.79-1.31,1.3-1.81,2.1-.29,.47-.38,1.09-.67,1.56-.36,.59-.85,1.09-1.21,1.7-.11,.19-.13,.37-.21,.57-.26,.59-.49,1.26-.78,1.81-.19,.37-.34,.78-.46,1.21-.11,.41-.08,.8-.21,1.17-.25,.53-.5,1.07-.75,1.6-.35,.85-.49,1.72-.71,2.7-.22,.96,.61,1.96,.85,2.56,.29,.73,.22,1.74,.53,2.45,.44,1.02,1.26,1.57,2.1,2.2,.56,.42,.88,1.12,1.46,1.53,.4,.28,.91,.41,1.46,.53,.2,.05,.49,0,.64,.04h1.21c.24,.05,.52,.04,.78,.11,.39,.1,.98,.34,1.53,.21,.49-.15,.97-.31,1.46-.46,.43-.11,.86-.06,1.24-.21,.5-.2,.89-.55,1.31-.82,.34-.21,.7-.32,1.03-.53,.44-.29,.76-.74,1.07-1.17,.27-.38,.6-.73,.85-1.14,.43-.7,.76-1.74,1.03-2.56,.27-.84,.28-1.8,.6-2.59,.29-.72,.71-1.33,1.14-1.92,.85-1.16,2.01-2.08,2.88-3.23,.7-.94,1.4-1.93,2.56-2.42,.4-.17,.82-.16,1.28-.28,.56-.13,1.11-.26,1.67-.39,.43-.02,.85-.05,1.28-.07,.54-.13,.97-.37,1.49-.5,.39-.09,.86,.04,1.14,.11,.35,.08,.88,.07,1.28,.04,.49-.04,1.21-.17,1.74-.04,.6,.15,1.07,.47,1.63,.64,.84,.25,2.12-.02,2.95,.25,.51,.17,1.05,.39,1.46,.67,.25,.17,.46,.43,.71,.6,.53,.38,1.19,.61,1.71,.99,.27,.2,.44,.57,.64,.85,.42,.6,.84,1.17,1.24,1.81,.42,.66,1.09,1.19,1.35,1.99,.05,.47,.09,.95,.14,1.42,.11,.42,.18,.9,.28,1.35,.02,.34,.05,.69,.07,1.03,.09,.4,.31,1.02,.18,1.56-.14,.49-.28,.97-.43,1.46-.23,.84-.04,1.94-.36,2.66-.13,.31-.36,.61-.53,.89-.24,.39-.38,.78-.64,1.14-.36,.48-1.02,.72-1.39,1.21-.71,.94-1.45,1.89-2.45,2.52-.51,.32-1.19,.42-1.71,.75-.31,.19-.56,.5-.85,.71-.4,.29-.86,.55-1.35,.75-.36,.14-.71,.14-1.1,.25-.84,.24-1.71,.42-2.49,.75-.97,.41-1.65,1.19-2.59,1.6-.64,.28-1.49,.32-2.13,.6-.82,.36-1.58,1.01-2.27,1.53-.27,.21-.52,.49-.82,.67-.67,.41-1.54,.52-2.17,.96-.69,.48-1.18,1.23-1.78,1.81-.51,.5-1.32,.9-1.74,1.46-.5,.67-.99,1.36-1.49,2.02-.44,.58-1.08,1.01-1.53,1.6-.14,.13-.28,.26-.43,.39-.43,.57-.63,1.33-1.03,1.95-.43,.68-1.01,1.27-1.35,2.06-.25,.58-.29,1.24-.6,1.74-.18,.29-.44,.57-.64,.85-.31,.44-.49,.96-.78,1.42-.58,.91-1.18,1.77-1.56,2.91-.16,.48-.16,1.03-.28,1.56-.01,.19-.02,.38-.04,.57-.18,.71-.41,1.37-.6,2.06-.17,.6-.07,1.23-.21,1.88-.21,.94-.29,2.34,0,3.23,.14,.44,.4,.83,.6,1.21,.34,.64,.59,1.31,.99,1.88,.17,.24,.43,.44,.6,.67,.4,.54,.82,1.15,1.39,1.53,.4,.26,.91,.43,1.42,.57,.36,.1,.67,.07,.99,.18,.87,.29,1.56,.76,2.56,.99,.71,.17,1.3-.21,1.78-.36,.51-.15,1.27,.01,1.74-.18,.74-.3,1.19-.97,1.81-1.39,.47-.31,1.1-.45,1.56-.78,.38-.28,.54-.79,.82-1.17,.4-.55,1.09-.82,1.46-1.42,.41-.66,.59-1.7,.78-2.56v-.57c.16-.7,.07-1.32,.32-1.92,.22-.53,.62-.97,.85-1.49,.21-.47,.32-.93,.6-1.31,.26-.35,.65-.61,.89-.99,.27-.44,.38-.98,.67-1.39,.32-.32,.64-.64,.96-.96,.6-.84,.96-1.91,1.78-2.52,.6-.45,1.26-.93,1.99-1.24,.41-.18,.84-.25,1.24-.43,.58-.26,1.03-.74,1.63-.99,.4-.17,.82-.18,1.24-.32,.98-.32,2.03-.7,2.95-1.1,.35-.15,.68-.24,.99-.43,.45-.27,.92-.57,1.39-.82,.47-.24,.94-.39,1.35-.67,.64-.45,1.16-1.07,1.85-1.49,.5-.31,1.2-.36,1.71-.67,.68-.42,1.07-1.17,1.7-1.63,.27-.2,.6-.4,.92-.53,.34-.14,.67-.18,.96-.36,.42-.26,.69-.67,1.07-.96,.37-.28,.73-.57,1.1-.85,.53-.4,.96-1.05,1.35-1.6,.61-.84,1.28-1.66,1.85-2.56,.33-.52,.52-1.11,.85-1.63,.48-.76,1.26-1.24,1.74-2.02,.37-.6,.69-1.39,.92-2.1,.11-.33,.12-.65,.25-.96,.38-.9,1.11-1.49,1.39-2.52,.1-.36,.03-.88-.04-1.21-.09-.43-.04-1.18,.07-1.56,.31-1.1,.72-2.02,.99-3.2,.02-.41,.05-.83,.07-1.24,.13-.56,.36-1.55,.21-2.2-.15-.64-.35-1.23-.5-1.85Z"/>
      </g>
    </g>
  </g>
</svg>