<?xml version="1.0" encoding="UTF-8"?>
<svg id="Layer_2" data-name="Layer 2" xmlns="http://www.w3.org/2000/svg" viewBox="0 0 126.38 255.45">
  <defs>
    <style>
      .cls-1 {
        fill-rule: evenodd;
      }

      .cls-1, .cls-2 {
        fill: #c30d23;
      }

      .cls-3 {
        fill: #231815;
      }
    </style>
  </defs>
  <g id="Layer_1-2" data-name="Layer 1">
    <g>
      <g>
        <path class="cls-3" d="M107.29,139.04v2.96c0,.56,.22,1.14,.87,1.14h2.78c1.05,0,2.1-.09,3.15-.09,1.17,0,1.67,.37,1.67,1.64,0,.93-.06,1.88-.09,2.81l-.22,10.35c0,.25-.03,.49-.03,.74,0,.68,.25,.71,.83,.71h.56c.62,0,.83-.03,.99-.68,.09-.46,.25-1.91,.28-2.41,.03-.62,.03-.96,.77-.96,.65,0,1.54,.19,2.19,.43,.71,.25,1.39,.65,1.39,1.48,0,1.36-.52,3.34-.9,4.63-.59,1.95-1.88,2.04-3.64,2.04h-2.44c-2.78,0-4.63,.28-4.63-2.87,0-.87,.06-1.73,.09-2.59l.18-10.13c0-.43-.25-.71-.74-.71h-2.38c-.71,0-.8,.62-.83,1.14-.22,2.56-.65,5.19-1.76,7.5-1.54,3.3-3.89,5.47-6.86,7.44-.25,.19-.52,.34-.83,.34-1.05,0-2.96-2.38-2.96-3.37,0-.31,.25-.46,.46-.59,4.08-2.5,6.45-5.16,7.16-9.98,.06-.49,.15-1.39,.15-1.85s-.22-.65-.68-.65h-.52c-1.24,0-2.5,.09-3.74,.09-.8,0-.86-.37-.86-1.33v-1.82c0-1.08,.06-1.42,.86-1.42,1.24,0,2.5,.09,3.74,.09h.52c.8,0,.83-.83,.83-1.27v-2.9c0-.43-.06-1.3-.06-1.51,0-.62,.46-.62,.77-.62,.56,0,3.95,.19,4.35,.28,.22,.06,.37,.22,.37,.46,0,.22-.22,.34-.4,.43-.4,.31-.4,.56-.4,1.02Z"/>
        <path class="cls-2" d="M94.53,186.54c.68-1.95,1.14-4.26,1.33-6.3,.06-.71,.09-.86,.34-.86,.06,0,1.82,.31,2.63,.43,.18,.03,.22,.03,.34,.06,.28,.06,.77,.19,.77,.52,0,.19-.22,.31-.31,.34-.28,.12-.34,.22-.37,.52-.22,1.91-.65,4.38-1.24,6.21-.22,.68-.28,.8-.68,.8-1.05,0-2.93-.65-2.93-1.3,0-.12,.06-.31,.12-.43Zm5.68-13.77c0-.43-.09-1.11-.09-1.27v-.15c0-.34,.22-.43,.52-.43s1.45,.12,1.82,.15c1.88,.19,2.35,.19,2.35,.62,0,.18-.12,.28-.28,.43-.22,.22-.25,.49-.25,.9v5.78c0,.43,.22,.71,.68,.71,.18,0,.46-.06,.68-.12,.15-.06,.37-.09,.52-.09,.68,0,.74,.52,1.39,2.41,.06,.22,.25,.77,.52,.77,.25,0,.31-.59,.31-.74v-7.04c0-.68-.09-1.3-.09-1.51v-.31c0-.34,.25-.37,.52-.37,.9,0,2.35,.03,3.24,.09,.4,.03,.99,.06,.99,.43,0,.15-.09,.25-.31,.4-.18,.15-.25,.43-.28,.71-.03,.37-.03,2.78-.03,3.3v1.54c0,.37,.09,.8,.52,.8,.25,0,.59-.15,.8-.25,.25-.09,.68-.22,1.02-.22,.56,0,.68,.46,1.54,2.9,.09,.28,.28,.96,.59,.96,.25,0,.25-.46,.25-.65v-7.91c0-.99,0-2.01-.09-2.84-.03-.15-.03-.22-.03-.34,0-.34,.31-.37,.59-.37,.9,0,2.38,.06,3.31,.12,.46,.03,.99,.03,.99,.4,0,.19-.12,.31-.28,.43-.22,.19-.28,.4-.31,.68-.03,.37-.03,2.78-.03,3.34v16.83c0,1.73,.09,3.46,.09,5.16,0,.71-.28,.77-1.27,.77h-1.76c-.96,0-1.3-.06-1.3-.71,0-1.76,.09-3.49,.09-5.22v-5.68c0-.19-.06-.43-.28-.43-.19,0-.56,.18-.74,.25-.4,.19-1.24,.49-1.67,.49-.46,0-.56-.37-.65-.77-.15-.68-.37-1.42-.59-2.1-.12-.4-.34-1.3-.62-1.3-.15,0-.18,.25-.18,.37v7.29c0,1.73,.06,3.46,.06,5.19,0,.68-.25,.74-1.17,.74h-1.73c-.96,0-1.3-.06-1.3-.71,0-1.73,.09-3.49,.09-5.22v-3.03c0-.43-.03-.96-.59-.96-.34,0-.74,.15-1.05,.25-.28,.09-.8,.25-1.08,.25-.4,0-.49-.4-.53-.71,0-.06-.03-.15-.06-.31-.15-.77-.52-2.5-.8-2.5-.22,0-.25,.62-.25,.77-.28,3.21-.96,6.49-2.35,9.39-.71,1.45-1.88,3.34-3.06,4.45-.18,.19-.28,.25-.52,.25-1.02,0-3.34-1.48-3.34-2.19,0-.22,.18-.4,.34-.52,.4-.43,1.27-1.61,1.64-2.13,1.17-1.73,2.07-3.65,2.59-5.68,.68-2.56,.86-5.59,.86-8.25v-7.29Z"/>
        <path class="cls-3" d="M117.88,208.66c2.19,2.19,3.27,4.88,3.27,7.94,0,4.35-2.38,8.18-6.21,10.25-.77,.43-2.81,1.39-3.68,1.39-1.08,0-2.72-2.84-2.72-3.71,0-.28,.28-.4,1.17-.62,3.58-.93,6.52-3.18,6.52-7.13,0-4.85-3.71-6.76-4.63-6.76-.53,0-.59,.56-.62,1.11-.34,4.29-1.58,9.54-4.42,12.94-1.14,1.39-2.63,2.56-4.48,2.56-2.07,0-3.77-1.42-4.7-3.18-.71-1.36-1.02-3.12-1.02-4.63,0-7.41,5.71-13.31,13.16-13.31,3.15,0,6.11,.93,8.34,3.15Zm-16.89,10.1c0,.74,.19,3,1.27,3,.74,0,1.79-2.04,2.1-2.69,1.08-2.22,1.95-6.79,1.95-7.91,0-.25-.12-.46-.4-.46-.9,0-4.91,2.84-4.91,8.06Z"/>
        <path class="cls-2" d="M74.85,159.08c-.15,.09-.46,.22-.46,.43,0,.46,3.61,.99,4.17,1.08,.46,.06,.74,.18,.74,.71,0,1.08-.9,3.52-2.16,3.52-.31,0-.83-.12-1.17-.22-3.06-.77-6.39-2.29-8.77-4.35-.12-.09-.31-.31-.46-.31-.25,0-.25,.25-.25,.49v.46c0,1.2-.28,1.39-.99,1.57-2.41,.65-7.1,1.36-9.7,1.7-.46,.06-.43,.06-.62,.43-.09,.19-.15,.37-.53,.37-.46,0-.56-.37-.68-.77-.15-.52-.93-3.09-.93-3.43,0-.65,.77-.62,1.24-.65,2.41-.12,2.56-.19,2.56-1.33v-9.64c0-.37-.03-.62-.31-.62-.25,0-.87,.4-1.11,.56-.34,.22-.86,.49-1.27,.49-1.05,0-2.69-2.53-2.69-3.27,0-.37,.43-.52,.93-.77,4.11-2.04,8.15-4.63,10.78-8.43,.28-.4,.4-.56,.74-.56,.62,0,3.86,.68,4.73,.87,.12,.03,.43,.18,.43,.46,0,.22-.15,.34-.28,.46-.06,.06-.09,.15-.09,.25,0,.28,.8,1.05,1.02,1.27,2.72,2.69,5.87,4.35,9.36,5.78,.25,.09,.4,.22,.4,.53,0,.9-1.2,3.61-2.22,3.61-.43,0-2.07-.93-2.56-1.24-.25-.15-.49-.31-.68-.31-.28,0-.31,.22-.31,.68v2.72c0,.77,.03,1.57,.03,2.38,0,.37,0,.56,.22,.56h.22c.25,0,.49,.15,.71,.31,.9,.65,1.73,1.33,2.62,1.98,.19,.15,.56,.4,.56,.65,0,.19-.12,.4-.34,.4-.18,0-.46-.12-.62-.12-.09,0-.22,.06-.31,.09-.68,.37-1.3,.8-1.95,1.2Zm-5.9-9.73c.22,0,.4-.19,.4-.4v-.19c0-.22-.19-.4-.4-.4h-7.57c-.22,0-.37,.18-.37,.4v.19c0,.25,.15,.4,.37,.4h7.57Zm-7.57,2.53c-.22,0-.37,.19-.37,.4v.19c0,.22,.15,.4,.37,.4h7.57c.22,0,.4-.18,.4-.4v-.19c0-.25-.19-.4-.4-.4h-7.57Zm.49,3.92c-.49,0-.86,.37-.86,.86v1.73c0,.59,.06,.9,.59,.9,.43,0,2.47-.37,2.9-.46,.28-.06,.59-.19,.59-.49,0-.18-.15-.4-.43-.8-.25-.4-.62-.99-.77-1.24-.28-.43-.74-.49-1.3-.49h-.71Zm.46-10.25c.59,0,1.05-.19,1.05-.9,0-.28-.09-.86-.09-1.14,0-.37,.22-.46,.56-.46,.4,0,2.16,.18,2.66,.22,.12,.03,.31,.06,.46,.06,.09,0,.22-.06,.22-.19,0-.09-.34-.46-.71-.83-.15-.15-.31-.28-.43-.43-.19-.19-.4-.46-.68-.46s-.56,.34-.87,.65c-.96,.93-1.95,1.82-2.96,2.66-.15,.15-.49,.37-.49,.59s.25,.25,.62,.25h.68Zm6.76,0c.4,0,.52-.03,.52-.25,0-.06-.09-.22-.15-.28-.28-.28-.83-.65-1.02-.83-.06-.06-.18-.12-.31-.12-.34,0-.71,.4-.71,.71,0,.4,.28,.77,1.11,.77h.56Zm-.34,10.25c-.4,0-.62,0-.62,.25,0,.28,1.48,1.57,2.07,1.57,.49,0,1.98-1.27,1.98-1.54,0-.22-.34-.25-.52-.25-.8,0-1.61-.03-2.41-.03h-.49Z"/>
        <path class="cls-3" d="M65.15,191.98c-.83,0-4.11-.18-4.57-.86-.19-.28-.34-2.87-.34-3.37,0-.43,.22-.68,.65-.68s1.48,.31,1.91,.43c.4,.12,.93,.19,1.33,.19,.65,0,1.08-.19,1.08-.9,0-.65-.59-1.85-1.33-1.85-.34,0-1.42,.65-1.79,.86-1.88,1.17-4.73,2.9-6.49,4.17-.49,.34-.52,.37-.8,.83-.15,.25-.28,.46-.52,.46-.34,0-.99-1.14-1.36-1.79-.62-1.05-1.3-2.25-1.3-2.69,0-.34,.37-.46,.99-.68,1.45-.52,5.93-3.09,7.66-3.98,.34-.19,.56-.4,.56-.77,0-.19-.06-.31-.15-.46-.31-.59-.46-1.24-.46-1.88,0-1.24,.8-4.17,1.88-4.17,.49,0,3.55,1.02,3.55,1.48,0,.09-.09,.25-.25,.49-.28,.46-.71,1.17-.71,1.98,0,.52,.59,1.27,1.14,1.27,.12,0,.22-.03,.34-.03,.46-.06,.8-.09,1.27-.09,3.55,0,6.39,1.33,8.86,3.83,.65,.65,3.09,3.49,3.09,4.29,0,.68-3.15,2.44-3.95,2.44-.34,0-.56-.43-.77-.9-.99-1.98-2.01-3.61-3.92-4.82-.34-.22-.74-.43-.96-.43-.19,0-.37,.15-.37,.4,0,.12,.03,.22,.09,.34,.43,.8,.71,2.07,.71,2.99,0,3.18-2.32,3.89-5.06,3.89Zm-1.92-23.1c.37,0,2.84,1.2,3.3,1.45,.56,.28,3.21,1.57,3.21,2.13,0,.62-1.05,2.19-1.42,2.75-.25,.37-.68,.99-1.02,.99-.25,0-.52-.25-.68-.4-1.36-1.2-3.18-2.19-4.79-2.96-.46-.22-.74-.34-.74-.68,0-.43,1.3-3.27,2.13-3.27Z"/>
        <path class="cls-2" d="M63.82,199.7c.25,.06,.68,.18,.68,.43,0,.12-.12,.22-.22,.25-.49,.28-.56,.65-.71,1.42-.77,3.8-.99,7.69-.99,11.55,0,2.44,0,4.94,2.47,4.94,1.95,0,3.8-1.14,4.97-2.62,1.02-1.27,1.7-2.9,1.98-4.48,.12-.62,.22-1.17,.74-1.17,.68,0,1.61,.83,2.1,1.27,.56,.49,1.48,1.33,1.48,2.1,0,.93-.87,2.96-1.33,3.8-1.98,3.64-5.47,6.05-9.7,6.05-2.19,0-4.54-.74-5.96-2.53-1.54-1.98-1.73-5.25-1.73-7.72,0-3.55,.31-7.35,.56-10.69,.06-.65,.09-1.7,.09-2.41s0-1.08,.52-1.08c.71,0,4.05,.68,5.03,.9Z"/>
        <path class="cls-3" d="M66.2,231.61c.37,0,1.54-.65,1.95-.86,.25-.12,.62-.31,.9-.31,.71,0,1.82,2.56,1.82,3.3,0,.49-.37,.74-.77,.96-.59,.34-1.24,.65-1.91,.93-.28,.12-.62,.25-.62,.56,0,.09,.09,.59,.46,.59,.59,0,2.53-1.17,3.12-1.54,.25-.15,.68-.4,.96-.4,.46,0,.87,.65,1.14,1.11,.37,.59,1.05,1.67,1.05,2.19,0,.49-.59,.8-1.67,1.3-.77,.37-1.3,.62-1.98,.9-.34,.15-.62,.37-.62,.77,0,.65,1.88,3.64,2.75,4.72,.37,.43,.87,1.02,.87,1.61,0,.8-2.5,2.59-3.3,2.59-.34,0-.56-.25-.87-.56-1.33-1.24-3.24-1.91-5.06-1.91-.87,0-2.32,.28-2.32,1.42,0,1.73,2.84,1.98,4.08,1.98,.68,0,1.36-.09,2.04-.15,.31-.03,.68-.09,.99-.09,.74,0,.9,.49,.9,1.82,0,2.9-.49,2.93-1.45,2.93-1.64,0-3.46-.03-4.94-.28-3.18-.56-5.96-2.5-5.96-6.05,0-3.74,2.9-5.53,6.33-5.53,.56,0,1.14,.06,1.67,.15h.12c.22,0,.46-.15,.46-.43,0-.06-.06-.28-.28-.65-.15-.28-.34-.49-.68-.49-.12,0-.22,.03-.31,.06-1.79,.52-6.27,1.39-8.06,1.39-.46,0-.62-.22-.8-.62-.31-.74-.71-2.35-.71-3.15,0-.56,.28-.68,1.51-.74,1.79-.09,4.23-.31,6.08-.77,.28-.06,.52-.19,.52-.49,0-.25-.22-.56-.46-.56-.12,0-.31,.06-.4,.09-.93,.22-3,.59-3.89,.59-.56,0-.71-.31-.9-.77-.22-.59-.68-2.13-.68-2.75,0-.65,.46-.8,1.45-.87,1.51-.09,2.44-.12,2.44-.9,0-.22-.19-.52-.4-.9-.19-.31-.65-1.05-.65-1.33,0-.52,.93-.8,1.33-.93,.9-.28,1.91-.59,2.53-.59,.77,0,.9,.4,1.2,1.33,.31,.96,.46,1.33,1.02,1.33Zm10.28,1.33c0,.59-1.51,1.7-1.85,1.7-.19,0-.37-.25-.46-.37-.68-.9-1.42-1.7-2.16-2.47-.12-.12-.34-.31-.34-.46,0-.49,1.64-1.57,1.98-1.57,.25,0,2.84,2.72,2.84,3.18Zm2.01-4.05c.83,.9,1.48,1.64,1.48,1.91,0,.59-1.54,1.7-1.88,1.7-.12,0-.28-.12-.46-.37-.65-.86-1.39-1.7-2.16-2.47-.12-.12-.31-.31-.31-.46,0-.49,1.64-1.57,1.95-1.57,.25,0,.8,.62,1.39,1.27Z"/>
        <path class="cls-3" d="M10.85,146.91c0-.46-.37-.87-.83-.87-.22,0-.43,.03-.68,.03-.68,0-.77-.31-.77-1.14v-1.91c0-.8,.09-1.08,.8-1.08h.62c.52,0,.86-.4,.86-.9v-1.61c0-.93-.06-1.85-.06-2.07,0-.46,.28-.52,.65-.52,.25,0,3.06,.15,3.43,.19,.25,.03,.62,.09,.62,.43,0,.25-.19,.37-.37,.49-.25,.18-.28,.8-.28,1.64v1.45c0,.49,.37,.93,.86,.93,.22,0,.53-.03,.77-.03,.74,0,.8,.31,.8,1.17v1.7c0,.93-.06,1.27-.8,1.27-.25,0-.49-.03-.74-.03-.49,0-.9,.37-.9,.87v2.04c0,.31,.12,.68,.49,.68,.28,0,.77-.28,1.05-.43,.09-.03,.22-.09,.34-.09,.74,0,.77,1.61,.77,2.62,0,1.24-.03,1.3-1.76,2.07-.53,.22-.9,.4-.9,1.05v3.98c0,.74,.06,1.48,.06,2.22,0,2.87-1.98,3.77-4.54,3.77-.8,0-1.91-.03-1.91-3.3,0-1.05,.19-1.21,.71-1.21,.25,0,.56,.03,.96,.03,.68,0,.74-.4,.74-1.08v-2.75c0-.28-.22-.52-.49-.52-.34,0-.43,.34-.49,.43-.06,.22-.25,.37-.46,.37-.34,0-.37-.43-.43-.68-.19-.9-.4-1.82-.59-2.72-.06-.28-.15-.62-.15-.9,0-.43,.22-.46,1.82-.9,.46-.12,.77-.28,.8-.83v-3.86Zm15.75-3.21c0-.15-.06-.31-.25-.31-.31,0-.37,.12-.46,.37-1.3,3.18-5.13,6.27-5.87,6.27s-2.5-2.04-2.5-2.75c0-.28,.46-.52,.9-.77,1.57-.87,3.58-2.69,4.08-4.45,.06-.28,.09-.62,.46-.62,.22,0,2.66,.68,3.09,.8,.06,0,.12,.03,.19,.03,.25,0,.37-.15,.37-.4v-.12c0-.34-.25-.62-.59-.62h-3.09c-.49,0-.86,.37-.86,.9v.56c0,.65-.56,.71-1.27,.71h-1.36c-.8,0-1.3-.06-1.3-.74,0-.28,.06-.68,.06-1.05v-1.48c0-.68-.06-1.08-.06-1.42,0-1.17,1.02-1.2,1.91-1.2,.96,0,1.91,.06,2.87,.06h7.81c.96,0,1.88-.06,2.81-.06,.86,0,2.01,0,2.01,1.17,0,.34-.06,.77-.06,1.45v1.48c0,.46,.03,.83,.03,1.05,0,.68-.49,.74-1.39,.74h-1.48c-.68,0-1.17-.06-1.17-.74,0-.34,.03-.65,.03-.96s-.19-.46-.37-.46h-.19c-.22,0-.4,.18-.4,.4v2.04c0,1.05,.03,1.27,.59,1.27h.25c.62,0,.71-.37,.74-.99,.03-.43,.46-.49,.83-.49,.8,0,1.76,.22,2.47,.56,.43,.22,.65,.43,.65,.93,0,.93-.46,2.32-1.02,3.09-.65,.87-1.48,.87-2.66,.87h-2.41c-.15,0-.28,.12-.37,.22l-.12,.12c-.28,.25-.46,.49-.46,.86,0,.46,.43,.77,.87,.77h1.79c1.11,0,2.19-.06,3.27-.06,.9,0,.99,.34,.99,1.36v1.54c0,.96-.09,1.27-.99,1.27-1.08,0-2.13-.06-3.18-.06h-.49c-.25,0-.34,.15-.34,.31,0,.18,.15,.28,.37,.52,1.14,1.36,3.21,3.27,4.57,4.38,.37,.31,.77,.59,.77,.99,0,.83-2.16,2.84-2.87,2.84s-3.64-4.01-4.14-4.79c-.09-.15-.22-.31-.4-.31-.25,0-.28,.31-.28,.49v1.24c0,1.08,.09,2.19,.09,3.27,0,.93-.34,1.02-1.39,1.02h-1.61c-1.11,0-1.45-.09-1.45-1.02,0-1.08,.06-2.16,.06-3.27v-1.39c0-.18-.03-.43-.28-.43-.22,0-.43,.37-.56,.56-.56,.74-3.67,4.82-4.39,4.82-.86,0-3.03-2.13-3.03-2.99,0-.31,.34-.56,.56-.71,1.85-1.24,3.52-2.75,5-4.48,.12-.15,.49-.56,.49-.74,0-.28-.19-.31-.8-.31-.9,0-1.98,.06-2.87,.06s-.99-.34-.99-1.24v-1.54c0-1.11,.09-1.39,1.02-1.39,1.08,0,2.16,.06,3.21,.06h1.73c.49,0,.9-.37,.9-.87,0-.4-.06-.9-.06-1.33s.22-.56,.62-.56c.37,0,.9,.06,1.11,.06,.25,0,.43-.12,.43-.37,0-.15-.22-.59-.22-1.61,0-.43,.03-.86,.03-1.33v-1.08Z"/>
        <path class="cls-2" d="M29.75,182.22c.86,0,1.7-.06,2.53-.06,1.11,0,1.98,.03,1.98,1.05,0,.46-.06,.96-.06,1.51v3.24c0,.52,.06,1.05,.06,1.51,0,1.02-1.08,1.05-2.01,1.05-.34,0-.65-.03-.99-.03-.15,0-.31,.03-.31,.22,0,.31,.93,1.17,1.17,1.39,1.14,1.05,2.56,2.04,3.89,2.78,.56,.31,.68,.37,.68,.62,0,1.08-2.35,3.18-3.15,3.18-.56,0-2.75-1.88-3.24-2.35-.9-.83-2.04-2.04-2.78-3.03-.19-.25-.43-.52-.77-.52s-.56,.25-.74,.49c-1.08,1.51-2.44,2.84-3.95,3.95-.46,.34-2.07,1.48-2.59,1.48-.8,0-2.96-2.47-2.96-3.21,0-.37,.4-.52,.68-.68,1.48-.74,3.03-1.85,4.29-3,.22-.19,.96-.83,.96-1.11,0-.19-.19-.22-.31-.22-.31,0-.62,.03-.93,.03-.96,0-2.07,0-2.07-1.05,0-.46,.03-.99,.03-1.51v-.49c0-.09,0-.43-.15-.43-.09,0-.15,.09-.22,.18-.19,.34-1.17,1.95-1.51,1.95-.31,0-.86-.99-1.02-1.24-.06-.09-.12-.18-.22-.18-.19,0-.19,.25-.19,.43v5.65c0,1.39,.09,2.78,.09,4.2,0,.74-.34,.8-1.39,.8h-1.51c-1.02,0-1.36-.06-1.36-.8,0-1.39,.09-2.81,.09-4.2v-3.18c0-.22,0-.46-.19-.46-.22,0-.34,.4-.4,.56-.4,1.02-.71,1.76-1.11,1.76-.62,0-2.44-2.32-2.44-2.87,0-.25,.37-.96,.49-1.2,.9-1.76,1.67-3.55,2.29-5.44,.12-.37,.62-2.1,.62-2.38,0-.37-.22-.49-.56-.49-.4,0-.93,.06-1.3,.06-.59,0-.65-.4-.65-1.24v-1.85c0-.87,.06-1.17,.74-1.17,.37,0,.83,.06,1.3,.06,.65,0,1.2-.12,1.2-.86v-1.54c0-1.14-.06-2.04-.09-2.16-.03-.15-.03-.18-.03-.28,0-.31,.28-.37,.56-.37,.19,0,.52,.03,.71,.03,1.02,.12,2.04,.18,3.06,.31,.25,.03,.59,.09,.59,.4,0,.25-.15,.28-.4,.46-.25,.19-.31,.56-.31,1.2v1.91c0,.52,.43,.87,.93,.87,.12,0,.43-.03,.74-.03,.59,0,.77,.15,.77,.93v.19c0,.25,.15,.46,.43,.46,.15,0,.62-.34,.9-.59,.09-.06,.15-.12,.22-.15,1.98-1.48,4.11-3.64,5.19-5.9,.12-.25,.19-.4,.49-.4,.46,0,3.18,1.02,3.86,1.27,.22,.06,.53,.22,.53,.53,0,.22-.12,.34-.31,.43-.09,.03-.15,.12-.15,.22,0,.37,1.73,1.82,2.07,2.1,1.3,1.14,2.72,2.16,4.17,3.06,.28,.19,.65,.43,.65,.8,0,.86-2.13,3.06-2.9,3.06-.25,0-1.3-.83-1.54-1.05-.12-.12-.25-.25-.43-.25-.25,0-.28,.19-.37,.4-.09,.25-.68,.28-.9,.28-.4,0-.77-.03-1.17-.03-.09,0-.31,.06-.31,.4v.15c0,.22,.19,.4,.4,.4h.65Zm-5.5,0c.22,0,.4-.18,.4-.4v-.15c0-.28-.15-.4-.4-.4-.4,0-.83,.03-1.24,.03-.28,0-.68-.06-.8-.37-.09-.15-.12-.25-.25-.25-.15,0-.74,.49-.9,.62-.31,.28-.49,.4-.77,.4-.65,0-1.39-.65-1.82-1.08-.34-.34-.34-.49-1.95-.49-.31,0-.68,.15-.68,.52,0,.8,.52,1.51,.99,2.19,.52,.77,1.08,1.54,1.7,2.29,.09,.09,.22,.25,.37,.25,.22,0,.25-.19,.25-.49v-.31c0-.59-.03-.96-.03-1.39,0-.96,.96-1.02,1.98-1.02,.83,0,1.67,.06,2.5,.06h.65Zm-.65,3.27c-.31,0-.59,.28-.59,.62v.28c0,.31,.28,.59,.59,.59h.28c.31,0,.52-.12,.59-.4,.09-.37,.12-.62,.12-.68,0-.15-.12-.4-.52-.4h-.46Zm3.61-7.75c.4,0,.74,0,.74-.28,0-.19-.46-.65-.65-.83-.25-.25-.37-.46-.65-.46-.19,0-.46,.25-.65,.49-.15,.22-.56,.53-.56,.77,0,.31,.4,.31,.68,.31h1.08Zm2.53,9.23c.34,0,.62-.28,.62-.59v-.28c0-.34-.28-.62-.62-.62h-.49c-.4,0-.56,.22-.59,.49-.03,.25-.06,.46-.06,.52,0,.37,.19,.46,.52,.46h.62Z"/>
        <path class="cls-3" d="M16.99,209.19c.93,0,1.88-.06,2.84-.06,.77,0,.83,.25,.83,1.11v1.08c0,1.08-.09,1.21-.87,1.21-.93,0-1.88-.06-2.81-.06h-4.66c-.93,0-1.88,.06-2.81,.06-.49,0-.86-.03-.86-.87v-1.42c0-.87,.06-1.11,.8-1.11,.96,0,1.91,.06,2.87,.06h4.66Zm-2.41,21.25c-.19,0-.34,.15-.34,.34v.49c0,.74-.31,.8-1.27,.8h-1.82c-.93,0-1.24-.06-1.24-.8,0-.83,.06-1.85,.06-2.84v-2.66c0-.8-.06-1.61-.06-2.38,0-1.24,.59-1.67,1.76-1.67,.74,0,1.51,.06,2.25,.06h1.76c.74,0,1.48-.03,2.22-.03,1.2,0,1.79,.4,1.79,1.67,0,.77-.06,1.54-.06,2.35v2.66c0,.96,.06,1.98,.06,2.84,0,.74-.34,.8-1.27,.8h-1.39c-1.02,0-1.33-.06-1.33-.8v-.49c0-.15-.09-.34-.34-.34h-.8Zm1.45-17.02c.87,0,1.73-.06,2.38-.06,.8,0,.86,.25,.86,.99v1.36c0,.8-.06,1.02-.86,1.02-.71,0-1.51-.06-2.38-.06h-2.41c-.83,0-1.64,.06-2.38,.06s-.86-.18-.86-.86v-1.48c0-.8,.12-1.02,.86-1.02s1.51,.06,2.38,.06h2.41Zm0,4.23c.87,0,1.73-.06,2.38-.06,.8,0,.86,.25,.86,.99v1.36c0,.8-.06,1.02-.86,1.02-.71,0-1.51-.06-2.38-.06h-2.41c-.83,0-1.64,.06-2.38,.06s-.86-.19-.86-.87v-1.51c0-.77,.12-.99,.86-.99s1.51,.06,2.38,.06h2.41Zm.06-12.72c.93,0,1.76-.06,2.38-.06,.8,0,.86,.25,.86,1.05v1.45c0,.87-.06,1.11-.86,1.11-.62,0-1.42-.06-2.38-.06h-2.41c-.96,0-1.73,.06-2.35,.06-.74,0-.9-.22-.9-.93v-1.73c0-.74,.12-.96,.9-.96,.65,0,1.42,.06,2.35,.06h2.41Zm-1.91,21.65c0,.43,.31,.74,.74,.74h.12c.43,0,.74-.34,.74-.74v-.83c0-.4-.31-.74-.74-.74h-.12c-.4,0-.74,.34-.74,.74v.83Zm15.9-15.94c0-.52-.4-.86-.87-.86h-3.58c-1.02,0-2.04,.09-3.06,.09-.68,0-.77-.34-.77-1.27v-2.07c0-.93,.06-1.3,.77-1.3,1.02,0,2.04,.09,3.06,.09h5.22c.8,0,1.58-.03,2.35-.03,1.05,0,1.39,.18,1.39,1.27,0,.99-.06,1.98-.06,2.93v4.54c0,1.54,.09,3.12,.09,4.69,0,.74-.28,.83-1.33,.83h-1.85c-1.05,0-1.14-.09-1.3-.4-.12-.34-.46-.34-.77-.34h-2.07c-.46,0-.86,.4-.86,.86v5.65c0,1.3,0,1.73,.96,1.73h3.06c.93,0,1.3-.34,1.61-2.99,.06-.65,.03-.99,.71-.99,1.17,0,3.55,.4,3.55,1.95,0,1.2-.62,3.37-1.11,4.48-.83,1.85-1.73,2.01-3.61,2.01h-6.02c-2.5,0-3.46-.8-3.46-3.34,0-.9,.03-1.76,.03-2.66v-7.6c0-.68-.03-1.36-.03-2.04,0-1.05,.37-1.2,1.36-1.2,.77,0,1.57,.03,2.35,.03h3.4c.46,0,.87-.4,.87-.87v-3.21Z"/>
      </g>
      <g>
        <path class="cls-1" d="M126.34,65.65c.08-.37,.02-1.29-.06-1.63-.03-.48-.06-.96-.08-1.44-.14-.65-.19-1.22-.3-1.88-.02-.14,.03-.5,.06-.64,0-.41,.02-.81,.03-1.22,.06-.26,.09-1.05,.03-1.36-.13-.58-.02-1.28-.17-1.88-.12-.48-.3-.88-.42-1.39-.05-.2,.02-.48,.06-.64,.09-.42,.11-1.23,0-1.63-.09-.35-.19-.73-.28-1.08-.05-.33-.09-.67-.14-1-.11-.37-.22-.74-.33-1.11-.08-.29-.05-.56-.14-.83-.17-.51-.58-.84-.78-1.33-.14-.35-.15-.74-.28-1.11-.1-.31-.23-.65-.33-.97-.06-.28-.11-.55-.17-.83-.18-.45-.35-.91-.53-1.36-.06-.26-.11-.52-.17-.78-.21-.64-.55-1.19-.8-1.77l-.44-1.33c-.14-.33-.39-.64-.53-.97-.09-.42-.18-.83-.28-1.25-.13-.3-.36-.56-.53-.83-.2-.32-.26-.72-.42-1.08-.2-.45-.52-.82-.72-1.27-.29-.66-.45-1.33-.8-1.91-.34-.55-.74-1.07-1.08-1.61-.31-.49-.58-.97-.91-1.41-.47-.62-1.26-.96-1.72-1.58-.51-.69-.89-1.47-1.36-2.22-.48-.77-1.01-1.55-1.55-2.27-.3-.4-.81-.74-1.11-1.14-.49-.65-1.01-1.23-1.66-1.72-.4-.3-.59-.84-1-1.14-.45-.32-1.06-.45-1.5-.78-.52-.39-.66-1.17-1.19-1.55-.5-.36-1.15-.55-1.63-.91-.26-.29-.52-.57-.78-.86-.33-.25-.83-.39-1.08-.72-.28-.37-.45-.83-.83-1.11-.21-.15-.44-.25-.67-.39-.29-.18-.56-.43-.86-.61-.31-.13-.63-.26-.94-.39-.38-.23-.66-.6-1.05-.8-.39-.2-.86-.21-1.19-.44-.22-.22-.44-.44-.67-.67-.36-.28-.74-.53-1.11-.8-.31-.23-.6-.5-.97-.67-.62-.27-1.27-.48-1.94-.67-.41-.12-.83-.1-1.19-.25-.57-.24-1.07-.63-1.58-.94-.34-.21-.73-.31-1.11-.47-.38-.17-.75-.41-1.14-.58-.59-.26-1.26-.43-1.88-.61-.39-.11-.8-.1-1.14-.25-.41-.18-.67-.56-1.11-.72-.19-.07-.61-.04-.8,0-.4,.08-.9-.02-1.19-.11-.43-.14-.83-.39-1.27-.53-.39-.12-.84-.05-1.19-.19-.52-.21-.93-.53-1.52-.69-.45-.13-1.06-.13-1.58-.14-.3,0-.59-.02-.89-.03-.64-.15-1.16-.37-1.75-.55-.46-.15-.97-.17-1.47-.28-.37-.08-1.14,0-1.44,.06-.23,0-.46,.02-.69,.03-.07,.01-.22,.05-.33,.03-.26-.04-.52-.07-.78-.11-.54-.15-1.02-.34-1.72-.33-.09,.06-.24,.02-.36,.06-.29,.08-.61,.11-1,.11h-.64c-.34,.07-1.24,.23-1.66,.14-.76-.17-1.81-.3-2.63-.11-.18,0-.37,.02-.55,.03-.2,.04-.45,.03-.67,.08-1,.26-2.18,.52-3.21,.78-.4,.02-.79,.04-1.19,.06-.33,.09-.67,.18-1,.28-.2,.05-.56,0-.72-.03-.37-.08-1.19-.12-1.58-.03-.68,.17-1.26,.43-1.88,.64-.41,.13-.92,.06-1.36,.19-.38,.11-.69,.35-1.05,.47-.37,.12-.87,.04-1.25,.17-.92,.3-1.58,.99-2.47,1.36-.44,.18-.97,.04-1.47,.17-.51,.13-.78,.51-1.22,.69-.53,.22-1.28,.14-1.8,.36-.38,.16-.56,.47-.86,.69-.32,.24-.63,.52-1.03,.69-.35,.15-.7,.21-1.05,.36-.38,.16-.71,.43-1.05,.64-.41,.18-.81,.35-1.22,.53-.42,.26-.82,.55-1.27,.78-.23,.12-.47,.15-.72,.25-.59,.24-1.17,.51-1.66,.86-.89,.63-1.6,1.48-2.47,2.13-.38,.29-.66,.74-1.05,1.03-.33,.25-.69,.47-1.05,.69-.25,.15-.52,.22-.75,.39-.44,.33-.62,.95-1.05,1.27-.93,.7-2.04,1.24-2.96,1.94-.32,.24-.86,.89-1.08,1.25-.24,.39-.35,.84-.61,1.19-.34,.45-.93,.71-1.27,1.16-.28,.37-.67,.66-.94,1.03-.41,.55-.78,1.12-1.19,1.66-.12,.11-.24,.22-.36,.33-.28,.28-.55,.55-.83,.83-.27,.21-.57,.47-.78,.75-.29,.39-.54,.8-.83,1.19-.27,.37-.59,.7-.83,1.11-.23,.39-.2,1-.44,1.39-.21,.33-.6,.52-.8,.86-.18,.31-.15,.78-.33,1.08-.2,.33-.57,.53-.78,.86-.2,.33-.22,.8-.42,1.14-.15,.26-.38,.48-.55,.72-.32,.44-.63,.9-.91,1.39-.3,.52-.26,1.33-.58,1.86-.29,.47-.71,.85-.94,1.39-.19,.44-.1,1.02-.25,1.52-.22,.73-.68,1.32-.97,2.02-.16,.39-.2,.84-.3,1.27-.02,.23-.04,.46-.06,.69-.15,.56-.46,.97-.67,1.47-.11,.27-.11,.54-.22,.8-.27,.66-.56,1.22-.75,2.02-.11,.47,.08,.95,0,1.47-.05,.35-.06,.77-.14,1.11-.02,.27-.04,.54-.06,.8-.09,.35-.21,.7-.3,1.03-.11,.38-.04,.81-.14,1.22-.13,.53-.26,1.01-.39,1.58-.04,.18,0,.5,.03,.64,0,.18,.02,.37,.03,.55,.08,.37,.18,1.27,.08,1.69-.29,1.29-.3,2.76-.58,4.05-.1,.45,.08,.91,.08,1.33,0,.62-.37,1.2-.22,1.86,.17,.73,.45,1.23,.61,1.97v.8c.11,.51,.02,1.11,.14,1.63v.47c.14,.62,.25,1.21,.39,1.83,.11,.51-.16,.98-.06,1.44,.1,.46,.3,.77,.42,1.19,.09,.32-.06,.75,.03,1.11,.1,.42,.35,.73,.47,1.14,.04,.42,.07,.83,.11,1.25,.09,.28,.18,.55,.28,.83,.11,.37,.08,.77,.22,1.11,.14,.34,.4,.64,.53,1,.17,.47,.04,1.13,.22,1.55,.24,.56,.64,1.02,.89,1.58,.14,.31,.16,.63,.28,.97,.12,.38,.3,.75,.44,1.11,.15,.37,.2,.75,.36,1.11,.26,.6,.71,1.08,.97,1.66,.21,.48,.09,1.27,.3,1.77,.22,.53,.63,.87,.94,1.3,.32,.45,.43,1.12,.75,1.58,.16,.23,.52,.63,.75,.8,.07,.05,.14,.07,.19,.14,.34,.45,.74,.86,1.05,1.36,.4,.64,.77,1.32,1.11,2,.13,.26,.18,.53,.33,.78,.28,.46,.63,.87,.91,1.33,.24,.39,.38,.8,.64,1.16,.43,.6,1.17,.95,1.69,1.47,.22,.22,.42,.47,.61,.72,.19,.25,.48,.45,.67,.72,.2,.29,.34,.61,.55,.89,.4,.53,1.12,.81,1.58,1.27,.41,.41,.7,1,1.05,1.47,.33,.43,.89,.67,1.33,1,.26,.26,.52,.52,.78,.78,.41,.31,.83,.6,1.25,.91,.65,.49,.93,1.4,1.58,1.88,.79,.6,1.83,.96,2.63,1.55,.76,.56,1.32,1.38,2.13,1.88,.37,.23,.85,.26,1.27,.44,.43,.18,.8,.49,1.19,.72,.16,.1,.32,.12,.5,.19,.39,.17,.81,.37,1.19,.58,.34,.18,.72,.38,1.03,.61,.25,.18,.43,.47,.69,.64,.42,.27,1.25,.17,1.69,.42,.37,.2,.66,.52,1.08,.69,.58,.24,1.24,.3,1.75,.61,.41,.25,.74,.6,1.22,.8,.58,.25,1.32,.25,1.88,.5,.44,.19,.82,.51,1.27,.69,.67,.27,1.55-.09,2.24,.14,.69,.23,1.13,.78,1.83,1,.78,.24,1.71-.15,2.49,.06,.69,.18,1.07,.63,1.72,.8,.43,.12,.9-.07,1.33,.03,.36,.08,.75,.14,1.14,.22,.27,0,.54,.02,.8,.03,.45,.11,.92,.2,1.39,.3,.38,.02,.76,.04,1.14,.06,.43,.1,.97,.08,1.5,.08h.64c.68,.15,1.44,0,2.16,0h.58c.4,.09,.81,.16,1.19,.25,.49,.11,1.02-.07,1.36-.17,.31-.05,.63-.09,.94-.14h1.03c.49-.02,.98-.04,1.47-.06h.83c.77-.18,1.28-.53,2.08-.72,.45-.11,1,.05,1.47-.06,1.09-.24,2.37,.11,3.44-.19,.59-.16,1.28-.29,1.83-.53,.38-.16,.7-.45,1.11-.58,.35-.12,.88,.03,1.25-.08,.44-.14,.75-.46,1.19-.61,.23-.08,.45-.04,.69-.11,.48-.13,.91-.32,1.36-.47,.3-.1,.57-.11,.83-.22,.39-.17,.66-.5,1.03-.69,.35-.18,.79-.22,1.16-.39,.21-.09,.44-.24,.64-.36,.31-.19,.67-.26,1.03-.42,.35-.15,.7-.4,1.05-.55,.51-.22,1.26-.14,1.77-.36,.74-.31,1.02-1.02,1.66-1.41,.29-.13,.57-.26,.86-.39,.29-.18,.61-.39,.94-.53,.58-.24,1.14-.3,1.63-.61,.38-.24,.95-.67,1.22-1.03,.11-.15,.24-.36,.39-.47,.49-.38,1.14-.55,1.63-.91l1.27-1.27c.71-.51,1.76-.66,2.47-1.16,.36-.26,.7-.64,.97-1,.12-.17,.32-.3,.44-.47,.13-.18,.27-.42,.44-.55,.37-.3,.91-.56,1.19-.94,.17-.23,.23-.52,.39-.78,.17-.27,.39-.53,.61-.75,.42-.42,.97-.75,1.33-1.22,.3-.4,.74-1.01,1.14-1.3,.26-.2,.72-.42,.91-.67,.27-.34,.4-.81,.67-1.16,.37-.5,1.06-.74,1.44-1.25,.28-.38,.43-.84,.69-1.25,.2-.32,.49-.61,.69-.94,.29-.47,.4-1.04,.69-1.5,.33-.53,.95-.78,1.27-1.3,.14-.3,.28-.61,.42-.91,.23-.38,.55-.7,.78-1.08,.21-.46,.42-.92,.64-1.39,.28-.45,.73-.82,.94-1.3,.23-.53,.21-1.25,.44-1.77,.29-.68,.85-1.12,1.22-1.72,.31-.51,.23-1.25,.47-1.83,.17-.39,.45-.74,.67-1.08,.34-.54,.66-1.13,.91-1.75,.27-.65,.21-1.51,.44-2.22,.19-.57,.46-1.1,.64-1.72,.09-.69,.18-1.39,.28-2.08,.2-.71,.48-1.33,.67-2.05,.2-.75-.28-1.39-.11-2.13,.17-.76,.53-1.24,.72-1.94,.03-.3,.06-.59,.08-.89,.08-.33,.21-.89,.11-1.33-.08-.37-.25-.94-.14-1.44,.2-.86,.38-1.6,.58-2.49ZM70.28,9.34c.39-.57,1.31-.38,2.08-.58,.16-.04,.37,0,.5-.08,.65,0,1,.18,1.47,.33,.48,.16,1,.22,1.44,.36,.71,.23,1.59,.21,2.3,.44,.98,.32,1.77,.87,2.69,1.25,.33,.13,.65,.17,.97,.3,.49,.2,.98,.47,1.5,.64,.43,.14,1.09,.02,1.5,.19,.36,.16,.6,.51,.97,.67,.31,.13,.75,.06,1.05,.19,.35,.15,.57,.5,.89,.69,.38,.23,.93,.24,1.3,.47,.66,.41,1.19,1,1.86,1.41,.52,.32,1.27,.42,1.77,.78,.42,.3,.68,.78,1.11,1.08,.5,.35,1.27,.44,1.77,.8,.18,.18,.35,.35,.53,.53,.34,.34,.72,.7,1.11,.97,.27,.19,.58,.35,.86,.53,.32,.2,.72,.29,.94,.58,.16,.21,.31,.42,.47,.64,.33,.32,.67,.65,1,.97,.35,.46,.67,1.01,1.14,1.36,.4,.3,.87,.51,1.27,.8,.32,.23,.57,.57,.89,.8,.19,.15,.44,.31,.58,.5,.26,.34,.49,.71,.75,1.05,.2,.26,.5,.45,.69,.72,.38,.54,.63,1.17,1.11,1.61,.65,.59,1,.8,1.33,1.75,.08,.22,.19,.67,.06,.94-.35,.68-1.43,.1-1.91-.06-.16-.03-.31-.06-.47-.08-.42-.12-.88-.24-1.3-.36-.34-.09-.69-.03-1.05-.11-.43-.1-.85-.22-1.25-.33-.31-.09-.62-.07-.91-.17-.41-.13-.76-.37-1.14-.53-.52-.21-1.06-.24-1.47-.53-.37-.26-.69-.59-1.08-.83-.63-.39-1.49-.44-2.22-.75-.45-.19-.8-.53-1.25-.72-.3-.08-.61-.17-.91-.25-.46-.19-.76-.6-1.22-.8-.84-.36-1.9-.35-2.63-.8-.45-.28-.69-.78-1.14-1.05-.37-.23-.88-.23-1.22-.47-.47-.34-.77-.88-1.27-1.19-.42-.26-1.08-.26-1.55-.47-.54-.23-.89-.7-1.33-1.03-.4-.29-.87-.51-1.27-.8-.25-.18-.44-.45-.69-.64-.41-.3-.83-.56-1.22-.86-.05-.06-.09-.13-.14-.19-.29-.32-.58-.66-.89-.97-.54-.55-1.22-1-1.86-1.44-.6-.42-1.23-.77-1.83-1.19-.45-.31-.87-.67-1.3-1-.37-.28-.74-.91-1.03-1.3-.07-.1-.13-.23-.22-.3-.45-.35-.99-.59-1.39-1-.4-.42-1.27-1.65-.72-2.47ZM19.07,30.23c.1-.27,.11-.55,.25-.78,.2-.33,.51-.57,.78-.83,.24-.24,.43-.51,.64-.78,.18-.18,.35-.35,.53-.53,.32-.42,.62-.84,.94-1.27,.11-.11,.22-.22,.33-.33,.09-.11,.16-.25,.28-.33,.64-.48,1.29-.95,1.94-1.44,.39-.29,.67-.73,1.05-1.03,.37-.28,.92-.64,1.19-1,.23-.31,.46-.92,.75-1.14,.3-.23,.72-.33,1.03-.55,.28-.21,.38-.65,.67-.86,.3-.22,.73-.29,1.05-.5,.39-.26,.64-.71,1.05-.97,.17-.1,.34-.14,.53-.22,.52-.23,1.08-.48,1.55-.78,.52-.33,.87-.85,1.39-1.16,.47-.29,1.17-.3,1.63-.58,.49-.3,.8-.79,1.27-1.08,.56-.34,1.33-.45,1.94-.72,.73-.32,1.26-.89,1.97-1.19,.26-.11,.56-.08,.86-.17,.44-.15,.89-.3,1.33-.44,.55-.17,1.12-.13,1.61-.33,.48-.2,.89-.49,1.3-.75,.28-.17,.6-.23,.91-.36,.35-.15,.73-.33,1.11-.44,.35-.05,.7-.09,1.05-.14,.41-.11,.81-.22,1.22-.33,.42-.03,.85-.06,1.27-.08,.47-.12,.9-.28,1.3-.44,.2-.08,.48-.06,.67-.17,.98,0,2.44,.27,2.08,1.39-.23,.69-.91,.97-1.3,1.5-.19,.25-.39,.47-.58,.72-.18,.18-.35,.35-.53,.53-.25,.34-.46,.71-.72,1.05-.26,.26-.52,.52-.78,.78-.27,.36-.55,.76-.91,1.03-.28,.2-.56,.38-.83,.58-.31,.23-.49,.62-.83,.83-.25,.15-.52,.21-.8,.33-.41,.18-.82,.41-1.16,.67-.37,.27-.7,.65-1.03,.97-.08,.09-.17,.18-.25,.28-.37,.28-.83,.44-1.22,.72-.3,.21-.5,.56-.8,.78-.35,.25-.84,.33-1.19,.58-.71,.51-1.2,1.4-1.97,1.88-.4,.25-.9,.22-1.36,.42-.45,.19-.68,.62-1.08,.86-.45,.28-1.14,.28-1.63,.5-.74,.32-1.07,1.15-1.86,1.5-.42,.19-.88,.28-1.3,.47-.28,.13-.55,.37-.83,.5-.4,.14-.79,.28-1.19,.42-.34,.15-.67,.38-1.03,.53-.76,.31-1.7,.33-2.44,.64-1.51,.63-2.85,1.55-4.35,2.19-.39,.16-.83,.23-1.27,.33-.34,.08-.67,0-.97,.11-.38,.13-.67,.38-1,.55-.57,.3-2.18,.6-2.6-.03-.4-.59,.18-1.37,.36-1.86Zm99.59,30.92c0,.16-.02,.31-.03,.47-.11,.47-.14,1.01-.25,1.5,0,.56,.02,1.13,.03,1.69,.02,.08,.05,.27,.03,.39-.21,.94-.23,2.01-.47,2.94-.16,.63-.02,1.46,.11,2.02,0,.18,.02,.35,.03,.53,.04,.18,.08,.58,.03,.8-.14,.62-.38,.97-.53,1.5-.1,.37,.03,.9-.08,1.25-.16,.49-.51,.84-.67,1.36-.23,.75,0,1.78-.25,2.52-.19,.57-.64,.92-.86,1.44-.21,.5-.16,1.15-.33,1.72-.19,.62-.62,1.02-.86,1.61-.21,.52-.2,1.16-.42,1.66-.27,.61-.8,1.03-1.08,1.66-.44,1-.79,1.99-1.22,2.96-.22,.49-.62,.86-.83,1.36-.13,.3-.11,.64-.22,.97-.16,.5-.4,.97-.67,1.39-.18,.29-.45,.65-.72,.86-.17,.13-.4,.25-.53,.42-.26,.34-.44,.75-.69,1.11-.19,.26-.48,.46-.67,.72-.46,.64-.71,1.47-1.16,2.11-.64,.91-1.5,1.58-2.38,2.24-.22,.17-.44,.44-.61,.67-.49,.48-.98,.96-1.47,1.44-1,.71-2.89,.1-3.74-.42-.23-.14-.49-.33-.75-.44-.41-.18-.83-.28-1.19-.5-.19-.12-.39-.27-.58-.39-.38-.23-.81-.33-1.16-.58-.31-.22-.56-.54-.89-.75-.29-.18-.61-.28-.89-.47-.6-.42-.91-1.19-1.5-1.63-.56-.42-1.41-.74-1.75-1.39-.13-.26-.09-.52-.17-.86-.05-.22-.15-.61-.08-.89,.15-.64,.64-.91,.94-1.39,.47-.75,.79-1.58,1.3-2.27,.35-.47,1.04-.63,1.39-1.11,.24-.33,.32-.79,.55-1.11,.44-.59,1.23-.82,1.55-1.61,.18-.43,.09-1.01,.22-1.5,.12-.46,.22-.95,.33-1.44,.13-.57-.16-1.1-.28-1.47-.13-.4-.16-.81-.36-1.14-.29-.47-.73-.79-1.05-1.22-.4-.53-.93-1.03-1.58-1.3-.23-.1-.5-.14-.75-.19-.62-.15-1.43,.02-1.88,.17-1.45,.47-2.03,1.11-2.96,2.05-.34,.34-.8,.62-1.08,1.03-.17,.24-.21,.52-.33,.8-.11,.27-.3,.52-.47,.75-.13,.17-.33,.32-.5,.44-.26,.2-.48,.47-.75,.67-.44,.32-.95,.62-1.27,1.05-.27,.36-.6,.67-.86,1.03-.27,.37-.54,.84-1.05,.97-.35,.09-.73-.06-.94-.14-.57-.21-.93-.45-1.36-.78-.18-.18-.35-.37-.53-.55-.41-.31-1-.74-1.3-1.14-.46-.61-.84-1.3-1.3-1.91-.3-.4-.8-.69-1.22-.97-.32-.21-1.25-.84-1.83-.72-.35,.07-.67,.17-1,.25-.54,.12-1.08-.2-1.52,.03-.27,.14-.46,.42-.72,.58-.35,.22-.84,.26-1.16,.5-.28,.2-.4,.59-.58,.89-.25,.4-.55,.73-.8,1.14-.23,.37-.67,1.29-.5,2.02,.12,.5,.34,.9,.47,1.39,.02,.17,.04,.33,.06,.5,.1,.41,.19,.8,.39,1.11,.32,.49,.9,.73,1.36,1.08,.24,.18,.38,.5,.55,.75,.17,.24,.37,.48,.55,.72,.53,.7,1.41,1.05,2.02,1.66,.24,.25,.4,.58,.61,.86,.26,.35,.66,.59,.91,.94,.23,.31,.52,.83,.8,1.05,.25,.2,.5,.41,.78,.58,.24,.14,.49,.21,.72,.36,.59,.37,1.16,.83,1.72,1.25,.32,.34,.65,.68,.97,1.03,.31,.23,.71,.44,.94,.75,.28,.37,.61,.75,1,1.03,.68,.48,1.53,.76,2.19,1.25,.41,.3,.71,.75,1.11,1.05,.35,.26,.79,.54,1.05,.89,.2,.27,.54,.66,.8,.86,.48,.36,1.02,.66,1.5,1.03,.13,.1,.23,.28,.33,.42,.2,.27,.54,.54,.83,.72,.41,.25,.96,.27,1.44,.47,.64,.27,1.44,1.02,1.61,1.75,.07,.3-.04,.62-.11,.8-.25,.68-.68,1.19-1.33,1.47-.39,.16-.9,.14-1.27,.33-.38,.2-.64,.55-1.05,.72-.32,.13-.7,.1-1,.25-.35,.17-.61,.48-.97,.64-.34,.14-.76,.12-1.11,.25-.26,.1-.52,.26-.78,.36-.36,.1-.72,.2-1.08,.3-.34,.15-.63,.41-.97,.55-.47,.2-1.19,.07-1.63,.25-.58,.24-1.08,.61-1.72,.8-.26,.04-.52,.07-.78,.11-.51,.13-1.05,.21-1.58,.33-.25,.03-.5,.06-.75,.08-.61,.16-1.16,.38-1.77,.53-.76,.18-1.32-.38-2.11-.19-.54,.13-1,.32-1.55,.44-.46,.11-.99-.12-1.44,0-.41,.11-.83,.29-1.22,.42-.41,.13-.85,.12-1.3,.22-.25,.06-.7,.02-.91-.03-.28,0-.55-.02-.83-.03-.46-.1-.97-.14-1.39-.25-.31-.04-.63-.07-.94-.11h-.47c-.54-.12-1.05-.21-1.58-.33-.43-.1-1.16,.02-1.55,.11-.14,.03-.38,.09-.55,.06-.54-.06-1.07-.11-1.61-.17-.41-.1-.79-.27-1.16-.39-1-.32-2.26,.27-2.52-.86-.05-.23,.09-.46,.17-.58,.28-.48,.65-.78,1.11-1.08,.37-.24,.85-.51,1.11-.86,.28-.36,.57-.73,.89-1.05,.49-.49,1.07-.88,1.44-1.5,.26-.42,.29-1,.42-1.55,.05-.23,0-.49,.06-.69,0-.22,.02-.44,.03-.67,.16-.68,.46-2.14,.25-2.91-.13-.49-.41-.81-.64-1.19-.18-.41-.37-.81-.55-1.22-.39-.64-.97-1.13-1.41-1.72-.19-.25-.41-.47-.58-.72-.18-.25-.3-.55-.55-.72-.3-.2-.75-.15-1.11-.3-.47-.19-.78-.59-1.27-.78-.46-.17-1-.11-1.5-.25-.37-.1-.73-.28-1.08-.39-.77-.24-1.98,.21-2.66,.36-.2,0-.41,.02-.61,.03-.39,.09-.78,.15-1.08,.33-.54,.34-.76,1.02-1.3,1.36-.66,.42-1.53,.57-1.97,1.22-.41,.62-.48,1.58-.83,2.24-.28,.52-.8,.85-.97,1.47-.1,.36,.08,.73,0,1.11-.15,.67-.11,1.45,.03,2.11,.08,.37-.03,.72,.06,1.05,.14,.53,.37,1.01,.5,1.55,.16,.64-.31,1.09-.94,.94-.71-.17-1.27-.51-1.77-.89-.3-.23-.53-.55-.86-.75-.3-.18-.65-.24-1-.39-.32-.14-.68-.31-.97-.5-.29-.19-.55-.46-.83-.67-.3-.22-.62-.39-.91-.61-.31-.23-.55-.54-.89-.75-.23-.14-.48-.16-.75-.25-.37-.12-.75-.31-1.05-.53-.39-.28-.69-.69-1.03-1.03-.27-.27-.6-.5-.83-.8-.3-.4-.51-.87-.86-1.22-.38-.39-.79-.75-1.22-1.08-.27-.21-.49-.51-.78-.72-.34-.25-.88-.41-1.14-.75-.21-.28-.32-.63-.53-.91-.28-.38-.83-.51-1.11-.89-.17-.22-.28-.46-.44-.69-.19-.27-.47-.49-.67-.75-.21-.28-.37-.58-.58-.86-.32-.43-.9-.64-1.22-1.08-.18-.25-.29-.55-.47-.8-.17-.25-.43-.45-.61-.69-.25-.33-.42-.71-.67-1.05-.18-.26-.42-.5-.58-.78-.32-.53-.29-1.37-.61-1.88-.34-.55-.99-.81-1.33-1.36-.15-.24-.21-.51-.33-.78-.15-.35-.4-.67-.53-1.05-.2-.6-.24-1.24-.47-1.77-.32-.74-.88-1.29-1.27-1.94-.27-.44-.21-1.14-.42-1.63-.25-.6-.68-1.08-.89-1.72-.22-.66,.07-1.65-.11-2.38-.25-1.02-.69-1.82-1-2.74-.15-.45-.04-1.12-.22-1.55-.08-.2-.23-.38-.33-.55-.17-.29-.27-.64-.36-1-.1-.39,0-.8-.08-1.22-.16-.73-.18-1.43-.33-2.19-.09-.45,.25-1.01,.14-1.5-.08-.36-.22-.67-.3-1.03-.1-.42,.09-.86,.17-1.16,.05-.21,.04-.44,.08-.64,.1-.44-.09-.96-.17-1.3-.11-.46,.08-1.06-.03-1.55-.09-.39-.3-1.41-.19-1.88,.12-.51,.33-.89,.44-1.39v-1.3c.09-.38,.16-.79,.25-1.19,.12-.54-.02-1.11,.11-1.61,.14-.53,.35-.95,.47-1.5,.04-.16,0-.44-.03-.55-.08-.36-.06-1.09,.03-1.41,.22-.8,.71-1.34,.94-2.11,.11-.34-.04-.79,.06-1.19,.08-.37,.16-.71,.33-1,.34-.56,.71-1.58,1.25-1.91,.46-.29,1.07-.31,1.69-.44,.31-.02,.63-.04,.94-.06,.91-.22,1.66-.51,2.52-.75,.56-.16,1.25-.05,1.83-.19,.28-.07,.6-.14,.83-.28,.42-.25,.79-.58,1.3-.75,.61-.2,1.46,.06,2.08-.11,.62-.18,1.24-.37,1.86-.55,.47-.2,.84-.57,1.36-.75,.96-.33,2.25-.21,3.16-.58,.64-.26,1.24-.62,1.86-.89,.33-.14,.65-.23,.94-.42,.38-.23,.74-.51,1.16-.69,.55-.23,1.15-.31,1.72-.5,1.01-.34,1.94-.72,2.88-1.14,.48-.22,.8-.67,1.27-.89,.58-.27,1.36-.27,1.94-.53,.43-.19,.83-.48,1.22-.72,.27-.17,.59-.22,.86-.39,.34-.21,.66-.46,1-.67,.24-.15,.51-.21,.75-.36,.51-.33,.77-.94,1.27-1.27,.2-.14,.43-.2,.64-.33,.33-.2,.64-.46,.97-.67,.25-.15,.53-.23,.78-.39,.36-.23,.67-.55,1.03-.78,.36-.23,.76-.37,1.11-.61,.39-.28,.72-.66,1.11-.94,.44-.33,.94-.58,1.39-.91,.26-.19,.46-.48,.72-.67,.37-.26,.88-.37,1.25-.64l.86-.86c.27-.19,.57-.33,.83-.53,.33-.25,.57-.62,.91-.86,.49-.35,1-.64,1.47-1,.6-.45,1.05-1.09,1.69-1.5,.57-.36,1.33-.6,1.97-.86,.26-.07,.52-.15,.78-.22,.36,0,.69,0,.97,.08,1.82,.59,2.56,2.46,3.96,3.49,.44,.33,.82,.7,1.25,1.03l.5,.5c.36,.27,.75,.48,1.11,.75,.24,.24,.48,.48,.72,.72,.55,.39,1.4,.46,1.94,.86,.4,.3,.57,.87,.97,1.16,.46,.34,1.13,.41,1.63,.72,.43,.26,.71,.66,1.11,.94,.31,.16,.63,.31,.94,.47,.39,.27,.56,.8,.94,1.08,.25,.19,.55,.27,.83,.44,.21,.13,.43,.29,.64,.42,.4,.24,.95,.28,1.36,.53,.35,.21,.63,.53,1.03,.69,.35,.15,.78,.12,1.08,.3,.34,.21,.57,.55,.89,.78,.27,.2,.56,.33,.83,.53,.28,.2,.56,.43,.86,.61,.24,.15,.51,.18,.8,.28,.48,.16,.97,.33,1.5,.47,.47,.13,.91,.11,1.3,.28,.44,.19,.85,.5,1.25,.75,.39,.24,.83,.36,1.27,.55,.38,.17,.76,.42,1.14,.58,.61,.27,1.29,.45,1.94,.64,.38,.11,.75,.11,1.08,.25,.39,.17,.63,.56,1.03,.72,.51,.21,1.34-.04,1.88,.14,.52,.17,.95,.47,1.47,.64,.39,.13,.82,.1,1.16,.25,.48,.21,.86,.57,1.41,.75,.74,.24,1.7,.11,2.49,.33,.78,.22,1.42,.6,2.19,.86,.51,.17,1.06,.18,1.63,.3,.53,0,1.05,.02,1.58,.03,.63,.14,1.14,.33,1.69,.5,.53,.16,.99,.05,1.27,.44,.1,.14,.13,.29,.22,.44,.2,.32,.47,.63,.58,1.03,.11,.39-.09,.86,0,1.25,.15,.66,.2,1.22,.39,1.8,.14,.42,.24,.93,.42,1.36,.13,.32,.32,.64,.42,1,.02,.4,.04,.79,.06,1.19,.13,.54,.3,1.01,.44,1.55,.2,.78,.13,1.66,.3,2.44,.02,.23,.04,.46,.06,.69,.05,.21,.05,.47,.11,.69,.14,.48,.29,.95,.42,1.47,.08,.35,.04,.87-.03,1.19Z"/>
        <path class="cls-1" d="M88.93,52.01c-.11-.45,.14-.87,.03-1.36-.1-.42-.29-.75-.39-1.19,0-.33,.02-.67,.03-1-.1-.44-.27-.8-.39-1.22-.06-.34-.11-.68-.17-1.03-.12-.36-.3-.73-.44-1.08-.1-.24-.1-.47-.19-.72-.16-.44-.4-.86-.58-1.27-.11-.25-.17-.5-.3-.72-.26-.42-.7-.68-.97-1.08-.26-.39-.35-.92-.61-1.3-.16-.24-.39-.44-.55-.67-.27-.36-.53-.78-.89-1.05-.25-.19-.52-.37-.75-.58-.23-.22-.49-.48-.67-.75-.16-.25-.27-.58-.5-.75-.34-.26-.82-.38-1.16-.64-.37-.28-.59-.75-.97-1.03-.61-.44-1.53-.51-2.19-.91-.43-.26-.79-.62-1.22-.89-.27-.17-.59-.22-.86-.39-.32-.19-.6-.45-.91-.64-.37-.23-.86-.28-1.3-.44-.45-.17-.89-.4-1.36-.55-.54-.18-1.17-.08-1.77-.22-1.54-.37-3.31-.44-4.88-.8-.37-.08-.87,.02-1.14,.08-.5,.12-1.04,.03-1.58,.03-.3,0-.61,.02-.91,.03-.63-.14-1.11-.31-1.88-.3-.14,.09-.6,.14-.78,.22-.27,.12-.53,.3-.8,.42-.58,.24-1.26,.3-1.91,.44-.45,.1-.86-.13-1.27-.03-.49,.13-.8,.46-1.25,.64-.4,.16-.85,.15-1.19,.36-.54,.33-1.04,.72-1.58,1.05-.88,.54-1.81,.96-2.66,1.52-.59,.39-1.08,.92-1.66,1.33-.45,.32-.94,.57-1.39,.89-.33,.23-.6,.56-.91,.8-.19,.14-.41,.31-.55,.5-.22,.29-.44,.59-.64,.91-.19,.32-.25,.69-.44,1-.38,.62-1.02,1.02-1.41,1.63-.23,.36-.3,.85-.53,1.22-.28,.46-.66,.85-.94,1.33-.08,.14-.1,.29-.17,.44-.2,.46-.39,.98-.61,1.41-.15,.29-.27,.61-.36,.94-.09,.32-.06,.62-.17,.91-.19,.42-.39,.83-.58,1.25-.27,.66-.38,1.34-.55,2.11-.17,.75,.48,1.53,.67,2,.23,.57,.17,1.36,.42,1.91,.35,.8,.98,1.23,1.63,1.72,.43,.33,.69,.88,1.14,1.19,.31,.22,.71,.32,1.14,.42,.15,.04,.38,0,.5,.03h.94c.19,.04,.41,.03,.61,.08,.31,.08,.76,.27,1.19,.17,.38-.12,.76-.24,1.14-.36,.34-.09,.67-.05,.97-.17,.39-.16,.69-.43,1.03-.64,.26-.16,.55-.25,.8-.42,.34-.23,.59-.58,.83-.91,.21-.29,.47-.57,.67-.89,.34-.54,.59-1.35,.8-2,.21-.65,.22-1.4,.47-2.02,.23-.56,.55-1.04,.89-1.5,.67-.9,1.57-1.63,2.24-2.52,.55-.73,1.09-1.51,2-1.88,.31-.13,.64-.13,1-.22,.43-.1,.87-.2,1.3-.3,.33-.02,.67-.04,1-.06,.42-.1,.76-.29,1.16-.39,.3-.07,.67,.03,.89,.08,.27,.06,.68,.06,1,.03,.38-.03,.95-.13,1.36-.03,.47,.12,.83,.37,1.27,.5,.66,.2,1.65-.02,2.3,.19,.4,.13,.82,.3,1.14,.53,.19,.14,.36,.34,.55,.47,.42,.29,.93,.47,1.33,.78,.21,.16,.34,.44,.5,.67,.33,.47,.66,.92,.97,1.41,.33,.52,.85,.93,1.05,1.55,.04,.37,.07,.74,.11,1.11,.08,.33,.14,.7,.22,1.05,.02,.27,.04,.54,.06,.8,.07,.31,.24,.79,.14,1.22-.11,.38-.22,.76-.33,1.14-.18,.66-.03,1.52-.28,2.08-.1,.24-.28,.47-.42,.69-.18,.3-.29,.61-.5,.89-.28,.38-.8,.57-1.08,.94-.55,.73-1.13,1.47-1.91,1.97-.4,.25-.93,.33-1.33,.58-.24,.15-.44,.39-.67,.55-.31,.23-.67,.43-1.05,.58-.28,.11-.55,.11-.86,.19-.65,.18-1.33,.33-1.94,.58-.76,.32-1.29,.93-2.02,1.25-.5,.22-1.16,.25-1.66,.47-.64,.28-1.23,.78-1.77,1.19-.21,.16-.4,.38-.64,.53-.52,.32-1.2,.41-1.69,.75-.54,.38-.92,.96-1.39,1.41-.39,.39-1.03,.7-1.36,1.14-.39,.52-.77,1.06-1.16,1.58-.34,.45-.85,.79-1.19,1.25-.11,.1-.22,.2-.33,.3-.34,.45-.49,1.03-.8,1.52-.34,.53-.79,.99-1.05,1.61-.19,.45-.23,.97-.47,1.36-.14,.23-.35,.45-.5,.67-.24,.35-.38,.75-.61,1.11-.45,.71-.92,1.38-1.22,2.27-.13,.38-.13,.81-.22,1.22,0,.15-.02,.3-.03,.44-.14,.55-.32,1.07-.47,1.61-.13,.47-.05,.96-.17,1.47-.16,.74-.23,1.83,0,2.52,.11,.34,.32,.65,.47,.94,.26,.5,.46,1.02,.78,1.47,.13,.19,.34,.34,.47,.53,.32,.42,.64,.9,1.08,1.19,.31,.21,.71,.34,1.11,.44,.28,.07,.52,.05,.78,.14,.68,.22,1.22,.59,2,.78,.56,.13,1.02-.17,1.39-.28,.4-.12,.99,.01,1.36-.14,.57-.23,.93-.76,1.41-1.08,.37-.25,.86-.35,1.22-.61,.3-.22,.42-.61,.64-.91,.31-.43,.85-.64,1.14-1.11,.32-.51,.46-1.33,.61-2v-.44c.12-.55,.05-1.03,.25-1.5,.17-.41,.49-.76,.67-1.16,.16-.37,.25-.73,.47-1.03,.2-.28,.51-.48,.69-.78,.21-.35,.3-.76,.53-1.08,.25-.25,.5-.5,.75-.75,.47-.65,.75-1.49,1.39-1.97,.47-.35,.99-.72,1.55-.97,.32-.14,.65-.19,.97-.33,.46-.2,.8-.58,1.27-.78,.31-.13,.64-.14,.97-.25,.76-.25,1.58-.55,2.3-.86,.27-.12,.53-.18,.78-.33,.35-.21,.72-.45,1.08-.64,.36-.19,.73-.3,1.05-.53,.5-.35,.9-.84,1.44-1.16,.39-.24,.94-.28,1.33-.53,.53-.33,.84-.91,1.33-1.27,.21-.16,.47-.31,.72-.42,.26-.11,.52-.14,.75-.28,.33-.2,.54-.53,.83-.75,.29-.22,.57-.44,.86-.67,.41-.31,.75-.82,1.05-1.25,.47-.66,1-1.3,1.44-2,.26-.41,.41-.87,.67-1.27,.38-.59,.98-.97,1.36-1.58,.29-.47,.54-1.09,.72-1.63,.09-.26,.09-.5,.19-.75,.3-.7,.87-1.17,1.08-1.97,.08-.28,.03-.69-.03-.94-.07-.34-.03-.92,.06-1.22,.24-.86,.56-1.58,.78-2.49,.02-.32,.04-.65,.06-.97,.1-.44,.28-1.21,.17-1.72-.12-.5-.28-.96-.39-1.44Z"/>
      </g>
    </g>
  </g>
</svg>